ply
format ascii 1.0
comment Created by Blender 2.83.0 - www.blender.org, source file: ''
element vertex 416
property float x
property float y
property float z
property float nx
property float ny
property float nz
property float s
property float t
element face 97
property list uchar uint vertex_indices
end_header
0.027177 0.000782 -0.136628 -0.202508 0.714323 0.669876 0.209351 0.977707
0.026552 -0.002342 -0.133485 -0.202508 0.714323 0.669876 0.208252 0.973083
0.052093 -0.002342 -0.125764 -0.202508 0.714323 0.669876 0.236084 0.965088
0.053320 0.000782 -0.128725 -0.202508 0.714323 0.669876 0.237671 0.969559
0.053320 0.000782 -0.128725 -0.330476 0.714324 0.616868 0.237671 0.969559
0.052093 -0.002342 -0.125764 -0.330476 0.714324 0.616868 0.235840 0.965240
0.075613 -0.002342 -0.113163 -0.330476 0.714324 0.616868 0.261475 0.952148
0.077394 0.000782 -0.115828 -0.330476 0.714324 0.616868 0.263916 0.956238
0.077394 0.000782 -0.115828 -0.443424 0.714363 0.541351 0.263916 0.956238
0.075613 -0.002342 -0.113163 -0.443424 0.714363 0.541351 0.261230 0.952362
0.096256 -0.002342 -0.096255 -0.443424 0.714363 0.541351 0.283936 0.934753
0.098522 0.000782 -0.098521 -0.443424 0.714363 0.541351 0.286865 0.938232
0.098522 0.000782 -0.098521 -0.541349 0.714363 0.443426 0.286865 0.938232
0.096256 -0.002342 -0.096255 -0.541349 0.714363 0.443426 0.283691 0.934998
0.113164 -0.002342 -0.075613 -0.541349 0.714363 0.443426 0.302246 0.913452
0.115828 0.000782 -0.077393 -0.541349 0.714363 0.443426 0.305908 0.916260
0.115828 0.000782 -0.077393 -0.616867 0.714324 0.330479 0.305908 0.916260
0.113164 -0.002342 -0.075613 -0.616867 0.714324 0.330479 0.302002 0.913757
0.125765 -0.002342 -0.052093 -0.616867 0.714324 0.330479 0.315918 0.889099
0.128725 0.000782 -0.053319 -0.616867 0.714324 0.330479 0.320068 0.891113
0.128725 0.000782 -0.053319 -0.669873 0.714325 0.202511 0.320068 0.891113
0.125765 -0.002342 -0.052093 -0.669873 0.714325 0.202511 0.315918 0.889465
0.133486 -0.002343 -0.026552 -0.669873 0.714325 0.202511 0.324463 0.862671
0.136629 0.000782 -0.027177 -0.669873 0.714325 0.202511 0.328857 0.863770
0.136629 0.000782 -0.027177 -0.696340 0.714364 0.069246 0.328857 0.863770
0.133486 -0.002343 -0.026552 -0.696340 0.714364 0.069246 0.324463 0.863037
0.136126 -0.002343 0.000000 -0.696340 0.714364 0.069246 0.327393 0.835205
0.139331 0.000782 0.000000 -0.696340 0.714364 0.069246 0.332031 0.835327
0.139331 0.000782 0.000000 -0.696341 0.714364 -0.069242 0.332031 0.835327
0.136126 -0.002343 0.000000 -0.696341 0.714364 -0.069242 0.327393 0.835571
0.133486 -0.002343 0.026552 -0.696341 0.714364 -0.069242 0.324463 0.807739
0.136629 0.000781 0.027178 -0.696341 0.714364 -0.069242 0.328857 0.806885
0.128725 0.000781 0.053320 -0.616867 0.714326 -0.330475 0.320068 0.779663
0.125765 -0.002343 0.052094 -0.616867 0.714326 -0.330475 0.315918 0.781616
0.113164 -0.002343 0.075614 -0.616867 0.714326 -0.330475 0.302002 0.757080
0.115828 0.000781 0.077394 -0.616867 0.714326 -0.330475 0.305908 0.754517
0.115828 0.000781 0.077394 -0.541350 0.714365 -0.443422 0.305908 0.754517
0.113164 -0.002343 0.075614 -0.541350 0.714365 -0.443422 0.302246 0.757324
0.096256 -0.002343 0.096256 -0.541350 0.714365 -0.443422 0.283691 0.735840
0.098522 0.000781 0.098522 -0.541350 0.714365 -0.443422 0.287109 0.732666
0.098522 0.000781 0.098522 -0.443424 0.714366 -0.541347 0.287109 0.732666
0.096256 -0.002343 0.096256 -0.443424 0.714366 -0.541347 0.283936 0.736084
0.075613 -0.002343 0.113164 -0.443424 0.714366 -0.541347 0.261230 0.718506
0.077394 0.000781 0.115829 -0.443424 0.714366 -0.541347 0.263916 0.714600
0.077394 0.000781 0.115829 -0.330477 0.714326 -0.616865 0.263916 0.714600
0.075613 -0.002343 0.113164 -0.330477 0.714326 -0.616865 0.261719 0.718750
0.052093 -0.002343 0.125765 -0.330477 0.714326 -0.616865 0.236084 0.705566
0.053320 0.000781 0.128725 -0.330477 0.714326 -0.616865 0.237915 0.701416
0.053320 0.000781 0.128725 -0.202508 0.714326 -0.669872 0.237915 0.701416
0.052093 -0.002343 0.125765 -0.202508 0.714326 -0.669872 0.236328 0.705811
0.026552 -0.002343 0.133486 -0.202508 0.714326 -0.669872 0.208618 0.697754
0.027177 0.000781 0.136629 -0.202508 0.714326 -0.669872 0.209717 0.693115
0.027177 0.000781 0.136629 -0.069244 0.714366 -0.696338 0.209717 0.693115
0.026552 -0.002343 0.133486 -0.069244 0.714366 -0.696338 0.208984 0.697754
-0.000000 -0.002343 0.136126 -0.069244 0.714366 -0.696338 0.180054 0.695068
-0.000000 0.000781 0.139331 -0.069244 0.714366 -0.696338 0.180298 0.690186
-0.000000 0.000781 0.139331 0.069244 0.714366 -0.696338 0.180298 0.690186
-0.000000 -0.002343 0.136126 0.069244 0.714366 -0.696338 0.180420 0.695068
-0.026552 -0.002343 0.133486 0.069244 0.714366 -0.696338 0.151611 0.697754
-0.027177 0.000781 0.136629 0.069244 0.714366 -0.696338 0.150879 0.693115
-0.027177 0.000781 0.136629 0.202509 0.714326 -0.669871 0.150879 0.693115
-0.026552 -0.002343 0.133486 0.202509 0.714326 -0.669871 0.151855 0.697754
-0.052094 -0.002343 0.125765 0.202509 0.714326 -0.669871 0.124146 0.705566
-0.053320 0.000781 0.128725 0.202509 0.714326 -0.669871 0.122559 0.701172
-0.053320 0.000781 0.128725 0.330478 0.714326 -0.616865 0.122559 0.701172
-0.052094 -0.002343 0.125765 0.330478 0.714326 -0.616865 0.124451 0.705566
-0.075614 -0.002343 0.113164 0.330478 0.714326 -0.616865 0.098755 0.718506
-0.077394 0.000781 0.115828 0.330478 0.714326 -0.616865 0.096375 0.714600
-0.077394 0.000781 0.115828 0.443425 0.714366 -0.541347 0.096375 0.714600
-0.075614 -0.002343 0.113164 0.443425 0.714366 -0.541347 0.099060 0.718262
-0.096256 -0.002343 0.096256 0.443425 0.714366 -0.541347 0.076477 0.735840
-0.098522 0.000781 0.098522 0.443425 0.714366 -0.541347 0.073364 0.732422
-0.098522 0.000781 0.098522 0.541350 0.714365 -0.443422 0.073364 0.732422
-0.096256 -0.002343 0.096256 0.541350 0.714365 -0.443422 0.076660 0.735596
-0.113164 -0.002343 0.075614 0.541350 0.714365 -0.443422 0.058044 0.757080
-0.115828 0.000781 0.077394 0.541350 0.714365 -0.443422 0.054352 0.754272
-0.115828 0.000781 0.077394 0.616868 0.714325 -0.330474 0.054352 0.754272
-0.113164 -0.002343 0.075614 0.616868 0.714325 -0.330474 0.058228 0.756836
-0.125765 -0.002343 0.052094 0.616868 0.714325 -0.330474 0.044250 0.781372
-0.128725 0.000781 0.053320 0.616868 0.714325 -0.330474 0.040100 0.779297
-0.128725 0.000781 0.053320 0.669874 0.714325 -0.202506 0.040100 0.779297
-0.125765 -0.002343 0.052094 0.669874 0.714325 -0.202506 0.044373 0.781006
-0.133486 -0.002343 0.026552 0.669874 0.714325 -0.202506 0.035675 0.807739
-0.136629 0.000781 0.027178 0.669874 0.714325 -0.202506 0.031235 0.806519
-0.136629 0.000781 0.027178 0.696341 0.714364 -0.069242 0.031235 0.806519
-0.133486 -0.002343 0.026552 0.696341 0.714364 -0.069242 0.035767 0.807373
-0.136126 -0.002343 0.000000 0.696341 0.714364 -0.069242 0.032745 0.835205
-0.139331 0.000782 0.000000 0.696341 0.714364 -0.069242 0.028152 0.834961
-0.139331 0.000782 0.000000 0.696340 0.714364 0.069246 0.028152 0.834961
-0.136126 -0.002343 0.000000 0.696340 0.714364 0.069246 0.032745 0.834839
-0.133486 -0.002343 -0.026552 0.696340 0.714364 0.069246 0.035614 0.862671
-0.136629 0.000782 -0.027177 0.696340 0.714364 0.069246 0.031082 0.863403
-0.136629 0.000782 -0.027177 0.669874 0.714324 0.202511 0.031082 0.863403
-0.133486 -0.002343 -0.026552 0.669874 0.714324 0.202511 0.035553 0.862305
-0.125765 -0.002342 -0.052093 0.669874 0.714324 0.202511 0.044128 0.889038
-0.128725 0.000782 -0.053319 0.669874 0.714324 0.202511 0.039825 0.890686
-0.128725 0.000782 -0.053319 0.616868 0.714323 0.330480 0.039825 0.890686
-0.125765 -0.002342 -0.052093 0.616868 0.714323 0.330480 0.044006 0.888672
-0.113164 -0.002342 -0.075613 0.616868 0.714323 0.330480 0.057861 0.913330
-0.115828 0.000782 -0.077394 0.616868 0.714323 0.330480 0.053986 0.915833
-0.115828 0.000782 -0.077394 0.541350 0.714361 0.443428 0.053986 0.915833
-0.113164 -0.002342 -0.075613 0.541350 0.714361 0.443428 0.057678 0.913025
-0.096256 -0.002342 -0.096255 0.541350 0.714361 0.443428 0.076233 0.934570
-0.098522 0.000782 -0.098521 0.541350 0.714361 0.443428 0.072876 0.937836
-0.098522 0.000782 -0.098521 0.443424 0.714362 0.541352 0.072876 0.937836
-0.096256 -0.002342 -0.096255 0.443424 0.714362 0.541352 0.076050 0.934326
-0.075613 -0.002342 -0.113163 0.443424 0.714362 0.541352 0.098572 0.952026
-0.077394 0.000782 -0.115828 0.443424 0.714362 0.541352 0.095886 0.955872
-0.077394 0.000782 -0.115828 0.330476 0.714324 0.616869 0.095886 0.955872
-0.075613 -0.002342 -0.113163 0.330476 0.714324 0.616869 0.098328 0.951813
-0.052093 -0.002342 -0.125764 0.330476 0.714324 0.616869 0.123962 0.964996
-0.053320 0.000782 -0.128725 0.330476 0.714324 0.616869 0.122070 0.969299
-0.075614 -0.002343 0.113164 0.472350 0.009892 -0.881356 0.455811 0.584473
-0.052094 -0.002343 0.125765 0.472350 0.009892 -0.881356 0.439453 0.584473
-0.051438 -0.174975 0.124183 0.472350 0.009892 -0.881356 0.439453 0.666260
-0.074656 -0.175000 0.111735 0.472350 0.009892 -0.881356 0.455811 0.666260
-0.027177 0.000782 -0.136628 0.069244 0.714362 0.696342 0.150391 0.977585
-0.026552 -0.002342 -0.133485 0.069244 0.714362 0.696342 0.151123 0.972885
0.000000 -0.002342 -0.136126 0.069244 0.714362 0.696342 0.180054 0.975693
0.000000 0.000782 -0.139331 0.069244 0.714362 0.696342 0.179810 0.980438
0.000000 0.000782 -0.139331 -0.069244 0.714362 0.696342 0.179810 0.980438
0.000000 -0.002342 -0.136126 -0.069244 0.714362 0.696342 0.179688 0.975677
0.026552 -0.002342 -0.133485 -0.069244 0.714362 0.696342 0.208618 0.973022
0.027177 0.000782 -0.136628 -0.069244 0.714362 0.696342 0.209351 0.977707
0.000000 0.000782 -0.139331 0.005082 0.998681 -0.051098 0.179810 0.980438
0.027177 0.000782 -0.136628 0.005082 0.998681 -0.051098 0.209351 0.977707
0.030154 0.000001 -0.151595 0.005082 0.998681 -0.051098 0.211792 0.990570
0.000000 0.000001 -0.154594 0.005082 0.998681 -0.051098 0.179810 0.993526
0.000000 0.000782 -0.139331 -0.005082 0.998681 -0.051098 0.179810 0.980438
0.000000 0.000001 -0.154594 -0.005082 0.998681 -0.051098 0.179810 0.993526
-0.030154 0.000001 -0.151595 -0.005082 0.998681 -0.051098 0.147949 0.990425
-0.027177 0.000782 -0.136628 -0.005082 0.998681 -0.051098 0.150391 0.977585
0.027177 0.000782 -0.136628 0.014860 0.998681 -0.049153 0.209351 0.977707
0.053320 0.000782 -0.128725 0.014860 0.998681 -0.049153 0.237671 0.969559
0.059161 0.000001 -0.142827 0.014860 0.998681 -0.049153 0.242554 0.981689
0.030154 0.000001 -0.151595 0.014860 0.998681 -0.049153 0.211792 0.990570
0.053320 0.000782 -0.128725 0.024250 0.998681 -0.045262 0.237671 0.969559
0.077394 0.000782 -0.115828 0.024250 0.998681 -0.045262 0.263916 0.956238
0.085872 0.000001 -0.128516 0.024250 0.998681 -0.045262 0.270752 0.967163
0.059161 0.000001 -0.142827 0.024250 0.998681 -0.045262 0.242554 0.981689
0.085872 0.000001 -0.128516 0.032540 0.998681 -0.039723 0.270752 0.967163
0.077394 0.000782 -0.115828 0.032540 0.998681 -0.039723 0.263916 0.956238
0.098522 0.000782 -0.098521 0.032540 0.998681 -0.039723 0.286865 0.938232
0.109315 0.000001 -0.109315 0.032540 0.998681 -0.039723 0.295898 0.947601
0.128517 0.000001 -0.085872 0.039727 0.998681 -0.032537 0.316406 0.923645
0.109315 0.000001 -0.109315 0.039727 0.998681 -0.032537 0.295898 0.947601
0.098522 0.000782 -0.098521 0.039727 0.998681 -0.032537 0.286865 0.938232
0.115828 0.000782 -0.077393 0.039727 0.998681 -0.032537 0.305908 0.916260
0.128517 0.000001 -0.085872 0.045266 0.998681 -0.024247 0.316406 0.923645
0.115828 0.000782 -0.077393 0.045266 0.998681 -0.024247 0.305908 0.916260
0.128725 0.000782 -0.053319 0.045266 0.998681 -0.024247 0.320068 0.891113
0.142827 0.000001 -0.059160 0.045266 0.998681 -0.024247 0.331787 0.896240
0.151596 0.000001 -0.030154 0.049155 0.998681 -0.014856 0.341309 0.866455
0.142827 0.000001 -0.059160 0.049155 0.998681 -0.014856 0.331787 0.896240
0.128725 0.000782 -0.053319 0.049155 0.998681 -0.014856 0.320068 0.891113
0.136629 0.000782 -0.027177 0.049155 0.998681 -0.014856 0.328857 0.863770
0.136629 0.000782 -0.027177 0.051100 0.998681 -0.005078 0.328857 0.863770
0.139331 0.000782 0.000000 0.051100 0.998681 -0.005078 0.332031 0.835327
0.154595 0.000001 0.000000 0.051100 0.998681 -0.005078 0.344727 0.835327
0.151596 0.000001 -0.030154 0.051100 0.998681 -0.005078 0.341309 0.866455
0.151596 0.000000 0.030155 0.051100 0.998681 0.005085 0.341309 0.804321
0.154595 0.000001 0.000000 0.051100 0.998681 0.005085 0.344727 0.835327
0.139331 0.000782 0.000000 0.051100 0.998681 0.005085 0.332031 0.835327
0.136629 0.000781 0.027178 0.051100 0.998681 0.005085 0.328857 0.806885
0.151596 0.000000 0.030155 0.049155 0.998681 0.014864 0.341309 0.804321
0.136629 0.000781 0.027178 0.049155 0.998681 0.014864 0.328857 0.806885
0.128725 0.000781 0.053320 0.049155 0.998681 0.014864 0.320068 0.779663
0.142827 0.000000 0.059161 0.049155 0.998681 0.014864 0.331787 0.774536
0.128517 0.000000 0.085873 0.045265 0.998681 0.024253 0.316406 0.747314
0.142827 0.000000 0.059161 0.045265 0.998681 0.024253 0.331787 0.774536
0.128725 0.000781 0.053320 0.045265 0.998681 0.024253 0.320068 0.779663
0.115828 0.000781 0.077394 0.045265 0.998681 0.024253 0.305908 0.754517
0.115828 0.000781 0.077394 0.039726 0.998680 0.032543 0.305908 0.754517
0.098522 0.000781 0.098522 0.039726 0.998680 0.032543 0.287109 0.732666
0.109315 0.000000 0.109315 0.039726 0.998680 0.032543 0.295898 0.723389
0.128517 0.000000 0.085873 0.039726 0.998680 0.032543 0.316406 0.747314
0.085872 0.000000 0.128517 0.032540 0.998680 0.039729 0.270996 0.703857
0.109315 0.000000 0.109315 0.032540 0.998680 0.039729 0.295898 0.723389
0.098522 0.000781 0.098522 0.032540 0.998680 0.039729 0.287109 0.732666
0.077394 0.000781 0.115829 0.032540 0.998680 0.039729 0.263916 0.714600
0.085872 0.000000 0.128517 0.024249 0.998680 0.045268 0.270996 0.703857
0.077394 0.000781 0.115829 0.024249 0.998680 0.045268 0.263916 0.714600
0.053320 0.000781 0.128725 0.024249 0.998680 0.045268 0.237915 0.701416
0.059161 0.000000 0.142827 0.024249 0.998680 0.045268 0.242798 0.689209
0.030154 0.000000 0.151596 0.014860 0.998681 0.049156 0.212158 0.680176
0.059161 0.000000 0.142827 0.014860 0.998681 0.049156 0.242798 0.689209
0.053320 0.000781 0.128725 0.014860 0.998681 0.049156 0.237915 0.701416
0.027177 0.000781 0.136629 0.014860 0.998681 0.049156 0.209717 0.693115
0.027177 0.000781 0.136629 0.005081 0.998681 0.051100 0.209717 0.693115
-0.000000 0.000781 0.139331 0.005081 0.998681 0.051100 0.180298 0.690186
-0.000000 0.000000 0.154595 0.005081 0.998681 0.051100 0.180298 0.677246
0.030154 0.000000 0.151596 0.005081 0.998681 0.051100 0.212158 0.680176
-0.030154 0.000000 0.151596 -0.005081 0.998681 0.051100 0.148438 0.680176
-0.000000 0.000000 0.154595 -0.005081 0.998681 0.051100 0.180298 0.677246
-0.000000 0.000781 0.139331 -0.005081 0.998681 0.051100 0.180298 0.690186
-0.027177 0.000781 0.136629 -0.005081 0.998681 0.051100 0.150879 0.693115
-0.030154 0.000000 0.151596 -0.014860 0.998681 0.049156 0.148438 0.680176
-0.027177 0.000781 0.136629 -0.014860 0.998681 0.049156 0.150879 0.693115
-0.053320 0.000781 0.128725 -0.014860 0.998681 0.049156 0.122559 0.701172
-0.059161 0.000000 0.142827 -0.014860 0.998681 0.049156 0.117798 0.688965
-0.085872 0.000000 0.128517 -0.024249 0.998681 0.045268 0.089417 0.703613
-0.059161 0.000000 0.142827 -0.024249 0.998681 0.045268 0.117798 0.688965
-0.053320 0.000781 0.128725 -0.024249 0.998681 0.045268 0.122559 0.701172
-0.077394 0.000781 0.115828 -0.024249 0.998681 0.045268 0.096375 0.714600
-0.077394 0.000781 0.115828 -0.032540 0.998681 0.039729 0.096375 0.714600
-0.098522 0.000781 0.098522 -0.032540 0.998681 0.039729 0.073364 0.732422
-0.109315 0.000000 0.109315 -0.032540 0.998681 0.039729 0.064453 0.723145
-0.085872 0.000000 0.128517 -0.032540 0.998681 0.039729 0.089417 0.703613
-0.128517 0.000000 0.085872 -0.039726 0.998681 0.032543 0.043884 0.746826
-0.109315 0.000000 0.109315 -0.039726 0.998681 0.032543 0.064453 0.723145
-0.098522 0.000781 0.098522 -0.039726 0.998681 0.032543 0.073364 0.732422
-0.115828 0.000781 0.077394 -0.039726 0.998681 0.032543 0.054352 0.754272
-0.128517 0.000000 0.085872 -0.045265 0.998681 0.024253 0.043884 0.746826
-0.115828 0.000781 0.077394 -0.045265 0.998681 0.024253 0.054352 0.754272
-0.128725 0.000781 0.053320 -0.045265 0.998681 0.024253 0.040100 0.779297
-0.142827 0.000000 0.059161 -0.045265 0.998681 0.024253 0.028427 0.774170
-0.151596 0.000000 0.030155 -0.049155 0.998681 0.014864 0.018799 0.803955
-0.142827 0.000000 0.059161 -0.049155 0.998681 0.014864 0.028427 0.774170
-0.128725 0.000781 0.053320 -0.049155 0.998681 0.014864 0.040100 0.779297
-0.136629 0.000781 0.027178 -0.049155 0.998681 0.014864 0.031235 0.806519
-0.136629 0.000781 0.027178 -0.051100 0.998681 0.005085 0.031235 0.806519
-0.139331 0.000782 0.000000 -0.051100 0.998681 0.005085 0.028152 0.834961
-0.154595 0.000001 0.000000 -0.051100 0.998681 0.005085 0.015450 0.834961
-0.151596 0.000000 0.030155 -0.051100 0.998681 0.005085 0.018799 0.803955
-0.151596 0.000001 -0.030154 -0.051100 0.998681 -0.005078 0.018646 0.865967
-0.154595 0.000001 0.000000 -0.051100 0.998681 -0.005078 0.015450 0.834961
-0.139331 0.000782 0.000000 -0.051100 0.998681 -0.005078 0.028152 0.834961
-0.136629 0.000782 -0.027177 -0.051100 0.998681 -0.005078 0.031082 0.863403
-0.151596 0.000001 -0.030154 -0.049155 0.998681 -0.014857 0.018646 0.865967
-0.136629 0.000782 -0.027177 -0.049155 0.998681 -0.014857 0.031082 0.863403
-0.128725 0.000782 -0.053319 -0.049155 0.998681 -0.014857 0.039825 0.890686
-0.142827 0.000001 -0.059160 -0.049155 0.998681 -0.014857 0.028122 0.895752
-0.128517 0.000001 -0.085872 -0.045266 0.998681 -0.024247 0.043457 0.923157
-0.142827 0.000001 -0.059160 -0.045266 0.998681 -0.024247 0.028122 0.895752
-0.128725 0.000782 -0.053319 -0.045266 0.998681 -0.024247 0.039825 0.890686
-0.115828 0.000782 -0.077394 -0.045266 0.998681 -0.024247 0.053986 0.915833
-0.115828 0.000782 -0.077394 -0.039727 0.998681 -0.032537 0.053986 0.915833
-0.098522 0.000782 -0.098521 -0.039727 0.998681 -0.032537 0.072876 0.937836
-0.109315 0.000001 -0.109315 -0.039727 0.998681 -0.032537 0.063965 0.947144
-0.128517 0.000001 -0.085872 -0.039727 0.998681 -0.032537 0.043457 0.923157
-0.085872 0.000001 -0.128516 -0.024250 0.998681 -0.045262 0.088867 0.966797
-0.077394 0.000782 -0.115828 -0.024250 0.998681 -0.045262 0.095886 0.955872
-0.053320 0.000782 -0.128725 -0.024250 0.998681 -0.045262 0.122070 0.969299
-0.059161 0.000001 -0.142827 -0.024250 0.998681 -0.045262 0.117249 0.981415
-0.030154 0.000001 -0.151595 -0.014860 0.998681 -0.049152 0.147949 0.990425
-0.059161 0.000001 -0.142827 -0.014860 0.998681 -0.049152 0.117249 0.981415
-0.053320 0.000782 -0.128725 -0.014860 0.998681 -0.049152 0.122070 0.969299
-0.027177 0.000782 -0.136628 -0.014860 0.998681 -0.049152 0.150391 0.977585
-0.125765 -0.002342 -0.052093 0.957214 0.009890 0.289211 0.042816 0.584473
-0.133486 -0.002343 -0.026552 0.957214 0.009890 0.289211 0.026306 0.584473
-0.131798 -0.175000 -0.026219 0.957214 0.009890 0.289211 0.026306 0.666260
-0.124183 -0.174974 -0.051438 0.957214 0.009890 0.289211 0.042816 0.666260
-0.113164 -0.002342 -0.075613 0.881356 0.009890 0.472349 0.059357 0.584473
-0.125765 -0.002342 -0.052093 0.881356 0.009890 0.472349 0.042816 0.584473
-0.124183 -0.174974 -0.051438 0.881356 0.009890 0.472349 0.042816 0.666260
-0.111735 -0.175000 -0.074655 0.881356 0.009890 0.472349 0.059357 0.666260
-0.096256 -0.002342 -0.096255 0.773482 0.009936 0.633740 0.075867 0.584473
-0.113164 -0.002342 -0.075613 0.773482 0.009936 0.633740 0.059357 0.584473
-0.111735 -0.175000 -0.074655 0.773482 0.009936 0.633740 0.059357 0.666260
-0.095034 -0.175025 -0.095034 0.773482 0.009936 0.633740 0.075867 0.666260
-0.075613 -0.002342 -0.113163 0.633739 0.009936 0.773483 0.092407 0.584473
-0.096256 -0.002342 -0.096255 0.633739 0.009936 0.773483 0.075867 0.584473
-0.095034 -0.175025 -0.095034 0.633739 0.009936 0.773483 0.075867 0.666260
-0.074655 -0.175000 -0.111735 0.633739 0.009936 0.773483 0.092407 0.666260
-0.052093 -0.002342 -0.125764 0.472349 0.009889 0.881356 0.108887 0.584473
-0.075613 -0.002342 -0.113163 0.472349 0.009889 0.881356 0.092407 0.584473
-0.074655 -0.175000 -0.111735 0.472349 0.009889 0.881356 0.092407 0.666260
-0.051438 -0.174974 -0.124183 0.472349 0.009889 0.881356 0.108887 0.666260
-0.026552 -0.002342 -0.133485 0.289211 0.009889 0.957214 0.125366 0.584473
-0.052093 -0.002342 -0.125764 0.289211 0.009889 0.957214 0.108887 0.584473
-0.051438 -0.174974 -0.124183 0.289211 0.009889 0.957214 0.108887 0.666260
-0.026219 -0.175000 -0.131798 0.289211 0.009889 0.957214 0.125366 0.666260
0.000000 -0.002342 -0.136126 0.098813 0.009935 0.995056 0.141968 0.584473
-0.026552 -0.002342 -0.133485 0.098813 0.009935 0.995056 0.125366 0.584473
-0.026219 -0.175000 -0.131798 0.098813 0.009935 0.995056 0.125366 0.666260
0.000000 -0.175025 -0.134398 0.098813 0.009935 0.995056 0.141968 0.666260
0.026552 -0.002342 -0.133485 -0.098813 0.009935 0.995056 0.158447 0.584473
0.000000 -0.002342 -0.136126 -0.098813 0.009935 0.995056 0.141968 0.584473
0.000000 -0.175025 -0.134398 -0.098813 0.009935 0.995056 0.141968 0.666260
0.026219 -0.175000 -0.131798 -0.098813 0.009935 0.995056 0.158447 0.666260
0.052093 -0.002342 -0.125764 -0.289212 0.009889 0.957214 0.174927 0.584473
0.026552 -0.002342 -0.133485 -0.289212 0.009889 0.957214 0.158447 0.584473
0.026219 -0.175000 -0.131798 -0.289212 0.009889 0.957214 0.158447 0.666260
0.051438 -0.174974 -0.124183 -0.289212 0.009889 0.957214 0.174927 0.666260
0.075613 -0.002342 -0.113163 -0.472350 0.009889 0.881356 0.191528 0.584473
0.052093 -0.002342 -0.125764 -0.472350 0.009889 0.881356 0.174927 0.584473
0.051438 -0.174974 -0.124183 -0.472350 0.009889 0.881356 0.174927 0.666260
0.074656 -0.175000 -0.111735 -0.472350 0.009889 0.881356 0.191528 0.666260
0.096256 -0.002342 -0.096255 -0.633740 0.009936 0.773482 0.208008 0.584473
0.075613 -0.002342 -0.113163 -0.633740 0.009936 0.773482 0.191528 0.584473
0.074656 -0.175000 -0.111735 -0.633740 0.009936 0.773482 0.191528 0.666260
0.095034 -0.175025 -0.095034 -0.633740 0.009936 0.773482 0.208008 0.666260
0.113164 -0.002342 -0.075613 -0.773483 0.009936 0.633739 0.224609 0.584473
0.096256 -0.002342 -0.096255 -0.773483 0.009936 0.633739 0.208008 0.584473
0.095034 -0.175025 -0.095034 -0.773483 0.009936 0.633739 0.208008 0.666260
0.111735 -0.175000 -0.074655 -0.773483 0.009936 0.633739 0.224609 0.666260
0.125765 -0.002342 -0.052093 -0.881356 0.009890 0.472349 0.241089 0.584473
0.113164 -0.002342 -0.075613 -0.881356 0.009890 0.472349 0.224609 0.584473
0.111735 -0.175000 -0.074655 -0.881356 0.009890 0.472349 0.224609 0.666260
0.124183 -0.174974 -0.051438 -0.881356 0.009890 0.472349 0.241089 0.666260
0.133486 -0.002343 -0.026552 -0.957214 0.009890 0.289211 0.257568 0.584473
0.125765 -0.002342 -0.052093 -0.957214 0.009890 0.289211 0.241089 0.584473
0.124183 -0.174974 -0.051438 -0.957214 0.009890 0.289211 0.241089 0.666260
0.131798 -0.175000 -0.026219 -0.957214 0.009890 0.289211 0.257568 0.666260
0.136126 -0.002343 0.000000 -0.995056 0.009937 0.098813 0.274170 0.584473
0.133486 -0.002343 -0.026552 -0.995056 0.009937 0.098813 0.257568 0.584473
0.131798 -0.175000 -0.026219 -0.995056 0.009937 0.098813 0.257568 0.666260
0.134398 -0.175026 0.000000 -0.995056 0.009937 0.098813 0.274170 0.666260
0.133486 -0.002343 0.026552 -0.995056 0.009937 -0.098813 0.290527 0.584473
0.136126 -0.002343 0.000000 -0.995056 0.009937 -0.098813 0.274170 0.584473
0.134398 -0.175026 0.000000 -0.995056 0.009937 -0.098813 0.274170 0.666260
0.131798 -0.175000 0.026220 -0.995056 0.009937 -0.098813 0.290527 0.666260
0.125765 -0.002343 0.052094 -0.957214 0.009891 -0.289212 0.307129 0.584473
0.133486 -0.002343 0.026552 -0.957214 0.009891 -0.289212 0.290527 0.584473
0.131798 -0.175000 0.026220 -0.957214 0.009891 -0.289212 0.290527 0.666260
0.124183 -0.174975 0.051438 -0.957214 0.009891 -0.289212 0.307129 0.666260
0.113164 -0.002343 0.075614 -0.881356 0.009891 -0.472350 0.323730 0.584473
0.125765 -0.002343 0.052094 -0.881356 0.009891 -0.472350 0.307129 0.584473
0.124183 -0.174975 0.051438 -0.881356 0.009891 -0.472350 0.307129 0.666260
0.111735 -0.175000 0.074656 -0.881356 0.009891 -0.472350 0.323730 0.666260
0.096256 -0.002343 0.096256 -0.773482 0.009938 -0.633740 0.340088 0.584473
0.113164 -0.002343 0.075614 -0.773482 0.009938 -0.633740 0.323730 0.584473
0.111735 -0.175000 0.074656 -0.773482 0.009938 -0.633740 0.323730 0.666260
0.095034 -0.175026 0.095034 -0.773482 0.009938 -0.633740 0.340088 0.666260
0.075613 -0.002343 0.113164 -0.633739 0.009938 -0.773483 0.356689 0.584473
0.096256 -0.002343 0.096256 -0.633739 0.009938 -0.773483 0.340088 0.584473
0.095034 -0.175026 0.095034 -0.633739 0.009938 -0.773483 0.340088 0.666260
0.074655 -0.175000 0.111736 -0.633739 0.009938 -0.773483 0.356689 0.666260
0.052093 -0.002343 0.125765 -0.472349 0.009892 -0.881356 0.373291 0.584473
0.075613 -0.002343 0.113164 -0.472349 0.009892 -0.881356 0.356689 0.584473
0.074655 -0.175000 0.111736 -0.472349 0.009892 -0.881356 0.356689 0.666260
0.051438 -0.174975 0.124183 -0.472349 0.009892 -0.881356 0.373291 0.666260
0.026552 -0.002343 0.133486 -0.289211 0.009892 -0.957214 0.389648 0.584473
0.052093 -0.002343 0.125765 -0.289211 0.009892 -0.957214 0.373291 0.584473
0.051438 -0.174975 0.124183 -0.289211 0.009892 -0.957214 0.373291 0.666260
0.026219 -0.175001 0.131798 -0.289211 0.009892 -0.957214 0.389648 0.666260
-0.000000 -0.002343 0.136126 -0.098813 0.009938 -0.995056 0.406250 0.584473
0.026552 -0.002343 0.133486 -0.098813 0.009938 -0.995056 0.389648 0.584473
0.026219 -0.175001 0.131798 -0.098813 0.009938 -0.995056 0.389648 0.666260
-0.000000 -0.175026 0.134398 -0.098813 0.009938 -0.995056 0.406250 0.666260
-0.026552 -0.002343 0.133486 0.098813 0.009938 -0.995056 0.422852 0.584473
-0.000000 -0.002343 0.136126 0.098813 0.009938 -0.995056 0.406250 0.584473
-0.000000 -0.175026 0.134398 0.098813 0.009938 -0.995056 0.406250 0.666260
-0.026220 -0.175001 0.131798 0.098813 0.009938 -0.995056 0.422852 0.666260
-0.052094 -0.002343 0.125765 0.289212 0.009892 -0.957214 0.439453 0.584473
-0.026552 -0.002343 0.133486 0.289212 0.009892 -0.957214 0.422852 0.584473
-0.026220 -0.175001 0.131798 0.289212 0.009892 -0.957214 0.422852 0.666260
-0.051438 -0.174975 0.124183 0.289212 0.009892 -0.957214 0.439453 0.666260
-0.134398 -0.175026 0.000000 -0.000000 1.000000 0.000003 0.538574 0.666260
-0.131798 -0.175000 0.026220 -0.000000 1.000000 0.000003 0.521973 0.666260
-0.124183 -0.174975 0.051438 -0.000000 1.000000 0.000003 0.505371 0.666260
-0.111735 -0.175000 0.074656 -0.000000 1.000000 0.000003 0.489014 0.666260
-0.095034 -0.175026 0.095034 -0.000000 1.000000 0.000003 0.472412 0.666260
-0.074656 -0.175000 0.111735 -0.000000 1.000000 0.000003 0.455811 0.666260
-0.051438 -0.174975 0.124183 -0.000000 1.000000 0.000003 0.439453 0.666260
-0.026220 -0.175001 0.131798 -0.000000 1.000000 0.000003 0.422852 0.666260
-0.000000 -0.175026 0.134398 -0.000000 1.000000 0.000003 0.406250 0.666260
0.026219 -0.175001 0.131798 -0.000000 1.000000 0.000003 0.389648 0.666260
0.051438 -0.174975 0.124183 -0.000000 1.000000 0.000003 0.373291 0.666260
0.074655 -0.175000 0.111736 -0.000000 1.000000 0.000003 0.356689 0.666260
0.095034 -0.175026 0.095034 -0.000000 1.000000 0.000003 0.340088 0.666260
0.111735 -0.175000 0.074656 -0.000000 1.000000 0.000003 0.323730 0.666260
0.124183 -0.174975 0.051438 -0.000000 1.000000 0.000003 0.307129 0.666260
0.131798 -0.175000 0.026220 -0.000000 1.000000 0.000003 0.290527 0.666260
0.134398 -0.175026 0.000000 -0.000000 1.000000 0.000003 0.274170 0.666260
0.131798 -0.175000 -0.026219 -0.000000 1.000000 0.000003 0.257568 0.666260
0.124183 -0.174974 -0.051438 -0.000000 1.000000 0.000003 0.241089 0.666260
0.111735 -0.175000 -0.074655 -0.000000 1.000000 0.000003 0.224609 0.666260
0.095034 -0.175025 -0.095034 -0.000000 1.000000 0.000003 0.208008 0.666260
0.074656 -0.175000 -0.111735 -0.000000 1.000000 0.000003 0.191528 0.666260
0.051438 -0.174974 -0.124183 -0.000000 1.000000 0.000003 0.174927 0.666260
0.026219 -0.175000 -0.131798 -0.000000 1.000000 0.000003 0.158447 0.666260
0.000000 -0.175025 -0.134398 -0.000000 1.000000 0.000003 0.141968 0.666260
-0.026219 -0.175000 -0.131798 -0.000000 1.000000 0.000003 0.125366 0.666260
-0.051438 -0.174974 -0.124183 -0.000000 1.000000 0.000003 0.108887 0.666260
-0.074655 -0.175000 -0.111735 -0.000000 1.000000 0.000003 0.092407 0.666260
-0.095034 -0.175025 -0.095034 -0.000000 1.000000 0.000003 0.075867 0.666260
-0.111735 -0.175000 -0.074655 -0.000000 1.000000 0.000003 0.059357 0.666260
-0.124183 -0.174974 -0.051438 -0.000000 1.000000 0.000003 0.042816 0.666260
-0.131798 -0.175000 -0.026219 -0.000000 1.000000 0.000003 0.026306 0.666260
-0.096256 -0.002343 0.096256 0.633740 0.009938 -0.773482 0.472412 0.584473
-0.075614 -0.002343 0.113164 0.633740 0.009938 -0.773482 0.455811 0.584473
-0.074656 -0.175000 0.111735 0.633740 0.009938 -0.773482 0.455811 0.666260
-0.095034 -0.175026 0.095034 0.633740 0.009938 -0.773482 0.472412 0.666260
-0.113164 -0.002343 0.075614 0.773483 0.009938 -0.633739 0.489014 0.584473
-0.096256 -0.002343 0.096256 0.773483 0.009938 -0.633739 0.472412 0.584473
-0.095034 -0.175026 0.095034 0.773483 0.009938 -0.633739 0.472412 0.666260
-0.111735 -0.175000 0.074656 0.773483 0.009938 -0.633739 0.489014 0.666260
-0.133486 -0.002343 0.026552 0.957214 0.009891 -0.289211 0.521973 0.584473
-0.125765 -0.002343 0.052094 0.957214 0.009891 -0.289211 0.505371 0.584473
-0.124183 -0.174975 0.051438 0.957214 0.009891 -0.289211 0.505371 0.666260
-0.131798 -0.175000 0.026220 0.957214 0.009891 -0.289211 0.521973 0.666260
-0.136126 -0.002343 0.000000 0.995056 0.009937 -0.098813 0.538574 0.584473
-0.133486 -0.002343 0.026552 0.995056 0.009937 -0.098813 0.521973 0.584473
-0.131798 -0.175000 0.026220 0.995056 0.009937 -0.098813 0.521973 0.666260
-0.134398 -0.175026 0.000000 0.995056 0.009937 -0.098813 0.538574 0.666260
-0.133486 -0.002343 -0.026552 0.995056 0.009937 0.098813 0.026306 0.584473
-0.136126 -0.002343 0.000000 0.995056 0.009937 0.098813 0.009781 0.584473
-0.134398 -0.175026 0.000000 0.995056 0.009937 0.098813 0.009781 0.666260
-0.131798 -0.175000 -0.026219 0.995056 0.009937 0.098813 0.026306 0.666260
-0.085872 0.000001 -0.128516 -0.032540 0.998681 -0.039723 0.088867 0.966797
-0.109315 0.000001 -0.109315 -0.032540 0.998681 -0.039723 0.063965 0.947144
-0.098522 0.000782 -0.098521 -0.032540 0.998681 -0.039723 0.072876 0.937836
-0.077394 0.000782 -0.115828 -0.032540 0.998681 -0.039723 0.095886 0.955872
-0.053320 0.000782 -0.128725 0.202508 0.714323 0.669876 0.122070 0.969299
-0.052093 -0.002342 -0.125764 0.202508 0.714323 0.669876 0.123657 0.964844
-0.026552 -0.002342 -0.133485 0.202508 0.714323 0.669876 0.151489 0.972961
-0.027177 0.000782 -0.136628 0.202508 0.714323 0.669876 0.150391 0.977585
0.136629 0.000781 0.027178 -0.669874 0.714325 -0.202506 0.328857 0.806885
0.133486 -0.002343 0.026552 -0.669874 0.714325 -0.202506 0.324463 0.808105
0.125765 -0.002343 0.052094 -0.669874 0.714325 -0.202506 0.315918 0.781372
0.128725 0.000781 0.053320 -0.669874 0.714325 -0.202506 0.320068 0.779663
-0.125765 -0.002343 0.052094 0.881356 0.009891 -0.472349 0.505371 0.584473
-0.113164 -0.002343 0.075614 0.881356 0.009891 -0.472349 0.489014 0.584473
-0.111735 -0.175000 0.074656 0.881356 0.009891 -0.472349 0.489014 0.666260
-0.124183 -0.174975 0.051438 0.881356 0.009891 -0.472349 0.505371 0.666260
4 0 1 2 3
4 4 5 6 7
4 8 9 10 11
4 12 13 14 15
4 16 17 18 19
4 20 21 22 23
4 24 25 26 27
4 28 29 30 31
4 32 33 34 35
4 36 37 38 39
4 40 41 42 43
4 44 45 46 47
4 48 49 50 51
4 52 53 54 55
4 56 57 58 59
4 60 61 62 63
4 64 65 66 67
4 68 69 70 71
4 72 73 74 75
4 76 77 78 79
4 80 81 82 83
4 84 85 86 87
4 88 89 90 91
4 92 93 94 95
4 96 97 98 99
4 100 101 102 103
4 104 105 106 107
4 108 109 110 111
4 112 113 114 115
4 116 117 118 119
4 120 121 122 123
4 124 125 126 127
4 128 129 130 131
4 132 133 134 135
4 136 137 138 139
4 140 141 142 143
4 144 145 146 147
4 148 149 150 151
4 152 153 154 155
4 156 157 158 159
4 160 161 162 163
4 164 165 166 167
4 168 169 170 171
4 172 173 174 175
4 176 177 178 179
4 180 181 182 183
4 184 185 186 187
4 188 189 190 191
4 192 193 194 195
4 196 197 198 199
4 200 201 202 203
4 204 205 206 207
4 208 209 210 211
4 212 213 214 215
4 216 217 218 219
4 220 221 222 223
4 224 225 226 227
4 228 229 230 231
4 232 233 234 235
4 236 237 238 239
4 240 241 242 243
4 244 245 246 247
4 248 249 250 251
4 252 253 254 255
4 256 257 258 259
4 260 261 262 263
4 264 265 266 267
4 268 269 270 271
4 272 273 274 275
4 276 277 278 279
4 280 281 282 283
4 284 285 286 287
4 288 289 290 291
4 292 293 294 295
4 296 297 298 299
4 300 301 302 303
4 304 305 306 307
4 308 309 310 311
4 312 313 314 315
4 316 317 318 319
4 320 321 322 323
4 324 325 326 327
4 328 329 330 331
4 332 333 334 335
4 336 337 338 339
4 340 341 342 343
4 344 345 346 347
32 348 349 350 351 352 353 354 355 356 357 358 359 360 361 362 363 364 365 366 367 368 369 370 371 372 373 374 375 376 377 378 379
4 380 381 382 383
4 384 385 386 387
4 388 389 390 391
4 392 393 394 395
4 396 397 398 399
4 400 401 402 403
4 404 405 406 407
4 408 409 410 411
4 412 413 414 415
