ply
format ascii 1.0
comment Created by Blender 2.83.0 - www.blender.org, source file: ''
element vertex 384
property float x
property float y
property float z
property float nx
property float ny
property float nz
property float s
property float t
element face 206
property list uchar uint vertex_indices
end_header
8.219860 1.062564 1.600004 -0.471873 0.881666 -0.000000 0.066589 0.541504
11.199816 2.657454 1.600006 -0.471873 0.881666 -0.000000 -0.020767 0.541504
11.199818 2.657454 -1.599935 -0.471873 0.881666 -0.000000 -0.020767 0.458984
8.219862 1.062564 -1.599993 -0.471873 0.881666 -0.000000 0.066589 0.458984
8.219860 1.062564 1.600004 -0.471317 0.881964 -0.000000 0.066589 0.541504
8.219862 1.062564 -1.599993 -0.471317 0.881964 -0.000000 0.066589 0.458984
7.985478 0.937312 1.600004 -0.471317 0.881964 -0.000000 0.073486 0.541504
7.985478 0.937312 1.600004 -0.471316 0.881965 -0.000000 0.073486 0.541504
8.219862 1.062564 -1.599993 -0.471316 0.881965 -0.000000 0.066589 0.458984
7.985480 0.937312 -1.599995 -0.471316 0.881965 -0.000000 0.073486 0.458984
7.752573 0.812688 -1.599996 -0.471785 0.881714 -0.000000 0.080322 0.458984
7.985478 0.937312 1.600004 -0.471785 0.881714 -0.000000 0.073486 0.541504
7.985480 0.937312 -1.599995 -0.471785 0.881714 -0.000000 0.073486 0.458984
7.985478 0.937312 1.600004 -0.471783 0.881715 -0.000000 0.073486 0.541504
7.752573 0.812688 -1.599996 -0.471783 0.881715 -0.000000 0.080322 0.458984
7.752570 0.812688 1.600004 -0.471783 0.881715 -0.000000 0.080322 0.541504
7.515758 0.692222 -1.599996 -0.453402 0.891306 -0.000000 0.087158 0.458984
7.752570 0.812688 1.600004 -0.453402 0.891306 -0.000000 0.080322 0.541504
7.752573 0.812688 -1.599996 -0.453402 0.891306 -0.000000 0.080322 0.458984
7.515756 0.692222 1.600004 -0.453402 0.891306 -0.000000 0.087158 0.541504
7.269686 0.573403 -1.599996 -0.434827 0.900514 -0.000000 0.094238 0.458984
7.515756 0.692222 1.600004 -0.434827 0.900514 -0.000000 0.087158 0.541504
7.515758 0.692222 -1.599996 -0.434827 0.900514 -0.000000 0.087158 0.458984
7.269684 0.573403 1.600004 -0.434827 0.900514 -0.000000 0.094238 0.541504
7.269684 0.573403 1.600004 -0.399131 0.916894 -0.000000 0.094238 0.541504
7.269686 0.573403 -1.599996 -0.399131 0.916894 -0.000000 0.094238 0.458984
7.026207 0.467415 1.600003 -0.399131 0.916894 -0.000000 0.101135 0.541504
7.026207 0.467415 1.600003 -0.399132 0.916894 -0.000000 0.101135 0.541504
7.269686 0.573403 -1.599996 -0.399132 0.916894 -0.000000 0.094238 0.458984
7.026210 0.467415 -1.599996 -0.399132 0.916894 -0.000000 0.101135 0.458984
7.026207 0.467415 1.600003 -0.362821 0.931859 -0.000000 0.101135 0.541504
7.026210 0.467415 -1.599996 -0.362821 0.931859 -0.000000 0.101135 0.458984
6.760816 0.364084 1.600003 -0.362821 0.931859 -0.000000 0.108459 0.541504
6.760816 0.364084 1.600003 -0.362820 0.931859 -0.000000 0.108459 0.541504
7.026210 0.467415 -1.599996 -0.362820 0.931859 -0.000000 0.101135 0.458984
6.760817 0.364084 -1.599997 -0.362820 0.931859 -0.000000 0.108459 0.458984
6.491108 0.275288 -1.599996 -0.312718 0.949846 -0.000000 0.115845 0.458984
6.760816 0.364084 1.600003 -0.312718 0.949846 -0.000000 0.108459 0.541504
6.760817 0.364084 -1.599997 -0.312718 0.949846 -0.000000 0.108459 0.458984
6.491107 0.275288 1.600003 -0.312718 0.949846 -0.000000 0.115845 0.541504
6.189368 0.193462 -1.599996 -0.261729 0.965141 -0.000000 0.123901 0.458984
6.491107 0.275288 1.600003 -0.261729 0.965141 -0.000000 0.115845 0.541504
6.491108 0.275288 -1.599996 -0.261729 0.965141 -0.000000 0.115845 0.458984
6.189366 0.193462 1.600003 -0.261729 0.965141 -0.000000 0.123901 0.541504
6.189366 0.193462 1.600003 -0.178356 0.983966 -0.000000 0.123901 0.541504
6.189368 0.193462 -1.599996 -0.178356 0.983966 -0.000000 0.123901 0.458984
5.910595 0.142931 1.600003 -0.178356 0.983966 -0.000000 0.131226 0.541504
5.910595 0.142931 1.600003 -0.177010 0.984209 0.000121 0.131226 0.541504
6.189368 0.193462 -1.599996 -0.177010 0.984209 0.000121 0.123901 0.458984
5.910561 0.143318 -1.599996 -0.177010 0.984209 0.000121 0.131226 0.458984
5.910595 0.142931 1.600003 -0.093680 0.995602 0.000122 0.131226 0.541504
5.910561 0.143318 -1.599996 -0.093680 0.995602 0.000122 0.131226 0.458984
5.396217 0.094531 1.600002 -0.093680 0.995602 0.000122 0.144531 0.541504
5.396217 0.094531 1.600002 -0.090955 0.995855 0.000563 0.144531 0.541504
5.910561 0.143318 -1.599996 -0.090955 0.995855 0.000563 0.131226 0.458984
5.376395 0.094531 -1.599997 -0.090955 0.995855 0.000563 0.145020 0.458984
5.284935 0.094531 -0.692729 -0.000000 1.000000 0.000000 0.147461 0.482422
5.396217 0.094531 1.600002 -0.000000 1.000000 0.000000 0.144531 0.541504
5.376395 0.094531 -1.599997 -0.000000 1.000000 0.000000 0.145020 0.458984
4.722746 -0.036720 -0.053939 -0.134780 0.987288 0.084239 0.162231 0.499023
5.284935 0.094531 -0.692729 -0.134780 0.987288 0.084239 0.147461 0.482422
4.689894 -0.036720 -0.106502 -0.134780 0.987288 0.084239 0.162964 0.497559
5.284935 0.094531 -0.692729 -0.197768 0.979869 0.027279 0.147461 0.482422
4.722746 -0.036720 -0.053939 -0.197768 0.979869 0.027279 0.162231 0.499023
4.733259 -0.036720 0.022275 -0.197768 0.979869 0.027279 0.161987 0.500732
4.689894 -0.036720 -0.106502 -0.067824 0.986062 0.151927 0.162964 0.497559
5.284935 0.094531 -0.692729 -0.067824 0.986062 0.151927 0.147461 0.482422
4.616308 -0.036720 -0.139353 -0.067824 0.986062 0.151927 0.164795 0.497070
5.284935 0.094531 -0.692729 -0.231453 0.972846 0.000000 0.147461 0.482422
4.733259 -0.036720 0.022275 -0.231453 0.972846 0.000000 0.161987 0.500732
5.284935 0.094531 0.692720 -0.231453 0.972846 0.000000 0.147461 0.518066
5.284935 0.094531 0.692720 -0.147909 0.986420 -0.071402 0.147461 0.518066
4.733259 -0.036720 0.022275 -0.147909 0.986420 -0.071402 0.161987 0.500732
4.696466 -0.036720 0.098490 -0.147909 0.986420 -0.071402 0.162842 0.502441
5.284935 0.094531 0.692720 -0.000000 1.000000 0.000000 0.147461 0.518066
4.633390 -0.036720 0.140540 -0.087581 0.987457 -0.131374 0.164307 0.503418
5.284935 0.094531 0.692720 -0.087581 0.987457 -0.131374 0.147461 0.518066
4.696466 -0.036720 0.098490 -0.087581 0.987457 -0.131374 0.162842 0.502441
4.616308 -0.036720 -0.139353 0.000000 0.973006 0.230780 0.164795 0.497070
5.284935 0.094531 -0.692729 0.000000 0.973006 0.230780 0.147461 0.482422
3.899483 0.094531 -0.692729 0.000000 0.973006 0.230780 0.183350 0.482422
3.899483 0.094531 -0.692729 0.000000 1.000000 0.000000 0.183350 0.482422
4.616308 -0.036720 -0.139353 0.020856 0.978525 0.205073 0.164795 0.497070
3.899483 0.094531 -0.692729 0.020856 0.978525 0.205073 0.183350 0.482422
4.538779 -0.036720 -0.131468 0.020856 0.978525 0.205073 0.166626 0.497070
4.538779 -0.036720 -0.131468 0.095276 0.987885 0.122495 0.166626 0.497070
3.899483 0.094531 -0.692729 0.095276 0.987885 0.122495 0.183350 0.482422
4.479648 -0.036720 -0.085476 0.095276 0.987885 0.122495 0.167969 0.498047
4.479648 -0.036720 -0.085476 0.148700 0.986322 0.071115 0.167969 0.498047
3.899483 0.094531 -0.692729 0.148700 0.986322 0.071115 0.183350 0.482422
4.450740 -0.036720 -0.025030 0.148700 0.986322 0.071115 0.168701 0.499512
3.899483 0.094531 0.692720 -0.000000 0.972894 -0.231253 0.183350 0.518066
5.284935 0.094531 0.692720 -0.000000 0.972894 -0.231253 0.147461 0.518066
4.633390 -0.036720 0.140540 -0.000000 0.972894 -0.231253 0.164307 0.503418
3.899483 0.094531 0.692720 -0.000000 1.000000 -0.000000 0.183350 0.518066
4.633390 -0.036720 0.140540 0.003775 0.974004 -0.226499 0.164307 0.503418
4.554547 -0.036720 0.139226 0.003775 0.974004 -0.226499 0.166260 0.503418
3.899483 0.094531 0.692720 0.003775 0.974004 -0.226499 0.183350 0.518066
4.554547 -0.036720 0.139226 0.080774 0.987067 -0.138468 0.166260 0.503418
4.491474 -0.036720 0.102432 0.080774 0.987067 -0.138468 0.167725 0.502686
3.899483 0.094531 0.692720 0.080774 0.987067 -0.138468 0.183350 0.518066
3.899483 0.094531 0.692720 0.134850 0.987275 -0.084283 0.183350 0.518066
4.491474 -0.036720 0.102432 0.134850 0.987275 -0.084283 0.167725 0.502686
4.458622 -0.036720 0.049870 0.134850 0.987275 -0.084283 0.168457 0.501465
4.450740 -0.036720 -0.025030 0.204908 0.978544 -0.021565 0.168701 0.499512
3.899483 0.094531 0.692720 0.204908 0.978544 -0.021565 0.183350 0.518066
4.458622 -0.036720 0.049870 0.204908 0.978544 -0.021565 0.168457 0.501465
3.899483 0.094531 -0.692729 0.231620 0.972806 0.000000 0.183350 0.482422
3.899483 0.094531 0.692720 0.231620 0.972806 0.000000 0.183350 0.518066
4.450740 -0.036720 -0.025030 0.231620 0.972806 0.000000 0.168701 0.499512
3.849998 0.094531 2.399068 -0.000000 1.000000 -0.000000 0.184570 0.562256
5.396216 0.094531 1.750009 0.000000 1.000000 0.000000 0.144531 0.545410
5.396216 0.094531 1.787189 0.000000 1.000000 -0.000000 0.144531 0.546387
7.672168 0.094531 3.060894 -0.000000 1.000000 0.000000 0.085754 0.579346
7.483715 0.094531 3.609399 0.000000 1.000000 0.000000 0.090637 0.593506
7.301775 0.094531 3.976447 -0.000000 1.000000 0.000000 0.095337 0.603027
7.106139 0.094531 4.268989 0.000000 1.000000 0.000000 0.100403 0.610596
6.832808 0.094531 4.573131 0.000000 1.000000 0.000000 0.107422 0.618408
6.525118 0.094531 4.830224 0.000000 1.000000 -0.000000 0.115417 0.625000
6.236598 0.094531 5.025327 0.000000 1.000000 0.000000 0.122864 0.630127
5.943070 0.094531 5.183069 0.000000 1.000000 0.000000 0.130493 0.634277
5.619349 0.094531 5.309540 0.000000 1.000000 0.000000 0.138794 0.637451
5.266328 0.094531 5.400345 0.000000 1.000000 -0.000000 0.147949 0.639893
4.949585 0.094531 5.467983 0.000000 1.000000 0.000000 0.156128 0.641602
4.642950 0.094531 5.520302 0.000000 1.000000 0.000000 0.164062 0.642822
4.321631 0.094531 5.560704 0.000000 1.000000 0.000000 0.172363 0.644043
4.011544 0.094531 5.585927 0.000000 1.000000 0.000000 0.180420 0.644531
3.687915 0.094531 5.599067 0.000000 1.000000 0.000000 0.188721 0.645020
0.600690 0.094531 2.399066 0.000000 1.000000 0.000000 0.268555 0.562256
0.600688 0.094531 5.599066 -0.000000 1.000000 0.000000 0.268555 0.645020
3.850001 0.094531 -2.399064 0.000000 1.000000 0.000000 0.184570 0.437988
3.850001 0.094531 -2.399064 -0.006461 0.999903 0.012342 0.184570 0.437988
5.376395 0.094531 -1.599997 -0.006461 0.999903 0.012342 0.145020 0.458984
5.376395 0.096383 -1.749984 -0.006461 0.999903 0.012342 0.145142 0.455078
3.850001 0.094531 -2.399064 -0.006949 0.999885 0.013489 0.184570 0.437988
5.376395 0.096383 -1.749984 -0.006949 0.999885 0.013489 0.145142 0.455078
5.376395 0.096883 -1.787067 -0.006949 0.999885 0.013489 0.145142 0.454102
7.687850 0.094531 -3.073094 -0.000469 0.999996 -0.002672 0.085327 0.420898
3.850001 0.094531 -2.399064 -0.000469 0.999996 -0.002672 0.184570 0.437988
5.376395 0.096883 -1.787067 -0.000469 0.999996 -0.002672 0.145142 0.454102
7.488405 0.094531 -3.611064 0.000000 1.000000 0.000000 0.090515 0.406738
7.687850 0.094531 -3.073094 0.000000 1.000000 0.000000 0.085327 0.420898
7.301306 0.094531 -3.976121 0.000000 1.000000 -0.000000 0.095337 0.397461
7.097330 0.094531 -4.279320 0.000000 1.000000 0.000000 0.100586 0.389648
6.823227 0.094531 -4.582787 0.000000 1.000000 -0.000000 0.107727 0.381836
6.525377 0.094531 -4.830520 0.000000 1.000000 0.000000 0.115417 0.375488
6.234650 0.094531 -5.021578 0.000000 1.000000 -0.000000 0.122925 0.370605
5.933095 0.094531 -5.174384 0.000000 1.000000 0.000000 0.130737 0.366211
5.608405 0.094531 -5.300772 0.000000 1.000000 -0.000000 0.139038 0.363281
5.265424 0.094531 -5.396953 0.000000 1.000000 0.000000 0.147949 0.360840
4.949694 0.094531 -5.468579 0.000000 1.000000 -0.000000 0.156128 0.358887
4.643476 0.094531 -5.522016 0.000000 1.000000 0.000000 0.164062 0.357422
4.322213 0.094531 -5.562418 0.000000 1.000000 -0.000000 0.172363 0.356445
4.011598 0.094531 -5.586523 0.000000 1.000000 0.000000 0.180420 0.355957
3.687922 0.094531 -5.599063 0.000000 1.000000 -0.000000 0.188721 0.355469
0.600692 0.094531 -2.399065 0.000000 1.000000 0.000000 0.268555 0.437988
0.600694 0.094531 -5.599065 0.000000 1.000000 -0.000000 0.268555 0.355469
-0.200555 0.094531 -5.599066 0.000000 1.000000 0.000000 0.289307 0.355469
-0.200558 0.094531 -2.399066 -0.000000 1.000000 0.000000 0.289307 0.437988
-0.455823 0.112091 -5.315369 0.068627 0.997642 0.000000 0.295898 0.362793
-0.200558 0.094531 -2.399066 0.068627 0.997642 0.000000 0.289307 0.437988
-0.200555 0.094531 -5.599066 0.068627 0.997642 0.000000 0.289307 0.355469
-0.455823 0.112091 -5.315369 0.084481 0.996424 -0.001395 0.295898 0.362793
-0.572683 0.122224 -5.154394 0.084481 0.996424 -0.001395 0.298828 0.366699
-0.200558 0.094531 -2.399066 0.084481 0.996424 -0.001395 0.289307 0.437988
-0.572683 0.122224 -5.154394 0.103277 0.994645 -0.003951 0.298828 0.366699
-0.676359 0.133703 -4.974622 0.103277 0.994645 -0.003951 0.301514 0.371582
-0.200558 0.094531 -2.399066 0.103277 0.994645 -0.003951 0.289307 0.437988
-0.200558 0.094531 -2.399066 0.125912 0.992008 -0.008173 0.289307 0.437988
-0.676359 0.133703 -4.974622 0.125912 0.992008 -0.008173 0.301514 0.371582
-0.757117 0.145451 -4.792929 0.125912 0.992008 -0.008173 0.303711 0.376465
-0.815001 0.157131 -4.614290 0.153840 0.987986 -0.014752 0.305176 0.380859
-0.200558 0.094531 -2.399066 0.153840 0.987986 -0.014752 0.289307 0.437988
-0.757117 0.145451 -4.792929 0.153840 0.987986 -0.014752 0.303711 0.376465
-0.200558 0.094531 -2.399066 0.167607 0.985678 -0.018635 0.289307 0.437988
-0.815001 0.157131 -4.614290 0.167607 0.985678 -0.018635 0.305176 0.380859
-0.869578 0.170044 -4.422166 0.167607 0.985678 -0.018635 0.306641 0.385742
-0.920815 0.184477 -4.212981 0.181588 0.983097 -0.023355 0.308105 0.391113
-0.200558 0.094531 -2.399066 0.181588 0.983097 -0.023355 0.289307 0.437988
-0.869578 0.170044 -4.422166 0.181588 0.983097 -0.023355 0.306641 0.385742
-0.961190 0.198313 -4.017442 0.195459 0.980283 -0.029003 0.309082 0.396484
-0.200558 0.094531 -2.399066 0.195459 0.980283 -0.029003 0.289307 0.437988
-0.920815 0.184477 -4.212981 0.195459 0.980283 -0.029003 0.308105 0.391113
-1.234028 0.315625 -2.399066 0.209067 0.977253 -0.035593 0.316650 0.437988
-0.200558 0.094531 -2.399066 0.209067 0.977253 -0.035593 0.289307 0.437988
-0.961190 0.198313 -4.017442 0.209067 0.977253 -0.035593 0.309082 0.396484
-0.200558 0.094531 -1.600000 -0.000000 1.000000 0.000000 0.289307 0.458984
-1.234028 0.315625 -2.399066 0.209200 0.977873 -0.000000 0.316650 0.437988
-0.200558 0.094531 -1.600000 0.209200 0.977873 -0.000000 0.289307 0.458984
-0.200558 0.094531 -2.399066 0.209200 0.977873 -0.000000 0.289307 0.437988
0.600692 0.094531 -1.600000 -0.000000 1.000000 -0.000000 0.268555 0.458984
-0.200558 0.094531 -1.600000 0.209199 0.977873 0.000000 0.289307 0.458984
-1.234028 0.315625 -2.399066 0.209199 0.977873 0.000000 0.316650 0.437988
-1.234029 0.315625 -1.600000 0.209199 0.977873 0.000000 0.316650 0.458984
-2.579514 0.789062 -1.600001 0.331923 0.943307 0.000001 0.353516 0.458984
-1.234029 0.315625 -1.600000 0.331923 0.943307 0.000001 0.316650 0.458984
-1.234028 0.315625 -2.399066 0.331923 0.943307 0.000001 0.316650 0.437988
0.600690 0.094531 1.600000 -0.000000 1.000000 -0.000000 0.268555 0.541504
0.600690 0.094531 1.600000 -0.094697 0.995506 -0.000000 0.268555 0.541504
1.107973 0.142786 -1.599999 -0.094697 0.995506 -0.000000 0.255371 0.458984
0.600692 0.094531 -1.600000 -0.094697 0.995506 -0.000000 0.268555 0.458984
-0.200558 0.094531 1.600000 0.209199 0.977873 -0.000000 0.289307 0.541504
-0.200558 0.094531 1.600000 -0.000000 1.000000 0.000000 0.289307 0.541504
1.107972 0.142786 1.600001 -0.094697 0.995506 -0.000000 0.255371 0.541504
1.107972 0.142786 1.600001 -0.178859 0.983875 -0.000000 0.255371 0.541504
1.386731 0.193462 -1.599999 -0.178859 0.983875 -0.000000 0.248047 0.458984
1.107973 0.142786 -1.599999 -0.178859 0.983875 -0.000000 0.255371 0.458984
1.386729 0.193462 1.600001 -0.178859 0.983875 -0.000000 0.248047 0.541504
1.688470 0.275288 1.600001 -0.261729 0.965141 -0.000000 0.239990 0.541504
1.386731 0.193462 -1.599999 -0.261729 0.965141 -0.000000 0.248047 0.458984
1.386729 0.193462 1.600001 -0.261729 0.965141 -0.000000 0.248047 0.541504
1.688472 0.275288 -1.599999 -0.261729 0.965141 -0.000000 0.239990 0.458984
1.688470 0.275288 1.600001 -0.312718 0.949846 -0.000000 0.239990 0.541504
1.958180 0.364084 -1.599999 -0.312718 0.949846 -0.000000 0.232666 0.458984
1.688472 0.275288 -1.599999 -0.312718 0.949846 -0.000000 0.239990 0.458984
1.958178 0.364084 1.600001 -0.312718 0.949846 -0.000000 0.232666 0.541504
1.958178 0.364084 1.600001 -0.362820 0.931859 -0.000000 0.232666 0.541504
2.214906 0.464041 -1.599998 -0.362820 0.931859 -0.000000 0.225586 0.458984
1.958180 0.364084 -1.599999 -0.362820 0.931859 -0.000000 0.232666 0.458984
2.214904 0.464041 1.600001 -0.362819 0.931859 -0.000000 0.225586 0.541504
2.214906 0.464041 -1.599998 -0.362819 0.931859 -0.000000 0.225586 0.458984
1.958178 0.364084 1.600001 -0.362819 0.931859 -0.000000 0.232666 0.541504
2.475423 0.577447 1.600001 -0.399132 0.916893 -0.000000 0.218140 0.541504
2.214906 0.464041 -1.599998 -0.399132 0.916893 -0.000000 0.225586 0.458984
2.214904 0.464041 1.600001 -0.399132 0.916893 -0.000000 0.225586 0.541504
2.214906 0.464041 -1.599998 -0.399131 0.916894 -0.000000 0.225586 0.458984
2.475423 0.577447 1.600001 -0.399131 0.916894 -0.000000 0.218140 0.541504
2.475426 0.577447 -1.599998 -0.399131 0.916894 -0.000000 0.218140 0.458984
2.475423 0.577447 1.600001 -0.434827 0.900514 -0.000000 0.218140 0.541504
2.704746 0.688178 -1.599998 -0.434827 0.900514 -0.000000 0.211548 0.458984
2.475426 0.577447 -1.599998 -0.434827 0.900514 -0.000000 0.218140 0.458984
2.704743 0.688178 1.600001 -0.434827 0.900514 -0.000000 0.211548 0.541504
2.958134 0.817076 1.600001 -0.453403 0.891306 -0.000000 0.204224 0.541504
2.704746 0.688178 -1.599998 -0.453403 0.891306 -0.000000 0.211548 0.458984
2.704743 0.688178 1.600001 -0.453403 0.891306 -0.000000 0.211548 0.541504
2.958136 0.817077 -1.599998 -0.453403 0.891306 -0.000000 0.204224 0.458984
2.958134 0.817076 1.600001 -0.471785 0.881714 -0.000000 0.204224 0.541504
3.300000 1.000000 -1.599998 -0.471785 0.881714 -0.000000 0.194214 0.458984
2.958136 0.817077 -1.599998 -0.471785 0.881714 -0.000000 0.204224 0.458984
3.299999 1.000000 1.600002 -0.471784 0.881714 -0.000000 0.194214 0.541504
3.300000 1.000000 -1.599998 -0.471784 0.881714 -0.000000 0.194214 0.458984
2.958134 0.817076 1.600001 -0.471784 0.881714 -0.000000 0.204224 0.541504
-4.316806 1.578125 1.599998 0.413536 0.910488 0.000000 0.402832 0.541504
-2.579514 0.789062 -1.600001 0.413536 0.910488 0.000000 0.353516 0.458984
-4.316805 1.578125 -1.600002 0.413536 0.910488 0.000000 0.402832 0.458984
-4.316806 1.578125 1.599998 0.443782 0.896135 0.000000 0.402832 0.541504
-4.316805 1.578125 -1.600002 0.443782 0.896135 0.000000 0.402832 0.458984
-6.228842 2.525000 -1.600003 0.443782 0.896135 0.000000 0.458008 0.458984
-2.579515 0.789062 1.599998 0.413536 0.910488 0.000000 0.353516 0.541504
-6.228845 2.525000 1.599996 0.443782 0.896135 0.000000 0.458008 0.541504
-2.579515 0.789062 1.599998 0.331923 0.943307 0.000000 0.353516 0.541504
-1.234029 0.315625 -1.600000 0.331923 0.943307 0.000000 0.316650 0.458984
-2.579514 0.789062 -1.600001 0.331923 0.943307 0.000000 0.353516 0.458984
-8.098569 3.471875 -1.600004 0.451793 0.892123 0.000000 0.512207 0.458984
-6.228845 2.525000 1.599996 0.451793 0.892123 0.000000 0.458008 0.541504
-6.228842 2.525000 -1.600003 0.451793 0.892123 0.000000 0.458008 0.458984
-8.098571 3.471875 1.599996 0.451793 0.892123 0.000000 0.512207 0.541504
-8.098569 3.471875 -1.600004 0.440010 0.897993 0.000000 0.512207 0.458984
-9.382871 4.101172 1.599995 0.440010 0.897993 0.000000 0.548828 0.541504
-8.098571 3.471875 1.599996 0.440010 0.897993 0.000000 0.512207 0.541504
-9.382869 4.101172 -1.600005 0.440010 0.897993 0.000000 0.548828 0.458984
-9.382871 4.101172 1.599995 0.412835 0.910806 0.000000 0.548828 0.541504
-9.382869 4.101172 -1.600005 0.412835 0.910806 0.000000 0.548828 0.458984
-10.043988 4.400833 1.599994 0.412835 0.910806 0.000000 0.567871 0.541504
-10.043986 4.400833 -1.600006 0.412835 0.910806 0.000000 0.567871 0.458984
-10.614917 4.639208 -1.600006 0.385287 0.922797 0.000000 0.583984 0.458984
-10.043988 4.400833 1.599994 0.385287 0.922797 0.000000 0.567871 0.541504
-10.043986 4.400833 -1.600006 0.385287 0.922797 0.000000 0.567871 0.458984
-10.043988 4.400833 1.599994 0.385286 0.922797 0.000000 0.567871 0.541504
-10.614917 4.639208 -1.600006 0.385286 0.922797 0.000000 0.583984 0.458984
-10.614920 4.639208 1.599994 0.385286 0.922797 0.000000 0.583984 0.541504
-11.080256 4.802560 -1.600006 0.331224 0.943552 0.000000 0.596680 0.458984
-10.614920 4.639208 1.599994 0.331224 0.943552 0.000000 0.583984 0.541504
-10.614917 4.639208 -1.600006 0.331224 0.943552 0.000000 0.583984 0.458984
-10.614920 4.639208 1.599994 0.331226 0.943552 0.000000 0.583984 0.541504
-11.080256 4.802560 -1.600006 0.331226 0.943552 0.000000 0.596680 0.458984
-11.080256 4.802560 1.599995 0.331226 0.943552 0.000000 0.596680 0.541504
-11.080256 4.802560 1.599995 0.276053 0.961142 -0.000000 0.596680 0.541504
-11.080256 4.802560 -1.600006 0.276053 0.961142 -0.000000 0.596680 0.458984
-11.496249 4.922039 -1.600006 0.276053 0.961142 -0.000000 0.607910 0.458984
-11.496249 4.922039 -1.600006 0.276052 0.961143 0.000000 0.607910 0.458984
-11.496250 4.922039 1.599995 0.276052 0.961143 0.000000 0.607910 0.541504
-11.080256 4.802560 1.599995 0.276052 0.961143 0.000000 0.596680 0.541504
-11.496250 4.922039 1.599995 0.196225 0.980559 0.000000 0.607910 0.541504
-11.496249 4.922039 -1.600006 0.196225 0.980559 0.000000 0.607910 0.458984
-11.843564 4.991542 1.599994 0.196225 0.980559 0.000000 0.616699 0.541504
-11.843563 4.991542 -1.600007 0.196225 0.980559 0.000000 0.616699 0.458984
-11.843563 4.991542 -1.600007 0.115069 0.993357 0.000000 0.616699 0.458984
-12.171686 5.029551 1.599994 0.115069 0.993357 0.000000 0.625488 0.541504
-11.843564 4.991542 1.599994 0.115069 0.993357 0.000000 0.616699 0.541504
-12.171686 5.029551 1.599994 0.115070 0.993357 0.000000 0.625488 0.541504
-11.843563 4.991542 -1.600007 0.115070 0.993357 0.000000 0.616699 0.458984
-12.171683 5.029551 -1.600007 0.115070 0.993357 0.000000 0.625488 0.458984
-12.171683 5.029551 -1.600007 0.057634 0.998338 0.000000 0.625488 0.458984
-12.525906 5.050000 1.599994 0.057634 0.998338 0.000000 0.634766 0.541504
-12.171686 5.029551 1.599994 0.057634 0.998338 0.000000 0.625488 0.541504
-12.525904 5.050000 -1.600007 0.057634 0.998338 0.000000 0.634766 0.458984
-14.099997 5.050000 -1.600007 0.000000 1.000000 0.000000 0.675293 0.458984
-12.525906 5.050000 1.599994 0.000000 1.000000 0.000000 0.634766 0.541504
-12.525904 5.050000 -1.600007 0.000000 1.000000 0.000000 0.634766 0.458984
-14.099998 5.050000 1.599993 -0.000000 1.000000 0.000000 0.675293 0.541504
-17.299999 5.049999 0.000000 -0.000000 1.000000 -0.000000 0.758301 0.500244
-14.373678 5.050000 2.316765 -0.000000 1.000000 -0.000000 0.682617 0.560059
-14.383825 5.050000 -2.290769 -0.000000 1.000000 0.000000 0.682617 0.440918
-14.488835 5.050000 2.578023 -0.000000 1.000000 -0.000000 0.685547 0.566895
-14.501969 5.050000 -2.550881 -0.000000 1.000000 0.000000 0.685547 0.434082
-14.608437 5.050000 2.816068 -0.000000 1.000000 -0.000000 0.688477 0.572998
-14.621511 5.050000 -2.790461 -0.000000 1.000000 0.000000 0.688965 0.428223
-14.749311 5.050000 3.064405 -0.000000 1.000000 -0.000000 0.691895 0.579346
-14.758300 5.050000 -3.041270 -0.000000 1.000000 0.000000 0.692383 0.421387
-14.865911 5.050000 3.247752 -0.000000 1.000000 -0.000000 0.695312 0.584229
-14.876891 5.050000 -3.241018 -0.000000 1.000000 0.000000 0.695312 0.416504
-15.039912 5.050000 3.473080 -0.000000 1.000000 -0.000000 0.699707 0.589844
-15.045149 5.050000 -3.470472 -0.000000 1.000000 0.000000 0.699707 0.410645
-15.245732 5.050000 3.694593 -0.000000 1.000000 -0.000000 0.705078 0.595703
-15.256885 5.050000 -3.707226 -0.000000 1.000000 0.000000 0.705078 0.404297
-15.455609 5.050000 3.887381 -0.000000 1.000000 -0.000000 0.710449 0.600586
-15.463223 5.050000 -3.903762 -0.000000 1.000000 0.000000 0.710449 0.399414
-15.707597 5.050000 4.084524 -0.000000 1.000000 -0.000000 0.716797 0.605713
-15.692405 5.050000 -4.089476 -0.000000 1.000000 0.000000 0.716309 0.394531
-15.974407 5.050000 4.259495 -0.000000 1.000000 -0.000000 0.723633 0.610352
-15.957372 5.050000 -4.266842 -0.000000 1.000000 0.000000 0.723145 0.390137
-16.265776 5.050000 4.417532 -0.000000 1.000000 -0.000000 0.731445 0.614258
-16.246912 5.050000 -4.424556 -0.000000 1.000000 0.000000 0.730957 0.385742
-16.557947 5.050000 4.545749 -0.000000 1.000000 -0.000000 0.738770 0.617676
-16.539637 5.050000 -4.550964 -0.000000 1.000000 0.000000 0.738281 0.382324
-16.835976 5.050000 4.641006 -0.000000 1.000000 -0.000000 0.746094 0.620117
-16.833857 5.050000 -4.647332 -0.000000 1.000000 0.000000 0.746094 0.379883
-17.145338 5.050000 4.719196 -0.000000 1.000000 -0.000000 0.753906 0.622070
-17.144083 5.050000 -4.722394 -0.000000 1.000000 0.000000 0.753906 0.377930
-17.472502 5.050000 4.773688 -0.000000 1.000000 -0.000000 0.762695 0.623535
-17.472322 5.050000 -4.774780 -0.000000 1.000000 0.000000 0.762695 0.376953
-17.790508 5.050000 4.799990 -0.000000 1.000000 -0.000000 0.770508 0.624268
-17.790503 5.050000 -4.800011 -0.000000 1.000000 0.000000 0.770508 0.375977
-20.099997 5.049999 0.000001 -0.000000 1.000000 -0.000000 0.830566 0.500244
-20.008238 5.049999 4.799990 -0.000000 1.000000 0.000000 0.828125 0.624268
-20.008247 5.050000 -4.800023 -0.000000 1.000000 0.000000 0.828125 0.375977
-20.008238 5.049999 4.799990 0.000001 1.000000 -0.000000 0.828125 0.624268
-20.099997 5.049999 0.000001 0.000001 1.000000 -0.000000 0.830566 0.500244
-21.397837 5.050000 1.283669 0.000001 1.000000 -0.000000 0.864258 0.533203
-20.008247 5.050000 -4.800023 0.000001 1.000000 0.000000 0.828125 0.375977
-21.396790 5.050000 -1.287833 0.000001 1.000000 0.000000 0.864258 0.466797
-27.217506 5.049999 -1.287821 -0.000000 1.000000 -0.000000 1.014648 0.466797
-21.397837 5.050000 1.283669 -0.000000 1.000000 -0.000000 0.864258 0.533203
-21.396790 5.050000 -1.287833 -0.000000 1.000000 -0.000000 0.864258 0.466797
-27.217501 5.049999 1.283674 -0.000000 1.000000 0.000000 1.014648 0.533203
-1.234029 0.315625 1.600000 0.331922 0.943307 -0.000000 0.316650 0.541504
-1.234029 0.315625 -1.600000 0.331922 0.943307 -0.000000 0.316650 0.458984
-2.579515 0.789062 1.599998 0.331922 0.943307 -0.000000 0.353516 0.541504
-1.234029 0.315625 1.600000 0.209199 0.977873 0.000000 0.316650 0.541504
-1.234031 0.315625 2.399065 0.331922 0.943307 0.000001 0.316650 0.562256
-1.234029 0.315625 1.600000 0.331922 0.943307 0.000001 0.316650 0.541504
-2.579515 0.789062 1.599998 0.331922 0.943307 0.000001 0.353516 0.541504
-0.200558 0.094531 2.399066 0.209199 0.977873 -0.000000 0.289307 0.562256
-1.234031 0.315625 2.399065 0.209199 0.977873 0.000000 0.316650 0.562256
-0.200558 0.094531 2.399066 -0.000000 1.000000 0.000000 0.289307 0.562256
-0.200558 0.094531 2.399066 0.209067 0.977253 0.035593 0.289307 0.562256
-1.234031 0.315625 2.399065 0.209067 0.977253 0.035593 0.316650 0.562256
-0.961194 0.198313 4.017441 0.209067 0.977253 0.035593 0.309082 0.604004
-0.920820 0.184477 4.212980 0.195459 0.980283 0.029003 0.308105 0.609131
-0.200558 0.094531 2.399066 0.195459 0.980283 0.029003 0.289307 0.562256
-0.961194 0.198313 4.017441 0.195459 0.980283 0.029003 0.309082 0.604004
-0.869583 0.170044 4.422164 0.181588 0.983097 0.023356 0.306641 0.614502
-0.200558 0.094531 2.399066 0.181588 0.983097 0.023356 0.289307 0.562256
-0.920820 0.184477 4.212980 0.181588 0.983097 0.023356 0.308105 0.609131
-0.200561 0.094531 5.599066 0.000000 1.000000 -0.000000 0.289307 0.645020
-0.200558 0.094531 2.399066 0.167605 0.985678 0.018635 0.289307 0.562256
-0.869583 0.170044 4.422164 0.167605 0.985678 0.018635 0.306641 0.614502
-0.815006 0.157131 4.614289 0.167605 0.985678 0.018635 0.305176 0.619385
-0.200558 0.094531 2.399066 0.068627 0.997642 0.000000 0.289307 0.562256
-0.455828 0.112091 5.315369 0.068627 0.997642 0.000000 0.295898 0.637695
-0.200561 0.094531 5.599066 0.068627 0.997642 0.000000 0.289307 0.645020
-0.200558 0.094531 2.399066 0.153840 0.987986 0.014752 0.289307 0.562256
-0.815006 0.157131 4.614289 0.153840 0.987986 0.014752 0.305176 0.619385
-0.757123 0.145451 4.792929 0.153840 0.987986 0.014752 0.303711 0.624023
-0.455828 0.112091 5.315369 0.084481 0.996424 0.001395 0.295898 0.637695
-0.200558 0.094531 2.399066 0.084481 0.996424 0.001395 0.289307 0.562256
-0.572689 0.122224 5.154393 0.084481 0.996424 0.001395 0.298828 0.633545
-0.200558 0.094531 2.399066 0.125911 0.992008 0.008173 0.289307 0.562256
-0.757123 0.145451 4.792929 0.125911 0.992008 0.008173 0.303711 0.624023
-0.676364 0.133703 4.974621 0.125911 0.992008 0.008173 0.301514 0.628906
-0.572689 0.122224 5.154393 0.103277 0.994645 0.003952 0.298828 0.633545
-0.200558 0.094531 2.399066 0.103277 0.994645 0.003952 0.289307 0.562256
-0.676364 0.133703 4.974621 0.103277 0.994645 0.003952 0.301514 0.628906
3 0 1 2
3 0 2 3
3 4 5 6
3 7 8 9
3 10 11 12
3 13 14 15
3 16 17 18
3 17 16 19
3 20 21 22
3 21 20 23
3 24 25 26
3 27 28 29
3 30 31 32
3 33 34 35
3 36 37 38
3 37 36 39
3 40 41 42
3 41 40 43
3 44 45 46
3 47 48 49
3 50 51 52
3 53 54 55
3 56 57 58
3 59 60 61
3 62 63 64
3 65 66 67
3 68 69 70
3 71 72 73
3 57 56 74
3 75 76 77
3 78 79 80
3 58 81 56
3 82 83 84
3 85 86 87
3 88 89 90
3 91 92 93
3 94 57 74
3 95 96 97
3 98 99 100
3 101 102 103
3 104 105 106
3 107 108 109
3 94 110 57
3 81 110 94
3 57 110 111
3 110 112 111
3 113 112 110
3 110 114 113
3 114 110 115
3 110 116 115
3 110 117 116
3 118 117 110
3 110 119 118
3 110 120 119
3 110 121 120
3 122 121 110
3 110 123 122
3 110 124 123
3 110 125 124
3 110 126 125
3 110 127 126
3 128 127 110
3 127 128 129
3 110 81 130
3 58 130 81
3 131 132 133
3 134 135 136
3 137 138 139
3 140 130 141
3 130 140 142
3 143 130 142
3 130 143 144
3 145 130 144
3 130 145 146
3 147 130 146
3 130 147 148
3 149 130 148
3 130 149 150
3 151 130 150
3 130 151 152
3 153 130 152
3 130 153 154
3 154 155 130
3 155 154 156
3 157 155 156
3 155 157 158
3 159 160 161
3 162 163 164
3 165 166 167
3 168 169 170
3 171 172 173
3 174 175 176
3 177 178 179
3 180 181 182
3 183 184 185
3 186 155 158
3 187 188 189
3 186 190 155
3 191 192 193
3 194 195 196
3 186 197 190
3 198 199 200
3 193 201 191
3 197 186 202
3 199 198 203
3 204 205 206
3 207 205 204
3 208 209 210
3 209 208 211
3 212 213 214
3 215 213 212
3 216 217 218
3 219 220 221
3 222 223 224
3 225 226 227
3 228 229 230
3 231 229 228
3 232 233 234
3 233 232 235
3 236 237 238
3 239 240 241
3 242 243 244
3 245 246 247
3 243 242 248
3 249 245 247
3 250 251 252
3 253 254 255
3 254 253 256
3 257 258 259
3 258 257 260
3 261 262 263
3 263 262 264
3 265 266 267
3 268 269 270
3 271 272 273
3 274 275 276
3 277 278 279
3 280 281 282
3 283 284 285
3 285 284 286
3 287 288 289
3 290 291 292
3 293 294 295
3 294 293 296
3 297 298 299
3 298 297 300
3 301 300 297
3 300 301 302
3 301 297 303
3 302 301 304
3 305 301 303
3 304 301 306
3 307 301 305
3 308 306 301
3 309 301 307
3 308 301 310
3 301 309 311
3 310 301 312
3 313 301 311
3 312 301 314
3 315 301 313
3 316 314 301
3 317 301 315
3 316 301 318
3 301 317 319
3 318 301 320
3 319 321 301
3 320 301 322
3 323 301 321
3 324 322 301
3 325 301 323
3 324 301 326
3 301 325 327
3 326 301 328
3 329 301 327
3 328 301 330
3 331 301 329
3 330 301 332
3 333 301 331
3 332 301 334
3 333 334 301
3 334 335 332
3 334 333 336
3 337 338 339
3 338 340 341
3 341 339 338
3 342 343 344
3 343 342 345
3 346 347 348
3 201 193 349
3 350 351 352
3 349 353 201
3 353 349 354
3 355 197 202
3 356 357 358
3 197 355 128
3 359 360 361
3 355 129 128
3 362 363 364
3 129 355 365
3 366 367 368
3 369 370 371
3 372 373 374
3 375 376 377
3 378 379 380
3 381 382 383
