ply
format ascii 1.0
comment Created by Blender 2.83.0 - www.blender.org, source file: ''
element vertex 868
property float x
property float y
property float z
element face 1527
property list uchar uint vertex_indices
end_header
0.874072 0.132613 1.766215
0.413995 0.116496 1.635355
0.413068 0.116496 1.766215
7.229173 2.629690 -3.641006
5.642650 2.033855 -5.414498
5.704274 1.898958 -5.414645
1.668599 -0.058539 -1.695605
1.532662 0.211300 -1.695605
1.668599 0.242198 -1.695605
-12.162350 -0.274516 -2.082823
-12.162034 -0.274663 -1.695509
-12.218946 -0.248245 -1.630509
-3.635145 -1.124864 -3.618719
-4.323577 -1.125446 -3.569811
-3.630284 -1.124856 -3.488000
-2.104960 -1.267037 -3.641006
-2.788231 -1.271813 -3.641006
-2.107421 -1.117718 -3.641006
-1.039559 -1.343612 -3.575196
-1.039559 -1.343612 -3.510196
-1.131471 -1.364650 -3.510196
3.601991 0.763751 -1.695605
2.663325 0.331269 -1.695605
3.108601 0.834814 -1.695605
1.400337 0.031202 -1.564645
1.550251 0.061422 -1.564645
1.392195 0.182765 -1.564645
7.230576 2.493975 -3.652679
7.287915 2.521492 -3.678157
7.287917 2.521492 0.634298
1.392195 -0.117972 -1.695605
1.199412 0.157932 -1.695605
1.392195 0.182765 -1.695605
-9.558250 -1.342456 -5.480365
-9.558250 -1.342456 -5.545365
-9.351943 -1.372923 -5.545365
-14.071129 0.911223 -4.446241
-13.242720 0.359116 -5.414645
-13.178493 0.495336 -5.414645
-0.253606 -0.043458 -1.564645
0.417694 -0.033646 -1.564645
0.413995 0.116496 -1.564645
-8.061970 -1.268456 -5.414645
-4.576284 -1.125660 -5.414645
-6.469855 -1.125660 -5.414645
3.601993 0.763753 1.766214
3.601993 0.763753 1.701214
6.297062 2.046868 1.701339
0.873351 0.132613 -1.695605
0.873351 -0.168124 -1.695605
0.412727 0.116496 -1.695605
-1.908423 -1.195891 -2.214645
-1.913853 -1.195970 -2.081585
-1.595642 -1.154266 -2.081341
-3.865230 -1.564777 -2.682796
-3.880351 -1.407639 -2.682796
-4.238391 -1.436238 -2.682796
-0.044489 -0.624888 -3.641006
-0.044489 -0.624888 -3.510196
4.044547 1.275207 -3.510327
-5.477576 -1.875936 -1.282503
-5.478270 -1.710059 -1.192182
-5.609661 -1.710053 -1.192180
-0.255137 0.106743 -1.564645
-3.220301 -1.510628 -2.168457
-3.349565 -1.528587 -2.152414
-3.368477 -1.374755 -2.149473
-7.121594 -2.566291 1.766215
-7.211257 -2.538725 1.766215
-7.211257 -2.538725 1.701215
-4.268458 -1.979004 -1.362960
-4.269187 -1.871456 -1.304462
-4.359480 -1.930055 -1.336349
-8.122027 -2.150049 1.766215
-13.214080 0.211178 1.766194
-13.189569 0.199717 1.701194
2.720549 0.495088 -1.564645
4.179374 1.168226 -1.564645
3.108601 0.834815 -1.564684
-3.249106 -2.349585 -1.564645
-3.249106 -2.349584 1.635355
-3.101188 -2.349594 1.766215
-4.180950 -2.349601 -1.564644
-5.544643 -2.349585 -1.564644
-3.249106 -2.499995 -1.564645
3.601991 1.064488 -1.695605
1.199411 0.157932 1.766215
0.876046 0.132613 1.635355
-4.318864 -3.621850 -3.504260
-4.318864 -1.424453 -3.504259
-4.824678 -1.424671 -3.451433
-2.107421 -1.418454 -5.480365
-2.107421 -1.418454 -5.545365
-1.659288 -1.410579 -5.545365
0.876046 0.132613 -1.564645
0.412727 -0.184241 -1.695605
-0.255662 -0.193993 -1.695605
-0.255662 0.106743 -1.695605
-3.476851 -1.709867 -2.003028
-3.486929 -1.709867 -2.067242
-3.370764 -1.692492 -2.083937
-10.185160 -1.164107 -2.148821
-10.457590 -1.053087 -2.083821
-10.457590 -1.053087 -2.148821
2.663325 0.331269 -1.627544
2.292340 0.168114 -1.627544
-0.875410 -0.978248 -2.817893
-1.048363 -1.040777 -2.817893
-1.048347 -1.040775 -2.687209
4.085271 0.994016 -1.627504
4.291271 1.074528 -2.081197
4.393582 1.122865 -2.146197
4.060690 0.982258 -1.695565
-5.478570 -1.983600 -1.341048
-5.477582 -1.871456 -1.304462
-1.131471 -1.366372 -5.480365
-1.039559 -1.345335 -5.480365
5.650475 -3.621559 -5.480974
4.076182 0.991322 -3.575327
4.406188 1.145897 -2.752892
4.324125 1.108305 -2.817893
-4.259033 -1.790900 -1.505946
-4.269161 -1.665240 -1.388968
-4.259126 -1.636978 -1.503167
-3.974043 -2.349585 -1.564645
-5.194895 -1.972680 -1.359554
-5.478576 -1.978782 -1.362835
1.199412 -0.142805 -1.695605
-12.284594 0.080950 -1.564657
-12.350083 -0.056771 -1.564645
-8.184000 -1.986562 -1.564644
-8.122027 -2.150049 1.701215
2.663325 0.632005 -1.695605
2.292340 0.468851 -1.695605
-8.655334 -1.109393 -5.414645
-8.655334 -1.109393 -5.545365
-9.072147 -1.093312 -5.545365
-1.223657 -1.083509 -3.641006
-1.131471 -1.065636 -3.641006
-1.107160 -1.211856 -3.641006
-9.351943 -1.072187 -2.236932
-9.045605 -1.094877 -2.176556
-9.072147 -1.093312 -2.303792
-5.478445 -1.691986 -1.925282
-5.476248 -1.617905 -1.691342
-5.478445 -1.745157 -1.695846
-5.475563 -1.790900 -1.505946
-5.478270 -1.705574 -1.214139
-5.477582 -1.830893 -1.394863
2.292340 0.168114 -1.695605
-3.476851 -1.392546 -2.003028
-3.362347 -1.692492 -2.019484
-3.362347 -1.375171 -2.019484
-13.189850 -3.621559 -5.480348
-9.835114 -1.282963 -5.480364
-9.699179 -1.313862 -5.480365
-5.790397 -1.125660 -3.358841
-5.771826 -1.125675 -3.229727
-5.274560 -1.125661 -3.323697
-5.473715 -1.511849 -2.294206
-5.471458 -1.443201 -2.682796
-5.609601 -1.443174 -2.682762
-1.212621 -1.231911 -3.641006
1.532662 -0.089437 -1.695605
-3.239272 -1.356495 -2.165612
-7.169937 -2.411919 -1.564645
-7.063549 -2.436853 -1.564645
-7.041024 -2.284820 -1.564657
-0.874220 -0.981137 -2.214546
-0.540281 -0.844866 -2.214252
-0.485256 -0.982751 -2.214226
-1.589259 -1.154266 -2.214645
-1.889376 -1.350056 -2.214645
-8.047650 -3.621850 -2.596676
-7.308488 -3.621850 -2.863823
-7.308488 -1.423213 -2.863823
1.820945 0.286594 -1.695605
2.019910 0.357832 -1.695605
2.019910 0.057095 -1.695605
-6.723670 -2.637526 -1.695605
-6.723672 -2.637526 -1.630605
-6.942925 -2.602452 -1.630617
-0.044489 -0.925624 -5.480365
3.601989 0.763752 -5.480364
-3.036186 -3.622409 -1.627544
-0.255662 -0.193993 -1.627544
0.412727 -0.184241 -1.627544
4.060690 1.282994 -1.695565
0.015996 -0.597216 -2.817895
4.324125 1.407319 -2.817893
-5.609643 -1.617906 -1.690245
-1.595642 -1.471587 -2.081341
6.320345 2.358609 1.766193
6.320345 2.057872 1.766193
-10.186424 -0.866593 -5.414645
-9.987461 -0.937831 -5.414644
-9.987461 -0.937831 -5.545364
-9.072147 -1.093312 -5.414645
-2.969695 0.100214 -1.564645
-3.101188 0.100214 -1.695605
-3.101188 0.100214 1.766215
-0.875410 -1.277262 -2.817893
-1.048363 -1.339791 -2.817893
3.601993 1.064490 1.766214
6.284619 2.341487 1.635319
-10.828085 -0.591136 -2.083821
-10.457590 -0.754073 -2.214657
-10.828085 -0.591136 -2.214657
5.650476 1.737041 -5.480974
3.601989 0.763752 -5.545364
-1.659288 -1.410579 -5.480365
-5.544653 -1.983600 -1.341048
-5.609651 -1.983600 -1.341048
-5.544655 -1.979242 -1.363066
-2.104960 -1.267037 -5.414645
-2.107421 -1.117718 -5.414645
-2.789212 -1.122479 -5.414645
1.199411 -0.142805 1.701215
0.874072 -0.168124 1.701215
-3.036174 -3.621984 1.701211
-4.269162 -1.710060 -1.192178
-4.268466 -1.983597 -1.341046
-4.200859 -1.983600 -1.341048
-1.131471 -1.065636 -3.510196
-9.334886 -1.372894 -2.107575
-9.045605 -1.393891 -2.176556
-0.891718 -1.298480 -2.081339
-0.540372 -1.162210 -2.081334
-0.891718 -0.981158 -2.081339
-1.389073 -1.439172 -2.081341
-14.183606 0.963702 0.644757
-14.071129 0.911223 0.607480
-1.061608 -1.361012 -2.081341
-1.257234 -1.412590 -2.146340
-1.061607 -1.361012 -2.146340
-10.891257 -0.729909 -5.414645
-10.516587 -0.894659 -5.414645
-10.458855 -0.755574 -5.414645
-9.556987 -1.040220 -2.214657
-9.571047 -1.193795 -2.214645
-9.720962 -1.163575 -2.214645
-6.644734 -2.499995 -1.564645
-1.107160 -1.218821 -2.214645
-1.146634 -1.071638 -2.214645
-1.047424 -1.043682 -2.214646
-2.789212 -1.122479 -5.545365
5.678137 1.750165 -5.545346
-8.660837 -1.258643 -2.437514
-8.655334 -1.109394 -2.437514
-9.083577 -1.242288 -2.303792
-9.372784 -1.220353 -2.236932
1.858161 0.142068 -1.564645
1.820945 0.286594 -1.564645
1.668599 0.242198 -1.564645
-0.509483 -0.993904 -3.641006
-0.824526 -1.124980 -3.641006
-0.878906 -0.987691 -3.641006
-8.047650 -1.418622 -2.596676
-0.878906 -1.286705 -3.510196
-1.039559 -1.044598 -3.510196
-0.540372 -0.844889 -2.081334
-1.389008 -1.098715 -3.510196
-1.223657 -1.382523 -3.510196
-1.223657 -1.083509 -3.510196
-8.059669 -1.119134 -5.414645
-8.059669 -1.119134 -5.545365
-2.374854 -1.247103 -2.687025
-2.910433 -1.305964 -2.686105
-1.889376 -1.350056 -2.687209
-3.471142 -1.546448 -2.133361
-3.598853 -1.566241 -2.109133
-3.617419 -1.413868 -2.105735
-3.101188 -0.200523 -1.695605
1.668599 0.242198 1.766215
1.532662 0.211300 1.635355
1.532662 0.211300 1.766215
-5.478445 -1.651085 -2.129033
-5.478445 -1.626545 -2.298541
-14.183607 0.662965 0.644757
-13.214078 0.511914 1.766193
-2.789212 -1.423215 -5.480365
-3.635145 -1.425601 -5.480365
-9.835114 -1.282963 -5.545364
-8.122027 -1.849313 1.766215
-3.036186 -0.200523 -1.627544
-2.378601 -1.567844 -2.081330
-1.913853 -1.513291 -2.081585
-2.378601 -1.250522 -2.081330
-3.017810 -1.328833 -2.054230
-3.017810 -1.646155 -2.054230
-2.796530 -1.618329 -2.067893
-9.986197 -0.936331 -2.214657
-9.833850 -0.980726 -2.214657
-10.028872 -1.082930 -2.214645
5.678137 2.050901 -5.545346
3.601990 1.064488 -5.545364
-1.131471 -1.364650 -3.575196
-13.178493 0.495336 1.635355
-13.212832 0.511335 -5.545347
-14.183598 0.963697 -4.484896
-4.599876 -1.744137 -2.817893
-5.609598 -1.742215 -2.817893
-5.609598 -1.443201 -2.817893
-2.788751 -3.621850 -3.575191
4.076181 -3.621848 -3.575327
-0.564075 -1.154849 -3.575196
-4.416600 -1.445540 -2.817893
-3.880415 -1.706785 -2.817893
-4.239308 -1.434457 -2.817893
-3.880415 -1.407771 -2.817893
-1.147375 -1.365925 -2.817893
-1.247750 -1.092364 -2.817893
-1.147375 -1.066912 -2.817893
-6.723643 -2.338286 1.635355
-6.665444 -2.345476 1.635355
-6.749028 -2.487259 1.635355
-1.257234 -1.412590 -2.081340
-1.389073 -1.121851 -2.081341
-1.131471 -1.366372 -5.545365
-1.223657 -1.384245 -5.545365
-1.223657 -1.083509 -5.545365
-7.661227 -2.218901 1.635355
-8.184002 -1.986562 1.635355
-7.602439 -2.080261 1.635355
-4.691668 -1.984133 -1.365771
-4.866348 -1.987754 -1.367771
-6.703238 -1.424288 -3.054332
-6.213130 -1.424708 -3.190304
-6.196831 -1.424708 -3.127381
-2.107421 -1.117718 -3.510196
-2.787895 -1.122474 -3.510196
-2.107421 -1.416732 -3.510196
-3.635145 -1.124864 -5.545365
-3.635145 -1.425601 -5.545365
-4.576284 -1.125660 -5.545365
-0.878906 -0.987691 -3.510196
-0.891717 -1.298480 -2.146339
-7.132936 -2.263782 -1.564657
-5.609661 -1.705574 -1.214139
-1.659288 -1.109842 -3.510196
-1.389008 -1.397729 -3.510196
-2.787895 -1.421488 -3.510196
-1.659288 -1.408856 -3.510196
-0.044489 -0.923902 -3.510196
-0.564075 -0.855835 -3.510196
-6.594309 -2.650331 1.766214
-3.101188 -2.650331 1.766214
-6.594309 -2.349594 1.766215
4.393582 -3.621822 -2.146197
4.085271 -3.622115 -1.627504
-5.285045 -1.424675 -3.387846
-5.274560 -1.424675 -3.323697
-14.130367 0.638169 0.617554
4.116041 1.308993 -3.640110
-2.379664 -3.621823 -2.146321
-0.540371 -1.162210 -2.146334
-1.389073 -1.439172 -2.146340
-1.595617 -1.471587 -2.146340
-6.942924 -2.303438 -1.695617
-7.041027 -2.284820 -1.695617
-5.544611 -3.621852 -1.630604
-7.293589 -2.505889 -1.630617
-7.132937 -2.562796 -1.630617
-7.293589 -2.206875 -1.564657
-7.346183 -2.349978 -1.564645
-2.799577 -1.618329 -2.132821
-2.799577 -3.621823 -2.132821
-4.323492 -1.274784 -3.569806
-1.913846 -1.513291 -2.146585
-2.379664 -1.567844 -2.146321
-6.723578 -2.639264 1.766214
-6.661150 -2.345744 1.766215
-6.723578 -2.338528 1.766214
2.019910 0.057095 1.701215
2.292340 0.168115 1.701215
2.292340 0.168115 1.766215
-10.186424 -1.167330 -5.480365
-9.987461 -1.238568 -5.480364
-8.025215 -1.119608 -2.535671
-8.622697 -1.110377 -2.312159
-8.622697 -1.409391 -2.312159
-0.044489 -0.624888 -5.414645
-0.044489 -0.624887 -5.545365
-0.564075 -0.855835 -5.545365
-7.293589 -2.505889 -1.695617
-6.598635 -2.349587 1.635355
-2.780019 -1.454373 -2.202013
-2.375130 -1.250098 -2.214124
-2.357063 -1.404419 -2.214645
-2.799005 -1.300232 -2.199644
-1.659288 -1.109842 -3.641006
-1.212621 -1.245841 -2.214645
-1.353748 -1.274339 -2.214645
-1.247088 -1.095268 -2.214645
0.883894 -0.017291 -1.564645
1.194830 0.004645 -1.564645
-7.661227 -2.218901 -1.564644
-7.601175 -2.078760 -1.564657
-6.723670 -2.338512 -1.695605
-6.942920 -2.303439 -1.564657
-6.723630 -2.338286 -1.564645
-3.635145 -1.124864 -5.414645
4.179374 1.168226 -3.641006
0.013291 -0.761564 -3.641006
-1.381118 -1.121851 -2.214645
-1.257234 -1.095268 -2.081340
-4.313185 -1.125439 -3.439508
-6.469855 -1.125660 -5.545365
-7.319669 -1.124027 -5.545365
-7.319669 -1.124027 -5.414645
-5.041510 -1.984133 -1.365771
4.501070 1.491224 -2.686993
-10.237576 -1.008299 -2.214645
-12.350083 -0.056771 -2.214645
-12.284929 0.081105 -2.214657
4.291271 1.391850 -2.081197
-1.000774 -1.186922 -3.641006
-1.039559 -1.044598 -3.641006
-5.478445 -1.614275 -2.442365
-5.544464 -3.621548 -2.752892
-5.544630 -3.623957 -2.006678
-5.544718 -2.648599 -1.695605
-5.544658 -2.349586 -1.695605
-6.196831 -1.125694 -3.127381
-6.684790 -1.125274 -2.992006
-6.684790 -1.424288 -2.992006
-10.185160 -0.865093 -2.214657
-10.457590 -0.754073 -2.083821
-5.544718 -2.648599 -1.630605
-9.987461 -1.238568 -5.545364
-7.602439 -2.080261 1.766215
-1.908781 -1.192986 -2.687209
-5.544620 -1.810859 -2.264720
-7.287679 -1.124200 -2.802244
-7.287679 -1.423213 -2.802244
-3.489903 -1.393177 -2.130245
0.073841 -0.733828 -2.687271
4.566897 1.345739 -2.687610
0.015991 -0.597183 -2.687330
-10.829350 -0.592637 -5.414645
-10.829350 -0.592637 -5.545365
2.663244 0.331247 1.701215
-3.899397 -1.621275 -2.018699
-4.020219 -1.499156 -1.943820
-3.899442 -1.467149 -2.018690
-8.120761 -2.146827 -1.695617
-8.120761 -1.847813 -1.695617
-0.818471 -1.122903 -2.687215
-0.875352 -0.978241 -2.687221
-1.212621 -1.245840 -2.687209
-1.107160 -1.218821 -2.687209
-1.247753 -1.092363 -2.687209
2.720549 0.495088 1.635355
2.345877 0.330338 1.635355
2.292340 0.468851 1.635355
1.400337 0.031202 1.635355
1.199412 0.157932 1.635355
1.392195 0.182765 1.635355
-1.381667 -1.417960 -2.752893
-1.381667 -1.417960 -2.817893
-1.247750 -1.391378 -2.817893
-2.789212 -1.122479 -3.641006
-7.121594 -2.566291 1.701215
-1.589678 -1.151361 -2.687209
-1.567135 -1.307887 -2.687209
-1.381639 -1.118946 -2.687209
-6.661150 -2.646480 1.766214
-6.723578 -2.639264 1.701214
-9.697913 -1.011625 -2.214657
-9.833850 -0.980726 -2.083821
-9.351943 -1.072187 -5.545365
-8.644013 -3.621850 -2.373563
1.199412 -0.142805 -1.627544
-1.000774 -1.189708 -2.687209
-10.829350 -0.893373 -5.480365
-10.458855 -1.056311 -5.545365
-10.458855 -1.056311 -5.480365
2.019910 0.357832 -1.564645
-1.061608 -1.043690 -2.081341
2.066866 0.216699 -1.564645
-3.001336 -1.481938 -2.188565
-3.020306 -1.327805 -2.185719
-4.599876 -1.744137 -2.752893
-4.239308 -1.733471 -2.817893
-3.249106 -2.499995 1.635355
-5.544601 -1.742188 -2.682760
7.166933 2.764367 -3.641013
7.229173 2.629690 0.597381
7.166934 2.764367 0.597390
1.194830 0.004645 1.635355
0.883894 -0.017291 1.635355
1.532662 0.211300 -1.564645
1.694408 0.094343 -1.564645
0.015875 -0.597061 -2.081324
0.015983 -0.597047 -2.213656
-6.844845 -2.320457 1.635355
-6.958093 -2.456908 1.635355
-6.944190 -2.304939 1.635355
-7.063551 -2.436853 1.635355
-7.042291 -2.286320 1.635355
-7.169938 -2.411919 1.635355
-7.121593 -2.265554 1.635355
-7.293589 -2.206875 -1.695617
-7.601175 -2.078760 -1.695617
-6.944197 -2.605675 1.766215
-6.944197 -2.605675 1.701215
-3.883942 -1.779839 -1.967737
-3.773866 -3.621823 -2.013716
-3.773866 -1.756724 -2.013716
-5.293130 -1.125660 -3.452811
-0.255520 0.106743 1.766215
-2.969695 0.100214 1.635355
-10.186424 -1.167330 -5.545365
-10.186424 -0.866593 -5.545365
-10.458855 -0.755574 -5.545365
0.015876 -0.914383 -2.146324
3.601990 1.064488 -5.414361
-9.720962 -1.163575 -5.414645
-9.571047 -1.193795 -5.414645
-9.558250 -1.041720 -5.414645
-10.516587 -0.894659 -2.214645
-1.048363 -1.339791 -2.752893
0.873351 -0.168124 -1.627544
-5.474741 -1.559312 -1.999664
-1.000774 -1.186922 -5.414645
-0.824526 -1.124980 -5.414645
-1.039559 -1.044598 -5.414645
-3.633443 -1.423870 -3.552924
-3.630284 -1.423870 -3.488000
-9.558250 -1.041720 -5.545365
-9.072147 -1.394049 -5.545365
1.820945 -0.014143 1.701215
1.820945 -0.014143 1.766215
1.668599 -0.058539 1.766215
-6.627934 -2.349586 -1.695605
-6.632154 -2.349585 -1.564645
-3.754964 -1.439402 -1.951525
-3.599761 -1.729829 -1.982106
-3.599761 -1.412507 -1.982106
-9.551318 -1.040991 -2.083984
-9.334886 -1.073880 -2.107575
-6.627934 -2.648600 -1.630605
-9.697913 -1.011625 -2.083821
3.168441 0.699309 1.635355
2.663245 0.631976 1.635349
1.392195 0.182765 1.766215
-9.699179 -1.013125 -5.414645
-9.835114 -0.982226 -5.545364
-9.835114 -0.982226 -5.414644
6.297062 -3.621559 1.701339
-4.136162 -1.983600 -1.341048
-4.135705 -1.710054 -1.192175
-1.589670 -1.151361 -2.817893
-1.381667 -1.118946 -2.817893
-1.589670 -1.450375 -2.817893
-1.908772 -1.192990 -2.817893
-4.576284 -1.426396 -5.480365
-6.469855 -1.426397 -5.480365
-6.469855 -1.426397 -5.545365
-0.878906 -1.288427 -5.480365
-0.564075 -1.156572 -5.545365
-0.564075 -1.156572 -5.480365
2.663244 0.631983 1.766215
2.292340 0.468852 1.766215
-12.162034 0.024351 -1.695509
-12.162350 0.024498 -2.082823
4.116158 1.309047 -1.565658
4.566999 1.346679 -2.207941
4.501074 1.491246 -2.209013
-9.865118 -1.130654 -5.414645
-10.237576 -1.008299 -5.414645
-10.028872 -1.082930 -5.414645
2.019910 0.057095 1.766215
-1.039559 -1.044598 -5.545365
-1.131471 -1.065636 -5.414645
-1.223657 -1.083509 -5.414645
6.346457 2.206692 1.635355
3.601993 1.064490 1.635235
0.874072 -0.168124 1.766215
0.413069 -0.184241 1.766215
-7.042296 -2.286319 1.766215
-7.121594 -2.265554 1.766215
3.601991 0.763751 -1.627545
-9.865118 -1.130654 -2.214645
-10.829350 -0.893373 -5.545365
-13.212832 0.210599 -5.545348
-4.109049 -1.590020 -1.599976
-4.109050 -1.907342 -1.599976
-4.074759 -1.877053 -1.685790
-2.969695 -0.050000 -1.564645
-7.601175 -2.377774 -1.695617
-4.576284 -1.426396 -5.545365
-7.319669 -1.424763 -5.545365
0.413069 -0.184241 1.701215
-6.944197 -2.304938 1.766215
-4.171625 -2.349595 -1.617567
-4.189567 -1.940693 -1.514212
4.044547 0.976193 -3.510327
-12.219317 -0.248098 -2.147823
-10.828109 -0.890150 -2.148821
-7.211255 -2.237988 1.635355
-7.211257 -2.237988 1.766215
-8.122027 -1.849313 1.635355
-4.313185 -1.424453 -3.439508
-4.816855 -1.125657 -3.386905
-4.816855 -1.424671 -3.386905
-7.601175 -2.377774 -1.630617
-8.120761 -2.146827 -1.630617
-4.117363 -1.687528 -1.850432
-4.188081 -1.721984 -1.745309
-4.188102 -1.567858 -1.745291
-3.101188 -2.349586 -1.695605
-6.661150 -2.646480 1.701214
-3.166188 -3.621559 1.701177
-3.166181 -3.621614 -1.627807
-3.166174 -2.650325 -1.627813
-10.891257 -0.729909 -2.214645
-2.789212 -1.423215 -5.545365
-7.319669 -1.424763 -5.480365
-8.059669 -1.419870 -5.545365
-4.827244 -1.125660 -3.517183
-5.285045 -3.621850 -3.387846
-5.785474 -1.424689 -3.293278
-13.189850 0.199892 -5.480348
-4.171530 -3.621833 -1.627521
-4.140682 -2.650360 -1.695295
-4.171530 -2.650328 -1.627521
-4.539714 -1.610184 -2.682796
-4.319084 -1.605644 -2.682796
-4.416582 -1.445513 -2.682796
7.287915 2.822228 -3.678157
-7.041027 -2.583834 -1.695617
-7.132937 -2.562796 -1.695617
-3.974076 -2.349586 -1.695605
-4.077543 -2.339585 -1.574645
-4.077543 -2.349586 -1.695381
-4.140675 -2.349587 -1.695289
-0.255520 -0.193993 1.766215
-5.293129 -1.274997 -3.452809
-0.253606 -0.043458 1.635355
-0.255137 0.106743 1.635355
-6.942924 -2.602452 -1.695617
-9.986197 -1.235345 -2.083821
-9.833850 -1.279740 -2.083821
-9.697913 -1.310639 -2.083821
-9.551318 -1.340005 -2.083984
1.392195 -0.117972 -1.627544
-2.374858 -1.546111 -2.752893
-2.374858 -1.546111 -2.817893
-1.908772 -1.492004 -2.817893
-7.320524 -1.273362 -2.927825
-8.061970 -1.268456 -2.660383
-8.059669 -1.119134 -2.660383
-0.044489 -0.925624 -5.545365
-0.255520 -0.193994 1.701215
-1.389008 -1.399452 -5.480365
-7.132937 -2.263782 -1.695617
-9.072147 -1.394049 -5.480365
-8.655334 -1.410130 -5.480365
-0.875410 -1.277262 -2.752893
-0.540268 -1.143946 -2.817894
0.015996 -0.896230 -2.817895
0.015996 -0.896230 -2.752896
7.230576 2.493976 0.609302
-5.609620 -1.810859 -2.264723
-5.609620 -1.511846 -2.264723
-5.609601 -1.742188 -2.682762
-14.130375 -3.621559 -4.455379
-14.130375 0.638169 -4.455379
-1.147375 -1.365925 -2.752893
7.287916 2.822228 0.634298
-7.294855 -2.208375 1.766215
-7.294855 -2.509112 1.766215
-0.564075 -0.855835 -3.641006
-1.653369 -1.259078 -5.414645
-1.659288 -1.109842 -5.414645
-4.238410 -1.759199 -1.621012
-4.238294 -1.604815 -1.620917
-3.421747 -1.519368 -2.687209
-4.125138 -1.782033 -1.505619
-4.136157 -1.656595 -1.391558
-4.136157 -1.979243 -1.363065
-0.564075 -1.154849 -3.510196
-9.697949 -1.310639 -2.148821
7.230575 -3.621559 0.609302
-8.025215 -1.418622 -2.535671
-1.353748 -1.274339 -2.687209
1.668599 -0.058539 1.701215
1.532662 -0.089437 1.766215
1.532662 -0.089437 1.701215
1.668599 0.242198 1.635355
1.694408 0.094343 1.635355
2.019910 0.357832 1.635355
2.066866 0.216699 1.635355
1.820945 0.286594 1.635355
-9.351943 -1.372923 -5.480365
-8.655334 -1.410130 -5.545365
-6.749014 -2.487259 -1.564645
-9.063079 -1.393891 -2.239163
-8.120761 -1.847813 -1.564657
-1.389008 -1.098715 -5.414645
-1.389008 -1.098715 -5.545365
-1.039559 -1.345335 -5.545365
-1.389008 -1.399452 -5.545365
-3.238173 -1.357639 -2.034072
-1.223657 -1.384245 -5.480365
-3.238173 -1.674960 -2.034072
-3.244926 -1.674960 -2.098721
-4.132467 -1.877053 -1.715702
-2.107421 -1.117718 -5.545365
-1.247750 -1.391378 -2.752893
-3.944886 -1.491335 -1.847717
-3.852910 -1.779839 -1.910623
-3.852910 -1.462517 -1.910623
-4.827159 -1.274997 -3.517186
-9.351943 -1.072187 -5.414645
-9.083577 -1.242288 -5.414645
2.019910 0.057095 -1.627544
-3.022774 -1.646155 -2.119040
-7.042296 -2.587056 1.766215
-7.042296 -2.587056 1.701215
-7.602439 -2.380997 1.701215
-12.219317 -3.621849 -2.147823
-4.239308 -1.733471 -2.752893
-4.200856 -1.979243 -1.363066
-3.772094 -1.594511 -2.070469
-3.772270 -1.439734 -2.070662
3.194632 0.575589 -2.752905
-1.389008 -1.098715 -3.641006
-5.544508 -1.742215 -2.752891
1.820945 -0.014143 -1.695605
1.668599 -0.058539 -1.627544
0.013291 -0.761564 -5.414645
1.820945 -0.014143 -1.627544
-5.478445 -1.610184 -2.569067
-0.564075 -0.855835 -5.414645
-0.509483 -0.993904 -5.414645
-0.878906 -0.987691 -5.414645
-1.147403 -1.066912 -2.687209
-9.833850 -1.279740 -2.148821
-9.986197 -1.235345 -2.148821
-7.602439 -2.380997 1.766215
-7.319669 -1.124027 -2.927825
1.199412 0.157932 -1.564645
-0.878906 -1.286705 -3.575196
-7.294855 -2.509112 1.701215
2.019910 0.357832 1.766215
1.820945 0.286594 1.766215
-14.135354 0.775002 0.607480
-1.659288 -1.408856 -3.575196
-1.659288 -1.109842 -5.545365
-9.063079 -3.621850 -2.239162
-8.644013 -1.409391 -2.373564
-6.594309 -2.650331 1.701214
-3.166188 -2.650331 1.701178
0.417694 -0.033646 1.635355
-6.958086 -2.456908 -1.564645
1.532662 -0.089437 -1.627544
-4.269187 -1.830893 -1.394863
-0.818469 -1.122889 -2.214540
-1.000774 -1.189708 -2.214645
-1.567135 -1.307887 -2.214645
-6.223548 -1.125660 -3.254564
-6.711514 -1.125196 -3.119216
-3.754964 -1.756724 -1.951525
-3.611499 -1.729829 -2.046037
-3.986634 -1.808657 -1.897538
-3.944886 -1.808657 -1.847717
-4.017925 -1.840653 -1.773253
-4.068631 -1.840653 -1.813921
-4.171616 -1.907342 -1.617597
-4.125138 -1.940693 -1.505619
-4.824678 -3.621850 -3.451433
-9.554881 -1.340005 -2.148887
-9.345967 -1.372894 -2.171624
-4.132467 -3.621997 -1.715702
-4.068630 -3.621910 -1.813921
-9.554881 -3.621850 -2.148886
-7.346184 -2.349978 1.635355
-7.294855 -2.208375 1.635355
-1.389008 -1.397729 -3.575196
-0.044489 -0.923902 -3.575196
-14.183599 0.662961 -4.484896
-9.372784 -1.220353 -5.414645
-4.135705 -1.705575 -1.214134
-13.242720 0.359116 1.635355
-3.883942 -3.621823 -1.967737
-3.101188 -2.650325 -1.695605
-2.107421 -1.416732 -3.575196
-4.269162 -1.705575 -1.214134
-1.223657 -1.382523 -3.575196
-14.135354 0.775002 -4.446241
2.345877 0.330338 -1.564645
-6.223738 -1.274997 -3.254552
-0.540267 -1.143946 -2.752894
-6.644746 -2.499995 1.635355
-6.853329 -2.473303 1.635355
-6.703238 -3.621850 -3.054333
1.858162 0.142068 1.635355
-1.159819 -1.071406 -2.081340
-1.653369 -1.259078 -3.641006
2.292340 0.468851 -1.564645
-4.020253 -1.653297 -1.943774
1.550251 0.061422 1.635355
-0.540268 -0.844932 -2.817894
-4.017925 -1.523331 -1.773253
-4.117334 -1.533386 -1.850480
-4.074759 -1.559731 -1.685790
-4.125138 -1.623372 -1.505619
-0.540266 -0.844915 -2.687259
0.073857 -0.733681 -2.213597
-0.878906 -1.288427 -5.545365
-2.374858 -1.247097 -2.817893
-1.375306 -1.247510 -3.641006
2.663244 0.331247 1.766215
-5.771826 -1.424689 -3.229727
-2.788751 -1.421488 -3.575191
-3.880415 -1.706785 -2.752893
-1.212621 -1.231911 -5.414645
-8.660837 -1.258643 -5.414645
-10.185160 -1.164107 -2.083821
-2.796530 -1.301007 -2.067893
-1.908772 -1.492004 -2.752893
-1.375306 -1.247510 -5.414645
-1.107160 -1.211856 -5.414645
-2.969695 -0.050000 1.635355
2.663324 0.632012 -1.564651
-5.609655 -1.979242 -1.363066
-7.041027 -2.583834 -1.630617
-8.059669 -1.419870 -5.480365
1.392195 -0.117972 1.766215
-5.790399 -1.274997 -3.358852
-0.878906 -0.987691 -5.545365
-9.699179 -1.013125 -5.545365
-6.711724 -1.274532 -3.119270
-12.218946 -3.621849 -1.630508
-3.634778 -1.274201 -3.618719
0.015875 -0.914383 -2.081324
-3.036174 -0.200523 1.701211
4.406188 -3.621848 -2.752892
-3.486929 -3.621823 -2.067242
-9.345967 -3.621850 -2.171623
-4.539715 -1.972680 -1.359554
-10.185160 -0.865093 -2.083821
-5.785474 -3.621850 -3.293278
-6.213130 -3.621850 -3.190304
-5.375116 -1.930055 -1.336349
-3.633443 -3.621850 -3.552924
-13.189569 -3.621559 1.701193
-3.022774 -3.621823 -2.119040
1.199411 -0.142805 1.766215
-14.130367 -3.621559 0.617554
-5.478445 -1.610185 -2.682796
-10.828085 -0.890150 -2.083821
-3.986634 -3.621823 -1.897538
-0.485263 -0.982809 -2.687233
-3.101188 -0.200523 1.766215
-9.986197 -0.936331 -2.083821
-4.140682 -3.621997 -1.695295
-3.611498 -3.621823 -2.046037
-9.699179 -1.313862 -5.545365
1.392195 -0.117972 1.701215
-6.627934 -2.648600 -1.695605
-1.131471 -1.065636 -5.545365
-3.370764 -3.621823 -2.083937
-1.589670 -1.450375 -2.752893
-3.244926 -3.621823 -2.098721
7.230575 -3.621559 -3.652679
3 0 1 2
3 3 4 5
3 6 7 8
3 9 10 11
3 12 13 14
3 15 16 17
3 18 19 20
3 21 22 23
3 24 25 26
3 27 28 29
3 30 31 32
3 33 34 35
3 36 37 38
3 39 40 41
3 42 43 44
3 45 46 47
3 48 49 50
3 51 52 53
3 54 55 56
3 57 58 59
3 60 61 62
3 39 41 63
3 64 65 66
3 67 68 69
3 70 71 72
3 73 74 75
3 76 77 78
3 79 80 81
3 82 83 84
3 23 85 21
3 86 87 0
3 88 89 90
3 91 92 93
3 40 94 41
3 95 96 97
3 98 99 100
3 101 102 103
3 22 104 105
3 106 107 108
3 109 110 111
3 110 109 112
3 113 114 60
3 115 116 117
3 118 119 120
3 121 122 123
3 84 79 124
3 125 126 83
3 30 127 31
3 128 129 130
3 131 73 75
3 132 22 133
3 134 135 136
3 137 138 139
3 140 141 142
3 113 126 114
3 143 144 145
3 144 146 145
3 144 147 146
3 148 146 147
3 22 149 133
3 150 151 152
3 153 154 155
3 156 157 158
3 159 160 161
3 139 162 137
3 163 30 32
3 64 66 164
3 165 166 167
3 168 169 170
3 171 172 51
3 173 174 175
3 176 177 178
3 179 180 181
3 182 183 117
3 184 185 186
3 187 110 112
3 188 189 120
3 144 190 147
3 53 52 191
3 29 192 193
3 194 195 196
3 134 136 197
3 198 199 200
3 201 202 107
3 203 192 204
3 205 206 207
3 208 183 209
3 91 93 210
3 211 212 213
3 214 215 216
3 217 218 219
3 220 221 222
3 20 19 223
3 141 224 225
3 226 227 228
3 191 229 53
3 230 231 36
3 232 233 234
3 235 236 237
3 238 239 240
3 241 84 83
3 0 87 1
3 242 243 244
3 216 215 245
3 27 246 28
3 247 142 248
3 142 247 249
3 249 140 142
3 140 249 250
3 251 252 253
3 254 255 256
3 173 175 257
3 193 192 203
3 19 258 259
3 228 227 260
3 261 262 263
3 264 265 135
3 266 267 268
3 269 270 271
3 96 272 199
3 273 274 275
3 276 277 159
3 278 279 230
3 280 117 281
3 60 114 147
3 155 154 282
3 74 73 283
3 96 185 284
3 285 286 287
3 288 289 290
3 291 292 293
3 294 295 4
3 18 20 296
3 230 279 297
3 38 298 299
3 36 38 299
3 300 301 302
3 303 304 305
3 302 306 300
3 307 308 309
3 310 311 312
3 313 314 315
3 229 316 317
3 318 319 320
3 321 322 323
3 82 324 325
3 326 327 328
3 329 330 331
3 96 199 97
3 332 333 334
3 258 335 259
3 232 234 336
3 167 337 165
3 59 120 189
3 212 62 338
3 339 340 261
3 341 331 330
3 329 342 339
3 343 58 344
3 345 346 347
3 19 259 223
3 348 349 109
3 350 90 351
3 352 75 278
3 28 246 294
3 353 57 59
3 354 355 336
3 356 357 354
3 233 356 354
3 358 359 167
3 360 361 362
3 354 336 234
3 363 364 337
3 365 366 354
3 12 367 13
3 368 369 354
3 354 348 355
3 370 371 372
3 373 374 375
3 153 376 377
3 378 379 380
3 381 382 383
3 384 362 361
3 385 347 80
3 386 387 388
3 387 386 389
3 390 15 17
3 391 392 393
3 394 395 94
3 396 363 397
3 398 399 400
3 332 43 401
3 402 403 57
3 127 49 48
3 404 405 393
3 13 406 14
3 171 317 404
3 407 408 409
3 302 161 160
3 410 125 83
3 353 189 411
3 293 412 291
3 413 128 414
3 187 415 110
3 255 416 417
3 388 387 51
3 277 418 159
3 160 159 418
3 419 420 421
3 422 83 213
3 423 424 425
3 426 206 427
3 360 428 421
3 377 429 282
3 283 73 430
3 266 268 431
3 284 184 219
3 422 213 432
3 379 141 225
3 424 433 434
3 435 150 152
3 436 437 438
3 38 439 440
3 441 375 374
3 442 443 444
3 445 10 446
3 108 447 448
3 449 450 451
3 452 453 454
3 455 456 457
3 458 459 460
3 461 12 330
3 67 69 462
3 463 464 465
3 466 370 467
3 468 292 469
3 197 136 470
3 471 173 257
3 30 472 127
3 473 447 108
3 474 475 476
3 409 264 42
3 150 98 151
3 477 176 252
3 226 228 478
3 479 477 252
3 480 164 481
3 482 300 483
3 84 484 80
3 419 421 485
3 486 3 487
3 486 487 488
3 489 490 87
3 491 492 253
3 26 25 491
3 169 493 494
3 495 496 497
3 496 498 497
3 499 500 501
3 502 503 397
3 370 504 505
3 184 284 185
3 506 507 508
3 309 55 267
3 509 156 158
3 200 510 511
3 512 475 513
3 513 475 514
3 348 515 355
3 477 177 176
3 5 4 516
3 517 518 519
3 278 74 279
3 412 520 426
3 155 34 33
3 521 202 201
3 127 472 522
3 523 276 159
3 524 525 526
3 89 527 528
3 34 529 470
3 530 136 135
3 531 532 533
3 83 534 535
3 536 537 538
3 238 539 540
3 179 541 180
3 91 280 92
3 238 542 539
3 543 452 544
3 545 457 456
3 546 547 548
3 549 46 441
3 222 550 551
3 459 552 553
3 554 555 552
3 416 138 417
3 556 557 558
3 559 560 561
3 562 454 563
3 128 564 565
3 17 329 339
3 566 567 568
3 548 569 546
3 570 571 195
3 531 572 532
3 42 44 409
3 236 194 237
3 573 574 526
3 574 320 575
3 576 543 577
3 218 578 579
3 580 501 581
3 112 582 21
3 214 401 43
3 583 293 292
3 429 512 196
3 475 584 514
3 454 544 452
3 584 585 440
3 429 196 547
3 586 587 588
3 589 198 511
3 548 196 195
3 358 167 399
3 384 590 502
3 591 333 556
3 592 558 557
3 218 579 593
3 594 499 580
3 595 596 82
3 127 48 31
3 118 120 597
3 598 599 9
3 98 100 151
3 14 330 12
3 581 600 601
3 283 323 602
3 603 604 605
3 237 440 439
3 398 535 534
3 535 398 400
3 330 329 17
3 44 43 334
3 590 606 607
3 608 609 610
3 611 79 81
3 345 466 612
3 613 614 615
3 616 413 414
3 617 281 333
3 476 512 376
3 618 619 592
3 200 511 198
3 620 509 604
3 621 350 622
3 584 474 623
3 624 625 626
3 627 628 629
3 630 294 4
3 22 105 149
3 631 632 359
3 633 634 124
3 634 633 635
3 595 635 636
3 595 634 635
3 82 634 595
3 283 279 74
3 628 54 56
3 510 200 637
3 229 191 357
3 133 149 177
3 232 226 478
3 468 238 240
3 620 638 509
3 351 158 157
3 639 640 1
3 534 179 398
3 340 262 261
3 631 641 181
3 642 643 469
3 644 645 539
3 30 646 472
3 647 648 649
3 650 651 652
3 561 560 653
3 654 593 579
3 655 117 210
3 632 384 656
3 153 657 658
3 521 201 659
3 660 661 662
3 248 379 378
3 29 47 663
3 52 51 387
3 325 410 83
3 287 52 387
3 59 597 120
3 664 665 666
3 667 352 668
3 616 207 206
3 669 310 202
3 28 294 630
3 557 618 592
3 204 192 670
3 671 672 601
3 335 673 256
3 214 674 675
3 6 163 7
3 63 198 589
3 676 123 677
3 523 190 144
3 54 678 55
3 645 540 539
3 679 680 681
3 597 59 58
3 682 344 335
3 683 644 643
3 684 27 663
3 433 378 685
3 686 449 451
3 57 403 673
3 628 56 629
3 307 648 647
3 687 688 689
3 690 691 274
3 652 378 433
3 692 693 694
3 98 150 538
3 33 35 695
3 657 530 696
3 130 396 397
3 697 241 400
3 698 380 225
3 23 22 132
3 128 699 564
3 700 320 701
3 195 571 548
3 115 702 116
3 238 540 140
3 614 626 615
3 210 703 655
3 164 704 288
3 705 318 115
3 289 706 707
3 334 558 407
3 481 164 288
3 708 636 625
3 264 134 42
3 373 375 572
3 208 209 246
3 675 709 215
3 194 570 195
3 710 460 310
3 695 530 657
3 368 286 285
3 492 251 253
3 369 368 285
3 226 355 227
3 711 712 713
3 620 714 638
3 214 216 401
3 548 547 196
3 403 254 673
3 489 87 456
3 543 544 577
3 190 338 147
3 197 715 716
3 149 717 178
3 230 297 231
3 290 289 718
3 126 213 83
3 130 397 699
3 353 437 402
3 719 462 720
3 384 361 606
3 721 73 131
3 524 526 574
3 381 295 382
3 546 517 519
3 194 196 513
3 103 599 722
3 179 181 641
3 723 483 307
3 497 594 495
3 681 550 724
3 504 720 505
3 550 222 724
3 270 725 726
3 120 661 188
3 727 661 120
3 137 728 261
3 359 337 167
3 729 666 301
3 730 731 6
3 544 203 577
3 732 516 381
3 178 733 730
3 215 214 675
3 49 186 95
3 127 522 49
3 2 640 510
3 734 160 418
3 732 381 735
3 84 80 79
3 736 735 737
3 437 411 438
3 311 738 312
3 739 642 740
3 721 741 73
3 163 646 30
3 265 696 135
3 35 34 470
3 742 652 433
3 577 204 576
3 94 395 743
3 292 468 583
3 744 19 18
3 69 672 745
3 746 694 747
3 25 492 491
3 41 48 50
3 101 103 722
3 651 247 248
3 36 231 748
3 749 342 331
3 376 429 377
3 700 750 675
3 487 204 488
3 654 579 637
3 751 471 752
3 345 753 754
3 94 31 48
3 755 639 1
3 756 697 400
3 37 235 439
3 6 757 163
3 381 516 295
3 229 357 356
3 65 435 66
3 215 709 245
3 121 758 122
3 537 99 98
3 347 81 80
3 759 760 244
3 392 761 404
3 761 172 171
3 212 211 60
3 494 568 567
3 270 726 271
3 406 620 604
3 27 208 246
3 762 763 423
3 764 765 537
3 765 764 508
3 712 508 764
3 508 712 506
3 766 506 712
3 712 767 766
3 768 766 767
3 766 768 769
3 768 708 769
3 768 588 708
3 587 708 588
3 708 587 770
3 587 596 770
3 596 587 771
3 280 281 617
3 280 617 92
3 594 372 495
3 365 369 285
3 553 311 460
3 604 509 158
3 395 24 743
3 655 319 705
3 699 446 564
3 88 90 772
3 695 35 530
3 711 767 712
3 149 105 717
3 719 67 462
3 544 562 203
3 655 703 319
3 773 644 683
3 644 773 645
3 774 645 773
3 645 774 224
3 90 605 351
3 62 212 60
3 150 435 271
3 232 316 233
3 512 513 196
3 41 94 48
3 537 765 99
3 253 8 7
3 251 479 252
3 708 775 776
3 777 773 683
3 778 779 600
3 780 342 749
3 705 115 117
3 580 499 501
3 732 5 516
3 490 755 87
3 781 343 682
3 782 298 585
3 783 716 715
3 500 600 501
3 781 682 305
3 498 499 497
3 550 681 784
3 49 95 50
3 785 297 602
3 75 74 278
3 506 786 507
3 275 274 457
3 40 394 94
3 784 551 550
3 730 6 8
3 740 101 777
3 615 787 346
3 32 743 26
3 311 465 451
3 359 656 337
3 749 331 788
3 498 500 499
3 771 681 596
3 596 681 724
3 630 4 486
3 651 248 652
3 211 126 113
3 763 742 424
3 70 222 221
3 220 789 71
3 296 262 790
3 36 748 791
3 153 618 557
3 221 220 71
3 348 109 111
3 778 321 779
3 243 391 393
3 51 53 171
3 9 564 10
3 169 260 493
3 782 585 623
3 479 792 477
3 793 763 762
3 439 38 37
3 305 258 744
3 323 322 602
3 95 185 96
3 789 758 71
3 66 704 164
3 466 467 612
3 660 662 794
3 385 795 314
3 796 496 495
3 168 260 169
3 260 168 228
3 244 228 168
3 228 244 478
3 797 327 326
3 694 798 690
3 393 799 243
3 799 393 405
3 728 800 390
3 762 423 157
3 510 640 511
3 245 332 401
3 611 633 79
3 792 801 477
3 86 456 87
3 520 616 206
3 442 802 443
3 248 378 652
3 372 313 495
3 44 407 409
3 222 70 724
3 274 803 457
3 385 80 484
3 795 315 314
3 345 612 753
3 661 660 804
3 151 707 706
3 538 726 536
3 444 536 726
3 536 444 713
3 443 713 444
3 713 443 711
3 443 805 711
3 805 443 806
3 806 807 805
3 806 610 807
3 610 586 807
3 610 677 586
3 808 586 677
3 123 808 677
3 680 808 123
3 122 680 123
3 784 680 122
3 789 784 122
3 804 448 809
3 322 785 602
3 731 733 349
3 315 796 313
3 242 391 243
3 85 187 112
3 494 810 169
3 803 455 457
3 243 478 244
3 691 803 274
3 551 220 222
3 559 811 560
3 726 538 271
3 780 340 342
3 809 188 804
3 782 299 298
3 569 517 546
3 520 206 426
3 188 438 189
3 459 554 552
3 649 648 812
3 162 813 728
3 90 603 605
3 137 261 263
3 89 528 603
3 518 783 715
3 24 26 743
3 328 425 326
3 332 334 43
3 241 535 400
3 56 55 309
3 56 309 308
3 56 308 629
3 629 308 306
3 725 444 726
3 792 76 801
3 364 165 337
3 441 814 375
3 190 523 665
3 166 756 399
3 812 431 555
3 327 815 328
3 747 690 273
3 527 816 528
3 723 307 817
3 700 818 575
3 29 193 47
3 384 606 590
3 401 216 245
3 390 261 728
3 788 331 341
3 813 800 728
3 528 816 341
3 710 310 669
3 675 674 700
3 673 58 57
3 816 788 341
3 622 350 351
3 90 89 603
3 668 352 278
3 790 340 780
3 716 819 197
3 17 461 330
3 413 129 128
3 50 95 97
3 334 407 44
3 385 371 347
3 763 424 423
3 36 299 230
3 256 255 417
3 285 290 365
3 101 820 102
3 288 821 481
3 211 113 60
3 289 707 718
3 172 388 51
3 565 414 128
3 143 523 144
3 257 175 434
3 408 264 409
3 17 339 390
3 819 42 134
3 683 643 739
3 405 232 799
3 237 439 235
3 307 647 817
3 283 430 323
3 727 120 119
3 650 652 742
3 647 649 822
3 197 470 715
3 561 653 182
3 93 92 709
3 705 319 318
3 246 209 295
3 11 722 598
3 282 429 547
3 29 670 192
3 674 823 700
3 471 257 752
3 468 469 542
3 458 460 710
3 669 202 521
3 751 752 698
3 107 106 201
3 482 483 723
3 818 824 575
3 755 1 87
3 823 818 700
3 353 59 189
3 526 525 737
3 825 511 640
3 76 826 801
3 156 762 157
3 77 566 78
3 198 97 199
3 205 427 206
3 664 827 190
3 238 468 542
3 351 157 815
3 592 408 407
3 138 259 417
3 631 181 828
3 824 524 574
3 423 815 157
3 454 453 692
3 736 732 735
3 725 442 444
3 747 694 690
3 16 461 17
3 618 829 619
3 86 830 545
3 283 602 297
3 304 118 781
3 673 254 256
3 353 411 437
3 672 68 581
3 590 607 445
3 69 68 672
3 704 706 289
3 638 831 156
3 735 383 832
3 545 456 86
3 526 737 832
3 833 282 547
3 608 610 806
3 675 750 709
3 82 84 124
3 793 834 763
3 775 708 625
3 632 656 359
3 143 276 523
3 484 795 385
3 834 650 742
3 445 607 10
3 810 170 169
3 633 124 79
3 310 460 311
3 613 615 754
3 360 835 361
3 631 362 632
3 12 836 367
3 555 649 812
3 112 109 582
3 307 483 308
3 61 60 147
3 821 285 287
3 837 110 493
3 47 684 663
3 288 290 821
3 284 219 838
3 669 839 710
3 704 289 288
3 408 265 264
3 536 764 537
3 765 840 99
3 3 486 4
3 830 688 545
3 559 561 117
3 688 533 275
3 98 538 537
3 777 841 774
3 717 105 349
3 698 752 380
3 291 469 292
3 713 764 536
3 70 72 842
3 700 575 320
3 82 70 842
3 291 426 843
3 349 522 472
3 304 781 305
3 780 749 303
3 844 327 845
3 807 768 805
3 125 846 126
3 847 89 88
3 660 201 106
3 480 64 164
3 846 114 126
3 82 842 324
3 679 587 586
3 680 679 808
3 415 187 566
3 193 45 47
3 314 372 371
3 586 588 807
3 416 139 138
3 462 69 848
3 621 622 844
3 589 511 825
3 138 137 263
3 656 502 363
3 707 849 718
3 664 432 213
3 623 153 667
3 28 630 670
3 153 695 657
3 210 117 91
3 153 658 829
3 91 117 280
3 153 829 618
3 556 281 153
3 153 33 695
3 705 117 655
3 117 153 281
3 217 850 578
3 617 333 332
3 491 7 32
3 183 208 117
3 641 631 358
3 10 564 446
3 153 623 474
3 153 474 476
3 561 182 117
3 696 530 135
3 351 815 622
3 483 306 308
3 153 476 376
3 243 799 478
3 590 445 503
3 782 668 278
3 229 233 316
3 81 787 611
3 116 559 117
3 398 641 358
3 804 106 448
3 42 214 43
3 593 654 219
3 809 438 188
3 714 13 367
3 286 191 52
3 29 663 27
3 759 244 168
3 461 836 12
3 486 488 670
3 831 762 156
3 152 151 706
3 843 427 102
3 774 698 225
3 240 583 468
3 851 848 75
3 342 340 339
3 787 625 633
3 281 556 333
3 126 211 213
3 633 625 635
3 752 257 685
3 740 642 820
3 666 485 432
3 551 784 789
3 347 371 466
3 296 20 262
3 291 412 426
3 487 576 204
3 503 446 699
3 21 582 104
3 852 160 734
3 719 504 594
3 67 719 580
3 103 102 853
3 73 741 430
3 769 776 854
3 268 464 463
3 739 643 642
3 450 108 738
3 809 436 438
3 741 672 671
3 485 421 432
3 421 422 432
3 131 75 848
3 531 533 687
3 855 809 448
3 267 678 268
3 431 268 463
3 447 855 448
3 686 451 465
3 284 838 856
3 303 816 527
3 420 360 421
3 47 549 684
3 855 436 809
3 631 828 362
3 389 481 821
3 252 8 253
3 83 535 241
3 820 857 843
3 671 323 430
3 826 133 801
3 116 702 811
3 464 686 465
3 116 811 559
3 239 140 250
3 278 230 299
3 519 715 470
3 546 519 529
3 513 514 237
3 781 118 597
3 563 454 692
3 237 514 440
3 745 672 741
3 624 858 625
3 644 539 542
3 790 780 303
3 343 781 597
3 745 741 721
3 563 692 746
3 607 11 10
3 513 237 194
3 272 96 284
3 519 470 529
3 558 591 556
3 643 542 469
3 381 383 735
3 595 770 596
3 594 497 499
3 162 728 137
3 46 45 814
3 546 529 833
3 306 302 160
3 46 814 441
3 278 299 782
3 541 421 428
3 331 342 329
3 526 832 573
3 163 757 646
3 642 469 857
3 638 156 509
3 149 178 177
3 750 93 709
3 36 791 37
3 78 132 826
3 735 832 737
3 590 503 502
3 226 336 355
3 599 853 9
3 422 421 534
3 765 859 840
3 713 712 764
3 807 588 768
3 267 266 812
3 502 397 363
3 179 641 398
3 63 50 97
3 358 631 359
3 49 522 186
3 291 857 469
3 314 313 372
3 346 754 615
3 85 23 78
3 494 493 415
3 820 642 857
3 205 565 9
3 568 494 415
3 138 223 259
3 853 102 427
3 205 853 427
3 423 328 815
3 52 287 286
3 568 415 566
3 338 190 827
3 349 646 757
3 370 505 467
3 286 357 191
3 34 860 529
3 110 515 111
3 253 7 491
3 151 100 707
3 730 733 731
3 689 830 861
3 504 719 720
3 118 304 839
3 657 696 658
3 729 485 666
3 613 753 612
3 821 287 389
3 727 839 662
3 217 830 850
3 118 839 119
3 338 61 147
3 738 451 450
3 379 225 380
3 709 92 245
3 838 637 856
3 377 282 154
3 424 434 425
3 565 205 207
3 485 729 419
3 423 425 328
3 565 207 414
3 103 853 599
3 598 9 11
3 619 696 265
3 393 392 404
3 426 427 843
3 295 516 4
3 577 203 204
3 605 158 351
3 378 380 685
3 385 314 371
3 541 862 421
3 673 344 58
3 838 654 637
3 38 440 298
3 671 779 323
3 252 176 8
3 272 284 856
3 826 132 133
3 279 283 297
3 594 580 719
3 679 681 771
3 182 209 183
3 790 262 340
3 239 238 140
3 770 595 636
3 390 339 261
3 555 463 552
3 625 636 635
3 267 55 678
3 613 612 467
3 300 482 729
3 433 685 434
3 20 223 263
3 594 504 372
3 718 365 290
3 789 122 758
3 827 212 338
3 166 399 167
3 824 574 575
3 837 493 260
3 70 221 71
3 190 665 664
3 581 67 580
3 311 553 465
3 9 565 564
3 232 336 226
3 227 515 837
3 174 326 175
3 11 835 722
3 858 775 625
3 21 104 22
3 142 379 248
3 701 703 750
3 503 699 397
3 592 619 408
3 178 717 733
3 822 649 554
3 32 31 743
3 615 626 625
3 639 825 640
3 346 345 754
3 615 625 787
3 777 739 740
3 551 789 220
3 802 608 806
3 199 272 856
3 782 623 668
3 584 440 514
3 760 242 244
3 666 432 664
3 740 820 101
3 383 382 653
3 850 830 86
3 603 406 604
3 408 619 265
3 752 685 380
3 212 827 213
3 35 470 136
3 722 777 101
3 269 271 435
3 461 16 836
3 633 611 787
3 476 475 512
3 777 683 739
3 318 320 863
3 495 313 796
3 681 680 784
3 99 840 864
3 702 863 573
3 554 649 555
3 811 573 832
3 424 742 433
3 835 606 361
3 826 76 78
3 488 204 670
3 585 298 440
3 538 150 271
3 689 861 549
3 841 751 698
3 665 523 159
3 155 282 860
3 152 706 704
3 865 554 459
3 805 768 767
3 566 85 78
3 348 111 515
3 187 85 566
3 847 527 89
3 316 232 405
3 699 128 130
3 851 75 352
3 301 300 729
3 630 486 670
3 774 225 224
3 197 819 134
3 114 148 147
3 844 622 327
3 835 607 606
3 227 837 260
3 727 662 661
3 179 862 541
3 317 53 229
3 181 180 360
3 623 667 668
3 28 670 29
3 549 373 531
3 766 854 786
3 616 414 207
3 546 833 547
3 654 838 219
3 218 593 219
3 133 177 477
3 549 374 373
3 217 578 218
3 585 584 623
3 860 282 833
3 384 632 362
3 219 549 217
3 491 32 26
3 500 778 600
3 94 743 31
3 232 478 799
3 317 316 405
3 556 153 557
3 700 701 750
3 562 544 454
3 236 570 194
3 115 318 702
3 349 472 646
3 435 152 66
3 353 402 57
3 566 77 567
3 105 104 349
3 406 603 528
3 531 373 572
3 106 108 448
3 634 82 124
3 574 863 320
3 525 736 737
3 104 582 349
3 832 383 560
3 733 717 349
3 133 477 801
3 541 428 360
3 417 335 256
3 571 569 548
3 658 696 619
3 582 109 349
3 664 213 827
3 609 676 677
3 14 528 341
3 370 466 371
3 779 321 323
3 425 434 326
3 140 540 141
3 519 518 715
3 455 489 456
3 138 263 223
3 0 850 86
3 333 591 334
3 558 592 407
3 703 93 750
3 545 688 275
3 601 600 779
3 349 184 186
3 92 617 245
3 100 866 707
3 375 563 746
3 386 481 389
3 578 0 2
3 45 203 562
3 110 415 493
3 572 746 747
3 434 685 257
3 814 562 563
3 175 326 434
3 171 404 761
3 327 622 815
3 319 703 701
3 320 319 701
3 702 318 863
3 822 554 865
3 629 306 160
3 560 811 832
3 848 720 462
3 718 366 365
3 572 375 746
3 777 774 773
3 653 560 383
3 573 811 702
3 375 814 563
3 865 459 458
3 174 797 326
3 756 400 399
3 667 851 352
3 234 233 354
3 275 533 273
3 365 354 369
3 295 209 382
3 708 770 636
3 814 45 562
3 264 135 134
3 106 804 660
3 841 698 774
3 45 193 203
3 769 854 766
3 578 850 0
3 800 15 390
3 798 691 690
3 508 859 765
3 291 843 857
3 659 839 521
3 521 839 669
3 312 108 107
3 567 810 494
3 188 661 804
3 419 729 482
3 200 856 637
3 404 317 405
3 311 451 738
3 170 759 168
3 772 350 621
3 460 459 553
3 648 307 309
3 202 310 312
3 785 231 297
3 687 533 688
3 665 161 666
3 178 730 176
3 302 301 666
3 553 463 465
3 865 458 839
3 160 627 629
3 303 527 847
3 637 579 510
3 419 817 647
3 357 368 354
3 466 345 347
3 82 724 70
3 721 131 848
3 81 346 787
3 613 754 753
3 296 303 18
3 419 822 865
3 142 141 379
3 812 266 431
3 656 363 337
3 746 692 694
3 458 710 839
3 376 512 429
3 747 273 532
3 788 816 303
3 589 39 63
3 419 723 817
3 662 839 794
3 707 866 849
3 161 302 666
3 419 482 723
3 745 721 848
3 229 356 233
3 68 67 581
3 296 790 303
3 119 839 727
3 155 860 34
3 730 8 176
3 714 620 13
3 303 744 18
3 839 419 865
3 614 624 626
3 295 294 246
3 772 90 350
3 553 552 463
3 785 748 231
3 63 41 50
3 227 355 515
3 210 93 703
3 831 793 762
3 450 473 108
3 335 344 673
3 676 121 123
3 684 867 27
3 445 446 503
3 581 501 600
3 312 738 108
3 591 558 334
3 508 507 859
3 474 584 475
3 286 368 357
3 198 63 97
3 718 849 366
3 648 309 812
3 349 186 522
3 658 619 829
3 258 682 335
3 343 597 58
3 95 186 185
3 110 837 515
3 406 528 14
3 689 688 830
3 14 341 330
3 601 779 671
3 217 861 830
3 609 677 610
3 682 343 344
3 757 731 349
3 2 1 640
3 549 687 689
3 305 682 258
3 504 370 372
3 555 431 463
3 794 839 659
3 6 731 757
3 182 653 209
3 262 20 263
3 112 21 85
3 848 505 720
3 766 786 506
3 430 741 671
3 83 82 325
3 601 672 581
3 362 828 360
3 744 258 19
3 821 290 285
3 65 269 435
3 643 644 542
3 102 820 843
3 665 159 161
3 828 181 360
3 867 117 208
3 69 745 848
3 599 598 722
3 679 771 587
3 180 541 360
3 835 11 607
3 9 853 205
3 794 659 201
3 860 833 529
3 861 217 549
3 549 531 687
3 586 808 679
3 867 208 27
3 549 441 374
3 338 62 61
3 453 693 692
3 549 47 46
3 396 364 363
3 530 35 136
3 384 502 656
3 848 467 505
3 153 377 154
3 533 532 273
3 805 767 711
3 83 422 534
3 794 201 660
3 209 653 382
3 802 806 443
3 532 572 747
3 245 617 332
3 2 510 579
3 421 862 534
3 153 155 33
3 78 23 132
3 812 309 267
3 419 647 822
3 579 578 2
3 596 724 82
3 13 620 406
3 163 32 7
3 398 358 399
3 171 53 317
3 708 776 769
3 749 788 303
3 99 864 100
3 645 224 540
3 852 627 160
3 573 863 574
3 483 300 306
3 862 179 534
3 273 690 274
3 66 152 704
3 797 845 327
3 386 480 481
3 848 613 467
3 438 411 189
3 693 798 694
3 605 604 158
3 303 305 744
3 834 742 763
3 275 457 545
3 346 81 347
3 107 202 312
3 417 259 335
3 141 540 224
3 387 389 287
3 100 864 866
3 199 856 200
