ply
format ascii 1.0
comment Created by Blender 2.83.0 - www.blender.org, source file: ''
element vertex 78
property float x
property float y
property float z
property float nx
property float ny
property float nz
property float s
property float t
element face 48
property list uchar uint vertex_indices
end_header
-0.011489 0.004786 0.157158 -0.827362 0.000000 0.561669 0.041931 0.183594
-0.020626 0.004786 0.143699 -0.827362 0.000000 0.561669 0.061157 0.215820
-0.020626 -0.000000 0.143699 -0.827362 0.000000 0.561669 0.049652 0.222656
-0.011489 -0.000000 0.157158 -0.827362 0.000000 0.561669 0.030426 0.190430
-0.011489 -0.000000 0.157158 -0.243787 0.000000 0.969829 0.776367 0.482422
0.000731 -0.000000 0.160230 -0.243787 0.000000 0.969829 0.776367 0.514648
0.000731 0.004786 0.160230 -0.243787 0.000000 0.969829 0.763672 0.514648
-0.011489 0.004786 0.157158 -0.243787 0.000000 0.969829 0.763672 0.482422
0.000731 -0.000000 0.160230 0.244743 0.000000 0.969588 0.776367 0.514648
0.012900 -0.000000 0.157158 0.244743 0.000000 0.969588 0.776367 0.546631
0.012900 0.004786 0.157158 0.244743 0.000000 0.969588 0.763672 0.546631
0.000731 0.004786 0.160230 0.244743 0.000000 0.969588 0.763672 0.514648
0.021409 0.004786 0.143390 0.850629 0.000000 0.525766 0.488770 0.879211
0.012900 -0.000000 0.157158 0.850629 0.000000 0.525766 0.497070 0.919067
0.021409 -0.000000 0.143390 0.850629 0.000000 0.525766 0.477295 0.885986
0.012900 0.004786 0.157158 0.850629 0.000000 0.525766 0.508301 0.912231
0.179284 0.004786 -0.128287 0.864614 0.000000 0.502437 0.101746 0.227539
0.021409 -0.000000 0.143390 0.864614 0.000000 0.502437 0.477295 0.885986
0.179284 0.000000 -0.128287 0.864614 0.000000 0.502437 0.090271 0.234375
0.021409 0.004786 0.143390 0.864614 0.000000 0.502437 0.488770 0.879211
0.181551 0.004786 -0.141886 0.986394 0.000000 0.164399 0.082397 0.194824
0.179284 0.000000 -0.128287 0.986394 0.000000 0.164399 0.090271 0.234375
0.181551 0.000000 -0.141886 0.986394 0.000000 0.164399 0.070862 0.201660
0.179284 0.004786 -0.128287 0.986394 0.000000 0.164399 0.101746 0.227539
0.175658 0.004786 -0.152766 0.879292 0.000000 -0.476284 0.066833 0.168457
0.181551 0.000000 -0.141886 0.879292 0.000000 -0.476284 0.070862 0.201660
0.175658 0.000000 -0.152766 0.879292 0.000000 -0.476284 0.055389 0.175293
0.181551 0.004786 -0.141886 0.879292 0.000000 -0.476284 0.082397 0.194824
0.165685 0.004786 -0.159565 0.563337 0.000000 -0.826227 0.472168 0.962677
0.175658 0.004786 -0.152766 0.563337 0.000000 -0.826227 0.485596 0.985092
0.175658 0.000000 -0.152766 0.563337 0.000000 -0.826227 0.474854 0.991478
0.165685 0.000000 -0.159565 0.563337 0.000000 -0.826227 0.461426 0.969070
-0.166138 0.004786 -0.158659 -0.002732 0.000000 -0.999996 0.029434 0.217285
0.165685 0.004786 -0.159565 -0.002732 0.000000 -0.999996 0.472168 0.962677
0.165685 0.000000 -0.159565 -0.002732 0.000000 -0.999996 0.461426 0.969070
-0.166138 0.000000 -0.158659 -0.002732 0.000000 -0.999996 0.018677 0.223633
-0.174751 0.004786 -0.154126 -0.465747 0.000000 -0.884918 0.017929 0.197754
-0.166138 0.004786 -0.158659 -0.465747 0.000000 -0.884918 0.029434 0.217285
-0.166138 0.000000 -0.158659 -0.465747 0.000000 -0.884918 0.018677 0.223633
-0.174751 0.000000 -0.154126 -0.465747 0.000000 -0.884918 0.007183 0.204102
-0.182457 0.004786 -0.142339 -0.836969 0.000000 -0.547250 0.469482 0.903442
-0.174751 0.004786 -0.154126 -0.836969 0.000000 -0.547250 0.486328 0.931824
-0.174751 0.000000 -0.154126 -0.836969 0.000000 -0.547250 0.474854 0.938629
-0.182457 0.000000 -0.142339 -0.836969 -0.000000 -0.547250 0.458008 0.910278
-0.179738 0.004786 -0.130100 -0.976187 0.000000 0.216930 0.452148 0.874023
-0.182457 0.004786 -0.142339 -0.976187 0.000000 0.216930 0.469482 0.903442
-0.182457 0.000000 -0.142339 -0.976187 0.000000 0.216930 0.458008 0.910278
-0.179738 0.000000 -0.130100 -0.976187 0.000000 0.216930 0.440674 0.880859
-0.020626 0.004786 0.143699 -0.864608 0.000000 0.502446 0.061157 0.215820
-0.179738 0.004786 -0.130100 -0.864608 0.000000 0.502446 0.452148 0.874023
-0.179738 0.000000 -0.130100 -0.864608 0.000000 0.502446 0.440674 0.880859
-0.020626 -0.000000 0.143699 -0.864608 0.000000 0.502446 0.049652 0.222656
0.000731 0.004786 0.160230 -0.000000 1.000000 0.000000 0.508301 0.841553
-0.020626 0.004786 0.143699 -0.000000 1.000000 0.000000 0.563965 0.798584
-0.011489 0.004786 0.157158 -0.000000 1.000000 0.000000 0.540039 0.833496
0.021409 0.004786 0.143390 -0.000000 1.000000 -0.000000 0.454834 0.797729
0.012900 0.004786 0.157158 0.000000 1.000000 0.000000 0.476807 0.833496
-0.179738 0.004786 -0.130100 -0.000000 1.000000 0.000000 0.978027 0.086426
0.179284 0.004786 -0.128287 0.000000 1.000000 0.000000 0.044037 0.090820
-0.174751 0.004786 -0.154126 -0.000000 1.000000 -0.000000 0.965332 0.023926
-0.182457 0.004786 -0.142339 -0.000000 1.000000 -0.000000 0.985352 0.054199
-0.166138 0.004786 -0.158659 0.000000 1.000000 0.000000 0.942871 0.011719
0.165685 0.004786 -0.159565 0.000000 1.000000 -0.000000 0.079407 0.009766
0.175658 0.004786 -0.152766 0.000000 1.000000 -0.000000 0.053467 0.027344
0.181551 0.004786 -0.141886 0.000000 1.000000 0.000000 0.038147 0.055664
-0.020626 -0.000000 0.143699 -0.000000 -1.000000 -0.000000 0.776367 0.574951
0.000731 -0.000000 0.160230 -0.000000 -1.000000 -0.000000 0.757324 0.560059
-0.011489 -0.000000 0.157158 -0.000000 -1.000000 -0.000000 0.768066 0.562988
0.021409 -0.000000 0.143390 -0.000000 -1.000000 -0.000000 0.738281 0.575195
0.012900 -0.000000 0.157158 0.000000 -1.000000 -0.000000 0.746094 0.562988
-0.179738 0.000000 -0.130100 -0.000000 -1.000000 -0.000000 0.919922 0.822021
0.179284 0.000000 -0.128287 0.000000 -1.000000 -0.000000 0.596191 0.820435
-0.174751 0.000000 -0.154126 -0.000000 -1.000000 -0.000000 0.915527 0.843750
-0.182457 0.000000 -0.142339 -0.000000 -1.000000 -0.000000 0.922363 0.833130
-0.166138 0.000000 -0.158659 -0.000000 -1.000000 -0.000000 0.907715 0.847778
0.165685 0.000000 -0.159565 0.000000 -1.000000 -0.000000 0.608398 0.848633
0.175658 0.000000 -0.152766 0.000000 -1.000000 -0.000000 0.599121 0.842529
0.181551 0.000000 -0.141886 -0.000000 -1.000000 -0.000000 0.593750 0.832642
3 0 1 2
3 2 3 0
3 4 5 6
3 4 6 7
3 8 9 10
3 8 10 11
3 12 13 14
3 13 12 15
3 16 17 18
3 17 16 19
3 20 21 22
3 21 20 23
3 24 25 26
3 25 24 27
3 28 29 30
3 28 30 31
3 32 33 34
3 32 34 35
3 36 37 38
3 36 38 39
3 40 41 42
3 42 43 40
3 44 45 46
3 46 47 44
3 48 49 50
3 50 51 48
3 52 53 54
3 52 55 53
3 55 52 56
3 55 57 53
3 57 55 58
3 57 59 60
3 59 57 61
3 57 58 61
3 61 58 62
3 62 58 63
3 63 58 64
3 65 66 67
3 68 66 65
3 66 68 69
3 70 68 65
3 68 70 71
3 72 70 73
3 74 70 72
3 74 71 70
3 71 74 75
3 76 71 75
3 71 76 77
