ply
format ascii 1.0
comment Created by Blender 2.83.0 - www.blender.org, source file: ''
element vertex 1200
property float x
property float y
property float z
element face 576
property list uchar uint vertex_indices
end_header
-0.017362 -0.005478 -0.030072
-0.008311 -0.014277 -0.031016
-0.016055 -0.014277 -0.027808
-0.008987 -0.005478 -0.033541
0.000944 -0.034922 -0.003524
0.000000 -0.032787 -0.012575
0.003255 -0.032787 -0.012147
0.000000 -0.034922 -0.003648
0.006288 -0.032787 -0.010891
0.005343 -0.028413 -0.019942
0.010323 -0.028413 -0.017879
0.003255 -0.032787 -0.012147
0.000000 -0.005478 -0.034724
0.008311 -0.014277 -0.031016
0.000000 -0.014277 -0.032110
0.008987 -0.005478 -0.033541
0.008499 0.012625 -0.031717
0.017486 0.003698 -0.030286
0.009051 0.003698 -0.033780
0.016418 0.012625 -0.028437
-0.008311 -0.014277 -0.031016
0.000000 -0.022100 -0.027308
-0.007068 -0.022100 -0.026378
0.000000 -0.014277 -0.032110
0.005733 0.027358 -0.021394
0.007163 0.032160 -0.012407
0.011074 0.027358 -0.019182
0.003708 0.032160 -0.013838
-0.000944 -0.034922 -0.003524
0.000000 -0.034922 -0.003648
0.000000 -0.034824 0.000000
0.000000 -0.034824 0.000000
0.000944 -0.034922 -0.003524
0.001824 -0.034922 -0.003160
0.001824 -0.034922 -0.003160
0.003255 -0.032787 -0.012147
0.006288 -0.032787 -0.010891
0.000944 -0.034922 -0.003524
0.000000 0.032160 -0.014326
0.001431 0.034773 -0.005339
0.003708 0.032160 -0.013838
0.000000 0.034773 -0.005527
0.000000 0.027358 -0.022149
0.007367 0.020695 -0.027492
0.000000 0.020695 -0.028462
0.005733 0.027358 -0.021394
-0.005733 0.027358 -0.021394
-0.007163 0.032160 -0.012407
-0.003708 0.032160 -0.013838
-0.011074 0.027358 -0.019182
-0.007367 0.020695 -0.027492
0.000000 0.012625 -0.032836
-0.008499 0.012625 -0.031717
0.000000 0.020695 -0.028462
-0.007367 0.020695 -0.027492
-0.011074 0.027358 -0.019182
-0.005733 0.027358 -0.021394
-0.014231 0.020695 -0.024649
0.010323 -0.028413 -0.017879
0.007068 -0.022100 -0.026378
0.013654 -0.022100 -0.023650
0.005343 -0.028413 -0.019942
0.008987 -0.005478 -0.033541
0.016055 -0.014277 -0.027808
0.008311 -0.014277 -0.031016
0.017362 -0.005478 -0.030072
0.000000 0.020695 -0.028462
0.008499 0.012625 -0.031717
0.000000 0.012625 -0.032836
0.007367 0.020695 -0.027492
-0.008987 -0.005478 -0.033541
0.000000 -0.014277 -0.032110
-0.008311 -0.014277 -0.031016
0.000000 -0.005478 -0.034724
-0.010323 -0.028413 -0.017879
-0.007068 -0.022100 -0.026378
-0.005343 -0.028413 -0.019942
-0.013654 -0.022100 -0.023650
0.003255 -0.032787 -0.012147
0.000000 -0.028413 -0.020645
0.005343 -0.028413 -0.019942
0.000000 -0.032787 -0.012575
-0.005733 0.027358 -0.021394
0.000000 0.032160 -0.014326
0.000000 0.027358 -0.022149
-0.003708 0.032160 -0.013838
-0.024729 0.003698 -0.024729
-0.017362 -0.005478 -0.030072
-0.024554 -0.005478 -0.024554
-0.017486 0.003698 -0.030286
-0.022706 -0.014277 -0.022706
-0.013654 -0.022100 -0.023650
-0.019310 -0.022100 -0.019310
-0.016055 -0.014277 -0.027808
-0.002580 -0.034922 -0.002580
-0.006288 -0.032787 -0.010891
-0.001824 -0.034922 -0.003160
-0.008892 -0.032787 -0.008892
0.000000 0.012625 -0.032836
0.009051 0.003698 -0.033780
0.000000 0.003698 -0.034972
0.008499 0.012625 -0.031717
-0.002580 -0.034922 -0.002580
-0.001824 -0.034922 -0.003160
0.000000 -0.034824 0.000000
-0.003708 0.032160 -0.013838
0.000000 0.034773 -0.005527
0.000000 0.032160 -0.014326
-0.001431 0.034773 -0.005339
-0.014231 0.020695 -0.024649
-0.008499 0.012625 -0.031717
-0.016418 0.012625 -0.028437
-0.007367 0.020695 -0.027492
0.000000 0.027358 -0.022149
0.003708 0.032160 -0.013838
0.005733 0.027358 -0.021394
0.000000 0.032160 -0.014326
0.009051 0.003698 -0.033780
0.017362 -0.005478 -0.030072
0.008987 -0.005478 -0.033541
0.017486 0.003698 -0.030286
0.000000 -0.034922 -0.003648
0.000944 -0.034922 -0.003524
0.000000 -0.034824 0.000000
0.005343 -0.028413 -0.019942
0.000000 -0.022100 -0.027308
0.007068 -0.022100 -0.026378
0.000000 -0.028413 -0.020645
-0.003255 -0.032787 -0.012147
0.000000 -0.028413 -0.020645
0.000000 -0.032787 -0.012575
-0.005343 -0.028413 -0.019942
-0.005733 0.027358 -0.021394
0.000000 0.020695 -0.028462
-0.007367 0.020695 -0.027492
0.000000 0.027358 -0.022149
0.000000 0.003698 -0.034972
0.008987 -0.005478 -0.033541
0.000000 -0.005478 -0.034724
0.009051 0.003698 -0.033780
-0.006288 -0.032787 -0.010891
-0.005343 -0.028413 -0.019942
-0.003255 -0.032787 -0.012147
-0.010323 -0.028413 -0.017879
0.000000 0.034922 0.000000
0.002764 0.034773 -0.004787
0.001431 0.034773 -0.005339
-0.005343 -0.028413 -0.019942
0.000000 -0.022100 -0.027308
0.000000 -0.028413 -0.020645
-0.007068 -0.022100 -0.026378
-0.016418 0.012625 -0.028437
-0.009051 0.003698 -0.033780
-0.017486 0.003698 -0.030286
-0.008499 0.012625 -0.031717
-0.003708 0.032160 -0.013838
-0.002764 0.034773 -0.004787
-0.001431 0.034773 -0.005339
-0.007163 0.032160 -0.012407
-0.023218 0.012625 -0.023218
-0.017486 0.003698 -0.030286
-0.024729 0.003698 -0.024729
-0.016418 0.012625 -0.028437
-0.024554 -0.005478 -0.024554
-0.016055 -0.014277 -0.027808
-0.022706 -0.014277 -0.022706
-0.017362 -0.005478 -0.030072
-0.014598 -0.028413 -0.014598
-0.013654 -0.022100 -0.023650
-0.010323 -0.028413 -0.017879
-0.019310 -0.022100 -0.019310
-0.003908 0.034773 -0.003908
0.000000 0.034922 0.000000
-0.002764 0.034773 -0.004787
-0.007163 0.032160 -0.012407
-0.003908 0.034773 -0.003908
-0.002764 0.034773 -0.004787
-0.010130 0.032160 -0.010130
0.000000 0.034922 0.000000
0.001431 0.034773 -0.005339
0.000000 0.034773 -0.005527
0.003708 0.032160 -0.013838
0.002764 0.034773 -0.004787
0.007163 0.032160 -0.012407
0.001431 0.034773 -0.005339
0.000000 -0.014277 -0.032110
0.007068 -0.022100 -0.026378
0.000000 -0.022100 -0.027308
0.008311 -0.014277 -0.031016
-0.000944 -0.034922 -0.003524
0.000000 -0.032787 -0.012575
0.000000 -0.034922 -0.003648
-0.003255 -0.032787 -0.012147
-0.020126 0.020695 -0.020126
-0.016418 0.012625 -0.028437
-0.023218 0.012625 -0.023218
-0.014231 0.020695 -0.024649
-0.008892 -0.032787 -0.008892
-0.010323 -0.028413 -0.017879
-0.006288 -0.032787 -0.010891
-0.014598 -0.028413 -0.014598
-0.008499 0.012625 -0.031717
0.000000 0.003698 -0.034972
-0.009051 0.003698 -0.033780
0.000000 0.012625 -0.032836
-0.011074 0.027358 -0.019182
-0.010130 0.032160 -0.010130
-0.007163 0.032160 -0.012407
-0.015662 0.027358 -0.015662
-0.014231 0.020695 -0.024649
-0.015662 0.027358 -0.015662
-0.011074 0.027358 -0.019182
-0.020126 0.020695 -0.020126
-0.028437 0.012625 -0.016418
-0.020126 0.020695 -0.020126
-0.023218 0.012625 -0.023218
-0.024649 0.020695 -0.014231
-0.030286 0.003698 -0.017486
-0.023218 0.012625 -0.023218
-0.024729 0.003698 -0.024729
-0.028437 0.012625 -0.016418
0.007367 0.020695 -0.027492
0.011074 0.027358 -0.019182
0.014231 0.020695 -0.024649
0.005733 0.027358 -0.021394
-0.016055 -0.014277 -0.027808
-0.007068 -0.022100 -0.026378
-0.013654 -0.022100 -0.023650
-0.008311 -0.014277 -0.031016
0.008311 -0.014277 -0.031016
0.013654 -0.022100 -0.023650
0.007068 -0.022100 -0.026378
0.016055 -0.014277 -0.027808
-0.009051 0.003698 -0.033780
0.000000 -0.005478 -0.034724
-0.008987 -0.005478 -0.033541
0.000000 0.003698 -0.034972
-0.017486 0.003698 -0.030286
-0.008987 -0.005478 -0.033541
-0.017362 -0.005478 -0.030072
-0.009051 0.003698 -0.033780
-0.001824 -0.034922 -0.003160
-0.003255 -0.032787 -0.012147
-0.000944 -0.034922 -0.003524
-0.006288 -0.032787 -0.010891
-0.001431 0.034773 -0.005339
0.000000 0.034922 0.000000
0.000000 0.034773 -0.005527
-0.003648 -0.034922 0.000000
-0.003524 -0.034922 -0.000944
0.000000 -0.034824 0.000000
-0.033780 0.003698 -0.009051
-0.028437 0.012625 -0.016418
-0.030286 0.003698 -0.017486
-0.031717 0.012625 -0.008499
-0.028462 0.020695 0.000000
-0.021394 0.027358 -0.005733
-0.027492 0.020695 -0.007367
-0.022149 0.027358 0.000000
-0.003648 -0.034922 0.000000
-0.012147 -0.032787 -0.003255
-0.003524 -0.034922 -0.000944
-0.012575 -0.032787 0.000000
-0.030072 -0.005478 -0.017362
-0.033780 0.003698 -0.009051
-0.030286 0.003698 -0.017486
-0.033541 -0.005478 -0.008987
-0.023650 -0.022100 -0.013654
-0.031016 -0.014277 -0.008311
-0.027808 -0.014277 -0.016055
-0.026378 -0.022100 -0.007068
-0.003524 -0.034922 -0.000944
-0.003160 -0.034922 -0.001824
0.000000 -0.034824 0.000000
-0.005339 0.034773 -0.001431
0.000000 0.034922 0.000000
-0.004787 0.034773 -0.002764
-0.034972 0.003698 0.000000
-0.031717 0.012625 -0.008499
-0.033780 0.003698 -0.009051
-0.032836 0.012625 0.000000
-0.031016 -0.014277 -0.008311
-0.034724 -0.005478 0.000000
-0.033541 -0.005478 -0.008987
-0.032110 -0.014277 0.000000
-0.012407 0.032160 -0.007163
-0.005339 0.034773 -0.001431
-0.004787 0.034773 -0.002764
-0.013838 0.032160 -0.003708
-0.027808 -0.014277 -0.016055
-0.033541 -0.005478 -0.008987
-0.030072 -0.005478 -0.017362
-0.031016 -0.014277 -0.008311
-0.020126 0.020695 -0.020126
-0.019182 0.027358 -0.011074
-0.015662 0.027358 -0.015662
-0.024649 0.020695 -0.014231
-0.022706 -0.014277 -0.022706
-0.030072 -0.005478 -0.017362
-0.024554 -0.005478 -0.024554
-0.027808 -0.014277 -0.016055
-0.003160 -0.034922 -0.001824
-0.008892 -0.032787 -0.008892
-0.002580 -0.034922 -0.002580
-0.010891 -0.032787 -0.006288
-0.017879 -0.028413 -0.010323
-0.019310 -0.022100 -0.019310
-0.014598 -0.028413 -0.014598
-0.023650 -0.022100 -0.013654
-0.031717 0.012625 -0.008499
-0.024649 0.020695 -0.014231
-0.028437 0.012625 -0.016418
-0.027492 0.020695 -0.007367
-0.019182 0.027358 -0.011074
-0.013838 0.032160 -0.003708
-0.012407 0.032160 -0.007163
-0.021394 0.027358 -0.005733
-0.019942 -0.028413 -0.005343
-0.023650 -0.022100 -0.013654
-0.017879 -0.028413 -0.010323
-0.026378 -0.022100 -0.007068
-0.004787 0.034773 -0.002764
0.000000 0.034922 0.000000
-0.003908 0.034773 -0.003908
-0.026378 -0.022100 -0.007068
-0.032110 -0.014277 0.000000
-0.031016 -0.014277 -0.008311
-0.027308 -0.022100 0.000000
-0.012147 -0.032787 -0.003255
-0.017879 -0.028413 -0.010323
-0.010891 -0.032787 -0.006288
-0.019942 -0.028413 -0.005343
-0.010130 0.032160 -0.010130
-0.004787 0.034773 -0.002764
-0.003908 0.034773 -0.003908
-0.012407 0.032160 -0.007163
-0.024554 -0.005478 -0.024554
-0.030286 0.003698 -0.017486
-0.024729 0.003698 -0.024729
-0.030072 -0.005478 -0.017362
-0.010891 -0.032787 -0.006288
-0.014598 -0.028413 -0.014598
-0.008892 -0.032787 -0.008892
-0.017879 -0.028413 -0.010323
-0.013838 0.032160 -0.003708
-0.005527 0.034773 0.000000
-0.005339 0.034773 -0.001431
-0.014326 0.032160 0.000000
-0.003160 -0.034922 -0.001824
-0.002580 -0.034922 -0.002580
0.000000 -0.034824 0.000000
-0.024649 0.020695 -0.014231
-0.021394 0.027358 -0.005733
-0.019182 0.027358 -0.011074
-0.027492 0.020695 -0.007367
-0.020645 -0.028413 0.000000
-0.026378 -0.022100 -0.007068
-0.019942 -0.028413 -0.005343
-0.027308 -0.022100 0.000000
-0.005527 0.034773 0.000000
0.000000 0.034922 0.000000
-0.005339 0.034773 -0.001431
-0.021394 0.027358 -0.005733
-0.014326 0.032160 0.000000
-0.013838 0.032160 -0.003708
-0.022149 0.027358 0.000000
-0.033541 -0.005478 -0.008987
-0.034972 0.003698 0.000000
-0.033780 0.003698 -0.009051
-0.034724 -0.005478 0.000000
-0.012575 -0.032787 0.000000
-0.019942 -0.028413 -0.005343
-0.012147 -0.032787 -0.003255
-0.020645 -0.028413 0.000000
-0.003524 -0.034922 -0.000944
-0.010891 -0.032787 -0.006288
-0.003160 -0.034922 -0.001824
-0.012147 -0.032787 -0.003255
-0.019310 -0.022100 -0.019310
-0.027808 -0.014277 -0.016055
-0.022706 -0.014277 -0.022706
-0.023650 -0.022100 -0.013654
-0.015662 0.027358 -0.015662
-0.012407 0.032160 -0.007163
-0.010130 0.032160 -0.010130
-0.019182 0.027358 -0.011074
-0.032836 0.012625 0.000000
-0.027492 0.020695 -0.007367
-0.031717 0.012625 -0.008499
-0.028462 0.020695 0.000000
-0.028437 0.012625 0.016418
-0.020126 0.020695 0.020126
-0.024649 0.020695 0.014231
-0.023218 0.012625 0.023218
-0.017486 0.003698 0.030286
-0.024554 -0.005478 0.024554
-0.017362 -0.005478 0.030072
-0.024729 0.003698 0.024729
-0.017362 -0.005478 0.030072
-0.022706 -0.014277 0.022706
-0.016055 -0.014277 0.027808
-0.024554 -0.005478 0.024554
-0.016055 -0.014277 0.027808
-0.019310 -0.022100 0.019310
-0.013654 -0.022100 0.023650
-0.022706 -0.014277 0.022706
-0.031717 0.012625 0.008499
-0.028462 0.020695 0.000000
-0.032836 0.012625 0.000000
-0.027492 0.020695 0.007367
-0.021394 0.027358 0.005733
-0.024649 0.020695 0.014231
-0.019182 0.027358 0.011074
-0.027492 0.020695 0.007367
-0.026378 -0.022100 0.007068
-0.020645 -0.028413 0.000000
-0.019942 -0.028413 0.005343
-0.027308 -0.022100 0.000000
-0.005339 0.034773 0.001431
-0.004787 0.034773 0.002764
0.000000 0.034922 0.000000
-0.013654 -0.022100 0.023650
-0.014598 -0.028413 0.014598
-0.010323 -0.028413 0.017879
-0.019310 -0.022100 0.019310
-0.003648 -0.034922 0.000000
0.000000 -0.034824 0.000000
-0.003524 -0.034922 0.000944
-0.031717 0.012625 0.008499
-0.024649 0.020695 0.014231
-0.027492 0.020695 0.007367
-0.028437 0.012625 0.016418
-0.010891 -0.032787 0.006288
-0.003524 -0.034922 0.000944
-0.003160 -0.034922 0.001824
-0.012147 -0.032787 0.003255
-0.010323 -0.028413 0.017879
-0.008892 -0.032787 0.008892
-0.006288 -0.032787 0.010891
-0.014598 -0.028413 0.014598
-0.006288 -0.032787 0.010891
-0.002580 -0.034922 0.002580
-0.001824 -0.034922 0.003160
-0.008892 -0.032787 0.008892
-0.002580 -0.034922 0.002580
0.000000 -0.034824 0.000000
-0.001824 -0.034922 0.003160
-0.003160 -0.034922 0.001824
0.000000 -0.034824 0.000000
-0.002580 -0.034922 0.002580
-0.003908 0.034773 0.003908
-0.002764 0.034773 0.004787
0.000000 0.034922 0.000000
-0.003908 0.034773 0.003908
-0.007163 0.032160 0.012407
-0.002764 0.034773 0.004787
-0.010130 0.032160 0.010130
-0.010130 0.032160 0.010130
-0.011074 0.027358 0.019182
-0.007163 0.032160 0.012407
-0.015662 0.027358 0.015662
-0.019310 -0.022100 0.019310
-0.027808 -0.014277 0.016055
-0.023650 -0.022100 0.013654
-0.022706 -0.014277 0.022706
-0.015662 0.027358 0.015662
-0.014231 0.020695 0.024649
-0.011074 0.027358 0.019182
-0.020126 0.020695 0.020126
-0.024554 -0.005478 0.024554
-0.030286 0.003698 0.017486
-0.030072 -0.005478 0.017362
-0.024729 0.003698 0.024729
-0.012407 0.032160 0.007163
-0.015662 0.027358 0.015662
-0.010130 0.032160 0.010130
-0.019182 0.027358 0.011074
-0.007367 0.020695 0.027492
-0.016418 0.012625 0.028437
-0.008499 0.012625 0.031717
-0.014231 0.020695 0.024649
-0.008499 0.012625 0.031717
-0.017486 0.003698 0.030286
-0.009051 0.003698 0.033780
-0.016418 0.012625 0.028437
-0.009051 0.003698 0.033780
-0.017362 -0.005478 0.030072
-0.008987 -0.005478 0.033541
-0.017486 0.003698 0.030286
-0.031016 -0.014277 0.008311
-0.034724 -0.005478 0.000000
-0.032110 -0.014277 0.000000
-0.033541 -0.005478 0.008987
-0.014326 0.032160 0.000000
-0.021394 0.027358 0.005733
-0.013838 0.032160 0.003708
-0.022149 0.027358 0.000000
-0.030072 -0.005478 0.017362
-0.033780 0.003698 0.009051
-0.033541 -0.005478 0.008987
-0.030286 0.003698 0.017486
-0.023650 -0.022100 0.013654
-0.019942 -0.028413 0.005343
-0.017879 -0.028413 0.010323
-0.026378 -0.022100 0.007068
-0.005527 0.034773 0.000000
-0.013838 0.032160 0.003708
-0.005339 0.034773 0.001431
-0.014326 0.032160 0.000000
-0.017879 -0.028413 0.010323
-0.012147 -0.032787 0.003255
-0.010891 -0.032787 0.006288
-0.019942 -0.028413 0.005343
-0.019310 -0.022100 0.019310
-0.017879 -0.028413 0.010323
-0.014598 -0.028413 0.014598
-0.023650 -0.022100 0.013654
-0.014598 -0.028413 0.014598
-0.010891 -0.032787 0.006288
-0.008892 -0.032787 0.008892
-0.017879 -0.028413 0.010323
-0.004787 0.034773 0.002764
-0.003908 0.034773 0.003908
0.000000 0.034922 0.000000
-0.033780 0.003698 0.009051
-0.028437 0.012625 0.016418
-0.031717 0.012625 0.008499
-0.030286 0.003698 0.017486
-0.019182 0.027358 0.011074
-0.020126 0.020695 0.020126
-0.015662 0.027358 0.015662
-0.024649 0.020695 0.014231
-0.014231 0.020695 0.024649
-0.023218 0.012625 0.023218
-0.016418 0.012625 0.028437
-0.020126 0.020695 0.020126
-0.033541 -0.005478 0.008987
-0.034972 0.003698 0.000000
-0.034724 -0.005478 0.000000
-0.033780 0.003698 0.009051
-0.027808 -0.014277 0.016055
-0.033541 -0.005478 0.008987
-0.031016 -0.014277 0.008311
-0.030072 -0.005478 0.017362
-0.016418 0.012625 0.028437
-0.024729 0.003698 0.024729
-0.017486 0.003698 0.030286
-0.023218 0.012625 0.023218
-0.022706 -0.014277 0.022706
-0.030072 -0.005478 0.017362
-0.027808 -0.014277 0.016055
-0.024554 -0.005478 0.024554
-0.005527 0.034773 0.000000
-0.005339 0.034773 0.001431
0.000000 0.034922 0.000000
-0.005339 0.034773 0.001431
-0.012407 0.032160 0.007163
-0.004787 0.034773 0.002764
-0.013838 0.032160 0.003708
-0.008892 -0.032787 0.008892
-0.003160 -0.034922 0.001824
-0.002580 -0.034922 0.002580
-0.010891 -0.032787 0.006288
-0.004787 0.034773 0.002764
-0.010130 0.032160 0.010130
-0.003908 0.034773 0.003908
-0.012407 0.032160 0.007163
-0.027492 0.020695 0.007367
-0.022149 0.027358 0.000000
-0.028462 0.020695 0.000000
-0.021394 0.027358 0.005733
-0.026378 -0.022100 0.007068
-0.032110 -0.014277 0.000000
-0.027308 -0.022100 0.000000
-0.031016 -0.014277 0.008311
-0.023650 -0.022100 0.013654
-0.031016 -0.014277 0.008311
-0.026378 -0.022100 0.007068
-0.027808 -0.014277 0.016055
-0.003524 -0.034922 0.000944
0.000000 -0.034824 0.000000
-0.003160 -0.034922 0.001824
-0.033780 0.003698 0.009051
-0.032836 0.012625 0.000000
-0.034972 0.003698 0.000000
-0.031717 0.012625 0.008499
-0.012147 -0.032787 0.003255
-0.003648 -0.034922 0.000000
-0.003524 -0.034922 0.000944
-0.012575 -0.032787 0.000000
-0.019942 -0.028413 0.005343
-0.012575 -0.032787 0.000000
-0.012147 -0.032787 0.003255
-0.020645 -0.028413 0.000000
-0.030286 0.003698 0.017486
-0.023218 0.012625 0.023218
-0.028437 0.012625 0.016418
-0.024729 0.003698 0.024729
-0.013838 0.032160 0.003708
-0.019182 0.027358 0.011074
-0.012407 0.032160 0.007163
-0.021394 0.027358 0.005733
0.023218 0.012625 0.023218
0.017486 0.003698 0.030286
0.024729 0.003698 0.024729
0.016418 0.012625 0.028437
0.024554 -0.005478 0.024554
0.016055 -0.014277 0.027808
0.022706 -0.014277 0.022706
0.017362 -0.005478 0.030072
-0.003255 -0.032787 0.012147
-0.001824 -0.034922 0.003160
-0.000944 -0.034922 0.003524
-0.006288 -0.032787 0.010891
0.008311 -0.014277 0.031016
0.000000 -0.022100 0.027308
0.007068 -0.022100 0.026378
0.000000 -0.014277 0.032110
-0.007068 -0.022100 0.026378
0.000000 -0.028413 0.020645
0.000000 -0.022100 0.027308
-0.005343 -0.028413 0.019942
0.000000 -0.034824 0.000000
0.000944 -0.034922 0.003524
0.000000 -0.034922 0.003648
-0.002764 0.034773 0.004787
-0.003708 0.032160 0.013838
-0.001431 0.034773 0.005339
-0.007163 0.032160 0.012407
0.016055 -0.014277 0.027808
0.007068 -0.022100 0.026378
0.013654 -0.022100 0.023650
0.008311 -0.014277 0.031016
0.013654 -0.022100 0.023650
0.014598 -0.028413 0.014598
0.019310 -0.022100 0.019310
0.010323 -0.028413 0.017879
0.010323 -0.028413 0.017879
0.008892 -0.032787 0.008892
0.014598 -0.028413 0.014598
0.006288 -0.032787 0.010891
0.003708 0.032160 0.013838
0.000000 0.027358 0.022149
0.005733 0.027358 0.021394
0.000000 0.032160 0.014326
0.006288 -0.032787 0.010891
0.002580 -0.034922 0.002580
0.008892 -0.032787 0.008892
0.001824 -0.034922 0.003160
-0.007163 0.032160 0.012407
-0.005733 0.027358 0.021394
-0.003708 0.032160 0.013838
-0.011074 0.027358 0.019182
-0.005343 -0.028413 0.019942
-0.006288 -0.032787 0.010891
-0.003255 -0.032787 0.012147
-0.010323 -0.028413 0.017879
-0.008311 -0.014277 0.031016
-0.013654 -0.022100 0.023650
-0.007068 -0.022100 0.026378
-0.016055 -0.014277 0.027808
0.008499 0.012625 0.031717
0.000000 0.003698 0.034972
0.009051 0.003698 0.033780
0.000000 0.012625 0.032836
0.009051 0.003698 0.033780
0.000000 -0.005478 0.034724
0.008987 -0.005478 0.033541
0.000000 0.003698 0.034972
0.008987 -0.005478 0.033541
0.000000 -0.014277 0.032110
0.008311 -0.014277 0.031016
0.000000 -0.005478 0.034724
0.000000 0.020695 0.028462
-0.008499 0.012625 0.031717
0.000000 0.012625 0.032836
-0.007367 0.020695 0.027492
0.005339 0.034773 0.001431
0.012407 0.032160 0.007163
0.013838 0.032160 0.003708
0.004787 0.034773 0.002764
-0.001431 0.034773 0.005339
0.000000 0.034773 0.005527
0.000000 0.034922 0.000000
0.005733 0.027358 0.021394
0.000000 0.020695 0.028462
0.007367 0.020695 0.027492
0.000000 0.027358 0.022149
-0.000944 -0.034922 0.003524
0.000000 -0.034824 0.000000
0.000000 -0.034922 0.003648
0.001431 0.034773 0.005339
0.000000 0.032160 0.014326
0.003708 0.032160 0.013838
0.000000 0.034773 0.005527
0.014231 0.020695 0.024649
0.008499 0.012625 0.031717
0.016418 0.012625 0.028437
0.007367 0.020695 0.027492
0.017362 -0.005478 0.030072
0.008311 -0.014277 0.031016
0.016055 -0.014277 0.027808
0.008987 -0.005478 0.033541
-0.008987 -0.005478 0.033541
-0.016055 -0.014277 0.027808
-0.008311 -0.014277 0.031016
-0.017362 -0.005478 0.030072
0.007068 -0.022100 0.026378
0.010323 -0.028413 0.017879
0.013654 -0.022100 0.023650
0.005343 -0.028413 0.019942
-0.002764 0.034773 0.004787
-0.001431 0.034773 0.005339
0.000000 0.034922 0.000000
-0.001824 -0.034922 0.003160
0.000000 -0.034824 0.000000
-0.000944 -0.034922 0.003524
0.005343 -0.028413 0.019942
0.006288 -0.032787 0.010891
0.010323 -0.028413 0.017879
0.003255 -0.032787 0.012147
0.003255 -0.032787 0.012147
0.001824 -0.034922 0.003160
0.006288 -0.032787 0.010891
0.000944 -0.034922 0.003524
0.000000 -0.034824 0.000000
0.001824 -0.034922 0.003160
0.000944 -0.034922 0.003524
0.000000 0.012625 0.032836
-0.009051 0.003698 0.033780
0.000000 0.003698 0.034972
-0.008499 0.012625 0.031717
0.000000 0.003698 0.034972
-0.008987 -0.005478 0.033541
0.000000 -0.005478 0.034724
-0.009051 0.003698 0.033780
-0.011074 0.027358 0.019182
-0.007367 0.020695 0.027492
-0.005733 0.027358 0.021394
-0.014231 0.020695 0.024649
0.000000 0.027358 0.022149
-0.007367 0.020695 0.027492
0.000000 0.020695 0.028462
-0.005733 0.027358 0.021394
0.000000 -0.014277 0.032110
-0.007068 -0.022100 0.026378
0.000000 -0.022100 0.027308
-0.008311 -0.014277 0.031016
-0.003708 0.032160 0.013838
0.000000 0.027358 0.022149
0.000000 0.032160 0.014326
-0.005733 0.027358 0.021394
0.000000 -0.028413 0.020645
0.003255 -0.032787 0.012147
0.005343 -0.028413 0.019942
0.000000 -0.032787 0.012575
0.017486 0.003698 0.030286
0.008987 -0.005478 0.033541
0.017362 -0.005478 0.030072
0.009051 0.003698 0.033780
0.000000 0.034922 0.000000
0.001431 0.034773 0.005339
0.002764 0.034773 0.004787
0.002764 0.034773 0.004787
0.003708 0.032160 0.013838
0.007163 0.032160 0.012407
0.001431 0.034773 0.005339
0.000000 -0.005478 0.034724
-0.008311 -0.014277 0.031016
0.000000 -0.014277 0.032110
-0.008987 -0.005478 0.033541
-0.003255 -0.032787 0.012147
0.000000 -0.034922 0.003648
0.000000 -0.032787 0.012575
-0.000944 -0.034922 0.003524
0.007163 0.032160 0.012407
0.005733 0.027358 0.021394
0.011074 0.027358 0.019182
0.003708 0.032160 0.013838
0.011074 0.027358 0.019182
0.007367 0.020695 0.027492
0.014231 0.020695 0.024649
0.005733 0.027358 0.021394
0.020126 0.020695 0.020126
0.016418 0.012625 0.028437
0.023218 0.012625 0.023218
0.014231 0.020695 0.024649
0.000000 -0.032787 0.012575
0.000944 -0.034922 0.003524
0.003255 -0.032787 0.012147
0.000000 -0.034922 0.003648
0.024729 0.003698 0.024729
0.017362 -0.005478 0.030072
0.024554 -0.005478 0.024554
0.017486 0.003698 0.030286
0.022706 -0.014277 0.022706
0.013654 -0.022100 0.023650
0.019310 -0.022100 0.019310
0.016055 -0.014277 0.027808
0.000000 0.034773 0.005527
0.001431 0.034773 0.005339
0.000000 0.034922 0.000000
-0.005343 -0.028413 0.019942
0.000000 -0.032787 0.012575
0.000000 -0.028413 0.020645
-0.003255 -0.032787 0.012147
-0.007068 -0.022100 0.026378
-0.010323 -0.028413 0.017879
-0.005343 -0.028413 0.019942
-0.013654 -0.022100 0.023650
-0.001431 0.034773 0.005339
0.000000 0.032160 0.014326
0.000000 0.034773 0.005527
-0.003708 0.032160 0.013838
0.007367 0.020695 0.027492
0.000000 0.012625 0.032836
0.008499 0.012625 0.031717
0.000000 0.020695 0.028462
0.000000 -0.022100 0.027308
0.005343 -0.028413 0.019942
0.007068 -0.022100 0.026378
0.000000 -0.028413 0.020645
0.016418 0.012625 0.028437
0.009051 0.003698 0.033780
0.017486 0.003698 0.030286
0.008499 0.012625 0.031717
0.000000 0.034922 0.000000
0.005527 0.034773 0.000000
0.005339 0.034773 -0.001431
0.034972 0.003698 0.000000
0.033541 -0.005478 -0.008987
0.033780 0.003698 -0.009051
0.034724 -0.005478 0.000000
0.033780 0.003698 0.009051
0.030072 -0.005478 0.017362
0.033541 -0.005478 0.008987
0.030286 0.003698 0.017486
0.013838 0.032160 -0.003708
0.005527 0.034773 0.000000
0.014326 0.032160 0.000000
0.005339 0.034773 -0.001431
0.033780 0.003698 0.009051
0.034724 -0.005478 0.000000
0.034972 0.003698 0.000000
0.033541 -0.005478 0.008987
0.027492 0.020695 0.007367
0.032836 0.012625 0.000000
0.028462 0.020695 0.000000
0.031717 0.012625 0.008499
0.021394 0.027358 -0.005733
0.028462 0.020695 0.000000
0.027492 0.020695 -0.007367
0.022149 0.027358 0.000000
0.021394 0.027358 0.005733
0.028462 0.020695 0.000000
0.022149 0.027358 0.000000
0.027492 0.020695 0.007367
0.024649 0.020695 -0.014231
0.031717 0.012625 -0.008499
0.028437 0.012625 -0.016418
0.027492 0.020695 -0.007367
0.031717 0.012625 0.008499
0.034972 0.003698 0.000000
0.032836 0.012625 0.000000
0.033780 0.003698 0.009051
0.028437 0.012625 -0.016418
0.033780 0.003698 -0.009051
0.030286 0.003698 -0.017486
0.031717 0.012625 -0.008499
0.033780 0.003698 -0.009051
0.030072 -0.005478 -0.017362
0.030286 0.003698 -0.017486
0.033541 -0.005478 -0.008987
0.004787 0.034773 0.002764
0.010130 0.032160 0.010130
0.012407 0.032160 0.007163
0.003908 0.034773 0.003908
0.031016 -0.014277 0.008311
0.027308 -0.022100 0.000000
0.032110 -0.014277 0.000000
0.026378 -0.022100 0.007068
0.028437 0.012625 0.016418
0.033780 0.003698 0.009051
0.031717 0.012625 0.008499
0.030286 0.003698 0.017486
0.000000 -0.034824 0.000000
0.003524 -0.034922 0.000944
0.003160 -0.034922 0.001824
0.033541 -0.005478 0.008987
0.027808 -0.014277 0.016055
0.031016 -0.014277 0.008311
0.030072 -0.005478 0.017362
0.023650 -0.022100 0.013654
0.019942 -0.028413 0.005343
0.026378 -0.022100 0.007068
0.017879 -0.028413 0.010323
0.026378 -0.022100 0.007068
0.020645 -0.028413 0.000000
0.027308 -0.022100 0.000000
0.019942 -0.028413 0.005343
0.015662 0.027358 0.015662
0.014231 0.020695 0.024649
0.020126 0.020695 0.020126
0.011074 0.027358 0.019182
0.000000 0.034922 0.000000
0.003908 0.034773 0.003908
0.004787 0.034773 0.002764
0.005527 0.034773 0.000000
0.013838 0.032160 0.003708
0.014326 0.032160 0.000000
0.005339 0.034773 0.001431
0.027492 0.020695 -0.007367
0.032836 0.012625 0.000000
0.031717 0.012625 -0.008499
0.028462 0.020695 0.000000
0.034724 -0.005478 0.000000
0.031016 -0.014277 -0.008311
0.033541 -0.005478 -0.008987
0.032110 -0.014277 0.000000
0.012575 -0.032787 0.000000
0.019942 -0.028413 -0.005343
0.020645 -0.028413 0.000000
0.012147 -0.032787 -0.003255
0.000000 0.034922 0.000000
0.004787 0.034773 0.002764
0.005339 0.034773 0.001431
0.031016 -0.014277 0.008311
0.023650 -0.022100 0.013654
0.026378 -0.022100 0.007068
0.027808 -0.014277 0.016055
0.021394 0.027358 -0.005733
0.014326 0.032160 0.000000
0.022149 0.027358 0.000000
0.013838 0.032160 -0.003708
0.003908 0.034773 0.003908
0.007163 0.032160 0.012407
0.010130 0.032160 0.010130
0.002764 0.034773 0.004787
0.019182 0.027358 0.011074
0.020126 0.020695 0.020126
0.024649 0.020695 0.014231
0.015662 0.027358 0.015662
0.027808 -0.014277 0.016055
0.019310 -0.022100 0.019310
0.023650 -0.022100 0.013654
0.022706 -0.014277 0.022706
0.033541 -0.005478 0.008987
0.032110 -0.014277 0.000000
0.034724 -0.005478 0.000000
0.031016 -0.014277 0.008311
0.000000 0.034922 0.000000
0.002764 0.034773 0.004787
0.003908 0.034773 0.003908
0.014598 -0.028413 0.014598
0.010891 -0.032787 0.006288
0.017879 -0.028413 0.010323
0.008892 -0.032787 0.008892
0.019942 -0.028413 0.005343
0.012575 -0.032787 0.000000
0.020645 -0.028413 0.000000
0.012147 -0.032787 0.003255
0.024649 0.020695 0.014231
0.031717 0.012625 0.008499
0.027492 0.020695 0.007367
0.028437 0.012625 0.016418
0.017879 -0.028413 0.010323
0.012147 -0.032787 0.003255
0.019942 -0.028413 0.005343
0.010891 -0.032787 0.006288
0.021394 0.027358 0.005733
0.024649 0.020695 0.014231
0.027492 0.020695 0.007367
0.019182 0.027358 0.011074
0.010130 0.032160 0.010130
0.011074 0.027358 0.019182
0.015662 0.027358 0.015662
0.007163 0.032160 0.012407
0.030286 0.003698 0.017486
0.024554 -0.005478 0.024554
0.030072 -0.005478 0.017362
0.024729 0.003698 0.024729
0.010891 -0.032787 0.006288
0.003524 -0.034922 0.000944
0.012147 -0.032787 0.003255
0.003160 -0.034922 0.001824
0.030072 -0.005478 0.017362
0.022706 -0.014277 0.022706
0.027808 -0.014277 0.016055
0.024554 -0.005478 0.024554
0.012407 0.032160 0.007163
0.015662 0.027358 0.015662
0.019182 0.027358 0.011074
0.010130 0.032160 0.010130
0.008892 -0.032787 0.008892
0.003160 -0.034922 0.001824
0.010891 -0.032787 0.006288
0.002580 -0.034922 0.002580
0.012147 -0.032787 0.003255
0.003648 -0.034922 0.000000
0.012575 -0.032787 0.000000
0.003524 -0.034922 0.000944
0.023218 0.012625 0.023218
0.030286 0.003698 0.017486
0.028437 0.012625 0.016418
0.024729 0.003698 0.024729
0.013838 0.032160 0.003708
0.019182 0.027358 0.011074
0.021394 0.027358 0.005733
0.012407 0.032160 0.007163
0.000000 -0.034824 0.000000
0.003648 -0.034922 0.000000
0.003524 -0.034922 0.000944
0.000000 -0.034824 0.000000
0.003160 -0.034922 0.001824
0.002580 -0.034922 0.002580
0.020126 0.020695 0.020126
0.028437 0.012625 0.016418
0.024649 0.020695 0.014231
0.023218 0.012625 0.023218
0.000000 0.034922 0.000000
0.005339 0.034773 0.001431
0.005527 0.034773 0.000000
0.014326 0.032160 0.000000
0.021394 0.027358 0.005733
0.022149 0.027358 0.000000
0.013838 0.032160 0.003708
0.031717 0.012625 -0.008499
0.034972 0.003698 0.000000
0.033780 0.003698 -0.009051
0.032836 0.012625 0.000000
0.032110 -0.014277 0.000000
0.026378 -0.022100 -0.007068
0.031016 -0.014277 -0.008311
0.027308 -0.022100 0.000000
0.000000 -0.034824 0.000000
0.002580 -0.034922 0.002580
0.001824 -0.034922 0.003160
0.019310 -0.022100 0.019310
0.017879 -0.028413 0.010323
0.023650 -0.022100 0.013654
0.014598 -0.028413 0.014598
0.020645 -0.028413 0.000000
0.026378 -0.022100 -0.007068
0.027308 -0.022100 0.000000
0.019942 -0.028413 -0.005343
0.003648 -0.034922 0.000000
0.012147 -0.032787 -0.003255
0.012575 -0.032787 0.000000
0.003524 -0.034922 -0.000944
0.000000 -0.034824 0.000000
0.003524 -0.034922 -0.000944
0.003648 -0.034922 0.000000
0.000000 0.034922 0.000000
0.004787 0.034773 -0.002764
0.003908 0.034773 -0.003908
0.000000 0.034922 0.000000
0.005339 0.034773 -0.001431
0.004787 0.034773 -0.002764
0.008892 -0.032787 -0.008892
0.010323 -0.028413 -0.017879
0.014598 -0.028413 -0.014598
0.006288 -0.032787 -0.010891
0.010891 -0.032787 -0.006288
0.014598 -0.028413 -0.014598
0.017879 -0.028413 -0.010323
0.008892 -0.032787 -0.008892
0.002580 -0.034922 -0.002580
0.006288 -0.032787 -0.010891
0.008892 -0.032787 -0.008892
0.001824 -0.034922 -0.003160
-0.001824 -0.034922 -0.003160
-0.000944 -0.034922 -0.003524
0.000000 -0.034824 0.000000
-0.002764 0.034773 -0.004787
0.000000 0.034922 0.000000
-0.001431 0.034773 -0.005339
0.024649 0.020695 -0.014231
0.021394 0.027358 -0.005733
0.027492 0.020695 -0.007367
0.019182 0.027358 -0.011074
0.000000 0.034922 0.000000
0.003908 0.034773 -0.003908
0.002764 0.034773 -0.004787
0.033541 -0.005478 -0.008987
0.027808 -0.014277 -0.016055
0.030072 -0.005478 -0.017362
0.031016 -0.014277 -0.008311
0.030286 0.003698 -0.017486
0.024554 -0.005478 -0.024554
0.024729 0.003698 -0.024729
0.030072 -0.005478 -0.017362
0.007163 0.032160 -0.012407
0.003908 0.034773 -0.003908
0.010130 0.032160 -0.010130
0.002764 0.034773 -0.004787
0.012407 0.032160 -0.007163
0.005339 0.034773 -0.001431
0.013838 0.032160 -0.003708
0.004787 0.034773 -0.002764
0.015662 0.027358 -0.015662
0.012407 0.032160 -0.007163
0.019182 0.027358 -0.011074
0.010130 0.032160 -0.010130
0.016418 0.012625 -0.028437
0.024729 0.003698 -0.024729
0.017486 0.003698 -0.030286
0.023218 0.012625 -0.023218
0.000000 -0.034824 0.000000
0.001824 -0.034922 -0.003160
0.002580 -0.034922 -0.002580
0.011074 0.027358 -0.019182
0.010130 0.032160 -0.010130
0.015662 0.027358 -0.015662
0.007163 0.032160 -0.012407
0.014231 0.020695 -0.024649
0.015662 0.027358 -0.015662
0.020126 0.020695 -0.020126
0.011074 0.027358 -0.019182
0.007367 0.020695 -0.027492
0.016418 0.012625 -0.028437
0.008499 0.012625 -0.031717
0.014231 0.020695 -0.024649
0.012147 -0.032787 -0.003255
0.017879 -0.028413 -0.010323
0.019942 -0.028413 -0.005343
0.010891 -0.032787 -0.006288
0.023218 0.012625 -0.023218
0.030286 0.003698 -0.017486
0.024729 0.003698 -0.024729
0.028437 0.012625 -0.016418
0.020126 0.020695 -0.020126
0.019182 0.027358 -0.011074
0.024649 0.020695 -0.014231
0.015662 0.027358 -0.015662
0.019942 -0.028413 -0.005343
0.023650 -0.022100 -0.013654
0.026378 -0.022100 -0.007068
0.017879 -0.028413 -0.010323
0.030072 -0.005478 -0.017362
0.022706 -0.014277 -0.022706
0.024554 -0.005478 -0.024554
0.027808 -0.014277 -0.016055
0.014231 0.020695 -0.024649
0.023218 0.012625 -0.023218
0.016418 0.012625 -0.028437
0.020126 0.020695 -0.020126
0.017879 -0.028413 -0.010323
0.019310 -0.022100 -0.019310
0.023650 -0.022100 -0.013654
0.014598 -0.028413 -0.014598
0.031016 -0.014277 -0.008311
0.023650 -0.022100 -0.013654
0.027808 -0.014277 -0.016055
0.026378 -0.022100 -0.007068
0.017486 0.003698 -0.030286
0.024554 -0.005478 -0.024554
0.017362 -0.005478 -0.030072
0.024729 0.003698 -0.024729
0.010130 0.032160 -0.010130
0.004787 0.034773 -0.002764
0.012407 0.032160 -0.007163
0.003908 0.034773 -0.003908
0.027808 -0.014277 -0.016055
0.019310 -0.022100 -0.019310
0.022706 -0.014277 -0.022706
0.023650 -0.022100 -0.013654
0.000000 -0.034824 0.000000
0.003160 -0.034922 -0.001824
0.003524 -0.034922 -0.000944
0.019182 0.027358 -0.011074
0.013838 0.032160 -0.003708
0.021394 0.027358 -0.005733
0.012407 0.032160 -0.007163
0.000000 -0.034824 0.000000
0.002580 -0.034922 -0.002580
0.003160 -0.034922 -0.001824
0.014598 -0.028413 -0.014598
0.013654 -0.022100 -0.023650
0.019310 -0.022100 -0.019310
0.010323 -0.028413 -0.017879
0.016055 -0.014277 -0.027808
0.019310 -0.022100 -0.019310
0.013654 -0.022100 -0.023650
0.022706 -0.014277 -0.022706
0.020126 0.020695 -0.020126
0.028437 0.012625 -0.016418
0.023218 0.012625 -0.023218
0.024649 0.020695 -0.014231
0.003524 -0.034922 -0.000944
0.010891 -0.032787 -0.006288
0.012147 -0.032787 -0.003255
0.003160 -0.034922 -0.001824
0.003160 -0.034922 -0.001824
0.008892 -0.032787 -0.008892
0.010891 -0.032787 -0.006288
0.002580 -0.034922 -0.002580
0.017362 -0.005478 -0.030072
0.022706 -0.014277 -0.022706
0.016055 -0.014277 -0.027808
0.024554 -0.005478 -0.024554
3 0 1 2
3 1 0 3
3 4 5 6
3 5 4 7
3 8 9 10
3 9 8 11
3 12 13 14
3 13 12 15
3 16 17 18
3 17 16 19
3 20 21 22
3 21 20 23
3 24 25 26
3 25 24 27
3 28 29 30
3 31 32 33
3 34 35 36
3 35 34 37
3 38 39 40
3 39 38 41
3 42 43 44
3 43 42 45
3 46 47 48
3 47 46 49
3 50 51 52
3 51 50 53
3 54 55 56
3 55 54 57
3 58 59 60
3 59 58 61
3 62 63 64
3 63 62 65
3 66 67 68
3 67 66 69
3 70 71 72
3 71 70 73
3 74 75 76
3 75 74 77
3 78 79 80
3 79 78 81
3 82 83 84
3 83 82 85
3 86 87 88
3 87 86 89
3 90 91 92
3 91 90 93
3 94 95 96
3 95 94 97
3 98 99 100
3 99 98 101
3 102 103 104
3 105 106 107
3 106 105 108
3 109 110 111
3 110 109 112
3 113 114 115
3 114 113 116
3 117 118 119
3 118 117 120
3 121 122 123
3 124 125 126
3 125 124 127
3 128 129 130
3 129 128 131
3 132 133 134
3 133 132 135
3 136 137 138
3 137 136 139
3 140 141 142
3 141 140 143
3 144 145 146
3 147 148 149
3 148 147 150
3 151 152 153
3 152 151 154
3 155 156 157
3 156 155 158
3 159 160 161
3 160 159 162
3 163 164 165
3 164 163 166
3 167 168 169
3 168 167 170
3 171 172 173
3 174 175 176
3 175 174 177
3 178 179 180
3 181 182 183
3 182 181 184
3 185 186 187
3 186 185 188
3 189 190 191
3 190 189 192
3 193 194 195
3 194 193 196
3 197 198 199
3 198 197 200
3 201 202 203
3 202 201 204
3 205 206 207
3 206 205 208
3 209 210 211
3 210 209 212
3 213 214 215
3 214 213 216
3 217 218 219
3 218 217 220
3 221 222 223
3 222 221 224
3 225 226 227
3 226 225 228
3 229 230 231
3 230 229 232
3 233 234 235
3 234 233 236
3 237 238 239
3 238 237 240
3 241 242 243
3 242 241 244
3 245 246 247
3 248 249 250
3 251 252 253
3 252 251 254
3 255 256 257
3 256 255 258
3 259 260 261
3 260 259 262
3 263 264 265
3 264 263 266
3 267 268 269
3 268 267 270
3 271 272 273
3 274 275 276
3 277 278 279
3 278 277 280
3 281 282 283
3 282 281 284
3 285 286 287
3 286 285 288
3 289 290 291
3 290 289 292
3 293 294 295
3 294 293 296
3 297 298 299
3 298 297 300
3 301 302 303
3 302 301 304
3 305 306 307
3 306 305 308
3 309 310 311
3 310 309 312
3 313 314 315
3 314 313 316
3 317 318 319
3 318 317 320
3 321 322 323
3 324 325 326
3 325 324 327
3 328 329 330
3 329 328 331
3 332 333 334
3 333 332 335
3 336 337 338
3 337 336 339
3 340 341 342
3 341 340 343
3 344 345 346
3 345 344 347
3 348 349 350
3 351 352 353
3 352 351 354
3 355 356 357
3 356 355 358
3 359 360 361
3 362 363 364
3 363 362 365
3 366 367 368
3 367 366 369
3 370 371 372
3 371 370 373
3 374 375 376
3 375 374 377
3 378 379 380
3 379 378 381
3 382 383 384
3 383 382 385
3 386 387 388
3 387 386 389
3 390 391 392
3 391 390 393
3 394 395 396
3 395 394 397
3 398 399 400
3 399 398 401
3 402 403 404
3 403 402 405
3 406 407 408
3 407 406 409
3 410 411 412
3 411 410 413
3 414 415 416
3 415 414 417
3 418 419 420
3 421 422 423
3 422 421 424
3 425 426 427
3 428 429 430
3 429 428 431
3 432 433 434
3 433 432 435
3 436 437 438
3 437 436 439
3 440 441 442
3 441 440 443
3 444 445 446
3 447 448 449
3 450 451 452
3 453 454 455
3 454 453 456
3 457 458 459
3 458 457 460
3 461 462 463
3 462 461 464
3 465 466 467
3 466 465 468
3 469 470 471
3 470 469 472
3 473 474 475
3 474 473 476
3 477 478 479
3 478 477 480
3 481 482 483
3 482 481 484
3 485 486 487
3 486 485 488
3 489 490 491
3 490 489 492
3 493 494 495
3 494 493 496
3 497 498 499
3 498 497 500
3 501 502 503
3 502 501 504
3 505 506 507
3 506 505 508
3 509 510 511
3 510 509 512
3 513 514 515
3 514 513 516
3 517 518 519
3 518 517 520
3 521 522 523
3 524 525 526
3 525 524 527
3 528 529 530
3 529 528 531
3 532 533 534
3 533 532 535
3 536 537 538
3 537 536 539
3 540 541 542
3 541 540 543
3 544 545 546
3 545 544 547
3 548 549 550
3 549 548 551
3 552 553 554
3 555 556 557
3 556 555 558
3 559 560 561
3 560 559 562
3 563 564 565
3 564 563 566
3 567 568 569
3 568 567 570
3 571 572 573
3 572 571 574
3 575 576 577
3 576 575 578
3 579 580 581
3 582 583 584
3 583 582 585
3 586 587 588
3 587 586 589
3 590 591 592
3 591 590 593
3 594 595 596
3 595 594 597
3 598 599 600
3 599 598 601
3 602 603 604
3 603 602 605
3 606 607 608
3 607 606 609
3 610 611 612
3 611 610 613
3 614 615 616
3 615 614 617
3 618 619 620
3 619 618 621
3 622 623 624
3 625 626 627
3 626 625 628
3 629 630 631
3 630 629 632
3 633 634 635
3 634 633 636
3 637 638 639
3 638 637 640
3 641 642 643
3 642 641 644
3 645 646 647
3 646 645 648
3 649 650 651
3 650 649 652
3 653 654 655
3 654 653 656
3 657 658 659
3 658 657 660
3 661 662 663
3 662 661 664
3 665 666 667
3 666 665 668
3 669 670 671
3 670 669 672
3 673 674 675
3 674 673 676
3 677 678 679
3 678 677 680
3 681 682 683
3 684 685 686
3 685 684 687
3 688 689 690
3 691 692 693
3 692 691 694
3 695 696 697
3 696 695 698
3 699 700 701
3 700 699 702
3 703 704 705
3 704 703 706
3 707 708 709
3 708 707 710
3 711 712 713
3 714 715 716
3 717 718 719
3 718 717 720
3 721 722 723
3 722 721 724
3 725 726 727
3 728 729 730
3 729 728 731
3 732 733 734
3 733 732 735
3 736 737 738
3 737 736 739
3 740 741 742
3 741 740 743
3 744 745 746
3 745 744 747
3 748 749 750
3 749 748 751
3 752 753 754
3 753 752 755
3 756 757 758
3 757 756 759
3 760 761 762
3 763 764 765
3 764 763 766
3 767 768 769
3 768 767 770
3 771 772 773
3 772 771 774
3 775 776 777
3 776 775 778
3 779 780 781
3 780 779 782
3 783 784 785
3 784 783 786
3 787 788 789
3 788 787 790
3 791 792 793
3 792 791 794
3 795 796 797
3 796 795 798
3 799 800 801
3 802 803 804
3 803 802 805
3 806 807 808
3 807 806 809
3 810 811 812
3 811 810 813
3 814 815 816
3 815 814 817
3 818 819 820
3 819 818 821
3 822 823 824
3 823 822 825
3 826 827 828
3 829 830 831
3 830 829 832
3 833 834 835
3 834 833 836
3 837 838 839
3 838 837 840
3 841 842 843
3 842 841 844
3 845 846 847
3 846 845 848
3 849 850 851
3 850 849 852
3 853 854 855
3 854 853 856
3 857 858 859
3 858 857 860
3 861 862 863
3 862 861 864
3 865 866 867
3 866 865 868
3 869 870 871
3 870 869 872
3 873 874 875
3 874 873 876
3 877 878 879
3 878 877 880
3 881 882 883
3 882 881 884
3 885 886 887
3 888 889 890
3 889 888 891
3 892 893 894
3 893 892 895
3 896 897 898
3 897 896 899
3 900 901 902
3 901 900 903
3 904 905 906
3 907 908 909
3 908 907 910
3 911 912 913
3 912 911 914
3 915 916 917
3 916 915 918
3 919 920 921
3 920 919 922
3 923 924 925
3 926 927 928
3 927 926 929
3 930 931 932
3 931 930 933
3 934 935 936
3 935 934 937
3 938 939 940
3 939 938 941
3 942 943 944
3 943 942 945
3 946 947 948
3 947 946 949
3 950 951 952
3 953 954 955
3 954 953 956
3 957 958 959
3 958 957 960
3 961 962 963
3 962 961 964
3 965 966 967
3 966 965 968
3 969 970 971
3 970 969 972
3 973 974 975
3 974 973 976
3 977 978 979
3 978 977 980
3 981 982 983
3 982 981 984
3 985 986 987
3 986 985 988
3 989 990 991
3 990 989 992
3 993 994 995
3 994 993 996
3 997 998 999
3 998 997 1000
3 1001 1002 1003
3 1002 1001 1004
3 1005 1006 1007
3 1006 1005 1008
3 1009 1010 1011
3 1012 1013 1014
3 1015 1016 1017
3 1016 1015 1018
3 1019 1020 1021
3 1022 1023 1024
3 1023 1022 1025
3 1026 1027 1028
3 1027 1026 1029
3 1030 1031 1032
3 1031 1030 1033
3 1034 1035 1036
3 1037 1038 1039
3 1038 1037 1040
3 1041 1042 1043
3 1042 1041 1044
3 1045 1046 1047
3 1046 1045 1048
3 1049 1050 1051
3 1052 1053 1054
3 1055 1056 1057
3 1058 1059 1060
3 1059 1058 1061
3 1062 1063 1064
3 1063 1062 1065
3 1066 1067 1068
3 1067 1066 1069
3 1070 1071 1072
3 1073 1074 1075
3 1076 1077 1078
3 1077 1076 1079
3 1080 1081 1082
3 1083 1084 1085
3 1084 1083 1086
3 1087 1088 1089
3 1088 1087 1090
3 1091 1092 1093
3 1092 1091 1094
3 1095 1096 1097
3 1096 1095 1098
3 1099 1100 1101
3 1100 1099 1102
3 1103 1104 1105
3 1104 1103 1106
3 1107 1108 1109
3 1110 1111 1112
3 1111 1110 1113
3 1114 1115 1116
3 1115 1114 1117
3 1118 1119 1120
3 1119 1118 1121
3 1122 1123 1124
3 1123 1122 1125
3 1126 1127 1128
3 1127 1126 1129
3 1130 1131 1132
3 1131 1130 1133
3 1134 1135 1136
3 1135 1134 1137
3 1138 1139 1140
3 1139 1138 1141
3 1142 1143 1144
3 1143 1142 1145
3 1146 1147 1148
3 1147 1146 1149
3 1150 1151 1152
3 1151 1150 1153
3 1154 1155 1156
3 1155 1154 1157
3 1158 1159 1160
3 1159 1158 1161
3 1162 1163 1164
3 1163 1162 1165
3 1166 1167 1168
3 1169 1170 1171
3 1170 1169 1172
3 1173 1174 1175
3 1176 1177 1178
3 1177 1176 1179
3 1180 1181 1182
3 1181 1180 1183
3 1184 1185 1186
3 1185 1184 1187
3 1188 1189 1190
3 1189 1188 1191
3 1192 1193 1194
3 1193 1192 1195
3 1196 1197 1198
3 1197 1196 1199
