ply
format ascii 1.0
comment Created by Blender 2.83.0 - www.blender.org, source file: ''
element vertex 208
property float x
property float y
property float z
element face 132
property list uchar uint vertex_indices
end_header
0.499950 0.146652 0.499950
0.399960 0.000000 0.499950
0.499950 0.000000 0.499950
0.399960 0.063327 0.499950
0.399960 0.146652 0.499950
0.399960 0.000000 0.499950
0.499950 0.000000 -0.499950
0.499950 0.000000 0.499950
0.399960 0.000000 -0.499950
-0.399960 0.000000 -0.499950
-0.399960 0.000000 0.499950
-0.499950 0.000000 -0.499950
-0.499950 0.000000 0.499950
0.499950 0.146652 0.499950
0.499950 0.000000 -0.499950
0.499950 0.146652 -0.499950
0.499950 0.000000 0.499950
-0.499950 0.146652 -0.499950
-0.399960 0.146652 0.499950
-0.399960 0.146652 -0.499950
-0.499950 0.146652 0.499950
-0.499950 0.000000 0.499950
-0.499950 0.146652 -0.499950
-0.499950 0.000000 -0.499950
-0.499950 0.146652 0.499950
-0.499950 0.146652 -0.499950
-0.399960 0.000000 -0.499950
-0.499950 0.000000 -0.499950
-0.399960 0.063327 -0.499950
-0.399960 0.146652 -0.499950
0.399960 0.146652 -0.499950
0.499950 0.146652 0.499950
0.499950 0.146652 -0.499950
0.399960 0.146652 0.499950
0.399960 0.063327 0.499950
0.399960 0.146652 -0.499950
0.399960 0.063327 -0.499950
0.399960 0.146652 0.499950
-0.399960 0.146652 0.499950
-0.399960 0.063327 -0.499950
-0.399960 0.146652 -0.499950
-0.399960 0.063327 0.499950
-0.399960 0.063327 0.499950
-0.499950 0.000000 0.499950
-0.399960 0.000000 0.499950
-0.499950 0.146652 0.499950
-0.399960 0.146652 0.499950
0.399960 0.063327 -0.499950
0.499950 0.000000 -0.499950
0.399960 0.000000 -0.499950
0.499950 0.146652 -0.499950
0.399960 0.146652 -0.499950
0.399960 0.063327 -0.499950
0.289749 0.063327 -0.077638
0.399960 0.063327 0.499950
0.259782 0.063327 -0.149985
0.212111 0.063327 -0.212111
0.149985 0.063327 -0.259782
-0.399960 0.063327 -0.499950
0.299970 0.063327 0.000000
0.077638 0.063327 -0.289749
0.000000 0.063327 -0.299970
-0.077638 0.063327 -0.289749
-0.149985 0.063327 -0.259782
-0.212111 0.063327 -0.212111
-0.259782 0.063327 -0.149985
-0.289749 0.063327 -0.077638
-0.299970 0.063327 0.000000
0.289749 0.063327 0.077638
-0.399960 0.063327 0.499950
-0.289749 0.063327 0.077638
-0.259782 0.063327 0.149985
-0.212111 0.063327 0.212111
-0.149985 0.063327 0.259782
-0.077638 0.063327 0.289749
0.000000 0.063327 0.299970
0.077638 0.063327 0.289749
0.149985 0.063327 0.259782
0.212111 0.063327 0.212111
0.259782 0.063327 0.149985
0.399960 0.063327 0.499950
-0.399960 0.000000 0.499950
0.399960 0.000000 0.499950
-0.399960 0.063327 0.499950
-0.399960 0.063327 -0.499950
0.399960 0.000000 -0.499950
-0.399960 0.000000 -0.499950
0.399960 0.063327 -0.499950
0.144874 0.096657 -0.038819
0.144874 0.096657 0.038819
0.149985 0.096657 0.000000
0.129891 0.096657 -0.074992
0.129891 0.096657 0.074992
0.106055 0.096657 -0.106055
0.106055 0.096657 0.106055
0.074992 0.096657 -0.129891
0.074992 0.096657 0.129891
0.038819 0.096657 -0.144874
0.038819 0.096657 0.144874
0.000000 0.096657 -0.149985
0.000000 0.096657 0.149985
-0.038819 0.096657 -0.144874
-0.038819 0.096657 0.144874
-0.074992 0.096657 -0.129891
-0.074992 0.096657 0.129891
-0.106055 0.096657 -0.106055
-0.106055 0.096657 0.106055
-0.129891 0.096657 -0.074992
-0.129891 0.096657 0.074992
-0.144874 0.096657 -0.038819
-0.144874 0.096657 0.038819
-0.149985 0.096657 0.000000
0.129891 0.096657 0.074992
0.212111 0.063327 0.212111
0.259782 0.063327 0.149985
0.106055 0.096657 0.106055
0.144874 0.096657 0.038819
0.259782 0.063327 0.149985
0.289749 0.063327 0.077638
0.129891 0.096657 0.074992
0.149985 0.096657 0.000000
0.289749 0.063327 0.077638
0.299970 0.063327 0.000000
0.144874 0.096657 0.038819
0.289749 0.063327 -0.077638
0.149985 0.096657 0.000000
0.299970 0.063327 0.000000
0.144874 0.096657 -0.038819
0.259782 0.063327 -0.149985
0.144874 0.096657 -0.038819
0.289749 0.063327 -0.077638
0.129891 0.096657 -0.074992
0.212111 0.063327 -0.212111
0.129891 0.096657 -0.074992
0.259782 0.063327 -0.149985
0.106055 0.096657 -0.106055
0.149985 0.063327 -0.259782
0.106055 0.096657 -0.106055
0.212111 0.063327 -0.212111
0.074992 0.096657 -0.129891
0.000000 0.063327 -0.299970
0.038819 0.096657 -0.144874
0.077638 0.063327 -0.289749
0.000000 0.096657 -0.149985
-0.077638 0.063327 -0.289749
0.000000 0.096657 -0.149985
0.000000 0.063327 -0.299970
-0.038819 0.096657 -0.144874
-0.077638 0.063327 -0.289749
-0.074992 0.096657 -0.129891
-0.038819 0.096657 -0.144874
-0.149985 0.063327 -0.259782
-0.149985 0.063327 -0.259782
-0.106055 0.096657 -0.106055
-0.074992 0.096657 -0.129891
-0.212111 0.063327 -0.212111
-0.212111 0.063327 -0.212111
-0.129891 0.096657 -0.074992
-0.106055 0.096657 -0.106055
-0.259782 0.063327 -0.149985
0.077638 0.063327 -0.289749
0.074992 0.096657 -0.129891
0.149985 0.063327 -0.259782
0.038819 0.096657 -0.144874
-0.259782 0.063327 -0.149985
-0.144874 0.096657 -0.038819
-0.129891 0.096657 -0.074992
-0.289749 0.063327 -0.077638
-0.289749 0.063327 -0.077638
-0.149985 0.096657 0.000000
-0.144874 0.096657 -0.038819
-0.299970 0.063327 0.000000
-0.149985 0.096657 0.000000
-0.289749 0.063327 0.077638
-0.144874 0.096657 0.038819
-0.299970 0.063327 0.000000
-0.144874 0.096657 0.038819
-0.259782 0.063327 0.149985
-0.129891 0.096657 0.074992
-0.289749 0.063327 0.077638
-0.129891 0.096657 0.074992
-0.212111 0.063327 0.212111
-0.106055 0.096657 0.106055
-0.259782 0.063327 0.149985
0.038819 0.096657 0.144874
0.000000 0.063327 0.299970
0.077638 0.063327 0.289749
0.000000 0.096657 0.149985
0.000000 0.096657 0.149985
-0.077638 0.063327 0.289749
0.000000 0.063327 0.299970
-0.038819 0.096657 0.144874
0.074992 0.096657 0.129891
0.077638 0.063327 0.289749
0.149985 0.063327 0.259782
0.038819 0.096657 0.144874
-0.074992 0.096657 0.129891
-0.077638 0.063327 0.289749
-0.038819 0.096657 0.144874
-0.149985 0.063327 0.259782
0.106055 0.096657 0.106055
0.149985 0.063327 0.259782
0.212111 0.063327 0.212111
0.074992 0.096657 0.129891
-0.106055 0.096657 0.106055
-0.149985 0.063327 0.259782
-0.074992 0.096657 0.129891
-0.212111 0.063327 0.212111
3 0 1 2
3 1 0 3
3 3 0 4
3 5 6 7
3 6 5 8
3 8 5 9
3 9 5 10
3 9 10 11
3 11 10 12
3 13 14 15
3 14 13 16
3 17 18 19
3 18 17 20
3 21 22 23
3 22 21 24
3 25 26 27
3 26 25 28
3 28 25 29
3 30 31 32
3 31 30 33
3 34 35 36
3 35 34 37
3 38 39 40
3 39 38 41
3 42 43 44
3 43 42 45
3 45 42 46
3 47 48 49
3 48 47 50
3 50 47 51
3 52 53 54
3 53 52 55
3 55 52 56
3 56 52 57
3 57 52 58
3 54 53 59
3 57 58 60
3 60 58 61
3 61 58 62
3 62 58 63
3 63 58 64
3 64 58 65
3 65 58 66
3 66 58 67
3 68 54 59
3 69 67 58
3 69 70 67
3 69 71 70
3 69 72 71
3 69 73 72
3 69 74 73
3 69 75 74
3 69 76 75
3 69 77 76
3 54 77 69
3 77 54 78
3 78 54 79
3 79 54 68
3 80 81 82
3 81 80 83
3 84 85 86
3 85 84 87
3 88 89 90
3 89 88 91
3 89 91 92
3 92 91 93
3 92 93 94
3 94 93 95
3 94 95 96
3 96 95 97
3 96 97 98
3 98 97 99
3 98 99 100
3 100 99 101
3 100 101 102
3 102 101 103
3 102 103 104
3 104 103 105
3 104 105 106
3 106 105 107
3 106 107 108
3 108 107 109
3 108 109 110
3 110 109 111
3 112 113 114
3 113 112 115
3 116 117 118
3 117 116 119
3 120 121 122
3 121 120 123
3 124 125 126
3 125 124 127
3 128 129 130
3 129 128 131
3 132 133 134
3 133 132 135
3 136 137 138
3 137 136 139
3 140 141 142
3 141 140 143
3 144 145 146
3 145 144 147
3 148 149 150
3 149 148 151
3 152 153 154
3 153 152 155
3 156 157 158
3 157 156 159
3 160 161 162
3 161 160 163
3 164 165 166
3 165 164 167
3 168 169 170
3 169 168 171
3 172 173 174
3 173 172 175
3 176 177 178
3 177 176 179
3 180 181 182
3 181 180 183
3 184 185 186
3 185 184 187
3 188 189 190
3 189 188 191
3 192 193 194
3 193 192 195
3 196 197 198
3 197 196 199
3 200 201 202
3 201 200 203
3 204 205 206
3 205 204 207
