ply
format ascii 1.0
comment Created by Blender 2.83.0 - www.blender.org, source file: ''
element vertex 56
property float x
property float y
property float z
element face 32
property list uchar uint vertex_indices
end_header
0.499950 0.000000 0.499950
0.399960 0.000000 -0.499950
0.499950 0.000000 -0.499950
-0.499950 0.000000 0.499950
-0.399960 0.000000 -0.499950
-0.499950 0.000000 -0.499950
0.499950 0.146652 0.499950
0.499950 0.000000 -0.499950
0.499950 0.146652 -0.499950
0.499950 0.000000 0.499950
-0.499950 0.146652 -0.499950
-0.399960 0.146652 0.399960
-0.399960 0.146652 -0.499950
-0.499950 0.146652 0.499950
0.399960 0.146652 0.399960
0.499950 0.146652 0.499950
0.399960 0.146652 -0.499950
0.499950 0.146652 -0.499950
-0.499950 0.000000 0.499950
-0.499950 0.146652 -0.499950
-0.499950 0.000000 -0.499950
-0.499950 0.146652 0.499950
-0.499950 0.146652 -0.499950
-0.399960 0.000000 -0.499950
-0.499950 0.000000 -0.499950
-0.399960 0.063327 -0.499950
-0.399960 0.146652 -0.499950
-0.399960 0.146652 0.399960
-0.399960 0.063327 -0.499950
-0.399960 0.146652 -0.499950
-0.399960 0.063327 0.399960
0.499950 0.146652 0.499950
-0.499950 0.000000 0.499950
0.499950 0.000000 0.499950
-0.499950 0.146652 0.499950
0.399960 0.063327 -0.499950
0.499950 0.000000 -0.499950
0.399960 0.000000 -0.499950
0.499950 0.146652 -0.499950
0.399960 0.146652 -0.499950
0.399960 0.063327 0.399960
0.399960 0.146652 -0.499950
0.399960 0.063327 -0.499950
0.399960 0.146652 0.399960
-0.399960 0.146652 0.399960
0.399960 0.063327 0.399960
-0.399960 0.063327 0.399960
0.399960 0.146652 0.399960
-0.399960 0.063327 -0.499950
0.399960 0.063327 0.399960
0.399960 0.063327 -0.499950
-0.399960 0.063327 0.399960
-0.399960 0.063327 -0.499950
0.399960 0.000000 -0.499950
-0.399960 0.000000 -0.499950
0.399960 0.063327 -0.499950
3 0 1 2
3 1 0 3
3 1 3 4
3 4 3 5
3 6 7 8
3 7 6 9
3 10 11 12
3 13 11 10
3 13 14 11
3 15 14 13
3 15 16 14
3 16 15 17
3 18 19 20
3 19 18 21
3 22 23 24
3 23 22 25
3 25 22 26
3 27 28 29
3 28 27 30
3 31 32 33
3 32 31 34
3 35 36 37
3 36 35 38
3 38 35 39
3 40 41 42
3 41 40 43
3 44 45 46
3 45 44 47
3 48 49 50
3 49 48 51
3 52 53 54
3 53 52 55
