ply
format ascii 1.0
comment Created by Blender 2.83.0 - www.blender.org, source file: ''
element vertex 200
property float x
property float y
property float z
element face 128
property list uchar uint vertex_indices
end_header
0.499950 0.000000 0.499950
0.399960 0.000000 -0.499950
0.499950 0.000000 -0.499950
-0.499950 0.000000 0.499950
-0.399960 0.000000 -0.499950
-0.499950 0.000000 -0.499950
0.499950 0.146652 0.499950
0.499950 0.000000 -0.499950
0.499950 0.146652 -0.499950
0.499950 0.000000 0.499950
-0.499950 0.146652 -0.499950
-0.399960 0.146652 0.399960
-0.399960 0.146652 -0.499950
-0.499950 0.146652 0.499950
0.399960 0.146652 0.399960
0.499950 0.146652 0.499950
0.399960 0.146652 -0.499950
0.499950 0.146652 -0.499950
-0.499950 0.000000 0.499950
-0.499950 0.146652 -0.499950
-0.499950 0.000000 -0.499950
-0.499950 0.146652 0.499950
-0.499950 0.146652 -0.499950
-0.399960 0.000000 -0.499950
-0.499950 0.000000 -0.499950
-0.399960 0.063327 -0.499950
-0.399960 0.146652 -0.499950
-0.399960 0.146652 0.399960
-0.399960 0.063327 -0.499950
-0.399960 0.146652 -0.499950
-0.399960 0.063327 0.399960
0.499950 0.146652 0.499950
-0.499950 0.000000 0.499950
0.499950 0.000000 0.499950
-0.499950 0.146652 0.499950
0.399960 0.063327 -0.499950
0.499950 0.000000 -0.499950
0.399960 0.000000 -0.499950
0.499950 0.146652 -0.499950
0.399960 0.146652 -0.499950
0.399960 0.063327 0.399960
0.399960 0.146652 -0.499950
0.399960 0.063327 -0.499950
0.399960 0.146652 0.399960
-0.399960 0.146652 0.399960
0.399960 0.063327 0.399960
-0.399960 0.063327 0.399960
0.399960 0.146652 0.399960
-0.047136 0.063327 0.047136
-0.057729 0.031663 0.033330
-0.057729 0.063327 0.033330
-0.047136 0.031663 0.047136
-0.047136 0.063327 0.047136
-0.033330 0.031663 0.057729
-0.047136 0.031663 0.047136
-0.033330 0.063327 0.057729
-0.033330 0.063327 0.057729
-0.017253 0.031663 0.064389
-0.033330 0.031663 0.057729
-0.017253 0.063327 0.064389
-0.017253 0.063327 0.064389
0.000000 0.031663 0.066660
-0.017253 0.031663 0.064389
0.000000 0.063327 0.066660
0.000000 0.063327 0.066660
0.017253 0.031663 0.064389
0.000000 0.031663 0.066660
0.017253 0.063327 0.064389
0.017253 0.063327 0.064389
0.033330 0.031663 0.057729
0.017253 0.031663 0.064389
0.033330 0.063327 0.057729
0.033330 0.063327 0.057729
0.047136 0.031663 0.047136
0.033330 0.031663 0.057729
0.047136 0.063327 0.047136
0.047136 0.031663 0.047136
0.057729 0.063327 0.033330
0.057729 0.031663 0.033330
0.047136 0.063327 0.047136
0.057729 0.031663 0.033330
0.064389 0.063327 0.017253
0.064389 0.031663 0.017253
0.057729 0.063327 0.033330
0.064389 0.031663 0.017253
0.066660 0.063327 0.000000
0.066660 0.031663 0.000000
0.064389 0.063327 0.017253
0.066660 0.031663 0.000000
0.064389 0.063327 -0.017253
0.064389 0.031663 -0.017253
0.066660 0.063327 0.000000
0.064389 0.031663 -0.017253
0.057729 0.063327 -0.033330
0.057729 0.031663 -0.033330
0.064389 0.063327 -0.017253
0.057729 0.031663 -0.033330
0.047136 0.063327 -0.047136
0.047136 0.031663 -0.047136
0.057729 0.063327 -0.033330
0.047136 0.063327 -0.047136
0.033330 0.031663 -0.057729
0.047136 0.031663 -0.047136
0.033330 0.063327 -0.057729
0.033330 0.063327 -0.057729
0.017253 0.031663 -0.064389
0.033330 0.031663 -0.057729
0.017253 0.063327 -0.064389
0.017253 0.063327 -0.064389
0.000000 0.031663 -0.066660
0.017253 0.031663 -0.064389
0.000000 0.063327 -0.066660
0.000000 0.063327 -0.066660
-0.017253 0.031663 -0.064389
0.000000 0.031663 -0.066660
-0.017253 0.063327 -0.064389
-0.017253 0.063327 -0.064389
-0.033330 0.031663 -0.057729
-0.017253 0.031663 -0.064389
-0.033330 0.063327 -0.057729
-0.033330 0.063327 -0.057729
-0.047136 0.031663 -0.047136
-0.033330 0.031663 -0.057729
-0.047136 0.063327 -0.047136
-0.057729 0.063327 -0.033330
-0.047136 0.031663 -0.047136
-0.047136 0.063327 -0.047136
-0.057729 0.031663 -0.033330
-0.064389 0.063327 -0.017253
-0.057729 0.031663 -0.033330
-0.057729 0.063327 -0.033330
-0.064389 0.031663 -0.017253
-0.066660 0.063327 0.000000
-0.064389 0.031663 -0.017253
-0.064389 0.063327 -0.017253
-0.066660 0.031663 0.000000
-0.064389 0.063327 0.017253
-0.066660 0.031663 0.000000
-0.066660 0.063327 0.000000
-0.064389 0.031663 0.017253
-0.057729 0.063327 0.033330
-0.064389 0.031663 0.017253
-0.064389 0.063327 0.017253
-0.057729 0.031663 0.033330
0.399960 0.063327 -0.499950
0.047136 0.063327 -0.047136
0.399960 0.063327 0.399960
-0.399960 0.063327 -0.499950
0.057729 0.063327 -0.033330
0.064389 0.063327 -0.017253
0.066660 0.063327 0.000000
0.033330 0.063327 -0.057729
0.017253 0.063327 -0.064389
0.000000 0.063327 -0.066660
-0.017253 0.063327 -0.064389
-0.033330 0.063327 -0.057729
-0.047136 0.063327 -0.047136
-0.057729 0.063327 -0.033330
-0.064389 0.063327 -0.017253
-0.066660 0.063327 0.000000
0.064389 0.063327 0.017253
-0.399960 0.063327 0.399960
-0.064389 0.063327 0.017253
-0.057729 0.063327 0.033330
-0.047136 0.063327 0.047136
-0.033330 0.063327 0.057729
-0.017253 0.063327 0.064389
0.000000 0.063327 0.066660
0.017253 0.063327 0.064389
0.033330 0.063327 0.057729
0.047136 0.063327 0.047136
0.057729 0.063327 0.033330
-0.399960 0.063327 -0.499950
0.399960 0.000000 -0.499950
-0.399960 0.000000 -0.499950
0.399960 0.063327 -0.499950
0.064389 0.031663 -0.017253
0.064389 0.031663 0.017253
0.066660 0.031663 0.000000
0.057729 0.031663 -0.033330
0.057729 0.031663 0.033330
0.047136 0.031663 -0.047136
0.047136 0.031663 0.047136
0.033330 0.031663 -0.057729
0.033330 0.031663 0.057729
0.017253 0.031663 -0.064389
0.017253 0.031663 0.064389
0.000000 0.031663 -0.066660
0.000000 0.031663 0.066660
-0.017253 0.031663 -0.064389
-0.017253 0.031663 0.064389
-0.033330 0.031663 -0.057729
-0.033330 0.031663 0.057729
-0.047136 0.031663 -0.047136
-0.047136 0.031663 0.047136
-0.057729 0.031663 -0.033330
-0.057729 0.031663 0.033330
-0.064389 0.031663 -0.017253
-0.064389 0.031663 0.017253
-0.066660 0.031663 0.000000
3 0 1 2
3 1 0 3
3 1 3 4
3 4 3 5
3 6 7 8
3 7 6 9
3 10 11 12
3 13 11 10
3 13 14 11
3 15 14 13
3 15 16 14
3 16 15 17
3 18 19 20
3 19 18 21
3 22 23 24
3 23 22 25
3 25 22 26
3 27 28 29
3 28 27 30
3 31 32 33
3 32 31 34
3 35 36 37
3 36 35 38
3 38 35 39
3 40 41 42
3 41 40 43
3 44 45 46
3 45 44 47
3 48 49 50
3 49 48 51
3 52 53 54
3 53 52 55
3 56 57 58
3 57 56 59
3 60 61 62
3 61 60 63
3 64 65 66
3 65 64 67
3 68 69 70
3 69 68 71
3 72 73 74
3 73 72 75
3 76 77 78
3 77 76 79
3 80 81 82
3 81 80 83
3 84 85 86
3 85 84 87
3 88 89 90
3 89 88 91
3 92 93 94
3 93 92 95
3 96 97 98
3 97 96 99
3 100 101 102
3 101 100 103
3 104 105 106
3 105 104 107
3 108 109 110
3 109 108 111
3 112 113 114
3 113 112 115
3 116 117 118
3 117 116 119
3 120 121 122
3 121 120 123
3 124 125 126
3 125 124 127
3 128 129 130
3 129 128 131
3 132 133 134
3 133 132 135
3 136 137 138
3 137 136 139
3 140 141 142
3 141 140 143
3 144 145 146
3 145 144 147
3 146 145 148
3 146 148 149
3 146 149 150
3 145 147 151
3 151 147 152
3 152 147 153
3 153 147 154
3 154 147 155
3 155 147 156
3 156 147 157
3 157 147 158
3 158 147 159
3 160 146 150
3 161 159 147
3 161 162 159
3 161 163 162
3 161 164 163
3 161 165 164
3 161 166 165
3 161 167 166
3 161 168 167
3 161 169 168
3 161 170 169
3 146 170 161
3 170 146 171
3 171 146 160
3 172 173 174
3 173 172 175
3 176 177 178
3 177 176 179
3 177 179 180
3 180 179 181
3 180 181 182
3 182 181 183
3 182 183 184
3 184 183 185
3 184 185 186
3 186 185 187
3 186 187 188
3 188 187 189
3 188 189 190
3 190 189 191
3 190 191 192
3 192 191 193
3 192 193 194
3 194 193 195
3 194 195 196
3 196 195 197
3 196 197 198
3 198 197 199
