ply
format ascii 1.0
comment Created by Blender 2.83.0 - www.blender.org, source file: ''
element vertex 519
property float x
property float y
property float z
element face 575
property list uchar uint vertex_indices
end_header
10.600000 0.000000 3.000000
9.103059 -0.000000 2.940499
9.119002 -0.000000 3.000000
7.010024 0.011314 3.999987
6.366712 0.037188 2.965668
6.558056 0.047543 3.999946
6.114718 0.146612 4.000206
5.707300 0.232654 3.291296
5.618332 0.413319 3.995307
5.195478 0.632812 3.956769
5.393577 0.375232 3.363140
5.075722 0.659006 3.935463
4.537853 0.503161 3.752783
4.720446 0.598810 3.828535
4.584601 0.335703 3.038997
4.464204 0.288510 2.981106
4.280694 0.335446 3.623804
4.334408 0.220320 2.843240
4.169230 0.200263 3.090176
3.184502 0.000439 2.888206
3.292362 0.021630 2.295069
3.116641 0.040223 2.137011
2.789706 -0.000410 2.592813
2.924186 0.042147 2.282126
2.562137 0.000238 2.431425
2.576786 0.091702 2.015224
2.199130 0.000162 2.212233
2.391057 0.000061 2.321318
2.244702 0.199423 1.583406
2.033959 0.002709 2.138805
1.542089 0.000226 2.019043
1.724030 -0.001674 2.046653
1.494856 0.102862 1.588653
1.047931 0.001676 2.000038
1.235835 0.001040 2.001726
1.076835 0.076829 1.277608
5.573956 0.304209 3.370476
5.369068 0.555364 3.980488
2.807374 0.118587 1.768549
1.932858 0.660226 0.100663
1.714278 0.189225 1.411056
1.353117 0.000161 2.005413
1.317332 0.174125 1.033640
1.189472 0.119152 1.145809
6.140349 0.106147 3.470962
5.910084 0.117964 2.964414
5.871473 0.200974 3.507548
4.985009 0.666256 3.912927
5.106866 0.000237 1.941097
4.956166 0.000054 1.905439
4.874507 0.652439 3.882404
4.835030 0.210653 2.523770
4.703293 0.209427 2.529076
4.169700 0.127445 2.533393
4.019140 0.172365 3.470600
3.933433 0.063963 2.376762
3.654711 0.046181 3.229913
3.708912 0.020961 1.878925
3.012695 0.105075 1.461892
2.531409 0.215454 1.471655
2.303117 0.359958 1.041844
2.134730 0.650120 0.181627
1.873240 -0.000608 2.082211
2.019778 0.666483 0.132004
1.537589 0.242914 1.051244
0.425102 0.000484 2.000000
-1.999972 -0.000000 0.000000
-1.999972 0.000000 2.000000
6.418437 0.011888 2.356981
5.553751 0.150512 2.663137
2.799731 0.204639 1.165183
2.657027 0.295940 0.928750
1.727264 0.445488 0.572777
0.666390 0.017795 1.354351
0.256948 0.001602 0.000010
7.308727 0.000697 2.638249
6.023877 0.040771 2.424016
5.763632 0.075730 2.461732
4.585326 -0.000030 1.773182
4.483257 -0.000901 1.726940
4.389305 -0.001353 1.681057
4.199896 0.059273 1.990893
3.969655 0.029389 1.822447
3.459557 0.017610 3.091091
3.498810 0.021232 1.119056
3.241036 0.073048 0.929724
2.504578 0.475569 0.393512
2.378805 0.549444 0.313797
1.457427 0.345110 0.483942
1.253592 0.251003 0.421159
1.031996 0.136501 0.501210
0.928681 0.046446 1.323977
0.679474 0.054273 0.000092
5.305315 0.247831 2.806842
5.395280 0.087846 2.304227
7.655203 -0.000065 2.000000
5.990957 0.001600 1.999946
5.699089 0.000348 1.997413
5.441986 0.000249 1.985595
5.259591 0.000063 1.966138
4.773873 0.000173 1.848806
4.165469 -0.000010 1.558818
3.924788 -0.000170 1.411177
3.683638 0.004512 1.249803
2.940424 0.196731 0.705157
2.689416 0.355080 0.520246
2.261231 0.607563 0.246020
1.842311 0.644177 0.074306
1.721269 0.600118 0.046585
1.399994 0.415946 0.007820
1.184568 0.271469 0.000489
0.919259 0.127532 0.000007
9.000000 0.000000 4.600000
9.312144 0.000000 4.569256
10.131371 0.000000 4.131371
9.612293 0.000000 4.478207
9.888912 0.000000 4.330351
10.330352 0.000000 3.888912
10.478208 0.000000 3.612293
10.569257 0.000000 3.312145
10.569257 0.000000 2.687856
10.478208 0.000000 2.387707
10.330352 0.000000 2.111088
10.131371 0.000000 1.868629
9.888912 0.000000 1.669649
9.612293 0.000000 1.521793
9.312144 0.000000 1.430743
8.999999 0.000000 1.400000
8.687855 0.000000 1.430744
8.387706 0.000000 1.521793
8.111087 0.000000 1.669649
7.868629 0.000000 1.868630
7.655185 -0.001046 4.000000
7.868630 0.000000 4.131372
8.111090 0.000000 4.330353
8.387709 0.000000 4.478208
8.687858 0.000000 4.569257
8.896941 0.000000 3.059501
8.880998 0.000000 3.000000
3.842288 0.100152 3.357087
1.575503 0.525984 0.023401
8.044348 -0.001374 4.430070
8.043200 0.073616 4.430612
7.797859 0.073572 4.229641
7.799007 -0.001417 4.229099
7.800961 -0.140686 4.228729
8.046541 -0.140686 4.429865
5.617184 0.488308 3.995848
6.113570 0.221601 4.000747
1.744845 0.600814 -0.071074
1.744910 -0.140686 -0.071763
1.590716 -0.140686 -0.096182
1.591279 0.526551 -0.095556
1.590130 0.601541 -0.095015
1.743697 0.675803 -0.070534
7.654055 0.074925 2.000541
5.989809 0.076589 2.000488
7.622961 -0.001881 4.115589
7.624069 -0.140686 4.115016
7.621812 0.073108 4.116130
6.556908 0.122532 4.000487
1.872842 0.644985 -0.041743
1.871694 0.719974 -0.041201
1.968993 0.736131 -0.012853
1.970141 0.661142 -0.013394
1.971703 -0.140686 -0.013858
1.873831 -0.140686 -0.042323
7.799019 -0.000918 1.770887
7.800931 -0.140686 1.770667
7.624212 -0.140686 1.884325
7.622863 -0.000312 1.884440
7.621715 0.074677 1.884981
7.797871 0.074071 1.771428
7.008876 0.086303 4.000528
2.063854 0.667506 0.020397
2.066099 -0.140686 0.020169
2.062706 0.742495 0.020938
-2.001121 0.074989 2.000541
0.423954 0.075473 2.000541
8.341670 -0.000490 1.410976
8.340522 0.074500 1.411517
8.663171 0.074895 1.313615
8.664320 -0.000095 1.313074
8.666606 -0.140686 1.312715
8.343936 -0.140686 1.410571
7.654036 0.073943 4.000541
2.570646 0.476932 0.293346
2.573829 -0.140686 0.293801
2.444068 -0.140686 0.211503
2.440782 0.550746 0.211049
2.439634 0.625735 0.211590
2.569498 0.551921 0.293887
8.998726 0.075293 1.280542
8.999874 0.000304 1.280000
9.002163 -0.140686 1.279691
8.686709 0.074989 4.569798
8.998852 0.074989 4.600541
3.012349 0.198183 0.609111
3.011200 0.273172 0.609652
3.311670 0.149486 0.834114
3.312819 0.074497 0.833573
3.314700 -0.140686 0.833146
3.014500 -0.140686 0.608886
9.334289 0.075680 1.313569
9.335438 0.000691 1.313028
9.337709 -0.140686 1.312765
8.386560 0.074989 4.478749
3.569187 0.022660 1.021870
3.571074 -0.140686 1.021451
3.568039 0.097649 1.022411
9.656964 0.076041 1.411431
9.658113 0.001051 1.410890
9.660352 -0.140686 1.410663
8.109941 0.074989 4.330894
3.989573 0.001174 1.310177
3.988425 0.076163 1.310718
4.224495 0.076254 1.455545
4.225644 0.001264 1.455004
4.227630 -0.140686 1.454664
3.991560 -0.140686 1.309834
1.046782 0.076665 2.000579
1.234686 0.076030 2.002267
9.954350 0.076361 1.570368
9.955499 0.001371 1.569827
9.957692 -0.140686 1.569621
2.018630 0.741472 0.132545
1.931709 0.735215 0.101205
7.867482 0.074989 4.131914
4.443278 0.074832 1.575014
4.444426 -0.000157 1.574473
4.446421 -0.140686 1.574140
1.351968 0.075150 2.005954
10.215014 0.076628 1.784272
10.216163 0.001639 1.783731
10.218307 -0.140686 1.783527
4.534352 0.000232 1.618367
4.536374 -0.140686 1.618050
4.533204 0.075222 1.618909
1.540941 0.075216 2.019584
-2.001121 0.074989 0.000541
8.109939 0.074989 1.670190
7.867480 0.074989 1.869171
5.130445 0.000932 1.823438
5.132400 -0.140686 1.823112
4.989800 -0.140686 1.789366
4.987839 0.000880 1.789697
4.986691 0.075870 1.790238
5.129297 0.075921 1.823979
3.497662 0.096221 1.119597
3.239888 0.148037 0.930265
10.430086 0.001843 2.044382
10.428938 0.076832 2.044924
10.587898 0.076965 2.342304
10.589046 0.001976 2.341763
10.591107 -0.140686 2.341509
10.432184 -0.140686 2.044162
8.386558 0.074989 1.522334
5.451145 0.000708 1.865946
5.449997 0.075697 1.866487
5.701237 0.075699 1.878000
5.702385 0.000710 1.877458
5.704382 -0.140686 1.877147
5.453111 -0.140686 1.865631
10.686933 0.002033 2.664443
10.688973 -0.140686 2.664144
10.685784 0.077023 2.664984
8.686707 0.074989 1.431285
5.991484 0.001914 1.879948
5.993512 -0.140686 1.879638
5.990335 0.076904 1.880489
1.722882 0.073315 2.047194
1.872092 0.074381 2.082752
3.751758 0.005906 1.151022
3.753700 -0.140686 1.150646
3.750610 0.080896 1.151563
3.957414 0.171067 3.573499
3.958337 -0.140686 3.572512
4.224985 -0.140686 3.728678
4.225121 0.334243 3.730153
4.223973 0.409232 3.730695
3.956265 0.246057 3.574040
2.185443 0.651248 0.072875
2.188495 -0.140686 0.073045
2.184295 0.726237 0.073417
5.275704 0.000636 1.847227
5.274556 0.075626 1.847768
5.277673 -0.140686 1.846907
0.256940 0.001908 -0.119990
0.258978 -0.140686 -0.120300
-2.082275 -0.140686 -0.085663
-2.085319 -0.001216 -0.084348
-2.086467 0.073773 -0.083807
0.255792 0.076897 -0.119449
2.759029 0.356496 0.422511
2.762101 -0.140686 0.422946
2.757881 0.431486 0.423052
1.233428 0.000694 2.121701
1.235427 -0.140686 2.121391
1.348919 -0.140686 2.124940
1.346943 -0.000248 2.125253
1.345795 0.074741 2.125794
1.232279 0.075683 2.122242
4.814083 0.001135 1.735747
4.812934 0.076125 1.736289
4.816035 -0.140686 1.735407
1.047394 0.001361 2.120037
1.049420 -0.140686 2.119727
1.046246 0.076350 2.120578
0.425099 0.000178 2.119999
0.427136 -0.140686 2.119689
0.423951 0.075167 2.120541
3.776757 0.098796 3.457604
3.778342 -0.140686 3.456997
3.775609 0.173786 3.458145
1.530732 -0.140686 2.137982
1.528821 -0.000300 2.138306
1.527673 0.074689 2.138847
3.586585 0.044786 3.328690
3.588377 -0.140686 3.328210
3.585436 0.119776 3.329231
2.318152 0.608787 0.140386
2.321493 -0.140686 0.140789
2.317004 0.683777 0.140928
3.389301 0.016183 3.188365
3.391258 -0.140686 3.187996
3.388153 0.091173 3.188906
8.341688 -0.001054 4.589028
8.340540 0.073935 4.589569
8.343927 -0.140686 4.588801
3.112979 -0.001006 2.984551
3.115011 -0.140686 2.984236
3.111831 0.073983 2.985092
8.666603 -0.140686 4.686663
8.664330 -0.000695 4.686926
8.663182 0.074295 4.687467
-2.082397 -0.140686 2.084916
-2.085192 -0.001644 2.084469
-2.086340 0.073345 2.085010
8.044325 -0.000865 1.569939
8.043177 0.074124 1.570480
8.046554 -0.140686 1.569502
6.558042 0.047236 4.119946
6.560075 -0.140686 4.119636
7.012041 -0.140686 4.119676
7.010002 0.011007 4.119986
7.008853 0.085996 4.120527
6.556893 0.122226 4.120487
2.719060 -0.001842 2.689803
2.721079 -0.140686 2.689479
2.717912 0.073147 2.690345
6.113890 0.146292 4.120203
6.116254 -0.140686 4.119895
6.112741 0.221281 4.120744
9.002164 -0.140686 4.719690
8.999874 -0.000308 4.719999
8.998726 0.074681 4.720541
5.612978 0.412924 4.115187
5.617011 -0.140686 4.114949
5.611830 0.487913 4.115728
9.337718 -0.140686 4.686616
9.335431 0.000090 4.686975
9.334283 0.075080 4.687516
1.408234 0.416390 -0.111896
1.407085 0.491379 -0.111355
1.407969 -0.140686 -0.112342
5.355676 0.554835 4.099738
5.360528 -0.140686 4.099710
5.354527 0.629824 4.100279
9.660367 -0.140686 4.588715
9.658101 0.000485 4.589119
9.656953 0.075475 4.589660
2.494961 -0.001142 2.530851
2.496962 -0.140686 2.530516
2.493813 0.073848 2.531393
9.957712 -0.140686 4.429751
9.955483 0.000862 4.430189
9.954335 0.075851 4.430730
1.187894 -0.140686 -0.119813
1.187127 0.271817 -0.119483
1.185978 0.346807 -0.118942
5.176122 0.632186 4.075196
5.179144 -0.140686 4.075042
5.174974 0.707175 4.075737
10.218329 -0.140686 4.215837
10.216146 0.001205 4.216292
10.214998 0.076195 4.216833
0.921231 -0.140686 -0.120303
0.919238 0.127838 -0.119993
0.918090 0.202827 -0.119452
10.432205 -0.140686 3.955194
10.430073 0.001502 3.955647
10.428924 0.076492 3.956188
2.328941 -0.001242 2.423982
2.330933 -0.140686 2.423645
2.327793 0.073747 2.424523
0.679391 0.054577 -0.119908
0.681444 -0.140686 -0.120218
0.678243 0.129566 -0.119367
5.050215 0.658279 4.052719
5.053056 -0.140686 4.052581
5.049067 0.733269 4.053260
4.634449 -0.140686 1.662501
4.632442 0.001042 1.662824
4.631294 0.076031 1.663365
10.591124 -0.140686 3.657840
10.589036 0.001742 3.658271
10.587888 0.076731 3.658813
4.954589 0.665450 4.029005
4.956617 -0.140686 4.028693
4.953441 0.740439 4.029546
10.688982 -0.140686 3.335201
10.686927 0.001914 3.335595
10.685779 0.076903 3.336136
4.839421 0.651558 3.997157
4.840489 -0.140686 3.996545
4.838273 0.726547 3.997698
10.722021 -0.140686 2.999671
10.719983 0.002012 3.000019
10.718835 0.077001 3.000561
2.145110 -0.001017 2.319379
2.147006 -0.140686 2.318998
2.143961 0.073972 2.319921
4.678780 0.597824 3.941065
4.679356 -0.140686 3.940203
4.677632 0.672814 3.941606
1.989660 0.001682 2.250324
1.991630 -0.140686 2.249987
1.988512 0.076671 2.250865
4.489665 0.502072 3.862677
4.489380 -0.140686 3.861318
4.488517 0.577062 3.863218
1.839377 -0.001469 2.197331
1.841398 -0.140686 2.197016
1.838229 0.073520 2.197872
1.701153 -0.002358 2.164450
1.703082 -0.140686 2.164119
1.700005 0.072631 2.164991
8.998851 0.074989 1.400541
2.032811 0.077698 2.139346
9.310996 0.074989 1.431285
9.611145 0.074989 1.522334
2.197982 0.075151 2.212774
9.887764 0.074989 1.670190
10.130222 0.074989 1.869170
10.329203 0.074989 2.111629
2.389909 0.075050 2.321860
0.678326 0.129262 0.000633
0.255799 0.076592 0.000551
10.477058 0.074989 2.388248
2.560988 0.075228 2.431966
10.568108 0.074989 2.688397
0.918111 0.202521 0.000548
10.598851 0.074989 3.000541
1.720121 0.675107 0.047126
1.574355 0.600973 0.023942
1.183420 0.346458 0.001030
10.568108 0.074989 3.312686
2.788558 0.074579 2.593354
10.477058 0.074989 3.612835
2.260083 0.682553 0.246561
2.133582 0.725110 0.182168
3.682490 0.079501 1.250344
1.841163 0.719167 0.074847
9.310996 0.074989 4.569798
9.611145 0.074989 4.478748
3.183354 0.075429 2.888747
3.458408 0.092599 3.091632
4.772725 0.075162 1.849347
4.584177 0.074959 1.773723
3.653563 0.121170 3.230454
2.377656 0.624434 0.314338
3.841140 0.175141 3.357628
5.258443 0.075052 1.966680
5.105718 0.075226 1.941638
4.017992 0.247354 3.471142
2.939276 0.271721 0.705698
2.688268 0.430069 0.520787
4.279546 0.410435 3.624345
2.503430 0.550558 0.394053
3.923640 0.074819 1.411718
4.536705 0.578150 3.753324
4.164320 0.074980 1.559359
4.388156 0.073636 1.681598
4.955018 0.075043 1.905980
4.719298 0.673799 3.829077
4.482109 0.074088 1.727481
4.873359 0.727428 3.882945
5.440837 0.075239 1.986136
4.983860 0.741246 3.913469
5.074574 0.733995 3.936005
5.697941 0.075338 1.997954
5.194330 0.707801 3.957310
5.367920 0.630353 3.981030
9.887764 0.074989 4.330893
10.130222 0.074989 4.131912
1.398846 0.490936 0.008361
10.329203 0.074989 3.889453
9.059501 -0.121520 2.896941
9.059501 -0.000000 2.896941
9.000000 0.000000 2.880998
9.000000 -0.121520 2.880998
9.002038 -0.121520 2.881544
8.940499 0.000000 2.896941
8.940499 -0.121520 2.896941
8.880998 -0.121520 3.000000
8.896941 -0.121520 3.059501
9.103059 -0.121520 2.940499
8.896941 -0.121520 2.940499
8.896941 0.000000 2.940499
9.119002 -0.121520 3.000000
9.103059 -0.121520 3.059501
9.103059 -0.000000 3.059501
9.059501 -0.121520 3.103059
9.059501 -0.000000 3.103059
8.940499 -0.121520 3.103059
8.940499 0.000000 3.103059
9.000000 0.000000 3.119002
9.000000 -0.121520 3.119002
9.002038 -0.121520 3.118456
3 0 1 2
3 3 4 5
3 6 7 8
3 9 10 11
3 12 13 14
3 12 14 15
3 16 15 17
3 16 17 18
3 19 20 21
3 22 21 23
3 24 22 25
3 26 27 28
3 26 28 29
3 30 31 32
3 33 34 35
3 36 10 37
3 22 23 38
3 31 39 40
3 41 32 42
3 34 42 43
3 44 45 46
3 47 48 49
3 50 49 51
3 13 51 52
3 18 17 53
3 54 53 55
3 56 55 57
3 23 21 58
3 23 58 38
3 25 38 59
3 27 59 60
3 29 28 61
3 62 29 63
3 32 64 42
3 65 66 67
3 3 68 4
3 7 69 36
3 36 69 10
3 59 70 71
3 40 39 72
3 40 72 64
3 73 74 65
3 75 68 3
3 4 76 45
3 45 77 7
3 14 52 78
3 15 78 79
3 15 79 80
3 53 17 81
3 55 81 82
3 83 57 84
3 20 84 85
3 38 58 70
3 59 71 86
3 59 86 87
3 28 60 61
3 29 61 63
3 64 72 88
3 42 89 43
3 43 90 35
3 35 90 91
3 91 92 73
3 93 94 48
3 17 80 81
3 75 95 96
3 75 96 68
3 68 96 76
3 77 96 97
3 69 97 98
3 94 98 99
3 51 49 100
3 81 80 101
3 82 101 102
3 57 102 103
3 58 85 104
3 70 104 105
3 60 87 106
3 72 107 108
3 88 109 89
3 89 110 90
3 90 111 92
3 112 113 114
3 113 115 114
3 115 116 114
3 114 117 118
3 118 119 114
3 119 0 114
3 0 120 121
3 121 122 123
3 123 124 125
3 125 126 123
3 126 127 123
3 127 128 129
3 129 130 131
3 131 95 75
3 75 132 133
3 133 134 135
3 135 136 133
3 136 112 133
3 0 121 127
3 121 123 127
3 127 129 75
3 129 131 75
3 112 114 0
3 75 133 127
3 133 137 138
3 6 5 44
3 6 44 46
3 6 46 7
3 8 7 36
3 8 36 37
3 9 37 10
3 47 11 48
3 16 12 15
3 54 16 18
3 19 83 20
3 22 19 21
3 27 24 25
3 41 30 32
3 33 35 91
3 33 91 73
3 33 73 65
3 25 22 38
3 31 62 39
3 32 31 40
3 34 41 42
3 34 43 35
3 132 75 3
3 5 4 44
3 46 45 7
3 11 10 93
3 50 47 49
3 13 50 51
3 14 13 52
3 54 18 53
3 139 54 55
3 56 139 55
3 83 56 57
3 27 25 59
3 28 27 60
3 39 62 63
3 32 40 64
3 44 4 45
3 93 10 69
3 48 11 93
3 59 38 70
3 64 88 42
3 4 68 76
3 45 76 77
3 7 77 69
3 93 69 94
3 15 14 78
3 17 15 80
3 55 53 81
3 57 55 82
3 20 83 84
3 21 20 85
3 58 21 85
3 60 59 87
3 42 88 89
3 43 89 90
3 91 90 92
3 66 65 74
3 88 72 140
3 77 76 96
3 69 77 97
3 94 69 98
3 48 94 99
3 52 51 100
3 78 52 100
3 82 81 101
3 57 82 102
3 84 57 103
3 70 58 104
3 71 70 105
3 86 71 105
3 61 60 106
3 72 39 107
3 140 72 108
3 88 140 109
3 89 109 110
3 90 110 111
3 73 92 74
6 141 142 143 144 145 146
4 6 8 147 148
6 149 150 151 152 153 154
4 96 95 155 156
6 157 158 145 144 143 159
4 5 6 148 160
6 161 162 163 164 165 166
6 167 168 169 170 171 172
4 3 5 160 173
6 174 175 165 164 163 176
4 65 67 177 178
6 179 180 181 182 183 184
4 132 3 173 185
6 186 187 188 189 190 191
6 182 181 192 193 194 183
4 112 136 195 196
6 197 198 199 200 201 202
6 193 192 203 204 205 194
4 136 135 206 195
6 207 208 201 200 199 209
6 204 203 210 211 212 205
4 135 134 213 206
6 214 215 216 217 218 219
4 34 33 220 221
6 211 210 222 223 224 212
4 39 63 225 226
4 134 133 227 213
6 217 216 228 229 230 218
4 41 34 221 231
6 223 222 232 233 234 224
6 235 236 230 229 228 237
4 30 41 231 238
4 67 66 239 177
4 131 130 240 241
6 242 243 244 245 246 247
4 85 84 248 249
6 250 251 252 253 254 255
4 130 129 256 240
6 257 258 259 260 261 262
6 263 264 254 253 252 265
4 129 128 266 256
6 267 268 261 260 259 269
4 62 31 270 271
6 272 273 208 207 209 274
6 275 276 277 278 279 280
6 281 282 175 174 176 283
6 284 285 258 257 262 286
6 287 288 289 290 291 292
6 293 294 187 186 191 295
6 296 297 298 299 300 301
6 302 303 246 245 244 304
6 305 306 297 296 301 307
6 308 309 306 305 307 310
6 311 312 276 275 280 313
6 299 298 314 315 316 300
6 272 274 215 214 219 273
6 317 318 312 311 313 319
6 320 321 282 281 283 322
6 323 324 318 317 319 325
6 326 327 142 141 146 328
6 329 330 324 323 325 331
6 326 328 332 333 334 327
6 290 289 335 336 337 291
6 293 295 198 197 202 294
6 338 339 180 179 184 340
6 341 342 343 344 345 346
6 336 335 309 308 310 337
6 320 322 190 189 188 321
6 347 348 330 329 331 349
6 284 286 243 242 247 285
6 350 351 342 341 346 352
6 333 332 353 354 355 334
6 356 357 351 350 352 358
6 354 353 359 360 361 355
6 362 363 153 152 151 364
6 149 154 162 161 166 150
6 365 366 357 356 358 367
6 360 359 368 369 370 361
6 371 372 348 347 349 373
6 369 368 374 375 376 370
6 362 364 377 378 379 363
6 380 381 366 365 367 382
6 375 374 383 384 385 376
6 378 377 386 387 388 379
6 384 383 389 390 391 385
6 392 393 372 371 373 394
6 395 396 288 287 292 397
6 398 399 381 380 382 400
6 302 304 401 402 403 303
6 390 389 404 405 406 391
6 387 386 396 395 397 388
6 407 408 399 398 400 409
6 405 404 410 411 412 406
6 344 343 158 157 159 345
6 413 414 408 407 409 415
6 402 401 236 235 237 403
6 411 410 416 417 418 412
6 419 420 393 392 394 421
6 422 423 414 413 415 424
6 417 416 264 263 265 418
6 170 169 268 267 269 171
6 425 426 420 419 421 427
6 428 429 423 422 424 430
6 278 277 429 428 430 279
6 431 432 426 425 427 433
6 434 435 432 431 433 436
6 315 314 435 434 436 316
4 128 127 437 266
4 29 62 271 438
4 127 126 439 437
4 126 125 440 439
4 26 29 438 441
4 95 131 241 155
4 125 124 442 440
4 124 123 443 442
4 133 132 185 227
4 123 122 444 443
4 27 26 441 445
4 74 92 446 447
4 122 121 448 444
4 24 27 445 449
4 121 120 450 448
4 66 74 447 239
4 92 111 451 446
4 120 0 452 450
4 140 108 453 454
4 111 110 455 451
4 0 119 456 452
4 22 24 449 457
4 119 118 458 456
4 61 106 459 460
4 461 274 209 248
4 462 162 154 453
4 463 361 370 464
4 465 331 325 466
4 238 316 436 270
4 196 355 361 463
4 226 163 162 462
4 460 283 176 225
4 467 303 403 468
4 466 325 319 469
4 470 190 322 459
4 469 319 313 471
4 472 285 247 473
4 471 313 280 474
4 475 198 295 476
4 474 280 279 477
4 478 191 190 470
4 249 199 198 475
4 479 215 274 461
4 477 279 430 480
4 481 216 215 479
4 482 228 216 481
4 483 246 303 467
4 480 430 424 484
4 485 237 228 482
4 484 424 415 486
4 487 258 285 472
4 486 415 409 488
4 468 403 237 485
4 488 409 400 489
4 490 259 258 487
4 489 400 382 491
4 491 382 367 492
4 156 269 259 490
4 473 247 246 483
4 492 367 358 147
4 147 358 352 148
4 155 171 269 156
4 148 352 346 160
4 160 346 345 173
4 177 337 310 178
4 173 345 159 185
4 195 334 355 196
4 206 327 334 195
4 464 370 376 493
4 493 376 385 494
4 454 153 363 495
4 457 349 331 465
4 494 385 391 496
4 178 310 307 220
4 476 295 191 478
4 496 391 406 458
4 495 363 379 455
4 459 322 283 460
4 458 406 412 456
4 449 373 349 457
4 456 412 418 452
4 455 379 388 451
4 453 154 153 454
4 452 418 265 450
4 451 388 397 446
4 447 292 291 239
4 450 265 252 448
4 445 394 373 449
4 448 252 251 444
4 446 397 292 447
4 441 421 394 445
4 444 251 232 443
4 185 159 143 227
4 443 232 222 442
4 442 222 210 440
4 241 172 171 155
4 438 427 421 441
4 440 210 203 439
4 439 203 192 437
4 271 433 427 438
4 437 192 181 266
4 270 436 433 271
4 266 181 180 256
4 256 180 339 240
4 248 209 199 249
4 240 339 172 241
4 239 291 337 177
4 231 300 316 238
4 221 301 300 231
4 225 176 163 226
4 227 143 142 213
4 220 307 301 221
4 213 142 327 206
4 8 37 492 147
4 49 48 473 483
4 97 96 156 490
4 37 9 491 492
4 9 11 489 491
4 98 97 490 487
4 11 47 488 489
4 79 78 468 485
4 47 50 486 488
4 99 98 487 472
4 50 13 484 486
4 80 79 485 482
4 13 12 480 484
4 100 49 483 467
4 101 80 482 481
4 102 101 481 479
4 12 16 477 480
4 103 102 479 461
4 104 85 249 475
4 87 86 478 470
4 16 54 474 477
4 105 104 475 476
4 54 139 471 474
4 48 99 472 473
4 139 56 469 471
4 106 87 470 459
4 56 83 466 469
4 78 100 467 468
4 63 61 460 225
4 107 39 226 462
4 113 112 196 463
4 31 30 238 270
4 83 19 465 466
4 115 113 463 464
4 108 107 462 453
4 84 103 461 248
4 116 115 464 493
4 114 116 493 494
4 109 140 454 495
4 19 22 457 465
4 117 114 494 496
4 33 65 178 220
4 86 105 476 478
4 118 117 496 458
4 110 109 495 455
5 497 498 499 500 501
4 500 499 502 503
4 504 138 137 505
4 506 1 498 497
4 507 508 138 504
4 509 2 1 506
4 510 511 2 509
4 512 513 511 510
4 514 515 516 517
5 517 516 513 512 518
4 505 137 515 514
4 503 502 508 507
3 501 518 509
6 167 172 339 338 340 168
6 233 232 251 250 255 234
3 294 202 426
3 359 353 145
3 353 332 145
3 332 328 145
3 328 146 145
3 368 359 145
3 383 374 145
3 374 368 145
3 404 389 145
3 389 383 145
3 416 410 145
3 410 404 145
3 254 264 168
3 264 416 168
3 234 255 168
3 255 254 168
3 212 224 168
3 224 234 168
3 194 205 168
3 205 212 168
3 184 183 168
3 183 194 168
3 168 340 184
3 145 158 169
3 158 343 169
3 343 342 268
3 169 343 268
3 342 351 268
3 351 357 268
3 357 366 261
3 366 381 262
3 357 261 268
3 381 399 262
3 399 408 262
3 408 414 286
3 414 423 286
3 408 286 262
3 423 429 243
3 429 277 243
3 277 276 244
3 276 312 304
3 312 318 401
3 318 324 230
3 324 330 218
3 330 348 219
3 277 244 243
3 423 243 286
3 416 145 168
3 366 262 261
3 348 372 273
3 168 145 169
3 372 393 208
3 244 276 304
3 393 420 201
3 304 312 401
3 420 426 202
3 401 318 236
3 236 318 230
3 426 432 294
3 230 324 218
3 432 435 187
3 218 330 219
3 435 314 321
3 219 348 273
3 314 298 150
3 273 372 208
3 298 297 364
3 208 393 201
3 306 309 396
3 309 335 288
3 288 335 289
3 297 306 377
3 201 420 202
3 396 309 288
3 396 386 306
3 386 377 306
3 377 364 297
3 364 151 298
3 151 150 298
3 150 166 314
3 166 165 314
3 165 175 314
3 175 282 314
3 282 321 314
3 321 188 435
3 188 187 435
3 187 294 432
3 516 112 513
3 112 0 513
3 0 127 498
3 127 499 498
3 511 513 0
3 0 498 1
3 2 511 0
3 133 112 515
3 112 516 515
3 502 499 127
3 508 502 127
3 133 515 137
3 138 508 133
3 508 127 133
3 500 503 501
3 503 507 501
3 507 504 501
3 504 505 518
3 505 514 518
3 514 517 518
3 518 512 510
3 510 509 518
3 509 506 501
3 506 497 501
3 504 518 501
