ply
format ascii 1.0
comment Created by Blender 2.83.0 - www.blender.org, source file: ''
element vertex 322
property float x
property float y
property float z
element face 200
property list uchar uint vertex_indices
end_header
0.499950 0.146652 0.499950
0.399960 0.000000 0.499950
0.499950 0.000000 0.499950
0.399960 0.063327 0.499950
0.399960 0.146652 0.499950
0.499950 0.000000 0.499950
0.399960 0.000000 -0.499950
0.499950 0.000000 -0.499950
0.399960 0.000000 0.499950
-0.399960 0.000000 -0.499950
-0.399960 0.000000 0.499950
-0.499950 0.000000 -0.499950
-0.499950 0.000000 0.499950
0.499950 0.146652 -0.276696
0.499950 0.000000 -0.499950
0.499950 0.146652 -0.499950
0.499950 0.000000 0.499950
0.499950 0.153451 -0.267319
0.499950 0.186438 -0.205164
0.499950 0.210469 -0.139028
0.499950 0.225076 -0.070195
0.499950 0.229977 0.000000
0.499950 0.225076 0.070195
0.499950 0.210469 0.139028
0.499950 0.186438 0.205164
0.499950 0.146652 0.276696
0.499950 0.153451 0.267319
0.499950 0.146652 0.499950
-0.399960 0.146652 0.276696
-0.499950 0.146652 0.499950
-0.399960 0.146652 0.499950
-0.499950 0.146652 0.276696
-0.499950 0.000000 0.499950
-0.499950 0.146652 -0.499950
-0.499950 0.000000 -0.499950
-0.499950 0.146652 -0.276696
-0.499950 0.153451 -0.267319
-0.499950 0.186438 -0.205164
-0.499950 0.210469 -0.139028
-0.499950 0.225076 -0.070195
-0.499950 0.229977 -0.000000
-0.499950 0.225076 0.070195
-0.499950 0.210469 0.139028
-0.499950 0.186438 0.205164
-0.499950 0.146652 0.276696
-0.499950 0.153451 0.267319
-0.499950 0.146652 0.499950
-0.499950 0.146652 -0.499950
-0.399960 0.000000 -0.499950
-0.499950 0.000000 -0.499950
-0.399960 0.063327 -0.499950
-0.399960 0.146652 -0.499950
-0.399960 0.146652 -0.276696
-0.399960 0.063327 -0.499950
-0.399960 0.146652 -0.499950
-0.399960 0.063327 -0.249975
-0.399960 0.153451 -0.267319
-0.399960 0.186438 -0.205164
-0.399960 0.088170 -0.212861
-0.399960 0.108898 -0.173300
-0.399960 0.210469 -0.139028
-0.399960 0.125272 -0.131748
-0.399960 0.225076 -0.070195
-0.399960 0.137104 -0.088682
-0.399960 0.144258 -0.044597
-0.399960 0.229977 -0.000000
-0.399960 0.146652 -0.000000
-0.399960 0.144258 0.044597
-0.399960 0.225076 0.070195
-0.399960 0.137104 0.088682
-0.399960 0.210469 0.139028
-0.399960 0.125272 0.131748
-0.399960 0.108898 0.173300
-0.399960 0.186438 0.205164
-0.399960 0.088170 0.212861
-0.399960 0.153451 0.267319
-0.399960 0.063327 0.249975
-0.399960 0.146652 0.276696
-0.399960 0.063327 0.499950
-0.399960 0.146652 0.499950
-0.399960 0.063327 0.499950
-0.499950 0.000000 0.499950
-0.399960 0.000000 0.499950
-0.499950 0.146652 0.499950
-0.399960 0.146652 0.499950
0.399960 0.063327 -0.499950
0.499950 0.000000 -0.499950
0.399960 0.000000 -0.499950
0.499950 0.146652 -0.499950
0.399960 0.146652 -0.499950
0.399960 0.063327 -0.249975
0.399960 0.146652 -0.499950
0.399960 0.063327 -0.499950
0.399960 0.146652 -0.276696
0.399960 0.153451 -0.267319
0.399960 0.186438 -0.205164
0.399960 0.088170 -0.212861
0.399960 0.108898 -0.173300
0.399960 0.210469 -0.139028
0.399960 0.125272 -0.131748
0.399960 0.225076 -0.070195
0.399960 0.137104 -0.088682
0.399960 0.144258 -0.044597
0.399960 0.229977 0.000000
0.399960 0.146652 0.000000
0.399960 0.144258 0.044597
0.399960 0.225076 0.070195
0.399960 0.137104 0.088682
0.399960 0.210469 0.139028
0.399960 0.125272 0.131748
0.399960 0.108898 0.173300
0.399960 0.186438 0.205164
0.399960 0.088170 0.212861
0.399960 0.153451 0.267319
0.399960 0.063327 0.249975
0.399960 0.146652 0.276696
0.399960 0.063327 0.499950
0.399960 0.146652 0.499950
0.499950 0.146652 -0.499950
0.399960 0.146652 -0.276696
0.499950 0.146652 -0.276696
0.399960 0.146652 -0.499950
0.399960 0.153451 0.267319
0.499950 0.146652 0.276696
0.499950 0.153451 0.267319
0.399960 0.146652 0.276696
0.399960 0.186438 0.205164
0.499950 0.153451 0.267319
0.499950 0.186438 0.205164
0.399960 0.153451 0.267319
0.399960 0.210469 0.139028
0.499950 0.186438 0.205164
0.499950 0.210469 0.139028
0.399960 0.186438 0.205164
0.399960 0.225076 0.070195
0.499950 0.210469 0.139028
0.499950 0.225076 0.070195
0.399960 0.210469 0.139028
0.399960 0.229977 0.000000
0.499950 0.225076 0.070195
0.499950 0.229977 0.000000
0.399960 0.225076 0.070195
0.399960 0.225076 -0.070195
0.499950 0.229977 0.000000
0.499950 0.225076 -0.070195
0.399960 0.229977 0.000000
0.399960 0.210469 -0.139028
0.499950 0.225076 -0.070195
0.499950 0.210469 -0.139028
0.399960 0.225076 -0.070195
0.399960 0.186438 -0.205164
0.499950 0.210469 -0.139028
0.499950 0.186438 -0.205164
0.399960 0.210469 -0.139028
0.399960 0.153451 -0.267319
0.499950 0.186438 -0.205164
0.499950 0.153451 -0.267319
0.399960 0.186438 -0.205164
0.399960 0.146652 -0.276696
0.499950 0.153451 -0.267319
0.499950 0.146652 -0.276696
0.399960 0.153451 -0.267319
0.399960 0.146652 0.276696
0.499950 0.146652 0.499950
0.499950 0.146652 0.276696
0.399960 0.146652 0.499950
-0.499950 0.153451 0.267319
-0.399960 0.146652 0.276696
-0.399960 0.153451 0.267319
-0.499950 0.146652 0.276696
-0.499950 0.186438 0.205164
-0.399960 0.153451 0.267319
-0.399960 0.186438 0.205164
-0.499950 0.153451 0.267319
-0.499950 0.210469 0.139028
-0.399960 0.186438 0.205164
-0.399960 0.210469 0.139028
-0.499950 0.186438 0.205164
-0.499950 0.225076 0.070195
-0.399960 0.210469 0.139028
-0.399960 0.225076 0.070195
-0.499950 0.210469 0.139028
-0.499950 0.229977 -0.000000
-0.399960 0.225076 0.070195
-0.399960 0.229977 -0.000000
-0.499950 0.225076 0.070195
-0.499950 0.225076 -0.070195
-0.399960 0.229977 -0.000000
-0.399960 0.225076 -0.070195
-0.499950 0.229977 -0.000000
-0.499950 0.210469 -0.139028
-0.399960 0.225076 -0.070195
-0.399960 0.210469 -0.139028
-0.499950 0.225076 -0.070195
-0.499950 0.186438 -0.205164
-0.399960 0.210469 -0.139028
-0.399960 0.186438 -0.205164
-0.499950 0.210469 -0.139028
-0.499950 0.153451 -0.267319
-0.399960 0.186438 -0.205164
-0.399960 0.153451 -0.267319
-0.499950 0.186438 -0.205164
-0.499950 0.146652 -0.276696
-0.399960 0.153451 -0.267319
-0.399960 0.146652 -0.276696
-0.499950 0.153451 -0.267319
-0.499950 0.146652 -0.499950
-0.399960 0.146652 -0.276696
-0.399960 0.146652 -0.499950
-0.499950 0.146652 -0.276696
0.399960 0.088170 0.212861
0.399960 0.063327 0.249975
-0.399960 0.088170 0.212861
-0.399960 0.063327 0.249975
0.399960 0.108898 0.173300
0.399960 0.088170 0.212861
-0.399960 0.108898 0.173300
-0.399960 0.088170 0.212861
0.399960 0.125272 0.131748
0.399960 0.108898 0.173300
-0.399960 0.125272 0.131748
-0.399960 0.108898 0.173300
0.399960 0.137104 0.088682
0.399960 0.125272 0.131748
-0.399960 0.137104 0.088682
-0.399960 0.125272 0.131748
0.399960 0.144258 0.044597
0.399960 0.137104 0.088682
-0.399960 0.144258 0.044597
-0.399960 0.137104 0.088682
0.399960 0.146652 0.000000
0.399960 0.144258 0.044597
-0.399960 0.146652 -0.000000
-0.399960 0.144258 0.044597
0.399960 0.144258 -0.044597
0.399960 0.146652 0.000000
-0.399960 0.144258 -0.044597
-0.399960 0.146652 -0.000000
0.399960 0.137104 -0.088682
0.399960 0.144258 -0.044597
-0.399960 0.137104 -0.088682
-0.399960 0.144258 -0.044597
0.399960 0.125272 -0.131748
0.399960 0.137104 -0.088682
-0.399960 0.125272 -0.131748
-0.399960 0.137104 -0.088682
0.399960 0.108898 -0.173300
0.399960 0.125272 -0.131748
-0.399960 0.108898 -0.173300
-0.399960 0.125272 -0.131748
0.399960 0.088170 -0.212861
0.399960 0.108898 -0.173300
-0.399960 0.088170 -0.212861
-0.399960 0.108898 -0.173300
0.399960 0.063327 -0.249975
0.399960 0.088170 -0.212861
-0.399960 0.063327 -0.249975
-0.399960 0.088170 -0.212861
0.399960 0.063327 0.499950
-0.399960 0.000000 0.499950
0.399960 0.000000 0.499950
-0.399960 0.063327 0.499950
-0.399960 0.063327 -0.499950
0.399960 0.000000 -0.499950
-0.399960 0.000000 -0.499950
0.399960 0.063327 -0.499950
-0.399960 0.063327 -0.499950
0.399960 0.063327 -0.249975
0.399960 0.063327 -0.499950
-0.399960 0.063327 -0.249975
-0.399960 0.088170 0.212861
0.399960 0.063327 0.249975
0.399960 0.088170 0.212861
-0.399960 0.063327 0.249975
-0.399960 0.108898 0.173300
0.399960 0.088170 0.212861
0.399960 0.108898 0.173300
-0.399960 0.088170 0.212861
-0.399960 0.125272 0.131748
0.399960 0.108898 0.173300
0.399960 0.125272 0.131748
-0.399960 0.108898 0.173300
-0.399960 0.137104 0.088682
0.399960 0.125272 0.131748
0.399960 0.137104 0.088682
-0.399960 0.125272 0.131748
-0.399960 0.144258 0.044597
0.399960 0.137104 0.088682
0.399960 0.144258 0.044597
-0.399960 0.137104 0.088682
-0.399960 0.146652 -0.000000
0.399960 0.144258 0.044597
0.399960 0.146652 0.000000
-0.399960 0.144258 0.044597
-0.399960 0.144258 -0.044597
0.399960 0.146652 0.000000
0.399960 0.144258 -0.044597
-0.399960 0.146652 -0.000000
-0.399960 0.137104 -0.088682
0.399960 0.144258 -0.044597
0.399960 0.137104 -0.088682
-0.399960 0.144258 -0.044597
-0.399960 0.125272 -0.131748
0.399960 0.137104 -0.088682
0.399960 0.125272 -0.131748
-0.399960 0.137104 -0.088682
-0.399960 0.108898 -0.173300
0.399960 0.125272 -0.131748
0.399960 0.108898 -0.173300
-0.399960 0.125272 -0.131748
-0.399960 0.088170 -0.212861
0.399960 0.108898 -0.173300
0.399960 0.088170 -0.212861
-0.399960 0.108898 -0.173300
-0.399960 0.063327 -0.249975
0.399960 0.088170 -0.212861
0.399960 0.063327 -0.249975
-0.399960 0.088170 -0.212861
-0.399960 0.063327 0.249975
0.399960 0.063327 0.499950
0.399960 0.063327 0.249975
-0.399960 0.063327 0.499950
3 0 1 2
3 1 0 3
3 3 0 4
3 5 6 7
3 6 5 8
3 6 8 9
3 9 8 10
3 9 10 11
3 11 10 12
3 13 14 15
3 14 13 16
3 16 13 17
3 16 17 18
3 16 18 19
3 16 19 20
3 16 20 21
3 16 21 22
3 16 22 23
3 16 23 24
3 16 24 25
3 25 24 26
3 16 25 27
3 28 29 30
3 29 28 31
3 32 33 34
3 33 32 35
3 35 32 36
3 36 32 37
3 37 32 38
3 38 32 39
3 39 32 40
3 40 32 41
3 41 32 42
3 42 32 43
3 43 32 44
3 43 44 45
3 44 32 46
3 47 48 49
3 48 47 50
3 50 47 51
3 52 53 54
3 53 52 55
3 55 52 56
3 55 56 57
3 55 57 58
3 58 57 59
3 59 57 60
3 59 60 61
3 61 60 62
3 61 62 63
3 63 62 64
3 64 62 65
3 64 65 66
3 66 65 67
3 67 65 68
3 67 68 69
3 69 68 70
3 69 70 71
3 71 70 72
3 72 70 73
3 72 73 74
3 74 73 75
3 74 75 76
3 76 75 77
3 76 77 78
3 78 77 79
3 80 81 82
3 81 80 83
3 83 80 84
3 85 86 87
3 86 85 88
3 88 85 89
3 90 91 92
3 91 90 93
3 93 90 94
3 94 90 95
3 95 90 96
3 95 96 97
3 95 97 98
3 98 97 99
3 98 99 100
3 100 99 101
3 100 101 102
3 100 102 103
3 103 102 104
3 103 104 105
3 103 105 106
3 106 105 107
3 106 107 108
3 108 107 109
3 108 109 110
3 108 110 111
3 111 110 112
3 111 112 113
3 113 112 114
3 113 114 115
3 115 114 116
3 115 116 117
3 118 119 120
3 119 118 121
3 122 123 124
3 123 122 125
3 126 127 128
3 127 126 129
3 130 131 132
3 131 130 133
3 134 135 136
3 135 134 137
3 138 139 140
3 139 138 141
3 142 143 144
3 143 142 145
3 146 147 148
3 147 146 149
3 150 151 152
3 151 150 153
3 154 155 156
3 155 154 157
3 158 159 160
3 159 158 161
3 162 163 164
3 163 162 165
3 166 167 168
3 167 166 169
3 170 171 172
3 171 170 173
3 174 175 176
3 175 174 177
3 178 179 180
3 179 178 181
3 182 183 184
3 183 182 185
3 186 187 188
3 187 186 189
3 190 191 192
3 191 190 193
3 194 195 196
3 195 194 197
3 198 199 200
3 199 198 201
3 202 203 204
3 203 202 205
3 206 207 208
3 207 206 209
3 210 211 212
3 213 212 211
3 214 215 216
3 217 216 215
3 218 219 220
3 221 220 219
3 222 223 224
3 225 224 223
3 226 227 228
3 229 228 227
3 230 231 232
3 233 232 231
3 234 235 236
3 237 236 235
3 238 239 240
3 241 240 239
3 242 243 244
3 245 244 243
3 246 247 248
3 249 248 247
3 250 251 252
3 253 252 251
3 254 255 256
3 257 256 255
3 258 259 260
3 259 258 261
3 262 263 264
3 263 262 265
3 266 267 268
3 267 266 269
3 270 271 272
3 271 270 273
3 274 275 276
3 275 274 277
3 278 279 280
3 279 278 281
3 282 283 284
3 283 282 285
3 286 287 288
3 287 286 289
3 290 291 292
3 291 290 293
3 294 295 296
3 295 294 297
3 298 299 300
3 299 298 301
3 302 303 304
3 303 302 305
3 306 307 308
3 307 306 309
3 310 311 312
3 311 310 313
3 314 315 316
3 315 314 317
3 318 319 320
3 319 318 321
