ply
format ascii 1.0
comment Created by Blender 2.83.0 - www.blender.org, source file: ''
element vertex 976
property float x
property float y
property float z
element face 1072
property list uchar uint vertex_indices
end_header
0.201198 -0.000034 0.499951
-0.000000 0.000000 0.499950
-0.000000 0.000000 0.399960
0.201198 -0.000034 0.399961
0.000000 -0.000000 -0.399960
0.201198 -0.000034 -0.399959
0.000000 -0.000000 -0.499950
0.201198 -0.000034 -0.499949
0.201198 0.146618 0.499951
-0.000000 0.146652 0.499950
0.000000 0.146652 -0.499950
0.000000 0.146652 -0.399960
0.201198 0.146618 -0.399959
0.201198 0.146618 -0.499949
-0.000000 0.146652 0.399960
0.201198 0.146618 0.399961
0.201198 0.063293 0.399961
-0.000000 0.063327 0.399960
0.000000 0.063327 -0.399960
0.201198 0.063293 -0.399959
-0.000000 0.000000 0.499950
-0.200004 0.004278 0.499931
-0.200003 0.003429 0.399945
-0.000000 0.000000 0.399960
-0.199997 -0.003361 -0.399947
-0.000000 -0.000000 -0.399960
-0.199996 -0.004210 -0.499933
-0.000000 -0.000000 -0.499950
-0.000000 0.146652 0.499950
-0.199919 0.150925 0.498686
-0.199911 0.142437 -0.501178
-0.199912 0.143286 -0.401191
-0.000000 0.146652 -0.399960
-0.000000 0.146652 -0.499950
-0.199918 0.150076 0.398700
-0.000000 0.146652 0.399960
-0.000000 0.063327 0.399960
-0.199966 0.066754 0.399407
-0.199960 0.059964 -0.400484
-0.000000 0.063327 -0.399960
-0.200004 0.004278 0.499931
-0.400005 0.007453 0.499893
-0.400004 0.006009 0.399913
-0.200003 0.003429 0.399945
-0.399996 -0.005540 -0.399924
-0.199997 -0.003361 -0.399947
-0.399995 -0.006984 -0.499903
-0.199996 -0.004210 -0.499933
-0.199919 0.150925 0.498686
-0.399727 0.154089 0.497775
-0.399716 0.139653 -0.502021
-0.399717 0.141096 -0.402041
-0.199912 0.143286 -0.401191
-0.199911 0.142437 -0.501178
-0.399726 0.152645 0.397796
-0.199918 0.150076 0.398700
-0.199966 0.066754 0.399407
-0.399884 0.069329 0.398999
-0.399875 0.057780 -0.400838
-0.199960 0.059964 -0.400484
-0.400005 0.007453 0.499893
-0.600001 0.009532 0.499857
-0.600000 0.007784 0.399882
-0.400004 0.006009 0.399913
-0.599998 -0.006203 -0.399916
-0.399996 -0.005540 -0.399924
-0.599998 -0.007951 -0.499890
-0.399995 -0.006984 -0.499903
-0.399727 0.154089 0.497775
-0.599350 0.156160 0.497293
-0.599347 0.138677 -0.502455
-0.599347 0.140425 -0.402480
-0.399717 0.141096 -0.402041
-0.399716 0.139653 -0.502021
-0.599349 0.154412 0.397318
-0.399726 0.152645 0.397796
-0.399884 0.069329 0.398999
-0.599719 0.071100 0.398775
-0.599717 0.057114 -0.401023
-0.399875 0.057780 -0.400838
-0.600001 0.009532 0.499857
-0.799986 0.010690 0.499837
-0.799988 0.008954 0.399862
-0.600000 0.007784 0.399882
-0.800002 -0.004936 -0.399938
-0.599998 -0.006203 -0.399916
-0.800004 -0.006672 -0.499913
-0.599998 -0.007951 -0.499890
-0.599350 0.156160 0.497293
-0.798682 0.157314 0.497290
-0.798699 0.139952 -0.502459
-0.798698 0.141688 -0.402484
-0.599347 0.140425 -0.402480
-0.599347 0.138677 -0.502454
-0.798684 0.155578 0.397316
-0.599349 0.154412 0.397318
-0.599719 0.071100 0.398775
-0.799425 0.072269 0.398762
-0.799439 0.058379 -0.401037
-0.599717 0.057114 -0.401023
-0.799986 0.010690 0.499837
-0.999963 0.011306 0.499831
-0.999966 0.009917 0.399851
-0.799988 0.008954 0.399862
-0.999994 -0.001194 -0.399992
-0.800002 -0.004936 -0.399938
-0.999998 -0.002583 -0.499973
-0.800004 -0.006672 -0.499913
-0.798682 0.157314 0.497291
-0.997572 0.157925 0.497794
-0.997608 0.144035 -0.502010
-0.997604 0.145424 -0.402029
-0.798698 0.141689 -0.402484
-0.798700 0.139952 -0.502459
-0.997576 0.156536 0.397814
-0.798684 0.155578 0.397316
-0.799425 0.072269 0.398762
-0.998934 0.073230 0.398971
-0.998962 0.062118 -0.400872
-0.799439 0.058379 -0.401037
-0.999963 0.011306 0.499831
-1.199932 0.012093 0.499826
-1.199932 0.011402 0.399839
-0.999966 0.009917 0.399851
-1.199933 0.005875 -0.400062
-0.999994 -0.001194 -0.399992
-1.199933 0.005184 -0.500050
-0.999998 -0.002583 -0.499973
-0.997572 0.157925 0.497794
-1.195751 0.158682 0.498813
-1.195752 0.151773 -0.501063
-1.195752 0.152464 -0.401075
-0.997604 0.145424 -0.402029
-0.997608 0.144035 -0.502010
-1.195751 0.157991 0.398826
-0.997576 0.156536 0.397814
-0.998934 0.073230 0.398971
-1.198126 0.074702 0.399401
-1.198127 0.069175 -0.400500
-0.998962 0.062118 -0.400872
-1.199932 0.012093 0.499827
-1.399882 0.014348 0.499807
-1.399863 0.014700 0.399817
-1.199932 0.011402 0.399839
-1.399711 0.017518 -0.400098
-1.199933 0.005875 -0.400062
-1.399692 0.017870 -0.500087
-1.199933 0.005184 -0.500050
-1.195751 0.158682 0.498814
-1.392739 0.160825 0.500324
-1.392548 0.164347 -0.499570
-1.392567 0.163995 -0.399580
-1.195752 0.152464 -0.401075
-1.195752 0.151773 -0.501063
-1.392720 0.161177 0.400335
-1.195751 0.157991 0.398826
-1.198126 0.074702 0.399402
-1.396779 0.077951 0.400041
-1.396626 0.080770 -0.399874
-1.198127 0.069175 -0.400500
-1.399882 0.014348 0.499807
-1.599711 0.020332 0.499788
-1.599643 0.022013 0.399813
-1.399863 0.014700 0.399818
-1.599102 0.035459 -0.399994
-1.399711 0.017518 -0.400098
-1.599035 0.037139 -0.499970
-1.399692 0.017870 -0.500087
-1.392739 0.160825 0.500324
-1.587666 0.166468 0.502253
-1.586990 0.183275 -0.497505
-1.587057 0.181594 -0.397530
-1.392567 0.163995 -0.399580
-1.392548 0.164347 -0.499569
-1.587598 0.168149 0.402278
-1.392720 0.161177 0.400335
-1.396779 0.077951 0.400041
-1.594442 0.085117 0.400877
-1.593901 0.098563 -0.398930
-1.396626 0.080770 -0.399874
-1.599711 0.020332 0.499789
-1.798868 0.034228 0.499926
-1.798732 0.037410 0.399987
-1.599643 0.022013 0.399813
-1.797638 0.062865 -0.399527
-1.599102 0.035459 -0.399994
-1.797502 0.066047 -0.499466
-1.599035 0.037139 -0.499970
-1.587666 0.166468 0.502253
-1.778543 0.179391 0.504576
-1.777176 0.211209 -0.494817
-1.777313 0.208027 -0.394878
-1.587057 0.181594 -0.397529
-1.586990 0.183275 -0.497505
-1.778406 0.182572 0.404637
-1.587598 0.168149 0.402278
-1.594442 0.085117 0.400877
-1.789955 0.100094 0.401995
-1.788861 0.125549 -0.397519
-1.593901 0.098563 -0.398930
-1.798868 0.034228 0.499927
-1.995007 0.063008 0.500821
-1.994957 0.067683 0.400940
-1.798731 0.037410 0.399987
-1.994561 0.105083 -0.398105
-1.797638 0.062865 -0.399527
-1.994512 0.109758 -0.497986
-1.797501 0.066046 -0.499466
-1.778543 0.179391 0.504576
-1.960804 0.205459 0.507505
-1.960310 0.252209 -0.491301
-1.960359 0.247534 -0.391421
-1.777313 0.208027 -0.394878
-1.777176 0.211209 -0.494817
-1.960755 0.210134 0.407625
-1.778406 0.182572 0.404637
-1.789955 0.100094 0.401995
-1.980188 0.129196 0.403827
-1.979792 0.166596 -0.395218
-1.788861 0.125548 -0.397519
-1.995007 0.063008 0.500821
-2.180298 0.114605 0.504241
-2.181262 0.121020 0.404462
-1.994957 0.067683 0.400940
-2.188969 0.172340 -0.393773
-1.994561 0.105083 -0.398105
-2.189932 0.178755 -0.493553
-1.994512 0.109758 -0.497985
-1.960804 0.205459 0.507506
-2.124262 0.249883 0.512397
-2.133896 0.314033 -0.485396
-2.132933 0.307618 -0.385617
-1.960359 0.247534 -0.391420
-1.960310 0.252209 -0.491301
-2.125226 0.256298 0.412618
-1.960755 0.210134 0.407625
-1.980188 0.129196 0.403827
-2.157064 0.179435 0.407984
-2.164771 0.230755 -0.390251
-1.979792 0.166596 -0.395218
-2.180298 0.114605 0.504241
-2.339677 0.189171 0.513951
-2.343758 0.199657 0.414596
-2.181262 0.121020 0.404462
-2.376410 0.283546 -0.380243
-2.188969 0.172340 -0.393773
-2.380491 0.294032 -0.479598
-2.189932 0.178755 -0.493553
-2.124262 0.249883 0.512397
-2.254772 0.308399 0.523047
-2.295586 0.413259 -0.470502
-2.291505 0.402773 -0.371147
-2.132933 0.307618 -0.385617
-2.133896 0.314033 -0.485396
-2.258853 0.318885 0.423692
-2.125226 0.256298 0.412618
-2.157064 0.179435 0.407984
-2.307095 0.251142 0.418524
-2.339746 0.335030 -0.376315
-2.164771 0.230755 -0.390251
-2.339677 0.189171 0.513951
-2.468913 0.274023 0.534516
-2.476513 0.293869 0.436810
-2.343758 0.199657 0.414596
-2.537316 0.452642 -0.344833
-2.376410 0.283546 -0.380243
-2.544916 0.472489 -0.442539
-2.380491 0.294032 -0.479597
-2.254772 0.308399 0.523047
-2.357855 0.369200 0.545209
-2.433858 0.567665 -0.431845
-2.426258 0.547819 -0.334139
-2.291505 0.402773 -0.371147
-2.295586 0.413259 -0.470502
-2.365455 0.389046 0.447504
-2.258853 0.318885 0.423692
-2.307095 0.251142 0.418524
-2.428556 0.334969 0.441428
-2.489359 0.493741 -0.340216
-2.339746 0.335030 -0.376315
-2.468913 0.274023 0.534516
-2.584291 0.374850 0.570758
-2.590403 0.406387 0.476069
-2.476513 0.293869 0.436810
-2.639295 0.658688 -0.281445
-2.537316 0.452642 -0.344833
-2.645406 0.690226 -0.376134
-2.544916 0.472488 -0.442539
-2.357855 0.369200 0.545210
-2.451186 0.435318 0.582307
-2.512301 0.750694 -0.364585
-2.506189 0.719157 -0.269896
-2.426258 0.547819 -0.334139
-2.433858 0.567665 -0.431845
-2.457298 0.466856 0.487618
-2.365455 0.389046 0.447504
-2.428556 0.334969 0.441428
-2.532925 0.432499 0.481056
-2.581817 0.684800 -0.276457
-2.489359 0.493741 -0.340215
-2.584291 0.374850 0.570758
-2.673912 0.507614 0.626056
-2.672676 0.548152 0.534661
-2.590403 0.406387 0.476069
-2.662785 0.872458 -0.196503
-2.639295 0.658688 -0.281444
-2.661548 0.912996 -0.287898
-2.645406 0.690226 -0.376134
-2.451186 0.435318 0.582307
-2.528105 0.521162 0.634038
-2.515742 0.926544 -0.279917
-2.516978 0.886006 -0.188521
-2.506189 0.719157 -0.269895
-2.512301 0.750694 -0.364585
-2.526869 0.561700 0.542643
-2.457298 0.466856 0.487618
-2.532926 0.432499 0.481056
-2.609714 0.554003 0.538108
-2.599823 0.878308 -0.193056
-2.581817 0.684800 -0.276457
-2.673912 0.507614 0.626056
-2.719310 0.669056 0.700381
-2.707039 0.713079 0.611446
-2.672676 0.548152 0.534661
-2.608874 1.065270 -0.100030
-2.662785 0.872458 -0.196503
-2.596604 1.109294 -0.188964
-2.661548 0.912996 -0.287898
-2.528105 0.521162 0.634038
-2.576583 0.635494 0.703460
-2.453877 1.075733 -0.185885
-2.466147 1.031709 -0.096950
-2.516978 0.886006 -0.188521
-2.515742 0.926544 -0.279916
-2.564312 0.679518 0.614525
-2.526869 0.561700 0.542643
-2.609714 0.554003 0.538108
-2.645407 0.698587 0.612776
-2.547242 1.050778 -0.098700
-2.599823 0.878308 -0.193056
-2.719310 0.669055 0.700381
-2.710108 0.853286 0.791581
-2.686951 0.893368 0.702952
-2.707039 0.713079 0.611446
-2.501696 1.214029 -0.006082
-2.608874 1.065270 -0.100030
-2.478539 1.254112 -0.094711
-2.596604 1.109294 -0.188964
-2.576583 0.635494 0.703460
-2.582513 0.780995 0.792226
-2.350944 1.181821 -0.094067
-2.374101 1.141738 -0.005437
-2.466147 1.031709 -0.096950
-2.453877 1.075733 -0.185885
-2.559356 0.821078 0.703597
-2.564312 0.679518 0.614526
-2.645407 0.698587 0.612776
-2.631853 0.862152 0.703231
-2.446598 1.182813 -0.005804
-2.547242 1.050778 -0.098700
-2.710108 0.853285 0.791582
-2.633381 1.042538 0.890540
-2.603826 1.072983 0.799999
-2.686951 0.893368 0.702952
-2.367385 1.316541 0.075674
-2.501696 1.214029 -0.006082
-2.337830 1.346986 -0.014867
-2.478539 1.254112 -0.094711
-2.582513 0.780995 0.792226
-2.530671 0.937873 0.888873
-2.235120 1.242321 -0.016534
-2.264675 1.211876 0.074007
-2.374101 1.141738 -0.005437
-2.350944 1.181821 -0.094067
-2.501116 0.968317 0.798332
-2.559356 0.821078 0.703597
-2.631853 0.862152 0.703231
-2.559474 1.027786 0.799279
-2.323033 1.271345 0.074954
-2.446598 1.182813 -0.005803
-2.633381 1.042538 0.890540
-2.489414 1.203666 0.982412
-2.459008 1.223371 0.889218
-2.603826 1.072983 0.799999
-2.215757 1.381013 0.143665
-2.367385 1.316541 0.075674
-2.185351 1.400718 0.050470
-2.337830 1.346986 -0.014867
-2.530671 0.937873 0.888873
-2.419284 1.074942 0.978076
-2.115221 1.271995 0.046134
-2.145627 1.252289 0.139328
-2.264675 1.211876 0.074007
-2.235120 1.242321 -0.016534
-2.388878 1.094647 0.884882
-2.501116 0.968317 0.798332
-2.559474 1.027786 0.799279
-2.428725 1.167786 0.887346
-2.185474 1.325428 0.141792
-2.323033 1.271345 0.074954
-2.489414 1.203665 0.982413
-2.307988 1.310614 1.057667
-2.278602 1.321859 0.962757
-2.459008 1.223371 0.889218
-2.043511 1.411822 0.203474
-2.215757 1.381013 0.143665
-2.014125 1.423067 0.108563
-2.185351 1.400718 0.050470
-2.419284 1.074942 0.978076
-2.274323 1.168025 1.051197
-1.980459 1.280478 0.102092
-2.009845 1.269233 0.197003
-2.145627 1.252289 0.139328
-2.115221 1.271995 0.046134
-2.244936 1.179270 0.956286
-2.388878 1.094647 0.884882
-2.428725 1.167786 0.887346
-2.264064 1.260287 0.959963
-2.028974 1.350249 0.200679
-2.185473 1.325428 0.141792
-2.307988 1.310614 1.057667
-2.124073 1.362891 1.119563
-2.093631 1.366741 1.024398
-2.278602 1.321859 0.962757
-1.850089 1.397539 0.263076
-2.043511 1.411822 0.203474
-1.819646 1.401389 0.167911
-2.014125 1.423067 0.108563
-2.274323 1.168025 1.051197
-2.130129 1.216575 1.111706
-1.825702 1.255073 0.160054
-1.856145 1.251223 0.255219
-2.009845 1.269233 0.197003
-1.980459 1.280478 0.102092
-2.099686 1.220425 1.016541
-2.244936 1.179270 0.956286
-2.264064 1.260287 0.959963
-2.096246 1.303559 1.021005
-1.852704 1.334358 0.259683
-2.028974 1.350249 0.200679
-2.124073 1.362891 1.119563
-1.951564 1.372916 1.177426
-1.918597 1.367097 1.083206
-2.093631 1.366741 1.024398
-1.654865 1.320545 0.329448
-1.850089 1.397539 0.263076
-1.621899 1.314726 0.235229
-1.819646 1.401389 0.167911
-2.130129 1.216575 1.111706
-1.999596 1.234600 1.169162
-1.669932 1.176410 0.226965
-1.702898 1.182229 0.321185
-1.856145 1.251223 0.255220
-1.825702 1.255073 0.160054
-1.966630 1.228781 1.074942
-2.099686 1.220425 1.016541
-2.096246 1.303559 1.021005
-1.939339 1.307369 1.079638
-1.675607 1.260818 0.325880
-1.852704 1.334358 0.259683
-1.951564 1.372916 1.177426
-1.795078 1.350561 1.237519
-1.760895 1.331205 1.145568
-1.918597 1.367097 1.083206
-1.487437 1.176351 0.409964
-1.654865 1.320545 0.329448
-1.453255 1.156994 0.318014
-1.621899 1.314726 0.235229
-1.999596 1.234600 1.169162
-1.882186 1.232828 1.229921
-1.540363 1.039261 0.310416
-1.574546 1.058617 0.402366
-1.702898 1.182229 0.321185
-1.669932 1.176410 0.226965
-1.848004 1.213471 1.137970
-1.966630 1.228781 1.074942
-1.939339 1.307369 1.079638
-1.798511 1.280365 1.142287
-1.525052 1.125511 0.406683
-1.675607 1.260818 0.325880
-1.795078 1.350561 1.237519
-1.652504 1.296457 1.306325
-1.622047 1.261803 1.217615
-1.760895 1.331205 1.145568
-1.378389 0.984570 0.507935
-1.487437 1.176351 0.409964
-1.347931 0.949916 0.419225
-1.453255 1.156994 0.318014
-1.882186 1.232828 1.229921
-1.770945 1.210262 1.299331
-1.466373 0.863721 0.412232
-1.496830 0.898375 0.500942
-1.574546 1.058617 0.402366
-1.540363 1.039261 0.310416
-1.740488 1.175608 1.210621
-1.848004 1.213471 1.137970
-1.798511 1.280365 1.142287
-1.673192 1.224582 1.214595
-1.429534 0.947350 0.504915
-1.525052 1.125511 0.406684
-1.652504 1.296457 1.306325
-1.524652 1.194409 1.392535
-1.504470 1.148821 1.305861
-1.622047 1.261803 1.217615
-1.343014 0.784118 0.612466
-1.378389 0.984570 0.507935
-1.322832 0.738530 0.525792
-1.347932 0.949916 0.419225
-1.770945 1.210262 1.299331
-1.663039 1.146374 1.385576
-1.461219 0.690496 0.518833
-1.481401 0.736084 0.605507
-1.496830 0.898375 0.500942
-1.466373 0.863721 0.412232
-1.642857 1.100786 1.298902
-1.740488 1.175608 1.210621
-1.673192 1.224582 1.214595
-1.564228 1.128079 1.302856
-1.402772 0.763376 0.609461
-1.429534 0.947350 0.504915
-1.524652 1.194409 1.392535
-1.429260 1.032595 1.496233
-1.422161 0.985185 1.408484
-1.504470 1.148821 1.305861
-1.365374 0.605908 0.706489
-1.343014 0.784118 0.612466
-1.358276 0.558498 0.618740
-1.322832 0.738530 0.525792
-1.663039 1.146374 1.385576
-1.575412 1.022210 1.490021
-1.504428 0.548114 0.612528
-1.511526 0.595524 0.700277
-1.481401 0.736084 0.605507
-1.461219 0.690496 0.518833
-1.568313 0.974801 1.402271
-1.642857 1.100786 1.298902
-1.564228 1.128079 1.302856
-1.485273 0.980701 1.405801
-1.428486 0.601424 0.703807
-1.402772 0.763376 0.609461
-1.429260 1.032595 1.496233
-1.388784 0.825469 1.601830
-1.392395 0.783969 1.510930
-1.422161 0.985185 1.408484
-1.421288 0.451966 0.783736
-1.365374 0.605908 0.706489
-1.424900 0.410465 0.692836
-1.358276 0.558498 0.618740
-1.575412 1.022210 1.490021
-1.533028 0.851237 1.595796
-1.569144 0.436233 0.686803
-1.565532 0.477734 0.777702
-1.511526 0.595524 0.700277
-1.504428 0.548114 0.612528
-1.536640 0.809736 1.504897
-1.568313 0.974801 1.402271
-1.485273 0.980701 1.405801
-1.454683 0.795096 1.508325
-1.483575 0.463093 0.781130
-1.428486 0.601424 0.703807
-1.388784 0.825469 1.601830
-1.421731 0.596142 1.694624
-1.430934 0.565567 1.599869
-1.392395 0.783969 1.510930
-1.504556 0.320960 0.841832
-1.421288 0.451966 0.783736
-1.513758 0.290384 0.747078
-1.424900 0.410465 0.692837
-1.533028 0.851237 1.595796
-1.552310 0.662329 1.685948
-1.644337 0.356571 0.738402
-1.635135 0.387147 0.833157
-1.565532 0.477734 0.777703
-1.569144 0.436233 0.686803
-1.561513 0.631753 1.591194
-1.536640 0.809736 1.504897
-1.454683 0.795096 1.508325
-1.487320 0.594147 1.596123
-1.560942 0.349541 0.838086
-1.483575 0.463093 0.781131
-1.421731 0.596143 1.694624
-1.544934 0.379660 1.760802
-1.553331 0.362216 1.662704
-1.430934 0.565567 1.599869
-1.620508 0.222660 0.877921
-1.504556 0.320960 0.841832
-1.628906 0.205216 0.779824
-1.513758 0.290384 0.747078
-1.552310 0.662329 1.685948
-1.643160 0.488014 1.749942
-1.727131 0.313570 0.768963
-1.718734 0.331014 0.867061
-1.635135 0.387147 0.833157
-1.644337 0.356571 0.738402
-1.651557 0.470570 1.651844
-1.561513 0.631753 1.591194
-1.487320 0.594147 1.596123
-1.595747 0.409005 1.658014
-1.662924 0.269449 0.873232
-1.560942 0.349541 0.838086
-1.544934 0.379660 1.760802
-1.731033 0.224306 1.792358
-1.735538 0.216717 1.692758
-1.553331 0.362216 1.662704
-1.771576 0.156004 0.895959
-1.620508 0.222660 0.877921
-1.776081 0.148415 0.796360
-1.628906 0.205216 0.779824
-1.643160 0.488014 1.749942
-1.793258 0.356902 1.785069
-1.838306 0.281012 0.789071
-1.833801 0.288601 0.888671
-1.718734 0.331014 0.867061
-1.727131 0.313570 0.768963
-1.797763 0.349313 1.685469
-1.651557 0.470570 1.651844
-1.595747 0.409005 1.658014
-1.762408 0.273974 1.689610
-1.798446 0.213262 0.892812
-1.662924 0.269449 0.873232
-1.731033 0.224306 1.792358
-1.929030 0.131371 1.803517
-1.931454 0.128798 1.703589
-1.735538 0.216717 1.692758
-1.950850 0.108209 0.904169
-1.771576 0.156004 0.895960
-1.953275 0.105636 0.804242
-1.776081 0.148415 0.796360
-1.793258 0.356902 1.785069
-1.969133 0.272408 1.800857
-1.993378 0.246673 0.801582
-1.990954 0.249247 0.901510
-1.833801 0.288601 0.888671
-1.838306 0.281012 0.789071
-1.971558 0.269835 1.700930
-1.797763 0.349313 1.685469
-1.762408 0.273974 1.689610
-1.948772 0.189700 1.702441
-1.968168 0.169112 0.903021
-1.798446 0.213262 0.892812
-1.929030 0.131371 1.803517
-2.129372 0.075788 1.807990
-2.130687 0.075398 1.708009
-1.931454 0.128798 1.703589
-2.141214 0.072276 0.908164
-1.950850 0.108210 0.904169
-2.142529 0.071885 0.808184
-1.953275 0.105636 0.804242
-1.969133 0.272408 1.800857
-2.155898 0.220021 1.807776
-2.169056 0.216118 0.807970
-2.167740 0.216509 0.907951
-1.990954 0.249247 0.901510
-1.993378 0.246673 0.801582
-2.157214 0.219631 1.707795
-1.971558 0.269835 1.700930
-1.948772 0.189700 1.702441
-2.142142 0.137680 1.707917
-2.152668 0.134558 0.908072
-1.968168 0.169112 0.903021
-2.129372 0.075788 1.807990
-2.332547 0.042574 1.809571
-2.332780 0.042930 1.709582
-2.130687 0.075398 1.708009
-2.334644 0.045779 0.909669
-2.141214 0.072276 0.908165
-2.334877 0.046135 0.809680
-2.142529 0.071885 0.808184
-2.155898 0.220021 1.807776
-2.349857 0.188200 1.810130
-2.352186 0.191761 0.810239
-2.351953 0.191405 0.910228
-2.167740 0.216509 0.907951
-2.169056 0.216118 0.807970
-2.350090 0.188556 1.710141
-2.157214 0.219631 1.707795
-2.142142 0.137680 1.707917
-2.340255 0.105814 1.709823
-2.342118 0.108663 0.909910
-2.152668 0.134558 0.908072
-2.332547 0.042574 1.809571
-2.537294 0.022944 1.808790
-2.536394 0.023451 1.708806
-2.332780 0.042930 1.709582
-2.529191 0.027503 0.908928
-2.334644 0.045779 0.909669
-2.528291 0.028010 0.808943
-2.334877 0.046135 0.809680
-2.349857 0.188200 1.810130
-2.548148 0.169192 1.809433
-2.539145 0.174258 0.809587
-2.540045 0.173751 0.909571
-2.351953 0.191405 0.910228
-2.352186 0.191761 0.810239
-2.547247 0.169699 1.709449
-2.350090 0.188556 1.710141
-2.340255 0.105814 1.709823
-2.541081 0.086603 1.709083
-2.533878 0.090656 0.909206
-2.342118 0.108663 0.909910
-2.537294 0.022944 1.808790
-2.742022 0.011427 1.805814
-2.740103 0.011927 1.705844
-2.536394 0.023451 1.708806
-2.724748 0.015924 0.906081
-2.529191 0.027503 0.908928
-2.722829 0.016423 0.806111
-2.528291 0.028010 0.808944
-2.548148 0.169192 1.809434
-2.748482 0.157935 1.806422
-2.729289 0.162932 0.806719
-2.731209 0.162432 0.906689
-2.540045 0.173751 0.909571
-2.539145 0.174258 0.809587
-2.746563 0.158435 1.706452
-2.547247 0.169699 1.709449
-2.541081 0.086603 1.709083
-2.742892 0.075192 1.706107
-2.727538 0.079189 0.906344
-2.533878 0.090656 0.909206
-2.742022 0.011427 1.805815
-2.945856 0.004801 1.801001
-2.943135 0.005287 1.701049
-2.740103 0.011927 1.705844
-2.921368 0.009176 0.901435
-2.724748 0.015924 0.906081
-2.918647 0.009662 0.801483
-2.722829 0.016423 0.806111
-2.748482 0.157935 1.806423
-2.949550 0.151405 1.801613
-2.922341 0.156267 0.802095
-2.925061 0.155780 0.902047
-2.731209 0.162432 0.906690
-2.729289 0.162932 0.806719
-2.946829 0.151891 1.701662
-2.746563 0.158435 1.706452
-2.742892 0.075192 1.706107
-2.944730 0.068594 1.701314
-2.922963 0.072483 0.901699
-2.727538 0.079189 0.906344
-2.945856 0.004801 1.801001
-3.148695 0.001013 1.794813
-3.145380 0.001511 1.694880
-2.943135 0.005287 1.701049
-3.118863 0.005496 0.895409
-2.921368 0.009176 0.901435
-3.115548 0.005994 0.795475
-2.918647 0.009662 0.801483
-2.949550 0.151405 1.801614
-3.150726 0.147649 1.795477
-3.117579 0.152630 0.796139
-3.120894 0.152132 0.896073
-2.925061 0.155780 0.902047
-2.922341 0.156267 0.802096
-3.147411 0.148147 1.695543
-2.946829 0.151891 1.701662
-2.944730 0.068594 1.701314
-3.146257 0.064831 1.695166
-3.119740 0.068816 0.895696
-2.922963 0.072483 0.901699
-3.148695 0.001013 1.794814
-3.350720 -0.001124 1.787630
-3.346973 -0.000594 1.687711
-3.145380 0.001511 1.694880
-3.316997 0.003648 0.888364
-3.118863 0.005496 0.895409
-3.313250 0.004178 0.788446
-3.115548 0.005994 0.795475
-3.150726 0.147649 1.795477
-3.351781 0.145522 1.788368
-3.314311 0.150824 0.789184
-3.318058 0.150294 0.889103
-3.120894 0.152132 0.896073
-3.117579 0.152630 0.796139
-3.348034 0.146052 1.688450
-3.147411 0.148147 1.695543
-3.146257 0.064831 1.695166
-3.347431 0.062730 1.688030
-3.317455 0.066972 0.888683
-3.119740 0.068816 0.895696
-3.350720 -0.001124 1.787630
-3.552137 -0.002281 1.779718
-3.548075 -0.001711 1.679812
-3.346973 -0.000594 1.687712
-3.515580 0.002849 0.880565
-3.316997 0.003648 0.888364
-3.511518 0.003419 0.780660
-3.313250 0.004178 0.788446
-3.351781 0.145522 1.788368
-3.552656 0.144367 1.780534
-3.512037 0.150068 0.781475
-3.516099 0.149498 0.881381
-3.318058 0.150294 0.889103
-3.314311 0.150824 0.789185
-3.548594 0.144938 1.680628
-3.348034 0.146052 1.688450
-3.347431 0.062731 1.688030
-3.548299 0.061614 1.680165
-3.515804 0.066175 0.880918
-3.317455 0.066972 0.888683
-3.552137 -0.002281 1.779718
-3.753134 -0.002880 1.771292
-3.748837 -0.002274 1.671396
-3.548075 -0.001711 1.679812
-3.714467 0.002579 0.872229
-3.515580 0.002849 0.880566
-3.710170 0.003185 0.772333
-3.511518 0.003419 0.780660
-3.552656 0.144367 1.780534
-3.753360 0.143769 1.772172
-3.710397 0.149834 0.773214
-3.714693 0.149228 0.873110
-3.516099 0.149498 0.881381
-3.512037 0.150068 0.781475
-3.749063 0.144376 1.672276
-3.548594 0.144938 1.680628
-3.548299 0.061614 1.680165
-3.748935 0.061052 1.671776
-3.714564 0.065904 0.872609
-3.515804 0.066175 0.880918
-3.753135 -0.002880 1.771292
-3.953823 -0.003141 1.762473
-3.949350 -0.002509 1.662585
-3.748838 -0.002274 1.671396
-3.913569 0.002547 0.863482
-3.714468 0.002578 0.872229
-3.909096 0.003178 0.763594
-3.710171 0.003185 0.772333
-3.753361 0.143769 1.772172
-3.953914 0.143508 1.763397
-3.909188 0.149828 0.764517
-3.913660 0.149196 0.864405
-3.714694 0.149228 0.873110
-3.710397 0.149834 0.773214
-3.949441 0.144140 1.663509
-3.749065 0.144376 1.672276
-3.748936 0.061052 1.671776
-3.949390 0.060817 1.662984
-3.913609 0.065872 0.863880
-3.714565 0.065904 0.872609
0.704141 -0.000120 -0.499947
0.201198 -0.000034 -0.449954
0.201198 -0.000034 -0.499949
0.704141 0.146532 -0.499947
0.201198 0.073292 -0.499949
0.201198 0.146618 -0.499949
0.704142 0.146532 0.499953
0.603553 0.146549 0.399963
0.201198 0.146618 0.444401
0.201198 0.146618 0.499951
0.603553 0.146549 -0.399958
0.201198 0.146618 -0.449954
0.201198 0.146618 -0.399959
0.704142 -0.000120 0.499953
0.201198 0.073292 0.499951
0.201198 -0.000034 0.499951
0.201198 0.109584 0.399961
0.201198 0.146618 0.399961
0.603553 0.063224 -0.399958
0.201198 0.100326 -0.399959
0.201198 0.063293 -0.399959
0.603553 0.063224 0.399963
0.201198 0.063293 -0.044439
0.201198 0.063293 0.399961
0.201198 -0.000034 0.049996
0.201198 -0.000034 0.449956
-4.355303 -0.003224 1.744221
-3.949350 -0.002509 1.662585
-3.953823 -0.003141 1.762473
-4.484553 -0.003124 1.721288
-4.603425 -0.002813 1.665884
-4.703818 -0.002311 1.581785
-3.913569 0.002547 0.863482
-4.778891 -0.001652 1.474722
-4.823527 -0.000882 1.351991
-4.834684 -0.000053 1.221955
-4.811603 0.000778 1.093478
-4.755856 0.001556 0.975313
-4.671242 0.002226 0.875515
-4.563527 0.002744 0.800883
-3.909096 0.003178 0.763594
-4.440053 0.003074 0.756504
-4.309233 0.003193 0.745403
-4.355347 0.143425 1.745161
-3.953914 0.143508 1.763397
-4.484597 0.143525 1.722228
-4.603468 0.143836 1.666825
-4.703862 0.144338 1.582725
-4.778934 0.144997 1.475662
-4.823570 0.145767 1.352931
-4.834728 0.146596 1.222896
-4.811646 0.147427 1.094418
-4.755899 0.148205 0.976253
-4.671285 0.148875 0.876455
-4.563570 0.149393 0.801823
-4.440096 0.149723 0.757444
-4.309277 0.149842 0.746343
-3.909188 0.149828 0.764517
-4.313884 0.149200 0.846225
-3.913660 0.149196 0.864405
-4.418540 0.149105 0.855106
-4.517320 0.148841 0.890609
-4.603491 0.148427 0.950314
-4.671181 0.147891 1.030153
-4.715779 0.147269 1.124685
-4.734244 0.146603 1.227467
-4.725318 0.145940 1.331495
-4.689609 0.145324 1.429680
-4.629552 0.144797 1.515331
-4.549237 0.144396 1.582610
-4.454140 0.144147 1.626933
-4.350739 0.144067 1.645279
-3.949441 0.144140 1.663509
-4.350715 0.060744 1.644745
-3.949390 0.060817 1.662984
-4.454115 0.060823 1.626399
-4.549212 0.061072 1.582076
-4.629527 0.061474 1.514797
-4.689584 0.062001 1.429146
-4.725294 0.062617 1.330961
-4.734220 0.063280 1.226933
-4.715755 0.063945 1.124151
-4.671156 0.064567 1.029619
-4.603466 0.065104 0.949780
-4.517295 0.065518 0.890075
-4.418515 0.065782 0.854572
-4.313859 0.065877 0.845691
-3.913609 0.065872 0.863880
-4.377484 0.063609 1.195978
-4.363112 0.032015 1.185824
-4.363121 0.063678 1.186027
-4.377475 0.031946 1.195775
-4.388756 0.031857 1.209082
-4.388766 0.063520 1.209285
-4.396190 0.031753 1.224837
-4.396199 0.063416 1.225040
-4.399267 0.031642 1.241967
-4.399276 0.063305 1.242170
-4.397780 0.031532 1.259305
-4.397789 0.063195 1.259508
-4.391828 0.031429 1.275669
-4.391837 0.063092 1.275872
-4.381818 0.031341 1.289945
-4.381828 0.063004 1.290148
-4.368441 0.062937 1.301361
-4.368432 0.031274 1.301158
-4.352592 0.062896 1.308748
-4.352582 0.031233 1.308545
-4.335358 0.062882 1.311806
-4.335349 0.031220 1.311603
-4.317915 0.062898 1.310325
-4.317906 0.031236 1.310122
-4.301453 0.062942 1.304408
-4.301444 0.031279 1.304205
-4.287091 0.063011 1.294457
-4.287082 0.031348 1.294254
-4.275800 0.031438 1.280948
-4.275810 0.063101 1.281151
-4.268366 0.031542 1.265193
-4.268375 0.063204 1.265396
-4.265290 0.031652 1.248062
-4.265299 0.063315 1.248265
-4.266777 0.031763 1.230724
-4.266786 0.063426 1.230927
-4.272729 0.031866 1.214360
-4.272738 0.063528 1.214563
-4.282738 0.031953 1.200085
-4.282748 0.063616 1.200288
-4.296133 0.063683 1.189075
-4.296124 0.032020 1.188872
-4.311982 0.063725 1.181688
-4.311973 0.032062 1.181485
-4.329216 0.063738 1.178630
-4.329206 0.032075 1.178427
-4.346659 0.063722 1.180110
-4.346649 0.032059 1.179907
3 0 1 2
3 2 3 0
3 2 4 3
3 4 5 3
3 4 6 5
3 6 7 5
3 8 9 1
3 1 0 8
3 10 11 12
3 12 13 10
3 7 6 10
3 10 13 7
3 14 9 8
3 8 15 14
3 16 17 14
3 14 15 16
3 12 11 18
3 18 19 12
3 18 17 16
3 16 19 18
3 20 21 22
3 22 23 20
3 22 24 23
3 24 25 23
3 24 26 25
3 26 27 25
3 28 29 21
3 21 20 28
3 30 31 32
3 32 33 30
3 27 26 30
3 30 33 27
3 34 29 28
3 28 35 34
3 36 37 34
3 34 35 36
3 32 31 38
3 38 39 32
3 38 37 36
3 36 39 38
3 40 41 42
3 42 43 40
3 42 44 43
3 44 45 43
3 44 46 45
3 46 47 45
3 48 49 41
3 41 40 48
3 50 51 52
3 52 53 50
3 47 46 50
3 50 53 47
3 54 49 48
3 48 55 54
3 56 57 54
3 54 55 56
3 52 51 58
3 58 59 52
3 58 57 56
3 56 59 58
3 60 61 62
3 62 63 60
3 62 64 63
3 64 65 63
3 64 66 65
3 66 67 65
3 68 69 61
3 61 60 68
3 70 71 72
3 72 73 70
3 67 66 70
3 70 73 67
3 74 69 68
3 68 75 74
3 76 77 74
3 74 75 76
3 72 71 78
3 78 79 72
3 78 77 76
3 76 79 78
3 80 81 82
3 82 83 80
3 82 84 83
3 84 85 83
3 84 86 85
3 86 87 85
3 88 89 81
3 81 80 88
3 90 91 92
3 92 93 90
3 87 86 90
3 90 93 87
3 94 89 88
3 88 95 94
3 96 97 94
3 94 95 96
3 92 91 98
3 98 99 92
3 98 97 96
3 96 99 98
3 100 101 102
3 102 103 100
3 102 104 103
3 104 105 103
3 104 106 105
3 106 107 105
3 108 109 101
3 101 100 108
3 110 111 112
3 112 113 110
3 107 106 110
3 110 113 107
3 114 109 108
3 108 115 114
3 116 117 114
3 114 115 116
3 112 111 118
3 118 119 112
3 118 117 116
3 116 119 118
3 120 121 122
3 122 123 120
3 122 124 123
3 124 125 123
3 124 126 125
3 126 127 125
3 128 129 121
3 121 120 128
3 130 131 132
3 132 133 130
3 127 126 130
3 130 133 127
3 134 129 128
3 128 135 134
3 136 137 134
3 134 135 136
3 132 131 138
3 138 139 132
3 138 137 136
3 136 139 138
3 140 141 142
3 142 143 140
3 142 144 143
3 144 145 143
3 144 146 145
3 146 147 145
3 148 149 141
3 141 140 148
3 150 151 152
3 152 153 150
3 147 146 150
3 150 153 147
3 154 149 148
3 148 155 154
3 156 157 154
3 154 155 156
3 152 151 158
3 158 159 152
3 158 157 156
3 156 159 158
3 160 161 162
3 162 163 160
3 162 164 163
3 164 165 163
3 164 166 165
3 166 167 165
3 168 169 161
3 161 160 168
3 170 171 172
3 172 173 170
3 167 166 170
3 170 173 167
3 174 169 168
3 168 175 174
3 176 177 174
3 174 175 176
3 172 171 178
3 178 179 172
3 178 177 176
3 176 179 178
3 180 181 182
3 182 183 180
3 182 184 183
3 184 185 183
3 184 186 185
3 186 187 185
3 188 189 181
3 181 180 188
3 190 191 192
3 192 193 190
3 187 186 190
3 190 193 187
3 194 189 188
3 188 195 194
3 196 197 194
3 194 195 196
3 192 191 198
3 198 199 192
3 198 197 196
3 196 199 198
3 200 201 202
3 202 203 200
3 202 204 203
3 204 205 203
3 204 206 205
3 206 207 205
3 208 209 201
3 201 200 208
3 210 211 212
3 212 213 210
3 207 206 210
3 210 213 207
3 214 209 208
3 208 215 214
3 216 217 214
3 214 215 216
3 212 211 218
3 218 219 212
3 218 217 216
3 216 219 218
3 220 221 222
3 222 223 220
3 222 224 223
3 224 225 223
3 224 226 225
3 226 227 225
3 228 229 221
3 221 220 228
3 230 231 232
3 232 233 230
3 227 226 230
3 230 233 227
3 234 229 228
3 228 235 234
3 236 237 234
3 234 235 236
3 232 231 238
3 238 239 232
3 238 237 236
3 236 239 238
3 240 241 242
3 242 243 240
3 242 244 243
3 244 245 243
3 244 246 245
3 246 247 245
3 248 249 241
3 241 240 248
3 250 251 252
3 252 253 250
3 247 246 250
3 250 253 247
3 254 249 248
3 248 255 254
3 256 257 254
3 254 255 256
3 252 251 258
3 258 259 252
3 258 257 256
3 256 259 258
3 260 261 262
3 262 263 260
3 262 264 263
3 264 265 263
3 264 266 265
3 266 267 265
3 268 269 261
3 261 260 268
3 270 271 272
3 272 273 270
3 267 266 270
3 270 273 267
3 274 269 268
3 268 275 274
3 276 277 274
3 274 275 276
3 272 271 278
3 278 279 272
3 278 277 276
3 276 279 278
3 280 281 282
3 282 283 280
3 282 284 283
3 284 285 283
3 284 286 285
3 286 287 285
3 288 289 281
3 281 280 288
3 290 291 292
3 292 293 290
3 287 286 290
3 290 293 287
3 294 289 288
3 288 295 294
3 296 297 294
3 294 295 296
3 292 291 298
3 298 299 292
3 298 297 296
3 296 299 298
3 300 301 302
3 302 303 300
3 302 304 303
3 304 305 303
3 304 306 305
3 306 307 305
3 308 309 301
3 301 300 308
3 310 311 312
3 312 313 310
3 307 306 310
3 310 313 307
3 314 309 308
3 308 315 314
3 316 317 314
3 314 315 316
3 312 311 318
3 318 319 312
3 318 317 316
3 316 319 318
3 320 321 322
3 322 323 320
3 322 324 323
3 324 325 323
3 324 326 325
3 326 327 325
3 328 329 321
3 321 320 328
3 330 331 332
3 332 333 330
3 327 326 330
3 330 333 327
3 334 329 328
3 328 335 334
3 336 337 334
3 334 335 336
3 332 331 338
3 338 339 332
3 338 337 336
3 336 339 338
3 340 341 342
3 342 343 340
3 342 344 343
3 344 345 343
3 344 346 345
3 346 347 345
3 348 349 341
3 341 340 348
3 350 351 352
3 352 353 350
3 347 346 350
3 350 353 347
3 354 349 348
3 348 355 354
3 356 357 354
3 354 355 356
3 352 351 358
3 358 359 352
3 358 357 356
3 356 359 358
3 360 361 362
3 362 363 360
3 362 364 363
3 364 365 363
3 364 366 365
3 366 367 365
3 368 369 361
3 361 360 368
3 370 371 372
3 372 373 370
3 367 366 370
3 370 373 367
3 374 369 368
3 368 375 374
3 376 377 374
3 374 375 376
3 372 371 378
3 378 379 372
3 378 377 376
3 376 379 378
3 380 381 382
3 382 383 380
3 382 384 383
3 384 385 383
3 384 386 385
3 386 387 385
3 388 389 381
3 381 380 388
3 390 391 392
3 392 393 390
3 387 386 390
3 390 393 387
3 394 389 388
3 388 395 394
3 396 397 394
3 394 395 396
3 392 391 398
3 398 399 392
3 398 397 396
3 396 399 398
3 400 401 402
3 402 403 400
3 402 404 403
3 404 405 403
3 404 406 405
3 406 407 405
3 408 409 401
3 401 400 408
3 410 411 412
3 412 413 410
3 407 406 410
3 410 413 407
3 414 409 408
3 408 415 414
3 416 417 414
3 414 415 416
3 412 411 418
3 418 419 412
3 418 417 416
3 416 419 418
3 420 421 422
3 422 423 420
3 422 424 423
3 424 425 423
3 424 426 425
3 426 427 425
3 428 429 421
3 421 420 428
3 430 431 432
3 432 433 430
3 427 426 430
3 430 433 427
3 434 429 428
3 428 435 434
3 436 437 434
3 434 435 436
3 432 431 438
3 438 439 432
3 438 437 436
3 436 439 438
3 440 441 442
3 442 443 440
3 442 444 443
3 444 445 443
3 444 446 445
3 446 447 445
3 448 449 441
3 441 440 448
3 450 451 452
3 452 453 450
3 447 446 450
3 450 453 447
3 454 449 448
3 448 455 454
3 456 457 454
3 454 455 456
3 452 451 458
3 458 459 452
3 458 457 456
3 456 459 458
3 460 461 462
3 462 463 460
3 462 464 463
3 464 465 463
3 464 466 465
3 466 467 465
3 468 469 461
3 461 460 468
3 470 471 472
3 472 473 470
3 467 466 470
3 470 473 467
3 474 469 468
3 468 475 474
3 476 477 474
3 474 475 476
3 472 471 478
3 478 479 472
3 478 477 476
3 476 479 478
3 480 481 482
3 482 483 480
3 482 484 483
3 484 485 483
3 484 486 485
3 486 487 485
3 488 489 481
3 481 480 488
3 490 491 492
3 492 493 490
3 487 486 490
3 490 493 487
3 494 489 488
3 488 495 494
3 496 497 494
3 494 495 496
3 492 491 498
3 498 499 492
3 498 497 496
3 496 499 498
3 500 501 502
3 502 503 500
3 502 504 503
3 504 505 503
3 504 506 505
3 506 507 505
3 508 509 501
3 501 500 508
3 510 511 512
3 512 513 510
3 507 506 510
3 510 513 507
3 514 509 508
3 508 515 514
3 516 517 514
3 514 515 516
3 512 511 518
3 518 519 512
3 518 517 516
3 516 519 518
3 520 521 522
3 522 523 520
3 522 524 523
3 524 525 523
3 524 526 525
3 526 527 525
3 528 529 521
3 521 520 528
3 530 531 532
3 532 533 530
3 527 526 530
3 530 533 527
3 534 529 528
3 528 535 534
3 536 537 534
3 534 535 536
3 532 531 538
3 538 539 532
3 538 537 536
3 536 539 538
3 540 541 542
3 542 543 540
3 542 544 543
3 544 545 543
3 544 546 545
3 546 547 545
3 548 549 541
3 541 540 548
3 550 551 552
3 552 553 550
3 547 546 550
3 550 553 547
3 554 549 548
3 548 555 554
3 556 557 554
3 554 555 556
3 552 551 558
3 558 559 552
3 558 557 556
3 556 559 558
3 560 561 562
3 562 563 560
3 562 564 563
3 564 565 563
3 564 566 565
3 566 567 565
3 568 569 561
3 561 560 568
3 570 571 572
3 572 573 570
3 567 566 570
3 570 573 567
3 574 569 568
3 568 575 574
3 576 577 574
3 574 575 576
3 572 571 578
3 578 579 572
3 578 577 576
3 576 579 578
3 580 581 582
3 582 583 580
3 582 584 583
3 584 585 583
3 584 586 585
3 586 587 585
3 588 589 581
3 581 580 588
3 590 591 592
3 592 593 590
3 587 586 590
3 590 593 587
3 594 589 588
3 588 595 594
3 596 597 594
3 594 595 596
3 592 591 598
3 598 599 592
3 598 597 596
3 596 599 598
3 600 601 602
3 602 603 600
3 602 604 603
3 604 605 603
3 604 606 605
3 606 607 605
3 608 609 601
3 601 600 608
3 610 611 612
3 612 613 610
3 607 606 610
3 610 613 607
3 614 609 608
3 608 615 614
3 616 617 614
3 614 615 616
3 612 611 618
3 618 619 612
3 618 617 616
3 616 619 618
3 620 621 622
3 622 623 620
3 622 624 623
3 624 625 623
3 624 626 625
3 626 627 625
3 628 629 621
3 621 620 628
3 630 631 632
3 632 633 630
3 627 626 630
3 630 633 627
3 634 629 628
3 628 635 634
3 636 637 634
3 634 635 636
3 632 631 638
3 638 639 632
3 638 637 636
3 636 639 638
3 640 641 642
3 642 643 640
3 642 644 643
3 644 645 643
3 644 646 645
3 646 647 645
3 648 649 641
3 641 640 648
3 650 651 652
3 652 653 650
3 647 646 650
3 650 653 647
3 654 649 648
3 648 655 654
3 656 657 654
3 654 655 656
3 652 651 658
3 658 659 652
3 658 657 656
3 656 659 658
3 660 661 662
3 662 663 660
3 662 664 663
3 664 665 663
3 664 666 665
3 666 667 665
3 668 669 661
3 661 660 668
3 670 671 672
3 672 673 670
3 667 666 670
3 670 673 667
3 674 669 668
3 668 675 674
3 676 677 674
3 674 675 676
3 672 671 678
3 678 679 672
3 678 677 676
3 676 679 678
3 680 681 682
3 682 683 680
3 682 684 683
3 684 685 683
3 684 686 685
3 686 687 685
3 688 689 681
3 681 680 688
3 690 691 692
3 692 693 690
3 687 686 690
3 690 693 687
3 694 689 688
3 688 695 694
3 696 697 694
3 694 695 696
3 692 691 698
3 698 699 692
3 698 697 696
3 696 699 698
3 700 701 702
3 702 703 700
3 702 704 703
3 704 705 703
3 704 706 705
3 706 707 705
3 708 709 701
3 701 700 708
3 710 711 712
3 712 713 710
3 707 706 710
3 710 713 707
3 714 709 708
3 708 715 714
3 716 717 714
3 714 715 716
3 712 711 718
3 718 719 712
3 718 717 716
3 716 719 718
3 720 721 722
3 722 723 720
3 722 724 723
3 724 725 723
3 724 726 725
3 726 727 725
3 728 729 721
3 721 720 728
3 730 731 732
3 732 733 730
3 727 726 730
3 730 733 727
3 734 729 728
3 728 735 734
3 736 737 734
3 734 735 736
3 732 731 738
3 738 739 732
3 738 737 736
3 736 739 738
3 740 741 742
3 742 743 740
3 742 744 743
3 744 745 743
3 744 746 745
3 746 747 745
3 748 749 741
3 741 740 748
3 750 751 752
3 752 753 750
3 747 746 750
3 750 753 747
3 754 749 748
3 748 755 754
3 756 757 754
3 754 755 756
3 752 751 758
3 758 759 752
3 758 757 756
3 756 759 758
3 760 761 762
3 762 763 760
3 762 764 763
3 764 765 763
3 764 766 765
3 766 767 765
3 768 769 761
3 761 760 768
3 770 771 772
3 772 773 770
3 767 766 770
3 770 773 767
3 774 769 768
3 768 775 774
3 776 777 774
3 774 775 776
3 772 771 778
3 778 779 772
3 778 777 776
3 776 779 778
3 780 781 782
3 782 783 780
3 782 784 783
3 784 785 783
3 784 786 785
3 786 787 785
3 788 789 781
3 781 780 788
3 790 791 792
3 792 793 790
3 787 786 790
3 790 793 787
3 794 789 788
3 788 795 794
3 796 797 794
3 794 795 796
3 792 791 798
3 798 799 792
3 798 797 796
3 796 799 798
3 800 801 802
3 802 803 800
3 802 804 803
3 804 805 803
3 804 806 805
3 806 807 805
3 808 809 801
3 801 800 808
3 810 811 812
3 812 813 810
3 807 806 810
3 810 813 807
3 814 809 808
3 808 815 814
3 816 817 814
3 814 815 816
3 812 811 818
3 818 819 812
3 818 817 816
3 816 819 818
3 820 821 822
3 822 823 820
3 822 824 823
3 824 825 823
3 824 826 825
3 826 827 825
3 828 829 821
3 821 820 828
3 830 831 832
3 832 833 830
3 827 826 830
3 830 833 827
3 834 829 828
3 828 835 834
3 836 837 834
3 834 835 836
3 832 831 838
3 838 839 832
3 838 837 836
3 836 839 838
3 840 841 842
3 843 844 845
4 846 847 848 849
3 846 850 847
3 843 850 846
4 843 851 852 850
3 853 854 855
3 847 856 857
3 843 853 840
3 853 843 846
3 858 859 860
3 847 858 861
3 858 847 850
4 858 862 863 861
4 864 841 840 853
4 863 856 847 861
3 865 864 853
3 845 851 843
3 855 865 853
4 842 844 843 840
4 849 854 853 846
3 860 862 858
4 852 859 858 850
3 857 848 847
3 866 867 868
3 867 866 869
3 867 869 870
3 867 870 871
3 867 871 872
3 872 871 873
3 872 873 874
3 872 874 875
3 872 875 876
3 872 876 877
3 872 877 878
3 872 878 879
3 872 879 880
3 880 879 881
3 880 881 882
3 883 868 884
3 868 883 866
3 885 866 883
3 866 885 869
3 886 869 885
3 869 886 870
3 887 870 886
3 870 887 871
3 887 873 871
3 873 887 888
3 888 874 873
3 874 888 889
3 889 875 874
3 875 889 890
3 890 876 875
3 876 890 891
3 891 877 876
3 877 891 892
3 892 878 877
3 878 892 893
3 878 894 879
3 894 878 893
3 879 895 881
3 895 879 894
3 881 896 882
3 896 881 895
3 882 897 880
3 897 882 896
3 897 898 899
3 898 897 894
3 894 897 895
3 895 897 896
3 894 900 898
3 893 900 894
3 893 901 900
3 893 902 901
3 892 902 893
3 892 903 902
3 891 903 892
3 891 904 903
3 891 905 904
3 890 905 891
3 890 906 905
3 889 906 890
3 889 907 906
3 888 907 889
3 888 908 907
3 888 909 908
3 887 909 888
3 887 910 909
3 887 911 910
3 886 911 887
3 886 912 911
3 885 912 886
3 883 912 885
3 912 883 884
3 913 912 914
3 912 913 911
3 915 911 913
3 911 915 910
3 916 910 915
3 910 916 909
3 917 909 916
3 909 917 908
3 907 917 918
3 917 907 908
3 906 918 919
3 918 906 907
3 905 919 920
3 919 905 906
3 904 920 921
3 920 904 905
3 903 921 922
3 921 903 904
3 902 922 923
3 922 902 903
3 902 924 901
3 924 902 923
3 901 925 900
3 925 901 924
3 900 926 898
3 926 900 925
3 898 927 899
3 927 898 926
3 928 929 930
3 929 928 931
3 928 932 931
3 932 928 933
3 933 934 932
3 934 933 935
3 935 936 934
3 936 935 937
3 937 938 936
3 938 937 939
3 939 940 938
3 940 939 941
3 941 942 940
3 942 941 943
3 942 944 945
3 944 942 943
3 945 946 947
3 946 945 944
3 947 948 949
3 948 947 946
3 949 950 951
3 950 949 948
3 951 952 953
3 952 951 950
3 953 954 955
3 954 953 952
3 954 956 955
3 956 954 957
3 957 958 956
3 958 957 959
3 959 960 958
3 960 959 961
3 961 962 960
3 962 961 963
3 963 964 962
3 964 963 965
3 965 966 964
3 966 965 967
3 968 966 967
3 966 968 969
3 970 969 968
3 969 970 971
3 972 971 970
3 971 972 973
3 974 973 972
3 973 974 975
3 930 975 974
3 975 930 929
3 927 913 914
3 913 927 915
3 916 915 954
3 954 915 957
3 916 954 952
3 916 952 917
3 917 952 950
3 917 950 918
3 918 950 948
3 918 948 919
3 915 927 957
3 957 927 959
3 959 927 961
3 961 927 963
3 963 927 965
3 965 927 967
3 967 927 968
3 968 927 970
3 970 927 972
3 972 927 921
3 921 927 922
3 922 927 923
3 923 927 924
3 924 927 925
3 925 927 926
3 921 974 972
3 921 930 974
3 921 928 930
3 921 933 928
3 921 935 933
3 920 935 921
3 920 937 935
3 920 939 937
3 920 941 939
3 920 943 941
3 920 944 943
3 920 946 944
3 919 946 920
3 946 919 948
3 951 947 949
3 947 951 953
3 947 953 945
3 945 953 955
3 945 955 942
3 942 955 956
3 942 956 940
3 940 956 958
3 940 958 938
3 938 958 960
3 938 960 936
3 936 960 962
3 936 962 934
3 934 962 964
3 934 964 932
3 932 964 966
3 932 966 931
3 931 966 969
3 931 969 929
3 929 969 971
3 929 971 975
3 975 971 973
