ply
format ascii 1.0
comment Created by Blender 2.83.0 - www.blender.org, source file: 'snake2.blend'
element vertex 868
property float x
property float y
property float z
element face 363
property list uchar uint vertex_indices
end_header
4.158156 0.075326 -0.499950
4.001496 0.075325 -0.499950
4.001495 0.075325 -0.399960
4.158156 0.075326 -0.399960
-4.330951 1.218733 -0.400682
-4.479705 1.217918 -0.400362
-4.479127 1.134596 -0.400657
-4.330173 1.135412 -0.400902
4.001496 0.075325 -0.499950
3.852428 0.075324 -0.499951
3.852427 0.075324 -0.399961
4.001495 0.075325 -0.399960
-4.328664 1.133314 0.399014
-4.477886 1.131769 0.399257
-4.478464 1.215091 0.399552
-4.329442 1.216635 0.399234
-3.881454 1.140819 0.398104
-4.030382 1.137812 0.398403
-4.031688 1.221127 0.398457
-3.883059 1.224129 0.398075
3.852428 0.075324 -0.499951
3.703366 0.075319 -0.499954
3.703361 0.075319 -0.399964
3.852427 0.075324 -0.399961
-1.434609 0.579530 -0.509421
-1.545802 0.672777 -0.483288
-1.599111 0.608763 -0.481439
-1.487733 0.515361 -0.507616
1.311388 -0.368868 0.181814
1.448330 -0.323462 0.211289
1.608857 -0.294827 -0.571835
1.468244 -0.341437 -0.602097
-3.147237 1.244759 0.500711
-3.145627 1.244415 0.400735
-3.292069 1.240184 0.398943
-3.292998 1.240503 0.498928
-3.735303 1.226578 -0.402127
-3.884490 1.223821 -0.401844
-3.882885 1.140511 -0.401814
-3.733411 1.143275 -0.402019
3.703366 0.075319 -0.499954
3.554315 0.075305 -0.499962
3.554305 0.075305 -0.399972
3.703361 0.075319 -0.399964
-4.776309 1.129648 0.399599
-4.627106 1.130552 0.399454
-4.628077 1.134042 -0.400458
-4.777039 1.133715 -0.400310
-2.997858 1.164636 0.403963
-3.143459 1.161119 0.401056
-3.145627 1.244415 0.400735
-2.999380 1.247947 0.403628
1.586158 -0.275414 0.241428
1.725576 -0.226037 0.271615
1.882827 -0.198571 -0.512216
1.746889 -0.246715 -0.541652
3.554315 0.075305 -0.499962
3.405288 0.075273 -0.499981
3.405266 0.075273 -0.399991
3.554305 0.075305 -0.399972
-3.435578 1.233603 -0.401883
-3.585721 1.229868 -0.402194
-3.583584 1.146571 -0.402015
-3.433273 1.150310 -0.401644
-3.584517 1.148267 0.397903
-3.732794 1.144328 0.397900
-3.734686 1.227631 0.397792
-3.586653 1.231565 0.397723
-1.298654 0.491879 0.375831
-1.313761 0.501618 0.277470
-1.427062 0.596634 0.304097
-1.412219 0.587117 0.402520
3.405288 0.075273 -0.499981
3.256320 0.075194 -0.500027
3.256270 0.075194 -0.400037
3.405266 0.075273 -0.399991
3.106477 0.075024 0.399784
3.106634 -0.008301 0.399784
2.956929 -0.008739 0.399529
2.956537 0.074585 0.399529
1.586158 -0.275414 0.241427
1.448330 -0.323462 0.211289
1.421941 -0.244467 0.208768
1.558988 -0.196689 0.238736
1.174817 -0.410296 0.153620
1.311388 -0.368868 0.181814
1.468244 -0.341437 -0.602097
1.324492 -0.385022 -0.631766
3.256320 0.075194 -0.500027
3.107471 0.075025 -0.500125
3.107360 0.075025 -0.400135
3.256270 0.075194 -0.400037
2.956537 0.074585 0.399529
2.956929 -0.008739 0.399529
2.806031 -0.009876 0.398866
2.804959 0.073442 0.398862
1.746889 -0.246715 -0.541653
1.719718 -0.167990 -0.544344
1.582469 -0.215831 -0.574356
1.608857 -0.294827 -0.571835
0.871250 -0.395942 0.202145
1.001739 -0.368071 0.224718
1.019081 -0.365269 0.126284
0.886715 -0.393536 0.103388
2.958733 0.074590 -0.400389
2.810954 0.073480 -0.401035
2.812027 -0.009838 -0.401031
2.959126 -0.008734 -0.400388
3.107471 0.075025 -0.500125
2.959008 0.074591 -0.500378
2.958733 0.074590 -0.400389
3.107360 0.075025 -0.400135
-1.903508 0.977671 0.499380
-1.913317 0.983291 0.400031
-2.057672 1.074705 0.416122
-2.051274 1.071238 0.515847
0.624195 -0.424270 0.068165
0.628055 -0.507498 0.067039
0.491139 -0.508345 0.054909
0.493688 -0.425076 0.056604
-3.586770 1.231777 0.497713
-3.734609 1.227763 0.497782
-1.201074 0.408199 0.250785
-1.253695 0.343613 0.252471
-1.366884 0.437449 0.279275
-1.313761 0.501618 0.277470
2.959008 0.074591 -0.500378
2.811704 0.073485 -0.501022
-2.264786 1.086304 -0.375325
-2.233382 1.163484 -0.374947
-2.370077 1.207113 -0.374951
-2.389638 1.126117 -0.375326
-0.261783 -0.231002 0.173323
-0.270282 -0.225349 0.073855
-0.392062 -0.162788 0.089269
-0.381898 -0.169291 0.188529
-0.016762 -0.332075 0.152444
0.107753 -0.369863 0.147442
0.106090 -0.366732 0.047515
-0.021012 -0.328158 0.052622
-0.338280 -0.180123 -0.721885
-0.473378 -0.110768 -0.704805
-0.513151 -0.183984 -0.705528
-0.374419 -0.255193 -0.723064
2.811704 0.073485 -0.501022
2.668761 0.070162 -0.502958
2.666379 0.070113 -0.402997
2.810954 0.073480 -0.401035
-4.776309 1.129648 0.399599
-4.925490 1.128964 0.399706
-4.925694 1.212287 0.400182
-4.776604 1.212972 0.400023
0.613875 -0.426095 0.167605
0.742076 -0.415591 0.182968
0.755165 -0.413542 0.083860
0.624195 -0.424270 0.068165
2.668761 0.070162 -0.502959
2.535348 0.060622 -0.508516
2.528914 0.060265 -0.408734
2.666379 0.070113 -0.402997
-0.178538 -0.357988 0.059799
-0.048041 -0.406954 0.050680
-0.082041 -0.375619 -0.747902
-0.230861 -0.319749 -0.737491
-1.711905 0.725116 0.357148
-1.819371 0.791915 -0.432700
-1.929074 0.878835 -0.411586
-1.832921 0.820975 0.380423
-1.659629 0.789983 0.355522
-1.782382 0.887211 0.379126
-0.140079 -0.285815 0.161057
-0.016762 -0.332075 0.152444
-0.021012 -0.328158 0.052621
-0.146620 -0.281035 0.061395
2.535348 0.060622 -0.508516
2.405695 0.040688 -0.520129
2.394686 0.039635 -0.420753
2.528914 0.060265 -0.408734
0.764968 -0.496287 0.083444
0.628055 -0.507498 0.067039
3.405118 -0.008052 0.399929
3.405298 -0.008052 -0.399991
3.256342 -0.008131 -0.400037
3.255938 -0.008132 0.399883
-5.671123 1.210161 0.500490
-5.671128 1.210904 0.400503
-5.820205 1.210850 0.400514
-5.820203 1.210097 0.500501
0.218908 -0.477942 0.044123
0.228375 -0.458087 -0.755495
0.071254 -0.422152 -0.754065
0.084556 -0.447197 0.045352
2.405695 0.040688 -0.520130
2.274447 0.010807 -0.537548
2.259988 0.008974 -0.438626
2.394686 0.039635 -0.420753
-0.732794 0.049925 0.248402
-0.746394 0.058542 0.149717
-0.861399 0.141309 0.173474
-0.847117 0.132202 0.272019
3.852411 0.075324 0.499949
3.852412 0.075324 0.399959
3.703327 0.075319 0.399956
3.703322 0.075319 0.499946
3.852415 -0.008001 0.399959
3.703333 -0.008006 0.399956
-4.627106 1.130552 0.399454
-4.477886 1.131769 0.399257
-4.479127 1.134596 -0.400657
-4.628077 1.134042 -0.400458
2.274447 0.010807 -0.537548
2.142425 -0.026806 -0.559562
2.125443 -0.029353 -0.461058
2.259988 0.008974 -0.438626
-5.820205 1.210850 0.400514
-5.820224 1.216874 -0.399383
-5.975932 1.216896 -0.399377
-5.975931 1.210820 0.400521
-2.051274 1.071239 0.515847
-2.057673 1.074706 0.416122
-2.217483 1.153103 0.424748
-2.215496 1.151805 0.524710
2.142425 -0.026806 -0.559562
2.009436 -0.069941 -0.585040
1.990777 -0.073029 -0.486855
2.125443 -0.029353 -0.461058
-5.522019 1.127685 0.399876
-5.372911 1.127858 0.399858
-5.373063 1.133451 -0.400042
-5.522105 1.133486 -0.400023
1.266951 -0.292788 0.277616
1.401875 -0.248046 0.306658
1.421941 -0.244467 0.208768
1.286558 -0.289359 0.179627
-0.794024 -0.009824 0.150311
-0.902820 0.059114 -0.639172
-1.025036 0.147058 -0.613930
-0.910781 0.074201 0.174429
-4.925490 1.128964 0.399706
-5.074650 1.128467 0.399780
-5.074786 1.211790 0.400299
-4.925694 1.212287 0.400182
2.009436 -0.069941 -0.585040
1.875332 -0.116407 -0.612882
1.855676 -0.119840 -0.514904
1.990777 -0.073029 -0.486855
1.875332 -0.116407 -0.612882
1.739810 -0.164403 -0.642229
1.719718 -0.167990 -0.544344
1.855676 -0.119840 -0.514904
0.493688 -0.425076 0.056603
0.491139 -0.508345 0.054909
0.354597 -0.498471 0.047261
0.363702 -0.415671 0.049326
0.397404 -0.399455 -0.749720
0.243886 -0.376249 -0.753279
0.228375 -0.458087 -0.755495
0.388299 -0.482255 -0.751784
0.354597 -0.498471 0.047261
0.218908 -0.477942 0.044123
0.486380 -0.426882 0.156310
0.359489 -0.417698 0.149206
1.739810 -0.164403 -0.642229
1.602535 -0.212252 -0.672246
1.822850 -0.100823 0.396812
1.972605 -0.052277 0.425482
1.989587 -0.049730 0.326978
1.841509 -0.097735 0.298626
-4.777039 1.133715 -0.400310
-4.926018 1.133530 -0.400200
-2.852567 1.166258 0.408175
-2.706628 1.163769 0.413608
-2.674656 1.160653 -0.385667
-2.825908 1.163308 -0.391296
2.806031 -0.009876 0.398866
2.812027 -0.009838 -0.401031
2.669786 -0.013142 -0.402956
2.650727 -0.013532 0.396737
1.602535 -0.212252 -0.672247
1.463020 -0.258499 -0.702272
1.443413 -0.261928 -0.604284
1.582469 -0.215831 -0.574356
0.552153 -0.410631 -0.741046
0.397404 -0.399455 -0.749720
0.388299 -0.482255 -0.751784
0.549604 -0.493899 -0.742741
2.280635 -0.071738 -0.437104
2.149541 -0.109090 -0.458965
1.463020 -0.258499 -0.702272
1.320737 -0.301641 -0.731638
1.302027 -0.304800 -0.633465
1.443413 -0.261928 -0.604284
-0.140080 -0.285815 0.161057
-0.146620 -0.281035 0.061395
-0.270282 -0.225349 0.073855
-0.261783 -0.231002 0.173323
-2.978303 1.161780 -0.395713
-3.130575 1.158367 -0.398755
0.359489 -0.417698 0.149206
0.363702 -0.415671 0.049325
0.234419 -0.396103 0.046338
0.233236 -0.398585 0.146291
1.320737 -0.301641 -0.731638
1.175163 -0.340049 -0.759628
1.157821 -0.342851 -0.661194
1.302027 -0.304800 -0.633465
-2.527548 1.149823 -0.379665
-2.517923 1.232590 -0.379601
-2.671294 1.243910 -0.385857
-2.674656 1.160653 -0.385667
2.322362 -0.050607 0.375137
2.486649 -0.025403 0.389821
2.538117 -0.022550 -0.408437
2.410432 -0.042184 -0.419875
-2.558073 1.152756 0.419667
-2.706627 1.163769 0.413608
-2.703266 1.247026 0.413418
-2.548448 1.235523 0.419731
1.175163 -0.340049 -0.759628
1.025898 -0.371881 -0.785430
1.010433 -0.374287 -0.686673
1.157821 -0.342851 -0.661194
0.243886 -0.376249 -0.753279
0.092790 -0.341687 -0.751902
1.324492 -0.385022 -0.631766
1.177035 -0.423924 -0.660116
0.234419 -0.396103 0.046338
0.106091 -0.366732 0.047515
1.025898 -0.371881 -0.785430
0.872966 -0.395099 -0.808116
0.859877 -0.397149 -0.709008
1.010433 -0.374287 -0.686673
2.650727 -0.013532 0.396737
2.669786 -0.013142 -0.402956
2.538117 -0.022550 -0.408437
2.486649 -0.025403 0.389821
-5.522019 1.127685 0.399876
-5.671113 1.127582 0.399884
-5.671128 1.210904 0.400503
-5.522048 1.211008 0.400480
-5.223845 1.210765 0.500371
-5.223876 1.211430 0.400383
-5.372964 1.211181 0.400441
-5.372945 1.210481 0.500429
-0.381898 -0.169290 0.188529
-0.392062 -0.162788 0.089269
-0.512023 -0.094374 0.107183
-0.500458 -0.101675 0.206233
0.872966 -0.395099 -0.808116
0.717078 -0.407848 -0.826788
0.706757 -0.409673 -0.727349
0.859877 -0.397149 -0.709008
-0.975654 0.214166 -0.614885
-1.093459 0.303220 -0.589080
-1.144238 0.237168 -0.587819
-1.025036 0.147058 -0.613930
-5.522038 1.210283 0.500467
-5.671123 1.210161 0.500490
-4.628493 1.217365 -0.400094
-4.777334 1.217038 -0.399886
0.717078 -0.407848 -0.826788
0.559461 -0.408825 -0.840752
0.552153 -0.410631 -0.741046
0.706757 -0.409673 -0.727349
-1.656435 0.765534 -0.458055
-1.767096 0.856782 -0.434327
-1.819371 0.791915 -0.432700
-1.709522 0.701334 -0.456256
3.703333 -0.008006 0.399956
3.703367 -0.008006 -0.399964
3.554320 -0.008020 -0.399972
3.554238 -0.008020 0.399948
0.559461 -0.408825 -0.840753
0.401617 -0.397428 -0.849600
-1.767096 0.856782 -0.434327
-1.878535 0.945071 -0.412883
3.703327 0.075319 0.399956
3.554223 0.075305 0.399948
3.852429 -0.008001 -0.399961
3.703367 -0.008006 -0.399964
2.295608 0.030159 0.473636
2.471013 0.057055 0.489305
2.477447 0.057411 0.389523
2.306617 0.031212 0.374260
0.401617 -0.397428 -0.849600
0.245070 -0.373767 -0.853231
-0.512023 -0.094374 0.107183
-0.554907 -0.165815 0.106924
-0.675584 -0.090221 0.127620
-0.630091 -0.020411 0.127432
4.001496 -0.008000 -0.399960
4.158156 -0.007999 -0.399960
0.245070 -0.373767 -0.853232
0.091127 -0.338556 -0.851829
2.149541 -0.109090 -0.458965
2.016961 -0.152094 -0.484366
3.703322 0.075319 0.499946
3.554213 0.075305 0.499938
0.091127 -0.338556 -0.851830
-0.059262 -0.292907 -0.845784
-0.055012 -0.296824 -0.745961
0.092789 -0.341687 -0.751902
2.013685 -0.129466 0.329071
2.164962 -0.086401 0.354273
3.554238 -0.008020 0.399948
3.554320 -0.008020 -0.399972
3.405298 -0.008052 -0.399991
3.405118 -0.008052 0.399929
3.554213 0.075305 0.499938
3.554223 0.075305 0.399948
3.405087 0.075273 0.399929
3.405064 0.075273 0.499919
-1.646196 0.781633 0.454253
-1.770363 0.879978 0.478128
-0.059262 -0.292907 -0.845784
-0.205484 -0.238016 -0.835556
-0.198944 -0.242796 -0.735895
-0.055012 -0.296824 -0.745961
-5.820203 1.210097 0.500501
-5.975930 1.210060 0.500508
3.405064 0.075273 0.499919
3.405087 0.075273 0.399929
3.255865 0.075193 0.399883
3.255815 0.075193 0.499873
-0.675584 -0.090221 0.127620
-0.777236 -0.026102 -0.663220
-0.902820 0.059114 -0.639172
-0.794024 -0.009824 0.150311
-0.205484 -0.238016 -0.835556
-0.346779 -0.174470 -0.821353
-0.338280 -0.180123 -0.721885
-0.198944 -0.242796 -0.735895
-5.372945 1.210481 0.500429
-5.372964 1.211181 0.400441
-5.522048 1.211008 0.400480
-5.522038 1.210283 0.500467
-5.820199 1.127528 0.399887
-5.671113 1.127582 0.399884
-5.671157 1.133525 -0.400014
-5.820218 1.133552 -0.400011
-1.073357 0.306986 0.322720
-1.088407 0.316681 0.224346
-1.201074 0.408199 0.250785
-1.185908 0.398410 0.349133
-0.346779 -0.174470 -0.821353
-0.483542 -0.104265 -0.804064
-5.671172 1.216848 -0.399395
-5.820224 1.216874 -0.399383
-5.522105 1.133486 -0.400023
-5.671157 1.133525 -0.400014
-0.861400 0.141310 0.173474
-0.910782 0.074201 0.174429
-1.026115 0.161391 0.199694
-0.975335 0.227443 0.198433
-0.483542 -0.104265 -0.804064
-0.616106 -0.028665 -0.784269
-0.604541 -0.035966 -0.685219
-0.473378 -0.110768 -0.704805
-2.552264 1.235889 0.519647
-2.387167 1.207077 0.524797
-2.385268 1.207081 0.424825
-2.548448 1.235523 0.419731
-5.373116 1.216774 -0.399460
-5.522134 1.216808 -0.399419
-5.075152 1.216772 -0.399606
-5.224118 1.216754 -0.399519
-5.224031 1.133431 -0.400074
-5.075016 1.133449 -0.400125
-0.616106 -0.028665 -0.784270
-0.744450 0.051723 -0.762263
-0.731744 0.043708 -0.663408
-0.604541 -0.035966 -0.685219
0.869679 -0.479894 -0.709424
0.710617 -0.492901 -0.728475
-1.093459 0.303220 -0.589080
-1.208810 0.394249 -0.562648
-1.260649 0.329030 -0.561145
-1.144238 0.237168 -0.587819
0.233236 -0.398585 0.146291
0.107754 -0.369863 0.147442
-0.744450 0.051723 -0.762263
-0.868789 0.136098 -0.738451
-0.855190 0.127480 -0.639766
-0.731744 0.043708 -0.663408
-1.960571 0.914665 0.400815
-2.098845 1.002264 0.416246
-1.991785 1.028245 -0.394761
-2.108861 1.102443 -0.381676
-2.150034 1.030001 -0.381553
-2.039039 0.959619 -0.393977
-0.868789 0.136098 -0.738452
-0.989936 0.223273 -0.713429
-0.975654 0.214166 -0.614885
-0.855190 0.127480 -0.639766
-0.777236 -0.026102 -0.663220
-0.647425 -0.107408 -0.685478
-0.630092 -0.020411 0.127432
-0.746394 0.058542 0.149717
-0.989936 0.223273 -0.713430
-1.108224 0.312692 -0.687519
1.725576 -0.226037 0.271615
1.867692 -0.176800 0.301115
2.016961 -0.152094 -0.484366
1.882827 -0.198571 -0.512215
1.678769 -0.150739 0.366906
1.822850 -0.100823 0.396811
1.841509 -0.097735 0.298626
1.698425 -0.147306 0.268927
2.647319 0.069723 0.396696
2.477447 0.057411 0.389523
-1.108224 0.312692 -0.687519
-1.223860 0.403945 -0.661022
-2.671294 1.243910 -0.385857
-2.825850 1.246632 -0.391601
-2.997857 1.164636 0.403963
-2.852567 1.166258 0.408174
-2.825908 1.163308 -0.391296
-2.978303 1.161780 -0.395713
-2.852509 1.249582 0.407869
-2.703266 1.247026 0.413418
-1.223860 0.403945 -0.661022
-1.337566 0.496300 -0.634340
-1.322400 0.486511 -0.535993
-1.208810 0.394249 -0.562648
-2.979826 1.245090 -0.396048
-3.132743 1.241663 -0.399077
0.084555 -0.447197 0.045352
-0.048041 -0.406954 0.050681
0.071254 -0.422152 -0.754065
-0.082041 -0.375619 -0.747902
-3.289716 1.156893 0.399231
-3.282287 1.154342 -0.400651
-3.433273 1.150310 -0.401644
-3.436759 1.152513 0.398266
-1.337566 0.496300 -0.634340
-1.449715 0.589269 -0.607782
-1.434609 0.579530 -0.509421
-1.322400 0.486511 -0.535993
-0.513151 -0.183984 -0.705528
-0.647425 -0.107408 -0.685478
-1.449715 0.589269 -0.607782
-1.560644 0.682295 -0.581711
-1.366884 0.437449 0.279275
-1.480371 0.532621 0.305946
0.549604 -0.493899 -0.742741
0.710617 -0.492901 -0.728475
-1.560644 0.682295 -0.581711
-1.670754 0.774613 -0.556597
-1.656435 0.765534 -0.458055
-1.545802 0.672777 -0.483288
-1.709522 0.701334 -0.456256
-1.599111 0.608763 -0.481439
-0.500458 -0.101675 0.206233
-0.617385 -0.028426 0.226287
-1.375021 0.421925 -0.534307
-1.260649 0.329030 -0.561145
-1.670754 0.774613 -0.556597
-1.780529 0.865132 -0.533058
-4.926018 1.133530 -0.400201
-5.075016 1.133449 -0.400125
-1.427062 0.596635 0.304097
-1.480371 0.532621 0.305946
-1.594974 0.628703 0.332081
-1.541887 0.692903 0.330282
0.764968 -0.496287 0.083444
0.901703 -0.475501 0.103738
1.025421 -0.456252 -0.686323
0.869679 -0.479894 -0.709424
-1.780530 0.865132 -0.533058
-1.890554 0.952303 -0.511884
-1.890554 0.952303 -0.511884
-2.001593 1.033864 -0.494110
-1.991784 1.028245 -0.394761
-1.878535 0.945071 -0.412883
-0.374419 -0.255193 -0.723064
-0.230861 -0.319749 -0.737491
-3.284639 1.237633 -0.400938
-3.435578 1.233603 -0.401883
2.956262 0.074585 0.499518
2.804209 0.073437 0.498850
-0.178538 -0.357988 0.059799
-0.306422 -0.300419 0.072677
-2.001593 1.033864 -0.494110
-2.115260 1.105910 -0.481401
-1.541887 0.692903 0.330282
-1.594974 0.628703 0.332081
-1.711905 0.725116 0.357149
-1.659629 0.789983 0.355522
-2.707262 1.247416 0.513327
-2.552264 1.235889 0.519647
-0.617385 -0.028426 0.226287
-0.732794 0.049925 0.248402
-2.115260 1.105910 -0.481401
-2.235369 1.164781 -0.474909
-2.233382 1.163484 -0.374947
-2.108861 1.102443 -0.381676
-0.431836 -0.236004 0.088546
-0.554907 -0.165815 0.106924
3.852429 -0.008001 -0.399961
4.001496 -0.008000 -0.399960
-2.235369 1.164781 -0.474909
-2.368178 1.207117 -0.474923
-4.478308 1.214738 0.499542
-4.478464 1.215091 0.399552
-4.627522 1.213875 0.399818
-4.627401 1.213439 0.499807
4.001492 -0.008000 0.399960
3.852415 -0.008001 0.399959
4.001490 0.075326 0.499950
4.001491 0.075325 0.399960
3.852413 0.075324 0.399959
3.852411 0.075324 0.499949
4.300335 0.075326 -0.499950
4.158156 0.075326 -0.499950
4.158156 0.075326 -0.399960
4.300335 0.075326 -0.399960
-2.368178 1.207117 -0.474923
-2.514107 1.232224 -0.479518
-2.517923 1.232590 -0.379601
-2.370077 1.207113 -0.374951
1.867692 -0.176800 0.301115
2.013685 -0.129466 0.329071
4.158154 -0.007999 0.399960
4.001492 -0.008000 0.399960
-2.514107 1.232224 -0.479518
-2.667298 1.243521 -0.485766
4.158154 0.075326 0.499950
4.158154 0.075326 0.399960
4.001491 0.075325 0.399960
4.001490 0.075326 0.499950
-2.667298 1.243521 -0.485766
-2.822517 1.246264 -0.491535
-2.822517 1.246264 -0.491535
-2.977381 1.244733 -0.496008
-2.979826 1.245090 -0.396048
-2.825850 1.246632 -0.391601
-1.782382 0.887211 0.379126
-1.832921 0.820975 0.380423
-1.960571 0.914665 0.400815
-1.913317 0.983291 0.400031
2.410432 -0.042184 -0.419876
2.280635 -0.071738 -0.437104
-2.977381 1.244733 -0.496008
-3.131133 1.241319 -0.499053
-2.387166 1.207076 0.524797
-2.215496 1.151805 0.524709
-2.217483 1.153103 0.424748
-2.385267 1.207080 0.424825
1.152352 -0.330075 0.151921
1.286558 -0.289359 0.179627
-3.131133 1.241319 -0.499053
-3.283711 1.237314 -0.500923
-3.284640 1.237633 -0.400938
-3.132743 1.241663 -0.399077
-1.770363 0.879978 0.478127
-1.903508 0.977671 0.499380
0.755165 -0.413542 0.083860
0.886715 -0.393536 0.103388
-3.283710 1.237314 -0.500923
-3.435142 1.233327 -0.501872
0.613875 -0.426095 0.167604
0.486380 -0.426882 0.156310
-3.435142 1.233327 -0.501872
-3.585604 1.229656 -0.502184
2.129856 -0.007521 0.451672
2.295608 0.030159 0.473636
2.306617 0.031212 0.374260
2.144315 -0.005688 0.352750
-4.627401 1.213439 0.499807
-4.627522 1.213875 0.399818
-4.776604 1.212971 0.400023
-4.776512 1.212463 0.500012
-3.436759 1.152513 0.398266
-3.584517 1.148267 0.397903
-3.585604 1.229656 -0.502184
-3.735380 1.226446 -0.502117
-3.735303 1.226578 -0.402127
-3.585721 1.229868 -0.402194
-2.558073 1.152756 0.419667
-2.404829 1.126085 0.424450
-2.389638 1.126117 -0.375326
-2.527548 1.149823 -0.379665
-3.143459 1.161119 0.401056
-3.289717 1.156893 0.399231
2.322362 -0.050607 0.375137
2.164962 -0.086401 0.354273
-3.735380 1.226446 -0.502117
-3.884669 1.223782 -0.501833
-1.527568 0.683824 0.428824
-1.646196 0.781633 0.454253
-3.884669 1.223782 -0.501834
-4.033635 1.221684 -0.501451
-4.033419 1.221622 -0.401461
-3.884490 1.223821 -0.401844
-2.039039 0.959619 -0.393977
-1.929074 0.878835 -0.411586
1.038296 -0.446341 0.127361
1.174817 -0.410296 0.153620
1.001739 -0.368071 0.224718
1.133643 -0.333234 0.250094
1.152352 -0.330075 0.151921
1.019081 -0.365269 0.126284
-4.033635 1.221684 -0.501451
-4.182422 1.220109 -0.501047
-4.182209 1.219945 -0.401058
-4.033419 1.221622 -0.401461
-2.098846 1.002264 0.416246
-2.150034 1.030001 -0.381553
-2.264786 1.086304 -0.375324
-2.248887 1.075923 0.424370
2.804209 0.073437 0.498849
2.804959 0.073442 0.398862
2.647319 0.069723 0.396696
2.644936 0.069674 0.496658
-4.182422 1.220109 -0.501047
-4.331139 1.218995 -0.500672
-4.330951 1.218733 -0.400682
-4.182209 1.219945 -0.401058
-0.306422 -0.300419 0.072677
-0.431835 -0.236004 0.088546
1.177035 -0.423924 -0.660116
1.025421 -0.456252 -0.686322
-2.999379 1.247947 0.403628
-2.852509 1.249582 0.407869
-4.331139 1.218995 -0.500672
-4.479860 1.218272 -0.500351
-0.975335 0.227443 0.198433
-1.026115 0.161391 0.199694
-1.140246 0.251462 0.225849
-1.088407 0.316681 0.224346
1.989587 -0.049730 0.326978
2.144315 -0.005689 0.352750
4.158154 0.075326 0.499950
4.300335 0.075326 0.499950
4.300335 0.075326 0.399960
4.158154 0.075326 0.399960
-4.479860 1.218272 -0.500351
-4.628615 1.217801 -0.500083
-4.628493 1.217365 -0.400094
-4.479705 1.217918 -0.400362
-2.404829 1.126085 0.424450
-2.248887 1.075923 0.424370
-3.001823 1.248304 0.503587
-2.855841 1.249951 0.507803
3.255938 -0.008132 0.399883
3.256342 -0.008131 -0.400037
3.107518 -0.008300 -0.400135
3.106634 -0.008301 0.399784
-4.628615 1.217801 -0.500083
-4.777425 1.217547 -0.499875
-1.185908 0.398410 0.349132
-1.298654 0.491879 0.375832
3.255815 0.075193 0.499873
3.255865 0.075193 0.399883
3.106477 0.075024 0.399784
3.106366 0.075024 0.499774
1.972605 -0.052277 0.425482
2.129856 -0.007521 0.451672
-3.001824 1.248304 0.503587
-3.147237 1.244759 0.500711
-3.732794 1.144328 0.397900
-3.881454 1.140819 0.398104
-3.883059 1.224129 0.398075
-3.734686 1.227631 0.397792
-4.925627 1.211717 0.500170
-5.074740 1.211167 0.500287
1.401875 -0.248046 0.306658
1.538897 -0.200277 0.336621
-4.777425 1.217547 -0.499875
-4.926286 1.217424 -0.499713
-4.926220 1.216853 -0.399725
-4.777334 1.217038 -0.399886
-5.522134 1.216808 -0.399419
-5.671172 1.216848 -0.399395
1.038296 -0.446341 0.127361
0.901703 -0.475501 0.103738
-1.140246 0.251462 0.225849
-1.253695 0.343613 0.252471
-5.372911 1.127858 0.399859
-5.223789 1.128107 0.399828
-5.224031 1.133431 -0.400074
-5.373063 1.133451 -0.400042
3.107518 -0.008300 -0.400135
2.959126 -0.008734 -0.400388
-4.926286 1.217424 -0.499713
-5.075198 1.217395 -0.499594
-5.075152 1.216772 -0.399606
-4.926220 1.216853 -0.399725
-3.734609 1.227763 0.497782
-3.882880 1.224167 0.498065
-5.224118 1.216754 -0.399519
-5.373116 1.216774 -0.399460
-5.074740 1.211167 0.500287
-5.074786 1.211790 0.400299
-5.223876 1.211430 0.400383
-5.223845 1.210765 0.500371
-5.075198 1.217395 -0.499594
-5.224148 1.217420 -0.499507
-3.282288 1.154342 -0.400651
-3.130575 1.158367 -0.398755
-1.375021 0.421925 -0.534307
-1.487733 0.515361 -0.507616
-5.224148 1.217420 -0.499507
-5.373135 1.217473 -0.499447
1.558988 -0.196689 0.238736
1.698425 -0.147306 0.268927
-0.960570 0.217971 0.296872
-1.073357 0.306986 0.322720
-4.776512 1.212463 0.500012
-4.925627 1.211717 0.500171
-5.373135 1.217473 -0.499447
-5.522145 1.217533 -0.499406
-3.439064 1.235806 0.398026
-3.292068 1.240184 0.398943
-3.439500 1.236081 0.498015
-3.439064 1.235806 0.398026
-3.586653 1.231565 0.397724
-3.586770 1.231777 0.497713
2.644936 0.069674 0.496658
2.471013 0.057055 0.489306
-5.522145 1.217533 -0.499406
-5.671178 1.217591 -0.499382
1.538897 -0.200277 0.336621
1.678769 -0.150739 0.366905
3.106366 0.075024 0.499774
2.956262 0.074585 0.499518
-4.030382 1.137813 0.398403
-4.032113 1.138307 -0.401515
-4.181185 1.136626 -0.401196
-4.179477 1.135316 0.398721
-5.671178 1.217591 -0.499382
-5.820227 1.217627 -0.499370
-4.329253 1.216372 0.499223
-4.478308 1.214738 0.499542
0.742076 -0.415591 0.182969
0.871250 -0.395942 0.202145
-3.733411 1.143275 -0.402019
-3.583584 1.146571 -0.402015
-4.032113 1.138307 -0.401515
-3.882885 1.140511 -0.401815
-3.292997 1.240503 0.498928
-3.439500 1.236081 0.498015
-4.180287 1.218471 0.498849
-4.180501 1.218635 0.398860
-4.329442 1.216635 0.399234
-4.329253 1.216372 0.499223
-5.820227 1.217627 -0.499370
-5.975932 1.217655 -0.499364
1.133643 -0.333234 0.250094
1.266951 -0.292788 0.277616
-4.330173 1.135412 -0.400902
-4.181185 1.136626 -0.401196
-4.031471 1.221065 0.498447
-4.031688 1.221127 0.398457
-4.180501 1.218635 0.398860
-4.180287 1.218471 0.498849
-4.328664 1.133314 0.399014
-4.179477 1.135316 0.398721
-1.412219 0.587117 0.402520
-1.527568 0.683824 0.428824
-3.882880 1.224167 0.498065
-4.031471 1.221066 0.498447
-0.847118 0.132203 0.272019
-0.960570 0.217971 0.296872
-2.855841 1.249951 0.507803
-2.707263 1.247416 0.513327
-5.074650 1.128467 0.399780
-5.223789 1.128107 0.399829
4 0 1 2 3
4 4 5 6 7
4 8 9 10 11
4 12 13 14 15
4 16 17 18 19
4 20 21 22 23
4 24 25 26 27
4 28 29 30 31
4 32 33 34 35
4 36 37 38 39
4 40 41 42 43
4 44 45 46 47
4 48 49 50 51
4 52 53 54 55
4 56 57 58 59
4 60 61 62 63
4 64 65 66 67
4 68 69 70 71
4 72 73 74 75
4 76 77 78 79
4 80 81 82 83
4 84 85 86 87
4 88 89 90 91
4 92 93 94 95
4 96 97 98 99
4 100 101 102 103
4 104 105 106 107
4 108 109 110 111
4 112 113 114 115
4 116 117 118 119
4 120 67 66 121
4 122 123 124 125
4 126 127 105 104
4 128 129 130 131
4 132 133 134 135
4 136 137 138 139
4 140 141 142 143
4 144 145 146 147
4 148 149 150 151
4 152 153 154 155
4 156 157 158 159
4 160 161 162 163
4 164 165 166 167
4 168 164 167 169
4 170 171 172 173
4 174 175 176 177
4 178 179 155 154
4 180 181 182 183
4 184 185 186 187
4 188 189 190 191
4 192 193 194 195
4 196 197 198 199
4 200 201 202 203
4 201 204 205 202
4 206 207 208 209
4 210 211 212 213
4 214 215 216 217
4 218 219 220 221
4 222 223 224 225
4 226 227 228 229
4 230 231 232 233
4 234 235 236 237
4 238 239 240 241
4 242 243 244 245
4 93 107 106 94
4 29 28 233 232
4 246 247 248 249
4 250 251 252 253
4 254 255 256 257
4 258 257 256 259
4 260 250 253 261
4 262 263 98 97
4 264 265 266 267
4 149 148 268 269
4 270 271 272 273
4 274 275 276 277
4 278 279 280 281
4 282 283 284 285
4 251 285 284 252
4 286 213 212 287
4 288 289 290 291
4 292 293 294 295
4 48 296 297 49
4 298 299 300 301
4 302 303 304 305
4 306 307 308 309
4 310 311 312 313
4 314 315 316 317
4 318 319 320 321
4 322 323 190 189
4 324 305 304 325
4 326 188 191 327
4 328 329 330 331
4 332 333 334 335
4 336 337 338 339
4 340 341 342 343
4 344 345 346 347
4 348 349 350 351
4 352 353 354 355
4 356 339 338 357
4 358 359 47 46
4 360 361 362 363
4 364 365 366 367
4 368 369 370 371
4 372 373 283 282
4 374 375 166 165
4 376 368 371 377
4 204 378 379 205
4 380 381 382 383
4 384 385 255 254
4 386 387 388 389
4 3 2 390 391
4 161 160 173 172
4 392 393 323 322
4 394 225 224 395
4 23 22 379 378
4 396 376 377 397
4 398 399 400 401
4 402 403 286 287
4 404 405 406 407
4 408 409 410 411
4 412 168 169 413
4 414 415 416 417
4 418 214 217 419
4 420 421 422 423
4 424 425 426 427
4 428 429 430 431
4 432 433 434 435
4 436 437 438 439
4 440 441 442 443
4 444 445 141 140
4 446 447 439 438
4 337 336 448 449
4 450 451 452 453
4 454 455 456 457
4 458 459 460 461
4 462 463 229 228
4 464 465 466 467
4 468 469 470 471
4 179 178 472 473
4 474 475 476 477
4 478 326 327 479
4 480 481 482 483
4 113 484 485 114
4 486 487 488 489
4 147 146 276 275
4 490 491 492 493
4 471 470 494 495
4 162 417 416 163
4 496 424 427 497
4 498 499 353 352
4 159 158 334 333
4 500 501 502 503
4 504 505 506 507
4 508 332 335 509
4 510 511 475 474
4 272 512 513 273
4 514 515 516 517
4 86 291 290 87
4 271 270 518 519
4 520 521 522 523
4 296 524 525 297
4 526 527 139 138
4 528 401 400 529
4 530 531 532 533
4 534 535 536 537
4 538 457 456 539
4 483 482 426 425
4 540 541 25 24
4 542 27 26 543
4 197 234 237 198
4 363 362 544 545
4 546 547 548 549
4 549 548 550 551
4 552 386 389 553
4 523 522 554 555
4 54 249 248 55
4 556 557 365 364
4 239 238 558 559
4 560 561 562 563
4 564 565 566 567
4 568 569 375 374
4 311 310 383 382
4 299 258 259 300
4 117 545 544 118
4 312 177 176 313
4 570 571 572 573
4 431 430 574 575
4 576 577 532 531
4 578 92 95 579
4 293 580 581 294
4 582 583 487 486
4 584 585 586 587
4 588 589 317 316
4 590 496 497 591
4 592 593 594 595
4 596 597 346 345
4 11 10 598 599
4 472 351 350 473
4 600 601 130 129
4 602 603 604 605
4 606 599 598 607
4 608 609 610 611
4 612 613 614 615
4 616 617 618 619
4 620 621 394 395
4 622 391 390 623
4 624 625 308 307
4 626 627 628 629
4 609 606 607 610
4 207 206 604 603
4 630 631 513 512
4 43 42 370 369
4 632 633 634 635
4 516 635 634 517
4 636 637 638 639
4 640 195 194 641
4 642 643 525 524
4 644 645 646 647
4 596 538 539 597
4 85 84 648 649
4 650 651 652 653
4 654 636 639 655
4 493 492 236 235
4 565 564 656 657
4 658 659 577 576
4 580 575 574 581
4 527 526 528 529
4 660 116 119 661
4 662 663 61 60
4 664 665 666 667
4 668 669 670 671
4 672 63 62 673
4 566 331 330 567
4 674 675 676 677
4 227 226 434 433
4 678 679 680 681
4 682 683 34 33
4 684 685 667 666
4 686 687 37 36
4 387 495 494 388
4 688 584 587 689
4 621 620 267 266
4 690 691 692 693
4 573 572 694 695
4 696 697 324 325
4 698 699 700 701
4 702 703 704 705
4 637 695 694 638
4 706 707 708 709
4 710 711 712 713
4 714 715 716 717
4 133 718 719 134
4 720 321 320 721
4 515 514 722 723
4 585 367 366 586
4 724 725 5 4
4 726 727 728 729
4 403 402 730 731
4 685 684 640 641
4 3 391 622 627
4 732 733 734 735
4 627 622 623 628
4 736 737 738 739
4 436 439 447 186
4 734 615 614 735
4 679 678 461 460
4 740 741 128 131
4 742 743 723 722
4 75 74 182 181
4 59 58 406 405
4 744 745 746 747
4 748 749 359 358
4 750 122 125 751
4 752 753 754 755
4 697 696 701 700
4 756 757 731 730
4 758 51 50 759
4 760 761 762 763
4 409 404 407 410
4 764 241 240 765
4 766 767 83 82
4 768 769 770 771
4 772 773 449 448
4 421 180 183 422
4 774 775 103 102
4 760 39 38 761
4 501 500 507 506
4 776 555 554 777
4 778 779 780 781
4 77 782 783 78
4 784 785 786 787
4 437 436 186 185
4 30 281 280 31
4 753 744 747 754
4 502 245 244 503
4 91 90 746 745
4 779 778 342 341
4 788 763 762 789
4 790 791 781 780
4 792 793 794 795
4 796 797 465 464
4 653 652 798 799
4 595 594 708 707
4 787 786 559 558
4 69 542 543 70
4 111 110 783 782
4 123 800 801 124
4 802 803 791 790
4 53 52 804 805
4 806 726 729 807
4 718 143 142 719
4 441 776 777 442
4 315 314 306 309
4 808 151 150 809
4 727 477 476 728
4 810 811 463 462
4 530 533 812 813
4 814 815 816 817
4 818 508 509 819
4 484 489 488 485
4 711 274 277 712
4 680 619 618 681
4 81 80 96 99
4 45 44 670 669
4 13 12 7 6
4 820 821 773 772
4 822 823 805 804
4 824 76 79 825
4 775 774 720 721
4 741 740 647 646
4 672 673 816 815
4 826 827 828 829
4 739 738 209 208
4 830 831 447 446
4 832 15 14 833
4 682 799 798 683
4 834 835 657 656
4 219 706 709 220
4 677 676 836 837
4 693 692 838 839
4 840 813 812 841
4 842 843 844 845
4 846 847 216 215
4 16 839 838 17
4 537 536 801 800
4 561 551 550 562
4 848 849 649 648
4 64 837 836 65
4 717 716 850 851
4 852 853 854 855
4 856 857 851 850
4 826 829 854 853
4 771 770 269 268
4 858 560 563 859
4 860 19 18 861
4 862 450 453 863
4 705 704 828 827
4 864 865 519 518
4 451 355 354 452
4 866 867 794 793
4 867 866 467 466
4 857 856 844 843
