ply
format ascii 1.0
comment Created by Blender 2.83.0 - www.blender.org, source file: ''
element vertex 134
property float x
property float y
property float z
element face 144
property list uchar uint vertex_indices
end_header
0.000000 -0.965926 0.258819
0.000000 -0.866025 0.500000
-0.250000 -0.866025 0.433013
-0.129409 -0.965926 0.224144
-0.000000 0.965926 0.258819
0.000000 1.000000 0.000000
-0.129409 0.965926 0.224144
0.000000 -0.500000 0.866026
0.000000 -0.258819 0.965926
-0.482963 -0.258819 0.836516
-0.433013 -0.500000 0.750000
0.000000 0.258819 0.965926
0.000000 0.500000 0.866025
-0.433013 0.500000 0.750000
-0.482963 0.258819 0.836516
0.000000 -1.000000 0.000000
0.000000 0.866025 0.500000
-0.250000 0.866025 0.433013
0.000000 -0.707107 0.707107
-0.353553 -0.707107 0.612373
0.000000 0.000000 1.000000
-0.500000 0.000000 0.866025
-0.000000 0.707107 0.707107
-0.353553 0.707107 0.612372
-0.836516 0.258819 0.482963
-0.866025 0.000000 0.500000
-0.433012 0.866025 0.250000
-0.612372 0.707107 0.353554
-0.612372 -0.707107 0.353554
-0.433013 -0.866025 0.250000
-0.836516 -0.258819 0.482963
-0.750000 0.500000 0.433013
-0.224144 -0.965926 0.129410
-0.224144 0.965926 0.129410
-0.750000 -0.500000 0.433013
-0.965926 -0.258819 0.000000
-0.866025 -0.500000 0.000000
-0.866025 0.500000 0.000000
-0.965925 0.258819 0.000000
-0.258819 -0.965926 0.000000
-0.258819 0.965926 0.000000
-0.500000 0.866025 0.000000
-0.707107 -0.707107 0.000000
-1.000000 0.000000 0.000000
-0.707106 0.707107 0.000000
-0.500000 -0.866025 0.000000
-0.866025 0.000000 -0.499999
-0.836516 -0.258819 -0.482962
-0.612372 0.707107 -0.353553
-0.750000 0.500000 -0.433012
-0.433012 -0.866025 -0.250000
-0.224144 -0.965926 -0.129409
-0.224144 0.965926 -0.129409
-0.750000 -0.500000 -0.433012
-0.836516 0.258819 -0.482962
-0.433012 0.866025 -0.249999
-0.612372 -0.707107 -0.353553
-0.433013 -0.500000 -0.749999
-0.353553 -0.707107 -0.612372
-0.482963 0.258819 -0.836516
-0.500000 0.000000 -0.866025
-0.250000 0.866025 -0.433012
-0.353553 0.707107 -0.612372
-0.250000 -0.866025 -0.433012
-0.482963 -0.258819 -0.836516
-0.433012 0.500000 -0.749999
-0.129409 -0.965926 -0.224143
-0.129409 0.965926 -0.224143
-0.000000 0.965926 -0.258818
0.000000 -0.258819 -0.965925
0.000000 -0.500000 -0.866025
0.000000 0.500000 -0.866025
0.000000 0.258819 -0.965925
-0.000000 -0.965926 -0.258819
0.000000 0.866025 -0.499999
0.000000 -0.707107 -0.707106
0.000000 0.000000 -0.999999
0.000000 0.707107 -0.707106
0.000000 -0.866025 -0.499999
0.353553 -0.707107 -0.612372
0.250000 -0.866025 -0.433012
0.500000 0.000000 -0.866025
0.482963 -0.258819 -0.836516
0.353553 0.707107 -0.612372
0.433012 0.500000 -0.749999
0.129409 -0.965926 -0.224143
0.129409 0.965926 -0.224143
0.433013 -0.500000 -0.749999
0.482963 0.258819 -0.836516
0.250000 0.866025 -0.433012
0.224143 0.965926 -0.129409
0.433012 0.866025 -0.249999
0.750000 -0.500000 -0.433012
0.612372 -0.707107 -0.353553
0.836516 0.258819 -0.482962
0.866025 0.000000 -0.499999
0.612372 0.707107 -0.353553
0.433013 -0.866025 -0.249999
0.836516 -0.258819 -0.482962
0.750000 0.500000 -0.433012
0.224144 -0.965926 -0.129409
0.500000 -0.866025 0.000000
0.258819 -0.965926 0.000000
0.258819 0.965926 0.000000
0.965925 -0.258819 0.000000
0.866025 -0.500000 0.000000
0.866025 0.500000 0.000000
0.965925 0.258819 0.000000
0.499999 0.866025 0.000000
0.707107 -0.707107 0.000000
0.999999 0.000000 0.000001
0.707106 0.707107 0.000001
0.433012 0.866025 0.250000
0.612372 0.707107 0.353554
0.612372 -0.707107 0.353554
0.433012 -0.866025 0.250000
0.866025 0.000000 0.500000
0.836516 -0.258819 0.482963
0.749999 0.500000 0.433013
0.224144 -0.965926 0.129410
0.224143 0.965926 0.129410
0.750000 -0.500000 0.433013
0.836516 0.258819 0.482963
0.129409 -0.965926 0.224144
0.129409 0.965926 0.224144
0.250000 0.866025 0.433013
0.433012 -0.500000 0.750000
0.353553 -0.707107 0.612373
0.482963 0.258819 0.836516
0.500000 0.000000 0.866025
0.353553 0.707107 0.612372
0.250000 -0.866025 0.433013
0.482963 -0.258819 0.836516
0.433012 0.500000 0.750000
4 0 1 2 3
3 4 5 6
4 7 8 9 10
4 11 12 13 14
3 15 0 3
4 16 4 6 17
4 18 7 10 19
4 20 11 14 21
4 22 16 17 23
4 1 18 19 2
4 8 20 21 9
4 12 22 23 13
4 21 14 24 25
4 23 17 26 27
4 2 19 28 29
4 9 21 25 30
4 13 23 27 31
4 3 2 29 32
3 6 5 33
4 10 9 30 34
4 14 13 31 24
3 15 3 32
4 17 6 33 26
4 19 10 34 28
4 34 30 35 36
4 24 31 37 38
3 15 32 39
4 26 33 40 41
4 28 34 36 42
4 25 24 38 43
4 27 26 41 44
4 29 28 42 45
4 30 25 43 35
4 31 27 44 37
4 32 29 45 39
3 33 5 40
4 35 43 46 47
4 37 44 48 49
4 39 45 50 51
3 40 5 52
4 36 35 47 53
4 38 37 49 54
3 15 39 51
4 41 40 52 55
4 42 36 53 56
4 43 38 54 46
4 44 41 55 48
4 45 42 56 50
4 56 53 57 58
4 46 54 59 60
4 48 55 61 62
4 50 56 58 63
4 47 46 60 64
4 49 48 62 65
4 51 50 63 66
3 52 5 67
4 53 47 64 57
4 54 49 65 59
3 15 51 66
4 55 52 67 61
3 67 5 68
4 57 64 69 70
4 59 65 71 72
3 15 66 73
4 61 67 68 74
4 58 57 70 75
4 60 59 72 76
4 62 61 74 77
4 63 58 75 78
4 64 60 76 69
4 65 62 77 71
4 66 63 78 73
4 78 75 79 80
4 69 76 81 82
4 71 77 83 84
4 73 78 80 85
3 68 5 86
4 70 69 82 87
4 72 71 84 88
3 15 73 85
4 74 68 86 89
4 75 70 87 79
4 76 72 88 81
4 77 74 89 83
4 89 86 90 91
4 79 87 92 93
4 81 88 94 95
4 83 89 91 96
4 80 79 93 97
4 82 81 95 98
4 84 83 96 99
4 85 80 97 100
3 86 5 90
4 87 82 98 92
4 88 84 99 94
3 15 85 100
4 100 97 101 102
3 90 5 103
4 92 98 104 105
4 94 99 106 107
3 15 100 102
4 91 90 103 108
4 93 92 105 109
4 95 94 107 110
4 96 91 108 111
4 97 93 109 101
4 98 95 110 104
4 99 96 111 106
4 111 108 112 113
4 101 109 114 115
4 104 110 116 117
4 106 111 113 118
4 102 101 115 119
3 103 5 120
4 105 104 117 121
4 107 106 118 122
3 15 102 119
4 108 103 120 112
4 109 105 121 114
4 110 107 122 116
3 15 119 123
4 112 120 124 125
4 114 121 126 127
4 116 122 128 129
4 113 112 125 130
4 115 114 127 131
4 117 116 129 132
4 118 113 130 133
4 119 115 131 123
3 120 5 124
4 121 117 132 126
4 122 118 133 128
4 133 130 22 12
4 123 131 1 0
3 124 5 4
4 126 132 8 7
4 128 133 12 11
3 15 123 0
4 125 124 4 16
4 127 126 7 18
4 129 128 11 20
4 130 125 16 22
4 131 127 18 1
4 132 129 20 8
