ply
format ascii 1.0
comment Created by Blender 2.83.0 - www.blender.org, source file: ''
element vertex 64
property float x
property float y
property float z
element face 36
property list uchar uint vertex_indices
end_header
0.499950 0.146652 0.499950
0.399960 0.000000 0.499950
0.499950 0.000000 0.499950
0.399960 0.063327 0.499950
0.399960 0.146652 0.499950
0.499950 0.000000 0.499950
0.399960 0.000000 -0.499950
0.499950 0.000000 -0.499950
0.399960 0.000000 0.499950
-0.399960 0.000000 -0.499950
-0.399960 0.000000 0.499950
-0.499950 0.000000 -0.499950
-0.499950 0.000000 0.499950
0.499950 0.146652 0.499950
0.499950 0.000000 -0.499950
0.499950 0.146652 -0.499950
0.499950 0.000000 0.499950
-0.499950 0.146652 -0.499950
-0.399960 0.146652 0.499950
-0.399960 0.146652 -0.499950
-0.499950 0.146652 0.499950
-0.499950 0.000000 0.499950
-0.499950 0.146652 -0.499950
-0.499950 0.000000 -0.499950
-0.499950 0.146652 0.499950
-0.499950 0.146652 -0.499950
-0.399960 0.000000 -0.499950
-0.499950 0.000000 -0.499950
-0.399960 0.063327 -0.499950
-0.399960 0.146652 -0.499950
0.399960 0.146652 -0.499950
0.499950 0.146652 0.499950
0.499950 0.146652 -0.499950
0.399960 0.146652 0.499950
0.399960 0.063327 0.499950
0.399960 0.146652 -0.499950
0.399960 0.063327 -0.499950
0.399960 0.146652 0.499950
-0.399960 0.146652 0.499950
-0.399960 0.063327 -0.499950
-0.399960 0.146652 -0.499950
-0.399960 0.063327 0.499950
-0.399960 0.063327 0.499950
-0.499950 0.000000 0.499950
-0.399960 0.000000 0.499950
-0.499950 0.146652 0.499950
-0.399960 0.146652 0.499950
0.399960 0.063327 -0.499950
0.499950 0.000000 -0.499950
0.399960 0.000000 -0.499950
0.499950 0.146652 -0.499950
0.399960 0.146652 -0.499950
-0.399960 0.063327 -0.499950
0.399960 0.063327 0.499950
0.399960 0.063327 -0.499950
-0.399960 0.063327 0.499950
0.399960 0.063327 0.499950
-0.399960 0.000000 0.499950
0.399960 0.000000 0.499950
-0.399960 0.063327 0.499950
-0.399960 0.063327 -0.499950
0.399960 0.000000 -0.499950
-0.399960 0.000000 -0.499950
0.399960 0.063327 -0.499950
3 0 1 2
3 1 0 3
3 3 0 4
3 5 6 7
3 6 5 8
3 6 8 9
3 9 8 10
3 9 10 11
3 11 10 12
3 13 14 15
3 14 13 16
3 17 18 19
3 18 17 20
3 21 22 23
3 22 21 24
3 25 26 27
3 26 25 28
3 28 25 29
3 30 31 32
3 31 30 33
3 34 35 36
3 35 34 37
3 38 39 40
3 39 38 41
3 42 43 44
3 43 42 45
3 45 42 46
3 47 48 49
3 48 47 50
3 50 47 51
3 52 53 54
3 53 52 55
3 56 57 58
3 57 56 59
3 60 61 62
3 61 60 63
