ply
format ascii 1.0
comment Created by Blender 2.83.0 - www.blender.org, source file: ''
element vertex 448
property float x
property float y
property float z
element face 316
property list uchar uint vertex_indices
end_header
-0.473420 -0.619897 -0.000000
-0.619897 -0.473420 -0.066660
-0.473420 -0.619897 -0.066660
-0.619897 -0.473420 -0.000000
0.109858 0.036619 0.000000
0.183096 0.036619 -0.066660
0.183096 0.036619 0.000000
0.109858 0.036619 -0.066660
0.109858 0.036619 -0.033330
-0.473420 -0.619897 -0.000000
-0.036619 -0.183096 -0.066660
-0.036619 -0.183096 0.000000
-0.473420 -0.619897 -0.066660
0.036619 -0.109858 -0.033330
0.109858 -0.036619 -0.066660
0.036619 -0.109858 -0.066660
0.109858 -0.036619 -0.033330
-0.036619 -0.109858 -0.033330
-0.036619 -0.183096 -0.066660
-0.036619 -0.109858 -0.066660
-0.036619 -0.183096 0.000000
-0.036619 -0.109858 0.000000
0.619897 -0.473420 0.000000
0.036619 -0.183096 0.000000
0.473420 -0.619897 0.000000
0.183096 -0.036619 0.000000
0.036619 -0.109858 0.000000
0.109858 -0.036619 0.000000
-0.031713 -0.018310 0.000000
-0.035371 -0.009478 -0.033330
-0.031713 -0.018310 -0.033330
-0.035371 -0.009478 0.000000
-0.035371 -0.009478 -0.066660
-0.031713 -0.018310 -0.066660
-0.183096 0.036619 0.000000
-0.109858 0.036619 -0.033330
-0.109858 0.036619 0.000000
-0.109858 0.036619 -0.066660
-0.183096 0.036619 -0.066660
-0.009478 -0.035371 -0.066660
0.009478 -0.035371 -0.066660
0.000000 -0.036619 -0.066660
-0.018310 -0.031713 -0.066660
0.018310 -0.031713 -0.066660
-0.025894 -0.025894 -0.066660
0.025894 -0.025894 -0.066660
-0.031713 -0.018310 -0.066660
0.031713 -0.018310 -0.066660
-0.035371 -0.009478 -0.066660
0.035371 -0.009478 -0.066660
-0.036619 0.000000 -0.066660
0.036619 0.000000 -0.066660
-0.035371 0.009478 -0.066660
0.035371 0.009478 -0.066660
-0.031713 0.018310 -0.066660
0.031713 0.018310 -0.066660
-0.025894 0.025894 -0.066660
0.025894 0.025894 -0.066660
-0.018310 0.031713 -0.066660
0.018310 0.031713 -0.066660
-0.009478 0.035371 -0.066660
0.009478 0.035371 -0.066660
0.000000 0.036619 -0.066660
-0.025894 -0.025894 0.000000
-0.031713 -0.018310 -0.033330
-0.025894 -0.025894 -0.033330
-0.031713 -0.018310 0.000000
-0.031713 -0.018310 -0.066660
-0.025894 -0.025894 -0.066660
-0.025894 -0.025894 0.000000
-0.018310 -0.031713 -0.033330
-0.018310 -0.031713 0.000000
-0.025894 -0.025894 -0.033330
-0.018310 -0.031713 -0.066660
-0.025894 -0.025894 -0.066660
0.009478 -0.035371 0.000000
0.018310 -0.031713 -0.033330
0.018310 -0.031713 0.000000
0.009478 -0.035371 -0.033330
0.018310 -0.031713 -0.066660
0.009478 -0.035371 -0.066660
0.109858 0.036619 -0.033330
0.036619 0.109858 -0.066660
0.109858 0.036619 -0.066660
0.036619 0.109858 -0.033330
0.473420 -0.619897 -0.066660
0.036619 -0.183096 0.000000
0.036619 -0.183096 -0.066660
0.473420 -0.619897 0.000000
-0.009478 0.035371 -0.033330
0.000000 0.036619 0.000000
0.000000 0.036619 -0.033330
-0.009478 0.035371 0.000000
-0.009478 0.035371 -0.066660
0.000000 0.036619 -0.066660
0.025894 0.025894 0.000000
0.031713 0.018310 -0.033330
0.025894 0.025894 -0.033330
0.031713 0.018310 0.000000
0.031713 0.018310 -0.066660
0.025894 0.025894 -0.066660
-0.018310 0.031713 -0.033330
-0.009478 0.035371 0.000000
-0.009478 0.035371 -0.033330
-0.018310 0.031713 0.000000
-0.018310 0.031713 -0.066660
-0.009478 0.035371 -0.066660
-0.025894 0.025894 -0.033330
-0.018310 0.031713 0.000000
-0.018310 0.031713 -0.033330
-0.025894 0.025894 0.000000
-0.025894 0.025894 -0.066660
-0.018310 0.031713 -0.066660
-0.473420 0.619897 -0.000000
-0.036619 0.183096 -0.066660
-0.473420 0.619897 -0.066660
-0.036619 0.183096 0.000000
0.619897 -0.473420 0.000000
0.473420 -0.619897 -0.066660
0.619897 -0.473420 -0.066660
0.473420 -0.619897 0.000000
-0.619897 0.473420 -0.000000
-0.473420 0.619897 -0.066660
-0.619897 0.473420 -0.066660
-0.473420 0.619897 -0.000000
-0.619897 0.473420 -0.066660
-0.109858 0.036619 -0.066660
-0.183096 0.036619 -0.066660
-0.036619 0.109858 -0.066660
-0.036619 0.183096 -0.066660
-0.473420 0.619897 -0.066660
0.183096 -0.036619 0.000000
0.619897 -0.473420 -0.066660
0.183096 -0.036619 -0.066660
0.619897 -0.473420 0.000000
0.473420 0.619897 0.000000
0.619897 0.473420 -0.066660
0.473420 0.619897 -0.066660
0.619897 0.473420 0.000000
0.036619 -0.183096 -0.066660
0.619897 -0.473420 -0.066660
0.473420 -0.619897 -0.066660
0.183096 -0.036619 -0.066660
0.036619 -0.109858 -0.066660
0.109858 -0.036619 -0.066660
0.035371 0.009478 0.000000
0.036619 0.000000 -0.033330
0.035371 0.009478 -0.033330
0.036619 0.000000 0.000000
0.036619 0.000000 -0.066660
0.035371 0.009478 -0.066660
0.018310 -0.031713 0.000000
0.025894 -0.025894 -0.033330
0.025894 -0.025894 0.000000
0.018310 -0.031713 -0.033330
0.025894 -0.025894 -0.066660
0.018310 -0.031713 -0.066660
-0.036619 -0.183096 0.000000
-0.619897 -0.473420 -0.000000
-0.473420 -0.619897 -0.000000
-0.183096 -0.036619 0.000000
-0.036619 -0.109858 0.000000
-0.109858 -0.036619 0.000000
0.036619 0.183096 -0.066660
0.473420 0.619897 0.000000
0.473420 0.619897 -0.066660
0.036619 0.183096 0.000000
0.009478 -0.035371 0.000000
-0.009478 -0.035371 0.000000
0.000000 -0.036619 0.000000
0.018310 -0.031713 0.000000
-0.018310 -0.031713 0.000000
0.025894 -0.025894 0.000000
-0.025894 -0.025894 0.000000
-0.031713 -0.018310 0.000000
0.031713 -0.018310 0.000000
0.035371 -0.009478 0.000000
-0.035371 -0.009478 0.000000
0.036619 0.000000 0.000000
-0.036619 0.000000 0.000000
0.035371 0.009478 0.000000
-0.035371 0.009478 0.000000
0.031713 0.018310 0.000000
-0.031713 0.018310 0.000000
0.025894 0.025894 0.000000
-0.025894 0.025894 0.000000
0.018310 0.031713 0.000000
-0.018310 0.031713 0.000000
0.009478 0.035371 0.000000
-0.009478 0.035371 0.000000
0.000000 0.036619 0.000000
0.109858 -0.036619 -0.066660
0.183096 -0.036619 0.000000
0.183096 -0.036619 -0.066660
0.109858 -0.036619 0.000000
0.109858 -0.036619 -0.033330
0.036619 0.000000 0.000000
0.035371 -0.009478 -0.033330
0.036619 0.000000 -0.033330
0.035371 -0.009478 0.000000
0.035371 -0.009478 -0.066660
0.036619 0.000000 -0.066660
0.031713 -0.018310 0.000000
0.025894 -0.025894 -0.033330
0.031713 -0.018310 -0.033330
0.025894 -0.025894 0.000000
0.025894 -0.025894 -0.066660
0.031713 -0.018310 -0.066660
-0.036619 0.000000 0.000000
-0.035371 0.009478 -0.033330
-0.036619 0.000000 -0.033330
-0.035371 0.009478 0.000000
-0.035371 0.009478 -0.066660
-0.036619 0.000000 -0.066660
0.000000 -0.036619 0.000000
0.009478 -0.035371 -0.033330
0.009478 -0.035371 0.000000
0.000000 -0.036619 -0.033330
0.009478 -0.035371 -0.066660
0.000000 -0.036619 -0.066660
-0.036619 0.183096 0.000000
-0.036619 0.109858 -0.066660
-0.036619 0.183096 -0.066660
-0.036619 0.109858 -0.033330
-0.036619 0.109858 0.000000
-0.619897 -0.473420 -0.066660
-0.036619 -0.183096 -0.066660
-0.473420 -0.619897 -0.066660
-0.183096 -0.036619 -0.066660
-0.036619 -0.109858 -0.066660
-0.109858 -0.036619 -0.066660
-0.031713 0.018310 0.000000
-0.025894 0.025894 -0.033330
-0.031713 0.018310 -0.033330
-0.025894 0.025894 0.000000
-0.025894 0.025894 -0.066660
-0.031713 0.018310 -0.066660
-0.183096 -0.036619 -0.066660
-0.109858 -0.036619 -0.033330
-0.109858 -0.036619 -0.066660
-0.109858 -0.036619 0.000000
-0.183096 -0.036619 0.000000
0.018310 0.031713 -0.033330
0.025894 0.025894 0.000000
0.025894 0.025894 -0.033330
0.018310 0.031713 0.000000
0.018310 0.031713 -0.066660
0.025894 0.025894 -0.066660
-0.109858 -0.036619 -0.066660
-0.036619 -0.109858 -0.033330
-0.036619 -0.109858 -0.066660
-0.109858 -0.036619 -0.033330
-0.009478 -0.035371 0.000000
0.000000 -0.036619 -0.033330
0.000000 -0.036619 0.000000
-0.009478 -0.035371 -0.033330
0.000000 -0.036619 -0.066660
-0.009478 -0.035371 -0.066660
0.036619 -0.183096 0.000000
0.036619 -0.109858 -0.066660
0.036619 -0.183096 -0.066660
0.036619 -0.109858 -0.033330
0.036619 -0.109858 0.000000
-0.035371 0.009478 0.000000
-0.031713 0.018310 -0.033330
-0.035371 0.009478 -0.033330
-0.031713 0.018310 0.000000
-0.031713 0.018310 -0.066660
-0.035371 0.009478 -0.066660
-0.619897 -0.473420 -0.000000
-0.183096 -0.036619 -0.066660
-0.619897 -0.473420 -0.066660
-0.183096 -0.036619 0.000000
-0.183096 0.036619 -0.066660
-0.619897 0.473420 -0.000000
-0.619897 0.473420 -0.066660
-0.183096 0.036619 0.000000
0.619897 0.473420 0.000000
0.109858 0.036619 0.000000
0.183096 0.036619 0.000000
0.036619 0.109858 0.000000
0.036619 0.183096 0.000000
0.473420 0.619897 0.000000
0.031713 0.018310 0.000000
0.035371 0.009478 -0.033330
0.031713 0.018310 -0.033330
0.035371 0.009478 0.000000
0.035371 0.009478 -0.066660
0.031713 0.018310 -0.066660
0.009478 0.035371 -0.033330
0.018310 0.031713 0.000000
0.018310 0.031713 -0.033330
0.009478 0.035371 0.000000
0.009478 0.035371 -0.066660
0.018310 0.031713 -0.066660
-0.036619 0.109858 0.000000
-0.183096 0.036619 0.000000
-0.109858 0.036619 0.000000
-0.619897 0.473420 -0.000000
-0.036619 0.183096 0.000000
-0.473420 0.619897 -0.000000
-0.018310 -0.031713 0.000000
-0.009478 -0.035371 -0.033330
-0.009478 -0.035371 0.000000
-0.018310 -0.031713 -0.033330
-0.009478 -0.035371 -0.066660
-0.018310 -0.031713 -0.066660
0.036619 0.109858 -0.066660
0.183096 0.036619 -0.066660
0.109858 0.036619 -0.066660
0.619897 0.473420 -0.066660
0.036619 0.183096 -0.066660
0.473420 0.619897 -0.066660
0.035371 -0.009478 0.000000
0.031713 -0.018310 -0.033330
0.035371 -0.009478 -0.033330
0.031713 -0.018310 0.000000
0.031713 -0.018310 -0.066660
0.035371 -0.009478 -0.066660
-0.035371 -0.009478 -0.033330
-0.036619 0.000000 -0.066660
-0.035371 -0.009478 -0.066660
-0.036619 0.000000 -0.033330
-0.035371 -0.009478 0.000000
-0.036619 0.000000 0.000000
0.000000 0.036619 -0.066660
0.009478 0.035371 -0.033330
0.009478 0.035371 -0.066660
0.000000 0.036619 -0.033330
0.009478 0.035371 0.000000
0.000000 0.036619 0.000000
-0.036619 0.109858 -0.033330
-0.109858 0.036619 -0.066660
-0.036619 0.109858 -0.066660
-0.109858 0.036619 -0.033330
0.036619 0.109858 -0.033330
0.036619 0.183096 -0.066660
0.036619 0.109858 -0.066660
0.036619 0.183096 0.000000
0.036619 0.109858 0.000000
0.183096 0.036619 0.000000
0.619897 0.473420 -0.066660
0.619897 0.473420 0.000000
0.183096 0.036619 -0.066660
-0.036619 0.109858 -0.033330
0.000000 0.073238 -0.033330
-0.109858 0.036619 -0.033330
0.109858 0.036619 -0.033330
0.000000 0.036619 -0.033330
-0.009478 0.035371 -0.033330
-0.018310 0.031713 -0.033330
-0.025894 0.025894 -0.033330
-0.031713 0.018310 -0.033330
-0.035371 0.009478 -0.033330
-0.036619 0.000000 -0.033330
-0.073238 0.000000 -0.033330
-0.035371 -0.009478 -0.033330
-0.031713 -0.018310 -0.033330
-0.025894 -0.025894 -0.033330
-0.018310 -0.031713 -0.033330
-0.109858 -0.036619 -0.033330
-0.009478 -0.035371 -0.033330
0.000000 -0.036619 -0.033330
0.000000 -0.073238 -0.033330
-0.036619 -0.109858 -0.033330
0.109858 -0.036619 -0.033330
0.036619 -0.109858 -0.033330
0.009478 -0.035371 -0.033330
0.018310 -0.031713 -0.033330
0.073238 0.000000 -0.033330
0.025894 -0.025894 -0.033330
0.031713 -0.018310 -0.033330
0.035371 -0.009478 -0.033330
0.036619 0.000000 -0.033330
0.035371 0.009478 -0.033330
0.031713 0.018310 -0.033330
0.025894 0.025894 -0.033330
0.018310 0.031713 -0.033330
0.009478 0.035371 -0.033330
0.036619 0.109858 -0.033330
0.000000 0.073238 -0.033330
0.036619 0.109858 0.000000
0.036619 0.109858 -0.033330
0.000000 0.073238 0.000000
0.073238 0.000000 -0.033330
0.109858 -0.036619 0.000000
0.109858 -0.036619 -0.033330
0.073238 0.000000 0.000000
0.109858 -0.036619 0.000000
0.000000 -0.073238 0.000000
0.036619 -0.109858 0.000000
0.000000 -0.036619 0.000000
-0.109858 -0.036619 0.000000
-0.036619 -0.109858 0.000000
-0.009478 -0.035371 0.000000
-0.018310 -0.031713 0.000000
-0.073238 0.000000 0.000000
-0.025894 -0.025894 0.000000
-0.031713 -0.018310 0.000000
-0.035371 -0.009478 0.000000
-0.036619 0.000000 0.000000
-0.035371 0.009478 0.000000
-0.109858 0.036619 0.000000
-0.031713 0.018310 0.000000
-0.025894 0.025894 0.000000
-0.018310 0.031713 0.000000
-0.009478 0.035371 0.000000
0.000000 0.036619 0.000000
0.000000 0.073238 0.000000
0.036619 0.109858 0.000000
0.109858 0.036619 0.000000
0.009478 0.035371 0.000000
0.018310 0.031713 0.000000
0.025894 0.025894 0.000000
0.031713 0.018310 0.000000
0.035371 0.009478 0.000000
0.036619 0.000000 0.000000
0.073238 0.000000 0.000000
0.035371 -0.009478 0.000000
0.031713 -0.018310 0.000000
0.025894 -0.025894 0.000000
0.018310 -0.031713 0.000000
0.009478 -0.035371 0.000000
-0.036619 0.109858 0.000000
-0.109858 -0.036619 -0.033330
-0.073238 0.000000 0.000000
-0.073238 0.000000 -0.033330
-0.109858 -0.036619 0.000000
0.000000 -0.073238 0.000000
-0.036619 -0.109858 -0.033330
0.000000 -0.073238 -0.033330
-0.036619 -0.109858 0.000000
0.109858 0.036619 0.000000
0.073238 0.000000 -0.033330
0.109858 0.036619 -0.033330
0.073238 0.000000 0.000000
-0.073238 0.000000 0.000000
-0.109858 0.036619 -0.033330
-0.073238 0.000000 -0.033330
-0.109858 0.036619 0.000000
-0.036619 0.109858 0.000000
0.000000 0.073238 -0.033330
-0.036619 0.109858 -0.033330
0.000000 0.073238 0.000000
0.036619 -0.109858 0.000000
0.000000 -0.073238 -0.033330
0.036619 -0.109858 -0.033330
0.000000 -0.073238 0.000000
3 0 1 2
3 1 0 3
3 4 5 6
3 5 4 7
3 7 4 8
3 9 10 11
3 10 9 12
3 13 14 15
3 14 13 16
3 17 18 19
3 18 17 20
3 20 17 21
3 22 23 24
3 23 22 25
3 23 25 26
3 26 25 27
3 28 29 30
3 29 28 31
3 32 30 29
3 30 32 33
3 34 35 36
3 35 34 37
3 37 34 38
3 39 40 41
3 40 39 42
3 40 42 43
3 43 42 44
3 43 44 45
3 45 44 46
3 45 46 47
3 47 46 48
3 47 48 49
3 49 48 50
3 49 50 51
3 51 50 52
3 51 52 53
3 53 52 54
3 53 54 55
3 55 54 56
3 55 56 57
3 57 56 58
3 57 58 59
3 59 58 60
3 59 60 61
3 61 60 62
3 63 64 65
3 64 63 66
3 67 65 64
3 65 67 68
3 69 70 71
3 70 69 72
3 72 73 70
3 73 72 74
3 75 76 77
3 76 75 78
3 78 79 76
3 79 78 80
3 81 82 83
3 82 81 84
3 85 86 87
3 86 85 88
3 89 90 91
3 90 89 92
3 91 93 89
3 93 91 94
3 95 96 97
3 96 95 98
3 99 97 96
3 97 99 100
3 101 102 103
3 102 101 104
3 103 105 101
3 105 103 106
3 107 108 109
3 108 107 110
3 109 111 107
3 111 109 112
3 113 114 115
3 114 113 116
3 117 118 119
3 118 117 120
3 121 122 123
3 122 121 124
3 125 126 127
3 126 125 128
3 128 125 129
3 129 125 130
3 131 132 133
3 132 131 134
3 135 136 137
3 136 135 138
3 139 140 141
3 140 139 142
3 142 139 143
3 142 143 144
3 145 146 147
3 146 145 148
3 149 147 146
3 147 149 150
3 151 152 153
3 152 151 154
3 154 155 152
3 155 154 156
3 157 158 159
3 158 157 160
3 160 157 161
3 160 161 162
3 163 164 165
3 164 163 166
3 167 168 169
3 168 167 170
3 168 170 171
3 171 170 172
3 171 172 173
3 173 172 174
3 174 172 175
3 174 175 176
3 174 176 177
3 177 176 178
3 177 178 179
3 179 178 180
3 179 180 181
3 181 180 182
3 181 182 183
3 183 182 184
3 183 184 185
3 185 184 186
3 185 186 187
3 187 186 188
3 187 188 189
3 189 188 190
3 191 192 193
3 192 191 194
3 194 191 195
3 196 197 198
3 197 196 199
3 200 198 197
3 198 200 201
3 202 203 204
3 203 202 205
3 206 204 203
3 204 206 207
3 208 209 210
3 209 208 211
3 212 210 209
3 210 212 213
3 214 215 216
3 215 214 217
3 217 218 215
3 218 217 219
3 220 221 222
3 221 220 223
3 223 220 224
3 225 226 227
3 226 225 228
3 226 228 229
3 229 228 230
3 231 232 233
3 232 231 234
3 235 233 232
3 233 235 236
3 237 238 239
3 238 237 240
3 240 237 241
3 242 243 244
3 243 242 245
3 244 246 242
3 246 244 247
3 248 249 250
3 249 248 251
3 252 253 254
3 253 252 255
3 255 256 253
3 256 255 257
3 258 259 260
3 259 258 261
3 261 258 262
3 263 264 265
3 264 263 266
3 267 265 264
3 265 267 268
3 269 270 271
3 270 269 272
3 273 274 275
3 274 273 276
3 277 278 279
3 278 277 280
3 280 277 281
3 281 277 282
3 283 284 285
3 284 283 286
3 287 285 284
3 285 287 288
3 289 290 291
3 290 289 292
3 291 293 289
3 293 291 294
3 295 296 297
3 296 295 298
3 298 295 299
3 298 299 300
3 301 302 303
3 302 301 304
3 304 305 302
3 305 304 306
3 307 308 309
3 308 307 310
3 310 307 311
3 310 311 312
3 313 314 315
3 314 313 316
3 317 315 314
3 315 317 318
3 319 320 321
3 320 319 322
3 323 322 319
3 322 323 324
3 325 326 327
3 326 325 328
3 328 329 326
3 329 328 330
3 331 332 333
3 332 331 334
3 335 336 337
3 336 335 338
3 338 335 339
3 340 341 342
3 341 340 343
3 344 345 346
3 347 346 345
3 348 346 347
3 349 346 348
3 350 346 349
3 351 346 350
3 352 346 351
3 353 346 352
3 354 346 353
3 354 355 346
3 356 355 354
3 357 355 356
3 358 355 357
3 359 355 358
3 359 360 355
3 361 360 359
3 362 360 361
3 363 360 362
3 360 363 364
3 365 363 362
3 363 365 366
3 365 362 367
3 365 367 368
3 365 368 369
3 369 368 370
3 369 370 371
3 369 371 372
3 369 372 373
3 369 373 374
3 369 374 347
3 347 374 375
3 347 375 376
3 347 376 377
3 347 377 378
3 347 378 348
3 347 345 379
3 380 381 382
3 381 380 383
3 384 385 386
3 385 384 387
3 388 389 390
3 391 389 388
3 392 389 391
3 389 392 393
3 392 391 394
3 392 394 395
3 392 395 396
3 396 395 397
3 396 397 398
3 396 398 399
3 396 399 400
3 396 400 401
3 396 401 402
3 402 401 403
3 402 403 404
3 402 404 405
3 402 405 406
3 402 406 407
3 407 408 402
3 407 409 408
3 407 410 409
3 411 410 407
3 412 410 411
3 413 410 412
3 414 410 413
3 415 410 414
3 416 410 415
3 416 417 410
3 418 417 416
3 419 417 418
3 420 417 419
3 421 417 420
3 421 388 417
3 422 388 421
3 388 422 391
3 423 402 408
3 424 425 426
3 425 424 427
3 428 429 430
3 429 428 431
3 432 433 434
3 433 432 435
3 436 437 438
3 437 436 439
3 440 441 442
3 441 440 443
3 444 445 446
3 445 444 447
