ply
format ascii 1.0
comment Created by Blender 2.83.0 - www.blender.org, source file: ''
element vertex 234
property float x
property float y
property float z
element face 150
property list uchar uint vertex_indices
end_header
0.499950 0.146652 0.499950
0.399960 0.000000 0.499950
0.499950 0.000000 0.499950
0.399960 0.063327 0.499950
0.399960 0.146652 0.499950
0.499950 0.000000 0.499950
0.399960 0.000000 -0.499950
0.499950 0.000000 -0.499950
0.399960 0.000000 0.499950
-0.399960 0.000000 -0.499950
-0.399960 0.000000 0.499950
-0.499950 0.000000 -0.499950
-0.499950 0.000000 0.499950
0.499950 0.146652 0.499950
0.499950 0.000000 -0.499950
0.499950 0.146652 -0.499950
0.499950 0.000000 0.499950
-0.499950 0.000000 0.499950
-0.499950 0.146652 -0.499950
-0.499950 0.000000 -0.499950
-0.499950 0.146652 0.499950
0.399960 0.146652 -0.499950
0.499950 0.146652 0.499950
0.499950 0.146652 -0.499950
0.399960 0.146652 -0.399960
0.399960 0.146652 0.499950
0.399960 0.146652 0.399960
-0.399960 0.063327 0.499950
-0.499950 0.000000 0.499950
-0.399960 0.000000 0.499950
-0.499950 0.146652 0.499950
-0.399960 0.146652 0.499950
0.399960 0.063327 -0.499950
0.499950 0.000000 -0.499950
0.399960 0.000000 -0.499950
0.499950 0.146652 -0.499950
0.399960 0.146652 -0.499950
-0.399960 0.146652 -0.399960
-0.399960 0.063327 -0.499950
-0.399960 0.146652 -0.499950
-0.399960 0.063327 -0.399960
0.399960 0.063327 -0.399960
0.399960 0.146652 -0.499950
0.399960 0.063327 -0.499950
0.399960 0.146652 -0.399960
0.399960 0.063327 0.499950
0.399960 0.146652 0.399960
0.399960 0.063327 0.399960
0.399960 0.146652 0.499950
-0.399960 0.146652 0.499950
-0.399960 0.063327 0.399960
-0.399960 0.146652 0.399960
-0.399960 0.063327 0.499950
-0.499950 0.146652 -0.499950
-0.399960 0.000000 -0.499950
-0.499950 0.000000 -0.499950
-0.399960 0.063327 -0.499950
-0.399960 0.146652 -0.499950
-0.499950 0.146652 -0.499950
-0.399960 0.146652 -0.399960
-0.399960 0.146652 -0.499950
-0.399960 0.146652 0.399960
-0.399960 0.146652 0.499950
-0.499950 0.146652 0.499950
0.000000 1.165942 -0.399960
0.258224 0.993793 0.449960
0.258224 0.993793 -0.399960
0.000000 1.165942 0.449960
-0.258224 0.993793 -0.399960
-0.199980 0.996567 -0.399960
-0.241583 0.968832 -0.399960
0.000000 1.165942 -0.399960
0.000000 1.129887 -0.399960
0.199980 0.996567 -0.399960
0.258224 0.993793 -0.399960
0.241583 0.968832 -0.399960
-0.258224 0.993793 -0.399960
0.000000 1.165942 0.449960
0.000000 1.165942 -0.399960
-0.258224 0.993793 0.449960
-0.241583 0.968832 0.449960
-0.258224 0.993793 -0.399960
-0.241583 0.968832 -0.399960
-0.258224 0.993793 0.449960
0.258224 0.993793 0.449960
0.000000 1.129887 0.449960
0.241583 0.968832 0.449960
0.000000 1.165942 0.449960
-0.258224 0.993793 0.449960
-0.241583 0.968832 0.449960
-0.241583 0.968832 0.449960
0.000000 1.129887 0.399960
0.000000 1.129887 0.449960
-0.199980 0.996567 0.399960
-0.199980 0.996567 -0.399960
-0.241583 0.968832 -0.399960
0.258224 0.993793 0.449960
0.241583 0.968832 -0.399960
0.258224 0.993793 -0.399960
0.241583 0.968832 0.449960
0.241583 0.968832 0.449960
0.199980 0.996567 0.399960
0.241583 0.968832 -0.399960
0.000000 1.129887 0.449960
0.000000 1.129887 0.399960
0.199980 0.996567 -0.399960
0.399960 0.063327 0.499950
-0.399960 0.000000 0.499950
0.399960 0.000000 0.499950
-0.399960 0.063327 0.499950
-0.399960 0.063327 -0.499950
0.399960 0.000000 -0.499950
-0.399960 0.000000 -0.499950
0.399960 0.063327 -0.499950
-0.399960 0.063327 -0.499950
0.399960 0.063327 -0.399960
0.399960 0.063327 -0.499950
0.199980 0.063327 -0.399960
-0.199980 0.063327 -0.399960
0.199980 0.063327 0.399960
-0.399960 0.063327 -0.399960
-0.199980 0.063327 0.399960
-0.399960 0.063327 0.499950
0.399960 0.063327 0.499950
0.399960 0.063327 0.399960
-0.399960 0.063327 0.399960
0.399960 0.296637 0.399960
0.399960 0.146652 -0.399960
0.399960 0.296637 -0.399960
0.399960 0.146652 0.399960
-0.399960 0.146652 0.399960
-0.399960 0.296637 -0.399960
-0.399960 0.146652 -0.399960
-0.399960 0.296637 0.399960
-0.399960 0.146652 -0.399960
-0.199980 0.063327 -0.399960
-0.399960 0.063327 -0.399960
-0.186227 0.108247 -0.399960
-0.162531 0.148811 -0.399960
-0.399960 0.296637 -0.399960
-0.130158 0.182853 -0.399960
-0.090835 0.208557 -0.399960
-0.046663 0.224550 -0.399960
0.000000 0.229977 -0.399960
0.399960 0.296637 -0.399960
0.046663 0.224550 -0.399960
0.090835 0.208557 -0.399960
0.130158 0.182853 -0.399960
0.162531 0.148811 -0.399960
0.399960 0.146652 -0.399960
0.186227 0.108247 -0.399960
0.399960 0.063327 -0.399960
0.199980 0.063327 -0.399960
-0.199980 0.996567 -0.399960
0.199980 0.996567 -0.399960
0.000000 1.129887 -0.399960
0.399960 0.146652 0.399960
0.199980 0.063327 0.399960
0.399960 0.063327 0.399960
0.186227 0.108247 0.399960
0.162531 0.148811 0.399960
0.399960 0.296637 0.399960
0.130158 0.182853 0.399960
0.090835 0.208557 0.399960
0.046663 0.224550 0.399960
0.000000 0.229977 0.399960
-0.399960 0.296637 0.399960
-0.046663 0.224550 0.399960
-0.090835 0.208557 0.399960
-0.130158 0.182853 0.399960
-0.162531 0.148811 0.399960
-0.399960 0.146652 0.399960
-0.186227 0.108247 0.399960
-0.199980 0.063327 0.399960
-0.399960 0.063327 0.399960
0.199980 0.996567 0.399960
-0.199980 0.996567 0.399960
0.000000 1.129887 0.399960
-0.186227 0.108247 0.399960
-0.199980 0.063327 -0.399960
-0.186227 0.108247 -0.399960
-0.199980 0.063327 0.399960
-0.162531 0.148811 0.399960
-0.186227 0.108247 -0.399960
-0.162531 0.148811 -0.399960
-0.186227 0.108247 0.399960
-0.130158 0.182853 0.399960
-0.162531 0.148811 -0.399960
-0.130158 0.182853 -0.399960
-0.162531 0.148811 0.399960
-0.090835 0.208557 0.399960
-0.130158 0.182853 -0.399960
-0.090835 0.208557 -0.399960
-0.130158 0.182853 0.399960
-0.090835 0.208557 0.399960
-0.046663 0.224550 -0.399960
-0.046663 0.224550 0.399960
-0.090835 0.208557 -0.399960
0.000000 0.229977 0.399960
-0.046663 0.224550 -0.399960
0.000000 0.229977 -0.399960
-0.046663 0.224550 0.399960
0.046663 0.224550 0.399960
0.000000 0.229977 -0.399960
0.046663 0.224550 -0.399960
0.000000 0.229977 0.399960
0.090835 0.208557 0.399960
0.046663 0.224550 -0.399960
0.090835 0.208557 -0.399960
0.046663 0.224550 0.399960
0.130158 0.182853 0.399960
0.090835 0.208557 -0.399960
0.130158 0.182853 -0.399960
0.090835 0.208557 0.399960
0.162531 0.148811 0.399960
0.130158 0.182853 -0.399960
0.162531 0.148811 -0.399960
0.130158 0.182853 0.399960
0.186227 0.108247 -0.399960
0.162531 0.148811 0.399960
0.162531 0.148811 -0.399960
0.186227 0.108247 0.399960
0.199980 0.063327 0.399960
0.186227 0.108247 -0.399960
0.199980 0.063327 -0.399960
0.186227 0.108247 0.399960
-0.399960 0.296637 0.399960
-0.199980 0.996567 -0.399960
-0.399960 0.296637 -0.399960
-0.199980 0.996567 0.399960
0.199980 0.996567 0.399960
0.399960 0.296637 -0.399960
0.199980 0.996567 -0.399960
0.399960 0.296637 0.399960
3 0 1 2
3 1 0 3
3 3 0 4
3 5 6 7
3 6 5 8
3 6 8 9
3 9 8 10
3 9 10 11
3 11 10 12
3 13 14 15
3 14 13 16
3 17 18 19
3 18 17 20
3 21 22 23
3 22 21 24
3 22 24 25
3 25 24 26
3 27 28 29
3 28 27 30
3 30 27 31
3 32 33 34
3 33 32 35
3 35 32 36
3 37 38 39
3 38 37 40
3 41 42 43
3 42 41 44
3 45 46 47
3 46 45 48
3 49 50 51
3 50 49 52
3 53 54 55
3 54 53 56
3 56 53 57
3 58 59 60
3 59 58 61
3 61 58 62
3 62 58 63
3 64 65 66
3 65 64 67
3 68 69 70
3 69 68 71
3 69 71 72
3 71 73 72
3 74 73 71
3 73 74 75
3 76 77 78
3 77 76 79
3 80 81 82
3 81 80 83
3 84 85 86
3 85 84 87
3 88 85 87
3 85 88 89
3 90 91 92
3 91 90 93
3 93 90 94
3 94 90 95
3 96 97 98
3 97 96 99
3 100 101 102
3 101 100 103
3 101 103 104
3 105 102 101
3 106 107 108
3 107 106 109
3 110 111 112
3 111 110 113
3 114 115 116
3 115 114 117
3 117 114 118
3 117 118 119
3 118 114 120
3 121 119 118
3 122 119 121
3 123 119 122
3 119 123 124
3 122 121 125
3 126 127 128
3 127 126 129
3 130 131 132
3 131 130 133
3 134 135 136
3 135 134 137
3 137 134 138
3 138 134 139
3 138 139 140
3 140 139 141
3 141 139 142
3 142 139 143
3 144 143 139
3 144 145 143
3 144 146 145
3 144 147 146
3 144 148 147
3 149 148 144
3 149 150 148
3 151 150 149
3 150 151 152
3 153 144 139
3 144 153 154
3 154 153 155
3 156 157 158
3 157 156 159
3 159 156 160
3 160 156 161
3 160 161 162
3 162 161 163
3 163 161 164
3 164 161 165
3 166 165 161
3 166 167 165
3 166 168 167
3 166 169 168
3 166 170 169
3 171 170 166
3 171 172 170
3 171 173 172
3 173 171 174
3 175 166 161
3 166 175 176
3 176 175 177
3 178 179 180
3 179 178 181
3 182 183 184
3 183 182 185
3 186 187 188
3 187 186 189
3 190 191 192
3 191 190 193
3 194 195 196
3 195 194 197
3 198 199 200
3 199 198 201
3 202 203 204
3 203 202 205
3 206 207 208
3 207 206 209
3 210 211 212
3 211 210 213
3 214 215 216
3 215 214 217
3 218 219 220
3 219 218 221
3 222 223 224
3 223 222 225
3 226 227 228
3 227 226 229
3 230 231 232
3 231 230 233
